<svg width="270" height="126" viewBox="0 0 270 126" fill="none" xmlns="http://www.w3.org/2000/svg">
<rect x="161" y="20" width="89" height="36" rx="18" fill="white" stroke="#C4C4C4"/>
<path d="M188.112 42.952H188.82L189.144 40.3H191.412L191.088 42.952H191.808L192.132 40.3H194.232V39.532H192.228L192.516 37.072H194.544V36.292H192.588L192.9 33.916H192.192L191.88 36.292H189.624L189.924 33.916H189.216L188.904 36.292H186.804V37.072H188.82L188.52 39.532H186.492V40.3H188.436L188.112 42.952ZM189.228 39.532L189.54 37.072H191.796L191.508 39.532H189.228ZM198.6 40V40.804H206.352V40H198.6ZM199.128 37.348V38.164H205.884V37.348H199.128ZM197.412 42.82V43.636H207.636V42.82H197.412ZM201.984 37.684V43.276H202.932V37.684H201.984ZM199.284 33.256V34.096H202.872V33.256H199.284ZM201.96 33.256V33.772H202.248C203.472 35.5 205.512 37.216 207.468 38.14C207.6 37.9 207.9 37.528 208.08 37.348C206.172 36.544 204.096 34.924 202.968 33.256H201.96ZM202.128 33.256C201.024 34.816 198.768 36.628 196.944 37.492C197.148 37.684 197.388 37.996 197.508 38.224C199.344 37.228 201.6 35.344 202.788 33.712L202.128 33.256ZM216.564 39.652C217.404 40.204 218.424 41.02 218.904 41.584L219.6 41.092C219.096 40.54 218.064 39.748 217.224 39.232L216.564 39.652ZM216.132 41.968C217.14 42.472 218.436 43.252 219.06 43.78L219.756 43.216C219.084 42.688 217.776 41.956 216.792 41.476L216.132 41.968ZM212.004 41.476C211.284 42.136 210.12 42.772 209.052 43.192C209.256 43.324 209.592 43.636 209.736 43.804C210.78 43.324 212.016 42.568 212.832 41.8L212.004 41.476ZM214.032 32.908V37.18H214.932V32.908H214.032ZM209.748 33.808V34.492H219.324V33.808H209.748ZM210.42 35.26V35.956H218.616V35.26H210.42ZM209.148 36.736V37.456H219.888V36.736H209.148ZM209.88 41.392C209.88 41.224 210.468 41.068 210.468 41.068V41.032C212.76 40.432 215.136 39.556 217.38 38.344L216.744 37.768C214.788 38.908 212.1 39.916 211.32 40.168C210.6 40.42 210.072 40.564 209.664 40.6C209.748 40.828 209.856 41.212 209.88 41.392ZM209.88 41.392C210.312 41.248 210.96 41.212 218.34 40.804C218.28 40.648 218.22 40.372 218.196 40.168L210.444 40.552L209.88 40.84V41.392ZM210.804 39.484C210.804 39.304 211.344 39.112 211.344 39.112V39.088C212.388 38.764 213.444 38.284 214.428 37.672L213.792 37.168C212.928 37.804 211.752 38.32 211.404 38.464C211.08 38.596 210.816 38.68 210.564 38.716C210.66 38.92 210.768 39.316 210.804 39.484ZM210.804 39.484C211.08 39.376 211.512 39.34 215.436 39.124C215.46 38.98 215.532 38.704 215.592 38.512L211.26 38.716L210.804 38.956V39.484ZM214.236 40.576V42.916C214.236 43.048 214.188 43.096 213.996 43.096C213.804 43.108 213.156 43.108 212.424 43.084C212.556 43.324 212.712 43.66 212.76 43.924C213.648 43.924 214.236 43.912 214.62 43.78C215.016 43.648 215.112 43.408 215.112 42.94V40.576H214.236Z" fill="black"/>
<rect x="161" y="70" width="89" height="36" rx="18" fill="#96DB5F" stroke="#96DB5F"/>
<path d="M188.004 92.94H188.868L189.18 90.384H191.328L191.016 92.94H191.88L192.192 90.384H194.28V89.46H192.3L192.576 87.144H194.592V86.208H192.672L192.96 83.928H192.12L191.82 86.208H189.672L189.96 83.928H189.108L188.808 86.208H186.744V87.144H188.712L188.424 89.46H186.432V90.384H188.316L188.004 92.94ZM189.276 89.46L189.564 87.144H191.712L191.436 89.46H189.276ZM198.6 89.916V90.912H206.364V89.916H198.6ZM199.152 87.264V88.272H205.836V87.264H199.152ZM197.412 92.688V93.708H207.648V92.688H197.412ZM201.864 87.696V93.252H203.052V87.696H201.864ZM199.212 83.22V84.276H202.992V83.22H199.212ZM201.84 83.22V83.856H202.164C203.376 85.536 205.38 87.252 207.396 88.2C207.564 87.888 207.936 87.42 208.164 87.18C206.196 86.4 204.18 84.828 203.1 83.22H201.84ZM202.032 83.22C200.94 84.756 198.72 86.508 196.86 87.336C197.124 87.576 197.412 87.972 197.568 88.248C199.44 87.276 201.672 85.44 202.86 83.796L202.032 83.22ZM216.588 89.7C217.404 90.264 218.412 91.092 218.88 91.656L219.768 91.068C219.264 90.504 218.232 89.712 217.428 89.184L216.588 89.7ZM216.072 92.064C217.068 92.568 218.352 93.348 218.964 93.864L219.852 93.18C219.168 92.664 217.86 91.932 216.9 91.464L216.072 92.064ZM211.872 91.476C211.176 92.112 210.024 92.7 208.956 93.096C209.208 93.264 209.628 93.66 209.82 93.864C210.852 93.408 212.1 92.652 212.916 91.884L211.872 91.476ZM213.9 82.86V87.144H215.04V82.86H213.9ZM209.676 83.652V84.492H219.384V83.652H209.676ZM210.324 85.128V85.968H218.712V85.128H210.324ZM209.076 86.604V87.492H219.96V86.604H209.076ZM209.868 91.5C209.868 91.32 210.528 91.116 210.528 91.116V91.068C212.904 90.48 215.4 89.604 217.692 88.392L216.9 87.696C214.944 88.824 212.124 89.856 211.32 90.108C210.564 90.36 210.048 90.504 209.604 90.54C209.7 90.816 209.832 91.296 209.868 91.5ZM209.868 91.5C210.348 91.344 211.056 91.296 218.364 90.9C218.304 90.72 218.244 90.372 218.22 90.132L210.516 90.492L209.856 90.828L209.868 91.5ZM210.732 89.532C210.732 89.34 211.356 89.1 211.356 89.1V89.076C212.436 88.764 213.54 88.296 214.524 87.72L213.756 87.084C212.88 87.708 211.68 88.212 211.32 88.356C210.984 88.488 210.708 88.572 210.444 88.608C210.552 88.86 210.696 89.34 210.732 89.532ZM210.732 89.532C211.044 89.424 211.524 89.376 215.616 89.16C215.64 88.98 215.712 88.656 215.772 88.428L211.248 88.632L210.732 88.908V89.532ZM214.152 90.552V92.772C214.152 92.904 214.104 92.952 213.9 92.952C213.708 92.964 213.024 92.964 212.328 92.94C212.496 93.228 212.688 93.66 212.748 93.984C213.636 93.984 214.248 93.972 214.692 93.816C215.136 93.648 215.256 93.348 215.256 92.808V90.552H214.152Z" fill="white"/>
<rect x="141.5" y="0.5" width="128" height="125" rx="4.5" stroke="#7B61FF" stroke-dasharray="10 5"/>
<rect x="20" y="20" width="89" height="36" rx="18" fill="white" stroke="#C4C4C4"/>
<path d="M38.612 42.952H39.32L39.644 40.3H41.912L41.588 42.952H42.308L42.632 40.3H44.732V39.532H42.728L43.016 37.072H45.044V36.292H43.088L43.4 33.916H42.692L42.38 36.292H40.124L40.424 33.916H39.716L39.404 36.292H37.304V37.072H39.32L39.02 39.532H36.992V40.3H38.936L38.612 42.952ZM39.728 39.532L40.04 37.072H42.296L42.008 39.532H39.728ZM51.008 35.356V36.16H54.14V35.356H51.008ZM55.424 41.704V42.52H57.716V41.704H55.424ZM55.124 34.324V43.528H55.868V35.14H57.356V43.432H58.136V34.324H55.124ZM53.864 35.356V35.548C53.72 40.648 53.576 42.388 53.3 42.772C53.192 42.928 53.108 42.952 52.952 42.952C52.772 42.952 52.424 42.952 52.028 42.916C52.148 43.144 52.232 43.492 52.232 43.732C52.64 43.768 53.036 43.756 53.3 43.732C53.6 43.684 53.804 43.588 53.996 43.288C54.368 42.784 54.488 41.092 54.644 35.776C54.644 35.656 54.644 35.356 54.644 35.356H53.864ZM52.052 32.968C52.04 37.648 52.064 41.404 50.048 43.432C50.252 43.552 50.54 43.816 50.672 44.008C52.808 41.8 52.808 37.864 52.832 32.968H52.052ZM48.344 33.808V34.552H49.856V40.192H48.344V40.948H50.576V33.808H48.344ZM47.9 33.808V42.124H48.632V33.808H47.9ZM67.388 33.004V43.96H68.264V33.004H67.388ZM63.38 34.96V35.788H65.864V34.96H63.38ZM67.82 34.96V35.788H70.424V34.96H67.82ZM67.856 37.456V38.272H70.316V37.456H67.856ZM67.82 39.976V40.816H70.544V39.976H67.82ZM63.464 37.456V38.272H65.756V37.456H63.464ZM62.876 40.504L63.236 41.332C64.004 41.068 64.904 40.744 65.816 40.42L65.684 39.736C64.652 40.024 63.608 40.336 62.876 40.504ZM65.36 33.028V38.392C65.36 40.312 65.096 42.232 63.08 43.456C63.296 43.588 63.62 43.876 63.764 44.044C65.9 42.7 66.224 40.612 66.224 38.392V33.028H65.36ZM60.344 33.964V34.792H62.252V39.58H60.344V40.408H63.044V33.964H60.344ZM59.888 33.964V41.464H60.668V33.964H59.888ZM76.412 33.52V34.288H82.388V33.52H76.412ZM76.64 39.76V40.528H82.16V39.76H76.64ZM75.968 42.88V43.66H82.532V42.88H75.968ZM78.848 40.132V43.456H79.748V40.132H78.848ZM77.372 34.696C77.132 35.272 76.652 36.196 76.208 36.928C76.784 37.78 77.288 38.728 77.528 39.364L78.26 39.064C78.032 38.5 77.528 37.648 77.036 36.916C77.408 36.292 77.84 35.512 78.14 34.888L77.372 34.696ZM79.34 34.696C79.088 35.272 78.596 36.184 78.128 36.928C78.74 37.768 79.292 38.716 79.532 39.352L80.276 39.028C80.012 38.476 79.484 37.624 78.968 36.916C79.34 36.292 79.796 35.512 80.096 34.888L79.34 34.696ZM81.38 34.696C81.116 35.272 80.588 36.196 80.096 36.928C80.744 37.78 81.344 38.728 81.62 39.364L82.34 39.052C82.076 38.488 81.512 37.624 80.972 36.916C81.356 36.292 81.836 35.536 82.16 34.888L81.38 34.696ZM71.612 34.228V35.032H76.112V34.228H71.612ZM71.456 41.068V41.872H76.208V41.068H71.456ZM73.484 32.932V36.208H74.24V32.932H73.484ZM73.556 36.256V39.748H73.484V43.984H74.252V39.748H74.192V36.256H73.556ZM72.512 38.32H75.248V39.424H72.512V38.32ZM72.512 36.592H75.248V37.672H72.512V36.592ZM71.84 35.92V40.096H75.956V35.92H71.84ZM86.12 38.02V38.656H91.856V38.02H86.12ZM93.008 40.036C92.324 40.6 91.124 41.368 90.26 41.812L90.836 42.316C91.724 41.86 92.828 41.2 93.692 40.552L93.008 40.036ZM86.072 36.472V37.156H91.496V39.52H86.072V40.216H92.396V36.472H86.072ZM89.276 33.328L88.568 33.7C89.852 35.092 92.12 36.412 94.016 37.036C94.148 36.808 94.424 36.448 94.628 36.256C92.696 35.728 90.44 34.54 89.276 33.328ZM88.88 32.848C87.788 34.384 85.628 35.644 83.504 36.28C83.72 36.484 83.96 36.808 84.08 37.036C86.3 36.268 88.436 34.936 89.696 33.244L88.88 32.848ZM85.52 43.876C85.52 43.564 86.444 42.976 86.444 42.976V36.472H85.568V42.316C85.568 42.82 85.292 43.072 85.1 43.192C85.244 43.348 85.448 43.684 85.52 43.876ZM85.52 43.876C85.784 43.732 86.228 43.636 89.408 43.024C89.396 42.844 89.396 42.496 89.42 42.268L85.976 42.856L85.484 43.168L85.52 43.876ZM88.316 41.152C89.864 41.968 91.856 43.18 92.852 43.924L93.488 43.312C92.444 42.556 90.428 41.404 88.916 40.636L88.316 41.152ZM87.356 35.308V35.956H90.728V35.308H87.356Z" fill="black"/>
<rect x="20" y="70" width="89" height="36" rx="18" fill="#FACA0F" stroke="#FACA0F"/>
<path d="M38.504 92.94H39.368L39.68 90.384H41.828L41.516 92.94H42.38L42.692 90.384H44.78V89.46H42.8L43.076 87.144H45.092V86.208H43.172L43.46 83.928H42.62L42.32 86.208H40.172L40.46 83.928H39.608L39.308 86.208H37.244V87.144H39.212L38.924 89.46H36.932V90.384H38.816L38.504 92.94ZM39.776 89.46L40.064 87.144H42.212L41.936 89.46H39.776ZM50.972 85.26V86.268H54.08V85.26H50.972ZM55.472 91.584V92.592H57.668V91.584H55.472ZM55.1 84.252V93.564H56.024V85.272H57.248V93.468H58.208V84.252H55.1ZM53.72 85.26V85.5C53.588 90.552 53.456 92.256 53.192 92.64C53.084 92.796 53 92.832 52.844 92.832C52.664 92.832 52.352 92.832 51.98 92.796C52.136 93.084 52.232 93.516 52.244 93.816C52.664 93.84 53.06 93.828 53.336 93.792C53.648 93.732 53.864 93.624 54.068 93.3C54.428 92.784 54.548 91.032 54.692 85.764C54.704 85.62 54.704 85.26 54.704 85.26H53.72ZM51.872 82.92C51.86 87.696 51.92 91.308 50 93.336C50.252 93.492 50.6 93.828 50.756 94.068C52.832 91.836 52.832 87.96 52.856 82.92H51.872ZM48.368 83.724V84.648H49.712V90.144H48.368V91.068H50.6V83.724H48.368ZM47.828 83.724V92.184H48.716V83.724H47.828ZM67.328 82.956V94.008H68.444V82.956H67.328ZM63.38 84.828V85.86H65.876V84.828H63.38ZM67.868 84.828V85.86H70.472V84.828H67.868ZM67.928 87.312V88.332H70.364V87.312H67.928ZM67.868 89.808V90.84H70.604V89.808H67.868ZM63.464 87.312V88.332H65.732V87.312H63.464ZM62.852 90.348L63.296 91.392C64.064 91.116 64.964 90.78 65.852 90.432L65.696 89.568C64.64 89.868 63.584 90.18 62.852 90.348ZM65.24 82.98V88.404C65.24 90.24 65 92.184 63.08 93.36C63.344 93.528 63.74 93.888 63.92 94.104C66.008 92.784 66.344 90.624 66.344 88.404V82.98H65.24ZM60.416 83.88V84.912H62.096V89.46H60.416V90.504H63.068V83.88H60.416ZM59.84 83.88V91.536H60.8V83.88H59.84ZM76.412 83.424V84.384H82.424V83.424H76.412ZM76.664 89.676V90.636H82.208V89.676H76.664ZM76.04 92.748V93.72H82.592V92.748H76.04ZM78.776 90.132V93.48H79.916V90.132H78.776ZM77.3 84.696C77.06 85.284 76.604 86.208 76.184 86.94C76.736 87.792 77.228 88.74 77.468 89.376L78.368 89.016C78.14 88.476 77.66 87.636 77.18 86.928C77.54 86.316 77.936 85.56 78.236 84.912L77.3 84.696ZM79.244 84.696C79.004 85.284 78.536 86.196 78.08 86.928C78.68 87.78 79.22 88.716 79.46 89.352L80.36 88.98C80.108 88.44 79.604 87.612 79.1 86.916C79.46 86.304 79.88 85.56 80.18 84.912L79.244 84.696ZM81.284 84.696C81.02 85.284 80.516 86.208 80.036 86.94C80.672 87.792 81.26 88.74 81.536 89.376L82.424 89.004C82.16 88.452 81.62 87.624 81.08 86.928C81.464 86.316 81.908 85.584 82.244 84.924L81.284 84.696ZM71.564 84.12V85.104H76.1V84.12H71.564ZM71.396 91.008V92.004H76.22V91.008H71.396ZM73.352 82.884V86.256H74.3V82.884H73.352ZM73.46 86.292V89.712H73.364V94.02H74.312V89.712H74.216V86.292H73.46ZM72.584 88.392H75.104V89.328H72.584V88.392ZM72.584 86.7H75.104V87.612H72.584V86.7ZM71.78 85.884V90.144H75.956V85.884H71.78ZM86.204 88.008V88.776H91.748V88.008H86.204ZM93.008 90.072C92.324 90.636 91.148 91.38 90.296 91.812L90.992 92.436C91.868 92.004 92.972 91.368 93.848 90.732L93.008 90.072ZM86.168 86.472V87.3H91.316V89.484H86.168V90.324H92.456V86.472H86.168ZM89.324 83.304L88.448 83.772C89.768 85.128 92.024 86.4 93.944 87.024C94.1 86.736 94.436 86.292 94.688 86.052C92.744 85.548 90.488 84.444 89.324 83.304ZM88.808 82.764C87.716 84.264 85.544 85.464 83.456 86.076C83.72 86.34 84.02 86.736 84.164 87.012C86.384 86.244 88.508 84.948 89.828 83.268L88.808 82.764ZM85.496 93.948C85.496 93.564 86.612 92.88 86.612 92.88V86.472H85.496V92.172C85.496 92.688 85.208 92.976 84.992 93.108C85.16 93.288 85.412 93.708 85.496 93.948ZM85.496 93.948C85.796 93.792 86.288 93.696 89.48 93.156C89.468 92.928 89.468 92.496 89.504 92.208L86.024 92.712L85.448 93.072L85.496 93.948ZM88.316 91.248C89.852 92.028 91.844 93.228 92.816 93.972L93.62 93.204C92.576 92.448 90.548 91.32 89.06 90.6L88.316 91.248ZM87.368 85.26V86.04H90.68V85.26H87.368Z" fill="white"/>
<rect x="0.5" y="0.5" width="128" height="125" rx="4.5" stroke="#7B61FF" stroke-dasharray="10 5"/>
</svg>
