<svg width="373" height="122" viewBox="0 0 373 122" fill="none" xmlns="http://www.w3.org/2000/svg">
<rect x="4" width="85" height="85" rx="42.5" fill="#FACA0F"/>
<rect x="288" width="85" height="85" rx="42.5" fill="#BFBFBF"/>
<rect x="145" width="85" height="85" rx="42.5" fill="#96DB5F"/>
<path d="M169.379 110.168C171.071 110.168 172.631 108.848 172.631 105.404C172.631 102.656 171.371 101.3 169.679 101.3C168.311 101.3 167.159 102.404 167.159 104.036C167.159 105.788 168.107 106.676 169.595 106.676C170.315 106.676 171.119 106.232 171.671 105.512L171.611 104.636C171.035 105.524 170.339 105.86 169.775 105.86C168.719 105.86 168.191 105.152 168.191 104.036C168.191 102.896 168.839 102.152 169.679 102.152C170.915 102.152 171.599 103.292 171.599 105.404C171.599 108.284 170.567 109.256 169.331 109.256C168.803 109.256 168.275 109.004 167.927 108.572L167.315 109.268C167.783 109.784 168.455 110.168 169.379 110.168ZM176.887 110.168C178.243 110.168 179.407 109.064 179.407 107.42C179.407 105.668 178.435 104.78 176.959 104.78C176.239 104.78 175.447 105.224 174.895 105.944L174.931 106.82C175.531 105.932 176.227 105.596 176.779 105.596C177.847 105.596 178.375 106.304 178.375 107.42C178.375 108.548 177.727 109.304 176.875 109.304C175.639 109.304 174.967 108.164 174.967 106.052C174.967 103.172 175.999 102.212 177.223 102.212C177.763 102.212 178.291 102.464 178.639 102.872L179.239 102.188C178.771 101.684 178.099 101.3 177.187 101.3C175.483 101.3 173.923 102.608 173.923 106.052C173.923 108.8 175.195 110.168 176.887 110.168ZM181.143 110H183.399C186.051 110 187.491 108.368 187.491 105.572C187.491 102.776 186.051 101.204 183.339 101.204H181.143V110ZM182.259 109.088V102.116H183.255C185.319 102.116 186.351 103.34 186.351 105.572C186.351 107.804 185.319 109.088 183.255 109.088H182.259ZM189.405 110H192.213C194.169 110 195.537 109.148 195.537 107.432C195.537 106.232 194.805 105.524 193.749 105.32V105.272C194.577 104.996 195.033 104.228 195.033 103.364C195.033 101.816 193.797 101.204 192.009 101.204H189.405V110ZM190.521 104.948V102.08H191.877C193.245 102.08 193.941 102.464 193.941 103.496C193.941 104.396 193.329 104.948 191.817 104.948H190.521ZM190.521 109.124V105.8H192.057C193.593 105.8 194.457 106.304 194.457 107.396C194.457 108.584 193.557 109.124 192.057 109.124H190.521ZM199.224 110.168C200.7 110.168 202.104 109.124 202.104 107.264C202.104 105.416 200.916 104.588 199.452 104.588C198.924 104.588 198.528 104.72 198.132 104.936L198.36 102.392H201.684V101.456H197.4L197.124 105.572L197.712 105.944C198.216 105.608 198.588 105.416 199.176 105.416C200.268 105.416 200.988 106.124 200.988 107.3C200.988 108.5 200.16 109.256 199.116 109.256C198.108 109.256 197.46 108.788 196.968 108.272L196.416 108.992C197.016 109.592 197.856 110.168 199.224 110.168ZM203.948 110H205.064V106.052H208.412V105.128H205.064V102.14H209.012V101.204H203.948V110Z" fill="black"/>
<path d="M308.438 110H311.246C313.202 110 314.57 109.148 314.57 107.432C314.57 106.232 313.838 105.524 312.782 105.32V105.272C313.61 104.996 314.066 104.228 314.066 103.364C314.066 101.816 312.83 101.204 311.042 101.204H308.438V110ZM309.554 104.948V102.08H310.91C312.278 102.08 312.974 102.464 312.974 103.496C312.974 104.396 312.362 104.948 310.85 104.948H309.554ZM309.554 109.124V105.8H311.09C312.626 105.8 313.49 106.304 313.49 107.396C313.49 108.584 312.59 109.124 311.09 109.124H309.554ZM316.325 110H317.441V106.052H320.789V105.128H317.441V102.14H321.389V101.204H316.325V110ZM322.946 110H325.754C327.71 110 329.078 109.148 329.078 107.432C329.078 106.232 328.346 105.524 327.29 105.32V105.272C328.118 104.996 328.574 104.228 328.574 103.364C328.574 101.816 327.338 101.204 325.55 101.204H322.946V110ZM324.062 104.948V102.08H325.418C326.786 102.08 327.482 102.464 327.482 103.496C327.482 104.396 326.87 104.948 325.358 104.948H324.062ZM324.062 109.124V105.8H325.598C327.134 105.8 327.998 106.304 327.998 107.396C327.998 108.584 327.098 109.124 325.598 109.124H324.062ZM330.833 110H331.949V106.052H335.297V105.128H331.949V102.14H335.897V101.204H330.833V110ZM337.454 110H340.262C342.218 110 343.586 109.148 343.586 107.432C343.586 106.232 342.854 105.524 341.798 105.32V105.272C342.626 104.996 343.082 104.228 343.082 103.364C343.082 101.816 341.846 101.204 340.058 101.204H337.454V110ZM338.57 104.948V102.08H339.926C341.294 102.08 341.99 102.464 341.99 103.496C341.99 104.396 341.378 104.948 339.866 104.948H338.57ZM338.57 109.124V105.8H340.106C341.642 105.8 342.506 106.304 342.506 107.396C342.506 108.584 341.606 109.124 340.106 109.124H338.57ZM345.341 110H346.457V106.052H349.805V105.128H346.457V102.14H350.405V101.204H345.341V110Z" fill="black"/>
<path d="M26.9754 109H28.0914V105.052H31.4394V104.128H28.0914V101.14H32.0394V100.204H26.9754V109ZM31.8934 109H33.0214L34.5694 104.08C34.8934 103.096 35.1694 102.136 35.4574 101.116H35.5054C35.7934 102.136 36.0694 103.096 36.3814 104.08L37.9294 109H39.0934L36.1174 100.204H34.8694L31.8934 109ZM33.4534 106.312H37.5094V105.436H33.4534V106.312ZM43.5181 109.168C44.6581 109.168 45.5101 108.712 46.2061 107.896L45.6061 107.2C45.0421 107.824 44.3941 108.184 43.5661 108.184C41.8861 108.184 40.8301 106.804 40.8301 104.584C40.8301 102.388 41.9341 101.02 43.6021 101.02C44.3461 101.02 44.9341 101.356 45.3901 101.848L46.0021 101.128C45.4861 100.564 44.6581 100.048 43.5901 100.048C41.3581 100.048 39.6901 101.776 39.6901 104.608C39.6901 107.464 41.3221 109.168 43.5181 109.168ZM46.6825 109H47.8105L49.3585 104.08C49.6825 103.096 49.9585 102.136 50.2465 101.116H50.2945C50.5825 102.136 50.8585 103.096 51.1705 104.08L52.7185 109H53.8825L50.9065 100.204H49.6585L46.6825 109ZM48.2425 106.312H52.2985V105.436H48.2425V106.312ZM57.2833 109.168C58.9753 109.168 60.0073 107.572 60.0073 104.704C60.0073 101.836 58.9753 100.3 57.2833 100.3C55.5673 100.3 54.5353 101.836 54.5353 104.704C54.5353 107.572 55.5673 109.168 57.2833 109.168ZM57.2833 108.28C56.2753 108.28 55.5913 107.212 55.5913 104.704C55.5913 102.184 56.2753 101.176 57.2833 101.176C58.2793 101.176 58.9513 102.184 58.9513 104.704C58.9513 107.212 58.2793 108.28 57.2833 108.28ZM61.8035 109H62.9195V105.052H66.2675V104.128H62.9195V101.14H66.8675V100.204H61.8035V109Z" fill="black"/>
</svg>
