<svg width="268" height="237" viewBox="0 0 268 237" fill="none" xmlns="http://www.w3.org/2000/svg">
<g filter="url(#filter0_d_1107_9543)">
<mask id="mask0_1107_9543" style="mask-type:alpha" maskUnits="userSpaceOnUse" x="144" y="43" width="104" height="174">
<path fill-rule="evenodd" clip-rule="evenodd" d="M144 43.5586V201C144 209.837 151.163 217 160 217H232C240.837 217 248 209.837 248 201V43.7749C245.598 50.1362 239.452 54.6602 232.25 54.6602H159.83C152.546 54.6602 146.343 50.0334 144 43.5586Z" fill="white"/>
</mask>
<g mask="url(#mask0_1107_9543)">
<path fill-rule="evenodd" clip-rule="evenodd" d="M144 43.5586V201C144 209.837 151.163 217 160 217H232C240.837 217 248 209.837 248 201V43.7749C245.598 50.1362 239.452 54.6602 232.25 54.6602H159.83C152.546 54.6602 146.343 50.0334 144 43.5586Z" fill="#FAFAFA"/>
<path d="M144 197H239" stroke="#9E9C9C" stroke-width="0.5"/>
<path d="M176.154 77H180.978V76.088H179.202V68.204H178.362C177.894 68.492 177.33 68.696 176.538 68.828V69.536H178.11V76.088H176.154V77ZM185.87 77.168C187.442 77.168 188.702 76.22 188.702 74.66C188.702 73.448 187.862 72.668 186.83 72.416V72.368C187.766 72.032 188.39 71.324 188.39 70.256C188.39 68.852 187.31 68.048 185.834 68.048C184.826 68.048 184.046 68.492 183.386 69.092L183.974 69.8C184.466 69.296 185.09 68.936 185.798 68.936C186.71 68.936 187.274 69.488 187.274 70.328C187.274 71.288 186.662 72.008 184.85 72.008V72.86C186.878 72.86 187.586 73.556 187.586 74.612C187.586 75.62 186.842 76.256 185.798 76.256C184.79 76.256 184.13 75.776 183.614 75.236L183.062 75.956C183.638 76.592 184.49 77.168 185.87 77.168ZM191.986 72.32C192.43 72.32 192.79 71.984 192.79 71.492C192.79 70.988 192.43 70.652 191.986 70.652C191.554 70.652 191.206 70.988 191.206 71.492C191.206 71.984 191.554 72.32 191.986 72.32ZM191.986 77.168C192.43 77.168 192.79 76.82 192.79 76.328C192.79 75.824 192.43 75.488 191.986 75.488C191.554 75.488 191.206 75.824 191.206 76.328C191.206 76.82 191.554 77.168 191.986 77.168ZM197.966 77.168C199.622 77.168 200.69 75.644 200.69 72.572C200.69 69.524 199.622 68.048 197.966 68.048C196.286 68.048 195.218 69.524 195.218 72.572C195.218 75.644 196.286 77.168 197.966 77.168ZM197.966 76.28C196.958 76.28 196.274 75.164 196.274 72.572C196.274 70.016 196.958 68.924 197.966 68.924C198.962 68.924 199.634 70.016 199.634 72.572C199.634 75.164 198.962 76.28 197.966 76.28ZM205.582 77.168C207.238 77.168 208.306 75.644 208.306 72.572C208.306 69.524 207.238 68.048 205.582 68.048C203.902 68.048 202.834 69.524 202.834 72.572C202.834 75.644 203.902 77.168 205.582 77.168ZM205.582 76.28C204.574 76.28 203.89 75.164 203.89 72.572C203.89 70.016 204.574 68.924 205.582 68.924C206.578 68.924 207.25 70.016 207.25 72.572C207.25 75.164 206.578 76.28 205.582 76.28Z" fill="#595656"/>
<path d="M176.154 113H180.978V112.088H179.202V104.204H178.362C177.894 104.492 177.33 104.696 176.538 104.828V105.536H178.11V112.088H176.154V113ZM186.782 113H187.814V104.204H186.602L182.942 109.856V110.576H188.99V109.712H184.094L186.098 106.712C186.338 106.28 186.578 105.836 186.794 105.404H186.854C186.818 105.86 186.782 106.568 186.782 107.012V113ZM191.986 108.32C192.43 108.32 192.79 107.984 192.79 107.492C192.79 106.988 192.43 106.652 191.986 106.652C191.554 106.652 191.206 106.988 191.206 107.492C191.206 107.984 191.554 108.32 191.986 108.32ZM191.986 113.168C192.43 113.168 192.79 112.82 192.79 112.328C192.79 111.824 192.43 111.488 191.986 111.488C191.554 111.488 191.206 111.824 191.206 112.328C191.206 112.82 191.554 113.168 191.986 113.168ZM197.966 113.168C199.622 113.168 200.69 111.644 200.69 108.572C200.69 105.524 199.622 104.048 197.966 104.048C196.286 104.048 195.218 105.524 195.218 108.572C195.218 111.644 196.286 113.168 197.966 113.168ZM197.966 112.28C196.958 112.28 196.274 111.164 196.274 108.572C196.274 106.016 196.958 104.924 197.966 104.924C198.962 104.924 199.634 106.016 199.634 108.572C199.634 111.164 198.962 112.28 197.966 112.28ZM205.582 113.168C207.238 113.168 208.306 111.644 208.306 108.572C208.306 105.524 207.238 104.048 205.582 104.048C203.902 104.048 202.834 105.524 202.834 108.572C202.834 111.644 203.902 113.168 205.582 113.168ZM205.582 112.28C204.574 112.28 203.89 111.164 203.89 108.572C203.89 106.016 204.574 104.924 205.582 104.924C206.578 104.924 207.25 106.016 207.25 108.572C207.25 111.164 206.578 112.28 205.582 112.28Z" fill="#595656"/>
<path d="M174.945 149H180.297V147.572H178.629V140.12H177.321C176.745 140.468 176.145 140.696 175.245 140.864V141.956H176.865V147.572H174.945V149ZM185.323 149.168C186.955 149.168 188.431 148.028 188.431 146.06C188.431 144.116 187.183 143.24 185.695 143.24C185.287 143.24 184.975 143.324 184.627 143.48L184.795 141.596H188.023V140.12H183.271L183.019 144.428L183.835 144.956C184.351 144.62 184.639 144.488 185.167 144.488C186.055 144.488 186.655 145.064 186.655 146.096C186.655 147.152 186.019 147.74 185.083 147.74C184.267 147.74 183.631 147.332 183.139 146.84L182.311 147.956C182.983 148.616 183.919 149.168 185.323 149.168ZM191.993 144.62C192.617 144.62 193.097 144.128 193.097 143.468C193.097 142.82 192.617 142.328 191.993 142.328C191.357 142.328 190.901 142.82 190.901 143.468C190.901 144.128 191.357 144.62 191.993 144.62ZM191.993 149.168C192.617 149.168 193.097 148.676 193.097 148.016C193.097 147.356 192.617 146.876 191.993 146.876C191.357 146.876 190.901 147.356 190.901 148.016C190.901 148.676 191.357 149.168 191.993 149.168ZM198.451 149.168C200.251 149.168 201.451 147.596 201.451 144.524C201.451 141.464 200.251 139.964 198.451 139.964C196.639 139.964 195.439 141.464 195.439 144.524C195.439 147.596 196.639 149.168 198.451 149.168ZM198.451 147.788C197.683 147.788 197.107 147.02 197.107 144.524C197.107 142.04 197.683 141.32 198.451 141.32C199.219 141.32 199.783 142.04 199.783 144.524C199.783 147.02 199.219 147.788 198.451 147.788ZM206.489 149.168C208.289 149.168 209.489 147.596 209.489 144.524C209.489 141.464 208.289 139.964 206.489 139.964C204.677 139.964 203.477 141.464 203.477 144.524C203.477 147.596 204.677 149.168 206.489 149.168ZM206.489 147.788C205.721 147.788 205.145 147.02 205.145 144.524C205.145 142.04 205.721 141.32 206.489 141.32C207.257 141.32 207.821 142.04 207.821 144.524C207.821 147.02 207.257 147.788 206.489 147.788Z" fill="#FACA0F"/>
<path d="M176.154 185H180.978V184.088H179.202V176.204H178.362C177.894 176.492 177.33 176.696 176.538 176.828V177.536H178.11V184.088H176.154V185ZM186.326 185.168C187.682 185.168 188.846 184.016 188.846 182.312C188.846 180.464 187.886 179.552 186.398 179.552C185.69 179.552 184.874 179.984 184.334 180.692L184.37 181.568C184.958 180.692 185.666 180.356 186.23 180.356C187.286 180.356 187.814 181.112 187.814 182.312C187.814 183.5 187.166 184.304 186.326 184.304C185.09 184.304 184.406 183.068 184.406 180.812C184.406 177.932 185.438 176.96 186.674 176.96C187.202 176.96 187.742 177.212 188.078 177.62L188.69 176.948C188.21 176.432 187.538 176.048 186.626 176.048C184.922 176.048 183.374 177.368 183.374 180.812C183.374 183.716 184.634 185.168 186.326 185.168ZM191.986 180.32C192.43 180.32 192.79 179.984 192.79 179.492C192.79 178.988 192.43 178.652 191.986 178.652C191.554 178.652 191.206 178.988 191.206 179.492C191.206 179.984 191.554 180.32 191.986 180.32ZM191.986 185.168C192.43 185.168 192.79 184.82 192.79 184.328C192.79 183.824 192.43 183.488 191.986 183.488C191.554 183.488 191.206 183.824 191.206 184.328C191.206 184.82 191.554 185.168 191.986 185.168ZM197.966 185.168C199.622 185.168 200.69 183.644 200.69 180.572C200.69 177.524 199.622 176.048 197.966 176.048C196.286 176.048 195.218 177.524 195.218 180.572C195.218 183.644 196.286 185.168 197.966 185.168ZM197.966 184.28C196.958 184.28 196.274 183.164 196.274 180.572C196.274 178.016 196.958 176.924 197.966 176.924C198.962 176.924 199.634 178.016 199.634 180.572C199.634 183.164 198.962 184.28 197.966 184.28ZM205.582 185.168C207.238 185.168 208.306 183.644 208.306 180.572C208.306 177.524 207.238 176.048 205.582 176.048C203.902 176.048 202.834 177.524 202.834 180.572C202.834 183.644 203.902 185.168 205.582 185.168ZM205.582 184.28C204.574 184.28 203.89 183.164 203.89 180.572C203.89 178.016 204.574 176.924 205.582 176.924C206.578 176.924 207.25 178.016 207.25 180.572C207.25 183.164 206.578 184.28 205.582 184.28Z" fill="#595656"/>
<path d="M176.154 221H180.978V220.088H179.202V212.204H178.362C177.894 212.492 177.33 212.696 176.538 212.828V213.536H178.11V220.088H176.154V221ZM185.078 221H186.218C186.362 217.568 186.734 215.516 188.798 212.864V212.204H183.302V213.14H187.562C185.834 215.54 185.234 217.676 185.078 221ZM191.986 216.32C192.43 216.32 192.79 215.984 192.79 215.492C192.79 214.988 192.43 214.652 191.986 214.652C191.554 214.652 191.206 214.988 191.206 215.492C191.206 215.984 191.554 216.32 191.986 216.32ZM191.986 221.168C192.43 221.168 192.79 220.82 192.79 220.328C192.79 219.824 192.43 219.488 191.986 219.488C191.554 219.488 191.206 219.824 191.206 220.328C191.206 220.82 191.554 221.168 191.986 221.168ZM197.966 221.168C199.622 221.168 200.69 219.644 200.69 216.572C200.69 213.524 199.622 212.048 197.966 212.048C196.286 212.048 195.218 213.524 195.218 216.572C195.218 219.644 196.286 221.168 197.966 221.168ZM197.966 220.28C196.958 220.28 196.274 219.164 196.274 216.572C196.274 214.016 196.958 212.924 197.966 212.924C198.962 212.924 199.634 214.016 199.634 216.572C199.634 219.164 198.962 220.28 197.966 220.28ZM205.582 221.168C207.238 221.168 208.306 219.644 208.306 216.572C208.306 213.524 207.238 212.048 205.582 212.048C203.902 212.048 202.834 213.524 202.834 216.572C202.834 219.644 203.902 221.168 205.582 221.168ZM205.582 220.28C204.574 220.28 203.89 219.164 203.89 216.572C203.89 214.016 204.574 212.924 205.582 212.924C206.578 212.924 207.25 214.016 207.25 216.572C207.25 219.164 206.578 220.28 205.582 220.28Z" fill="#595656"/>
<path d="M144 89H239" stroke="#9E9C9C" stroke-width="0.5"/>
<path d="M144 125H239" stroke="#9E9C9C" stroke-width="0.5"/>
<path d="M144 161H239" stroke="#9E9C9C" stroke-width="0.5"/>
<rect x="239" y="37" width="9" height="180" fill="#C4C4C4"/>
<rect x="239" y="132" width="9" height="43" fill="white"/>
</g>
</g>
<g filter="url(#filter1_d_1107_9543)">
<mask id="mask1_1107_9543" style="mask-type:alpha" maskUnits="userSpaceOnUse" x="144" y="43" width="104" height="174">
<path fill-rule="evenodd" clip-rule="evenodd" d="M144 43.5586V201C144 209.837 151.163 217 160 217H232C240.837 217 248 209.837 248 201V43.7749C245.598 50.1362 239.452 54.6602 232.25 54.6602H159.83C152.546 54.6602 146.343 50.0334 144 43.5586Z" fill="white"/>
</mask>
<g mask="url(#mask1_1107_9543)">
<path fill-rule="evenodd" clip-rule="evenodd" d="M144 43.5586V201C144 209.837 151.163 217 160 217H232C240.837 217 248 209.837 248 201V43.7749C245.598 50.1362 239.452 54.6602 232.25 54.6602H159.83C152.546 54.6602 146.343 50.0334 144 43.5586Z" fill="#FAFAFA"/>
<path d="M144 197H239" stroke="#9E9C9C" stroke-width="0.5"/>
<path d="M176.154 77H180.978V76.088H179.202V68.204H178.362C177.894 68.492 177.33 68.696 176.538 68.828V69.536H178.11V76.088H176.154V77ZM185.87 77.168C187.442 77.168 188.702 76.22 188.702 74.66C188.702 73.448 187.862 72.668 186.83 72.416V72.368C187.766 72.032 188.39 71.324 188.39 70.256C188.39 68.852 187.31 68.048 185.834 68.048C184.826 68.048 184.046 68.492 183.386 69.092L183.974 69.8C184.466 69.296 185.09 68.936 185.798 68.936C186.71 68.936 187.274 69.488 187.274 70.328C187.274 71.288 186.662 72.008 184.85 72.008V72.86C186.878 72.86 187.586 73.556 187.586 74.612C187.586 75.62 186.842 76.256 185.798 76.256C184.79 76.256 184.13 75.776 183.614 75.236L183.062 75.956C183.638 76.592 184.49 77.168 185.87 77.168ZM191.986 72.32C192.43 72.32 192.79 71.984 192.79 71.492C192.79 70.988 192.43 70.652 191.986 70.652C191.554 70.652 191.206 70.988 191.206 71.492C191.206 71.984 191.554 72.32 191.986 72.32ZM191.986 77.168C192.43 77.168 192.79 76.82 192.79 76.328C192.79 75.824 192.43 75.488 191.986 75.488C191.554 75.488 191.206 75.824 191.206 76.328C191.206 76.82 191.554 77.168 191.986 77.168ZM197.966 77.168C199.622 77.168 200.69 75.644 200.69 72.572C200.69 69.524 199.622 68.048 197.966 68.048C196.286 68.048 195.218 69.524 195.218 72.572C195.218 75.644 196.286 77.168 197.966 77.168ZM197.966 76.28C196.958 76.28 196.274 75.164 196.274 72.572C196.274 70.016 196.958 68.924 197.966 68.924C198.962 68.924 199.634 70.016 199.634 72.572C199.634 75.164 198.962 76.28 197.966 76.28ZM205.582 77.168C207.238 77.168 208.306 75.644 208.306 72.572C208.306 69.524 207.238 68.048 205.582 68.048C203.902 68.048 202.834 69.524 202.834 72.572C202.834 75.644 203.902 77.168 205.582 77.168ZM205.582 76.28C204.574 76.28 203.89 75.164 203.89 72.572C203.89 70.016 204.574 68.924 205.582 68.924C206.578 68.924 207.25 70.016 207.25 72.572C207.25 75.164 206.578 76.28 205.582 76.28Z" fill="#595656"/>
<path d="M176.154 113H180.978V112.088H179.202V104.204H178.362C177.894 104.492 177.33 104.696 176.538 104.828V105.536H178.11V112.088H176.154V113ZM186.782 113H187.814V104.204H186.602L182.942 109.856V110.576H188.99V109.712H184.094L186.098 106.712C186.338 106.28 186.578 105.836 186.794 105.404H186.854C186.818 105.86 186.782 106.568 186.782 107.012V113ZM191.986 108.32C192.43 108.32 192.79 107.984 192.79 107.492C192.79 106.988 192.43 106.652 191.986 106.652C191.554 106.652 191.206 106.988 191.206 107.492C191.206 107.984 191.554 108.32 191.986 108.32ZM191.986 113.168C192.43 113.168 192.79 112.82 192.79 112.328C192.79 111.824 192.43 111.488 191.986 111.488C191.554 111.488 191.206 111.824 191.206 112.328C191.206 112.82 191.554 113.168 191.986 113.168ZM197.966 113.168C199.622 113.168 200.69 111.644 200.69 108.572C200.69 105.524 199.622 104.048 197.966 104.048C196.286 104.048 195.218 105.524 195.218 108.572C195.218 111.644 196.286 113.168 197.966 113.168ZM197.966 112.28C196.958 112.28 196.274 111.164 196.274 108.572C196.274 106.016 196.958 104.924 197.966 104.924C198.962 104.924 199.634 106.016 199.634 108.572C199.634 111.164 198.962 112.28 197.966 112.28ZM205.582 113.168C207.238 113.168 208.306 111.644 208.306 108.572C208.306 105.524 207.238 104.048 205.582 104.048C203.902 104.048 202.834 105.524 202.834 108.572C202.834 111.644 203.902 113.168 205.582 113.168ZM205.582 112.28C204.574 112.28 203.89 111.164 203.89 108.572C203.89 106.016 204.574 104.924 205.582 104.924C206.578 104.924 207.25 106.016 207.25 108.572C207.25 111.164 206.578 112.28 205.582 112.28Z" fill="#595656"/>
<path d="M174.945 149H180.297V147.572H178.629V140.12H177.321C176.745 140.468 176.145 140.696 175.245 140.864V141.956H176.865V147.572H174.945V149ZM185.323 149.168C186.955 149.168 188.431 148.028 188.431 146.06C188.431 144.116 187.183 143.24 185.695 143.24C185.287 143.24 184.975 143.324 184.627 143.48L184.795 141.596H188.023V140.12H183.271L183.019 144.428L183.835 144.956C184.351 144.62 184.639 144.488 185.167 144.488C186.055 144.488 186.655 145.064 186.655 146.096C186.655 147.152 186.019 147.74 185.083 147.74C184.267 147.74 183.631 147.332 183.139 146.84L182.311 147.956C182.983 148.616 183.919 149.168 185.323 149.168ZM191.993 144.62C192.617 144.62 193.097 144.128 193.097 143.468C193.097 142.82 192.617 142.328 191.993 142.328C191.357 142.328 190.901 142.82 190.901 143.468C190.901 144.128 191.357 144.62 191.993 144.62ZM191.993 149.168C192.617 149.168 193.097 148.676 193.097 148.016C193.097 147.356 192.617 146.876 191.993 146.876C191.357 146.876 190.901 147.356 190.901 148.016C190.901 148.676 191.357 149.168 191.993 149.168ZM198.451 149.168C200.251 149.168 201.451 147.596 201.451 144.524C201.451 141.464 200.251 139.964 198.451 139.964C196.639 139.964 195.439 141.464 195.439 144.524C195.439 147.596 196.639 149.168 198.451 149.168ZM198.451 147.788C197.683 147.788 197.107 147.02 197.107 144.524C197.107 142.04 197.683 141.32 198.451 141.32C199.219 141.32 199.783 142.04 199.783 144.524C199.783 147.02 199.219 147.788 198.451 147.788ZM206.489 149.168C208.289 149.168 209.489 147.596 209.489 144.524C209.489 141.464 208.289 139.964 206.489 139.964C204.677 139.964 203.477 141.464 203.477 144.524C203.477 147.596 204.677 149.168 206.489 149.168ZM206.489 147.788C205.721 147.788 205.145 147.02 205.145 144.524C205.145 142.04 205.721 141.32 206.489 141.32C207.257 141.32 207.821 142.04 207.821 144.524C207.821 147.02 207.257 147.788 206.489 147.788Z" fill="#FACA0F"/>
<path d="M176.154 185H180.978V184.088H179.202V176.204H178.362C177.894 176.492 177.33 176.696 176.538 176.828V177.536H178.11V184.088H176.154V185ZM186.326 185.168C187.682 185.168 188.846 184.016 188.846 182.312C188.846 180.464 187.886 179.552 186.398 179.552C185.69 179.552 184.874 179.984 184.334 180.692L184.37 181.568C184.958 180.692 185.666 180.356 186.23 180.356C187.286 180.356 187.814 181.112 187.814 182.312C187.814 183.5 187.166 184.304 186.326 184.304C185.09 184.304 184.406 183.068 184.406 180.812C184.406 177.932 185.438 176.96 186.674 176.96C187.202 176.96 187.742 177.212 188.078 177.62L188.69 176.948C188.21 176.432 187.538 176.048 186.626 176.048C184.922 176.048 183.374 177.368 183.374 180.812C183.374 183.716 184.634 185.168 186.326 185.168ZM191.986 180.32C192.43 180.32 192.79 179.984 192.79 179.492C192.79 178.988 192.43 178.652 191.986 178.652C191.554 178.652 191.206 178.988 191.206 179.492C191.206 179.984 191.554 180.32 191.986 180.32ZM191.986 185.168C192.43 185.168 192.79 184.82 192.79 184.328C192.79 183.824 192.43 183.488 191.986 183.488C191.554 183.488 191.206 183.824 191.206 184.328C191.206 184.82 191.554 185.168 191.986 185.168ZM197.966 185.168C199.622 185.168 200.69 183.644 200.69 180.572C200.69 177.524 199.622 176.048 197.966 176.048C196.286 176.048 195.218 177.524 195.218 180.572C195.218 183.644 196.286 185.168 197.966 185.168ZM197.966 184.28C196.958 184.28 196.274 183.164 196.274 180.572C196.274 178.016 196.958 176.924 197.966 176.924C198.962 176.924 199.634 178.016 199.634 180.572C199.634 183.164 198.962 184.28 197.966 184.28ZM205.582 185.168C207.238 185.168 208.306 183.644 208.306 180.572C208.306 177.524 207.238 176.048 205.582 176.048C203.902 176.048 202.834 177.524 202.834 180.572C202.834 183.644 203.902 185.168 205.582 185.168ZM205.582 184.28C204.574 184.28 203.89 183.164 203.89 180.572C203.89 178.016 204.574 176.924 205.582 176.924C206.578 176.924 207.25 178.016 207.25 180.572C207.25 183.164 206.578 184.28 205.582 184.28Z" fill="#595656"/>
<path d="M176.154 221H180.978V220.088H179.202V212.204H178.362C177.894 212.492 177.33 212.696 176.538 212.828V213.536H178.11V220.088H176.154V221ZM185.078 221H186.218C186.362 217.568 186.734 215.516 188.798 212.864V212.204H183.302V213.14H187.562C185.834 215.54 185.234 217.676 185.078 221ZM191.986 216.32C192.43 216.32 192.79 215.984 192.79 215.492C192.79 214.988 192.43 214.652 191.986 214.652C191.554 214.652 191.206 214.988 191.206 215.492C191.206 215.984 191.554 216.32 191.986 216.32ZM191.986 221.168C192.43 221.168 192.79 220.82 192.79 220.328C192.79 219.824 192.43 219.488 191.986 219.488C191.554 219.488 191.206 219.824 191.206 220.328C191.206 220.82 191.554 221.168 191.986 221.168ZM197.966 221.168C199.622 221.168 200.69 219.644 200.69 216.572C200.69 213.524 199.622 212.048 197.966 212.048C196.286 212.048 195.218 213.524 195.218 216.572C195.218 219.644 196.286 221.168 197.966 221.168ZM197.966 220.28C196.958 220.28 196.274 219.164 196.274 216.572C196.274 214.016 196.958 212.924 197.966 212.924C198.962 212.924 199.634 214.016 199.634 216.572C199.634 219.164 198.962 220.28 197.966 220.28ZM205.582 221.168C207.238 221.168 208.306 219.644 208.306 216.572C208.306 213.524 207.238 212.048 205.582 212.048C203.902 212.048 202.834 213.524 202.834 216.572C202.834 219.644 203.902 221.168 205.582 221.168ZM205.582 220.28C204.574 220.28 203.89 219.164 203.89 216.572C203.89 214.016 204.574 212.924 205.582 212.924C206.578 212.924 207.25 214.016 207.25 216.572C207.25 219.164 206.578 220.28 205.582 220.28Z" fill="#595656"/>
<path d="M144 89H239" stroke="#9E9C9C" stroke-width="0.5"/>
<path d="M144 125H239" stroke="#9E9C9C" stroke-width="0.5"/>
<path d="M144 161H239" stroke="#9E9C9C" stroke-width="0.5"/>
<rect x="239" y="37" width="9" height="180" fill="#C4C4C4"/>
<rect x="239" y="132" width="9" height="43" fill="white"/>
</g>
</g>
<rect x="144" y="20" width="104" height="33" rx="16.5" fill="#F3F3F3"/>
<path d="M226.1 40.7996C226.5 41.1996 227.1 41.1996 227.5 40.7996L231 37.2996L234.5 40.7996C234.9 41.1996 235.5 41.1996 235.9 40.7996C236.3 40.3996 236.3 39.7996 235.9 39.3996L231.7 35.1996C231.5 34.9996 231.3 34.8996 231 34.8996C230.7 34.8996 230.5 34.9996 230.3 35.1996L226.1 39.3996C225.7 39.7996 225.7 40.3996 226.1 40.7996Z" fill="black"/>
<path d="M176.154 41H180.978V40.088H179.202V32.204H178.362C177.894 32.492 177.33 32.696 176.538 32.828V33.536H178.11V40.088H176.154V41ZM183.242 41H188.762V40.064H186.326C185.882 40.064 185.354 40.1 184.886 40.148C186.962 38.192 188.342 36.404 188.342 34.64C188.342 33.068 187.358 32.048 185.786 32.048C184.67 32.048 183.902 32.564 183.182 33.344L183.818 33.956C184.31 33.38 184.934 32.936 185.654 32.936C186.746 32.936 187.262 33.68 187.262 34.688C187.262 36.188 186.002 37.952 183.242 40.364V41ZM191.986 36.32C192.43 36.32 192.79 35.984 192.79 35.492C192.79 34.988 192.43 34.652 191.986 34.652C191.554 34.652 191.206 34.988 191.206 35.492C191.206 35.984 191.554 36.32 191.986 36.32ZM191.986 41.168C192.43 41.168 192.79 40.82 192.79 40.328C192.79 39.824 192.43 39.488 191.986 39.488C191.554 39.488 191.206 39.824 191.206 40.328C191.206 40.82 191.554 41.168 191.986 41.168ZM197.966 41.168C199.622 41.168 200.69 39.644 200.69 36.572C200.69 33.524 199.622 32.048 197.966 32.048C196.286 32.048 195.218 33.524 195.218 36.572C195.218 39.644 196.286 41.168 197.966 41.168ZM197.966 40.28C196.958 40.28 196.274 39.164 196.274 36.572C196.274 34.016 196.958 32.924 197.966 32.924C198.962 32.924 199.634 34.016 199.634 36.572C199.634 39.164 198.962 40.28 197.966 40.28ZM205.582 41.168C207.238 41.168 208.306 39.644 208.306 36.572C208.306 33.524 207.238 32.048 205.582 32.048C203.902 32.048 202.834 33.524 202.834 36.572C202.834 39.644 203.902 41.168 205.582 41.168ZM205.582 40.28C204.574 40.28 203.89 39.164 203.89 36.572C203.89 34.016 204.574 32.924 205.582 32.924C206.578 32.924 207.25 34.016 207.25 36.572C207.25 39.164 206.578 40.28 205.582 40.28Z" fill="#ABABAB"/>
<rect x="20" y="20" width="104" height="33" rx="16.5" fill="#F3F3F3"/>
<path d="M111.9 35.2004C111.5 34.8004 110.9 34.8004 110.5 35.2004L107 38.7004L103.5 35.2004C103.1 34.8004 102.5 34.8004 102.1 35.2004C101.7 35.6004 101.7 36.2004 102.1 36.6004L106.3 40.8004C106.5 41.0004 106.7 41.1004 107 41.1004C107.3 41.1004 107.5 41.0004 107.7 40.8004L111.9 36.6004C112.3 36.2004 112.3 35.6004 111.9 35.2004Z" fill="black"/>
<path d="M52.1536 41H56.9776V40.088H55.2016V32.204H54.3616C53.8936 32.492 53.3296 32.696 52.5376 32.828V33.536H54.1096V40.088H52.1536V41ZM59.2418 41H64.7618V40.064H62.3258C61.8818 40.064 61.3538 40.1 60.8858 40.148C62.9618 38.192 64.3418 36.404 64.3418 34.64C64.3418 33.068 63.3578 32.048 61.7858 32.048C60.6698 32.048 59.9018 32.564 59.1818 33.344L59.8178 33.956C60.3098 33.38 60.9338 32.936 61.6538 32.936C62.7458 32.936 63.2618 33.68 63.2618 34.688C63.2618 36.188 62.0018 37.952 59.2418 40.364V41ZM67.9861 36.32C68.4301 36.32 68.7901 35.984 68.7901 35.492C68.7901 34.988 68.4301 34.652 67.9861 34.652C67.5541 34.652 67.2061 34.988 67.2061 35.492C67.2061 35.984 67.5541 36.32 67.9861 36.32ZM67.9861 41.168C68.4301 41.168 68.7901 40.82 68.7901 40.328C68.7901 39.824 68.4301 39.488 67.9861 39.488C67.5541 39.488 67.2061 39.824 67.2061 40.328C67.2061 40.82 67.5541 41.168 67.9861 41.168ZM73.9659 41.168C75.6219 41.168 76.6899 39.644 76.6899 36.572C76.6899 33.524 75.6219 32.048 73.9659 32.048C72.2859 32.048 71.2179 33.524 71.2179 36.572C71.2179 39.644 72.2859 41.168 73.9659 41.168ZM73.9659 40.28C72.9579 40.28 72.2739 39.164 72.2739 36.572C72.2739 34.016 72.9579 32.924 73.9659 32.924C74.9619 32.924 75.6339 34.016 75.6339 36.572C75.6339 39.164 74.9619 40.28 73.9659 40.28ZM81.5822 41.168C83.2382 41.168 84.3062 39.644 84.3062 36.572C84.3062 33.524 83.2382 32.048 81.5822 32.048C79.9022 32.048 78.8342 33.524 78.8342 36.572C78.8342 39.644 79.9022 41.168 81.5822 41.168ZM81.5822 40.28C80.5742 40.28 79.8902 39.164 79.8902 36.572C79.8902 34.016 80.5742 32.924 81.5822 32.924C82.5782 32.924 83.2502 34.016 83.2502 36.572C83.2502 39.164 82.5782 40.28 81.5822 40.28Z" fill="#ABABAB"/>
<rect x="0.5" y="0.5" width="267" height="236" rx="4.5" stroke="#7B61FF" stroke-dasharray="10 5"/>
<defs>
<filter id="filter0_d_1107_9543" x="140" y="43.5586" width="112" height="181.441" filterUnits="userSpaceOnUse" color-interpolation-filters="sRGB">
<feFlood flood-opacity="0" result="BackgroundImageFix"/>
<feColorMatrix in="SourceAlpha" type="matrix" values="0 0 0 0 0 0 0 0 0 0 0 0 0 0 0 0 0 0 127 0" result="hardAlpha"/>
<feOffset dy="4"/>
<feGaussianBlur stdDeviation="2"/>
<feComposite in2="hardAlpha" operator="out"/>
<feColorMatrix type="matrix" values="0 0 0 0 0 0 0 0 0 0 0 0 0 0 0 0 0 0 0.25 0"/>
<feBlend mode="normal" in2="BackgroundImageFix" result="effect1_dropShadow_1107_9543"/>
<feBlend mode="normal" in="SourceGraphic" in2="effect1_dropShadow_1107_9543" result="shape"/>
</filter>
<filter id="filter1_d_1107_9543" x="140" y="43.5586" width="112" height="181.441" filterUnits="userSpaceOnUse" color-interpolation-filters="sRGB">
<feFlood flood-opacity="0" result="BackgroundImageFix"/>
<feColorMatrix in="SourceAlpha" type="matrix" values="0 0 0 0 0 0 0 0 0 0 0 0 0 0 0 0 0 0 127 0" result="hardAlpha"/>
<feOffset dy="4"/>
<feGaussianBlur stdDeviation="2"/>
<feComposite in2="hardAlpha" operator="out"/>
<feColorMatrix type="matrix" values="0 0 0 0 0 0 0 0 0 0 0 0 0 0 0 0 0 0 0.25 0"/>
<feBlend mode="normal" in2="BackgroundImageFix" result="effect1_dropShadow_1107_9543"/>
<feBlend mode="normal" in="SourceGraphic" in2="effect1_dropShadow_1107_9543" result="shape"/>
</filter>
</defs>
</svg>
