<svg width="769" height="330" viewBox="0 0 769 330" fill="none" xmlns="http://www.w3.org/2000/svg">
<g filter="url(#filter0_d_1109_9546)">
<path d="M390 0H765V198C765 209.046 756.046 218 745 218H410C398.954 218 390 209.046 390 198V0Z" fill="white"/>
<path d="M453.686 83.244V85.116H462.902V83.244H453.686ZM453.11 79.626V81.534H463.388V79.626H453.11ZM453.128 86.52V88.41H463.316V86.52H453.128ZM457.178 77.7V84.306H459.302V77.7H457.178ZM459.464 84.882V92.298C459.464 92.55 459.374 92.604 459.086 92.604C458.816 92.622 457.826 92.622 456.944 92.586C457.232 93.144 457.556 94.008 457.628 94.602C458.978 94.602 459.95 94.566 460.67 94.242C461.372 93.936 461.57 93.378 461.57 92.334V84.882H459.464ZM453.848 89.616C454.586 90.57 455.504 91.866 455.918 92.658L457.826 91.542C457.358 90.75 456.368 89.508 455.648 88.644L453.848 89.616ZM448.142 78.816V80.742H450.77V89.202H448.142V91.128H452.786V78.816H448.142ZM448.25 83.928V85.818H451.742V83.928H448.25ZM447.134 78.816V92.73H449.132V78.816H447.134ZM474.656 78.42V80.238H477.698V78.42H474.656ZM472.226 85.8V87.618H478.868V85.8H472.226ZM466.664 81.93V83.802H471.578V81.93H466.664ZM466.664 85.602V87.492H471.524V85.602H466.664ZM474.602 87.474L472.874 87.906C474.206 91.326 476.492 93.612 480.182 94.62C480.47 94.062 481.064 93.198 481.514 92.766C478.058 92.046 475.718 90.138 474.602 87.474ZM464.396 89.778L464.72 91.812C466.718 91.488 469.4 91.074 471.902 90.642L471.794 88.806C469.094 89.184 466.286 89.58 464.396 89.778ZM470.696 77.502C469.508 78.15 467.618 78.96 465.908 79.464C466.142 79.914 466.484 80.652 466.61 81.102C468.446 80.598 470.642 79.914 472.388 79.158L470.696 77.502ZM473.396 78.402V80.634C473.396 81.912 473.18 83.424 471.434 84.522C471.848 84.792 472.658 85.53 472.946 85.908C474.962 84.594 475.376 82.434 475.376 80.688V78.402H473.396ZM478.4 85.8V86.124C477.554 89.85 474.836 92.01 471.056 92.856C471.47 93.288 471.938 94.152 472.154 94.71C476.42 93.504 479.372 91.092 480.506 86.178L479.174 85.746L478.814 85.8H478.4ZM465.854 79.464V94.26H467.924V80.184L465.854 79.464ZM477.14 78.402V82.614C477.14 84.306 477.482 85.008 479.192 85.008C479.444 85.008 479.984 85.008 480.218 85.008C480.596 85.008 481.01 84.99 481.262 84.882C481.19 84.432 481.154 83.73 481.118 83.226C480.884 83.298 480.47 83.334 480.2 83.334C480.02 83.334 479.57 83.334 479.39 83.334C479.174 83.334 479.12 83.154 479.12 82.65V78.402H477.14Z" fill="black"/>
<path d="M446.792 32.894V34.928H452.426V32.894H446.792ZM448.718 28.97V40.904H450.734V28.97H448.718ZM446.396 40.598L447.26 42.776C448.898 42.02 450.932 41.048 452.804 40.13L452.318 38.222C450.158 39.122 447.872 40.076 446.396 40.598ZM457.106 28.718V41.426H459.14V28.718H457.106ZM451.778 35.954L452.588 37.862L461.894 33.83L461.102 31.994L451.778 35.954ZM453.56 30.464V42.11C453.56 44.612 454.244 45.26 456.71 45.26C457.268 45.26 459.968 45.26 460.562 45.26C462.668 45.26 463.316 44.414 463.586 41.858C463.01 41.75 462.164 41.408 461.696 41.084C461.552 42.938 461.372 43.334 460.382 43.334C459.824 43.334 457.43 43.334 456.89 43.334C455.774 43.334 455.612 43.19 455.612 42.128V30.464H453.56ZM460.58 32.498C460.544 35.018 460.382 38.384 460.112 40.31L461.876 40.814C462.308 38.636 462.542 35.342 462.65 32.822L462.74 32.498L461.102 31.994L460.382 32.498H460.58ZM472.514 33.488H475.466V34.982H472.514V33.488ZM470.498 32.084V36.404H477.608V32.084H470.498ZM470.39 38.636H471.794V40.616H470.39V38.636ZM468.644 37.178V42.056H473.63V37.178H468.644ZM476.222 38.636H477.68V40.616H476.222V38.636ZM474.44 37.178V42.056H479.552V37.178H474.44ZM465.008 29.348V31.256H480.38V29.348H465.008ZM465.728 29.384V40.652C465.728 43.982 467.222 44.972 470.408 44.972C471.2 44.972 476.312 44.972 477.536 44.972C478.994 44.972 480.596 44.954 481.28 44.774C481.172 44.27 481.046 43.28 480.992 42.74C480.236 42.902 478.796 42.992 477.644 42.992C476.348 42.992 471.29 42.992 470.228 42.992C468.374 42.992 467.834 42.38 467.834 40.814V29.384H465.728Z" fill="black"/>
<path d="M451.706 127.51V129.076H463.298V127.51H451.706ZM453.902 131.11H460.778V132.334H453.902V131.11ZM452.048 129.85V133.576H462.74V129.85H452.048ZM455.018 128.086V132.856H456.71V128.086H455.018ZM457.898 128.086V132.856H459.626V128.086H457.898ZM454.316 137.23H460.454V137.896H454.316V137.23ZM454.316 139.048H460.454V139.732H454.316V139.048ZM454.316 135.412H460.454V136.078H454.316V135.412ZM452.318 134.206V140.938H462.56V134.206H452.318ZM457.952 141.946C459.428 142.45 460.976 143.152 461.858 143.674L463.712 142.468C462.668 141.964 460.868 141.262 459.338 140.758L457.952 141.946ZM455.27 140.722C454.28 141.316 452.588 141.874 451.04 142.18C451.418 142.54 451.922 143.206 452.156 143.638C453.758 143.296 455.576 142.63 456.764 141.802L455.27 140.722ZM449.762 126.754C448.988 129.382 447.656 132.028 446.198 133.72C446.54 134.296 447.062 135.52 447.242 136.06C449.078 133.9 450.734 130.48 451.76 127.33L449.762 126.754ZM448.34 131.686V143.602H450.392V129.742L450.338 129.706L448.34 131.686ZM470.516 129.742V131.848H480.596V129.742H470.516ZM471.578 132.856C472.046 135.286 472.514 138.454 472.64 140.326L474.764 139.714C474.584 137.896 474.062 134.8 473.522 132.406L471.578 132.856ZM477.626 132.352C477.356 135.124 476.69 138.85 476.042 141.19L477.914 141.586C478.598 139.3 479.372 135.736 479.894 132.694L477.626 132.352ZM469.868 140.83V142.9H481.208V140.83H469.868ZM473.936 126.97C474.26 127.852 474.638 129.058 474.764 129.814L476.924 129.22C476.726 128.446 476.348 127.33 476.006 126.448L473.936 126.97ZM468.644 126.79C467.726 129.364 466.16 131.92 464.54 133.558C464.9 134.08 465.494 135.268 465.692 135.79C467.654 133.738 469.526 130.498 470.678 127.42L468.644 126.79ZM466.826 131.758V143.602H469.004V129.598V129.58L466.826 131.758Z" fill="black"/>
<path d="M415.994 185.204C416.462 185.636 417.002 186.248 417.254 186.662L418.46 185.798C418.208 185.402 417.632 184.808 417.164 184.43L415.994 185.204ZM410.756 186.23V187.994H418.73V186.23H410.756ZM410.738 179.534V181.244H418.64V179.534H410.738ZM416.804 176.438C416.624 177.122 416.264 178.112 415.976 178.778L417.362 179.228C417.704 178.634 418.136 177.752 418.568 176.906L416.804 176.438ZM413.852 175.826V184.412H415.724V175.826H413.852ZM410.972 176.906C411.386 177.608 411.764 178.526 411.872 179.138L413.402 178.544C413.276 177.932 412.862 177.032 412.43 176.366L410.972 176.906ZM413.942 189.614C415.04 190.28 416.552 191.252 417.254 191.882L418.424 190.406C417.668 189.812 416.12 188.894 415.058 188.3L413.942 189.614ZM416.624 181.676L415.58 182.45C416.156 182.954 417.362 184.106 417.83 184.682L418.982 183.332C418.622 183.026 417.11 181.946 416.624 181.676ZM412.43 181.604C411.998 182.45 411.152 183.386 410.324 183.854C410.702 184.16 411.278 184.79 411.548 185.204C412.448 184.52 413.276 183.224 413.726 182.072L412.43 181.604ZM418.766 176.42V178.274H427.298V176.42H418.766ZM421.25 183.656H424.706V184.772H421.25V183.656ZM421.25 186.266H424.706V187.4H421.25V186.266ZM421.25 181.064H424.706V182.162H421.25V181.064ZM419.306 179.462V189.002H426.758V179.462H419.306ZM421.844 177.446C421.754 178.31 421.502 179.516 421.25 180.344L423.032 180.686C423.374 179.948 423.824 178.832 424.202 177.716L421.844 177.446ZM421.034 189.092C420.404 189.848 419.144 190.838 418.028 191.342C418.478 191.72 419.09 192.332 419.432 192.71C420.584 192.17 421.97 191.126 422.78 190.208L421.034 189.092ZM423.194 190.172C424.184 190.91 425.498 191.972 426.092 192.638L427.748 191.468C427.046 190.784 425.714 189.794 424.724 189.128L423.194 190.172ZM413.69 184.772V186.608C413.69 188.048 413.33 189.812 410.36 190.964C410.738 191.324 411.26 192.044 411.458 192.494C415.04 191.036 415.544 188.66 415.544 186.68V184.772H413.69ZM438.296 177.914V188.102H440.402V177.914H438.296ZM442.544 176.078V189.992C442.544 190.334 442.4 190.442 442.058 190.442C441.68 190.46 440.528 190.46 439.34 190.406C439.646 191.018 439.988 192.026 440.096 192.638C441.752 192.638 442.94 192.566 443.696 192.224C444.434 191.864 444.686 191.27 444.686 190.01V176.078H442.544ZM431.924 184.322V186.212H436.064V184.322H431.924ZM435.11 184.322V184.646C434.966 188.66 434.804 190.19 434.498 190.55C434.336 190.73 434.156 190.766 433.886 190.766C433.562 190.766 432.86 190.766 432.104 190.694C432.428 191.198 432.644 191.99 432.68 192.566C433.544 192.584 434.372 192.584 434.858 192.512C435.434 192.422 435.848 192.278 436.208 191.81C436.712 191.198 436.892 189.47 437.072 185.114C437.09 184.862 437.108 184.322 437.108 184.322H435.11ZM431.456 178.454H434.858V180.92H431.456V178.454ZM429.512 176.564V182.846H436.928V176.564H429.512ZM431.33 182.252C431.204 185.42 430.952 188.984 428.414 191.072C428.936 191.414 429.548 192.098 429.872 192.638C432.788 190.154 433.256 186.068 433.454 182.252H431.33ZM446.234 194.276H447.998L452.48 176.492H450.734L446.234 194.276ZM462.843 177.266V182.612H464.373V177.266H462.843ZM465.345 177.266V182.612H466.875V177.266H465.345ZM466.497 189.182C467.325 190.064 468.261 191.324 468.675 192.134L470.331 191.162C469.863 190.37 468.927 189.218 468.063 188.354L466.497 189.182ZM461.331 188.336C460.845 189.362 459.963 190.424 459.063 191.126C459.513 191.396 460.305 191.954 460.665 192.278C461.583 191.45 462.573 190.136 463.221 188.876L461.331 188.336ZM459.801 176.384V178.094H470.079V176.384H459.801ZM460.881 183.926V185.564H469.035V183.926H460.881ZM459.819 186.284V187.976H470.115V186.284H459.819ZM461.889 180.434H467.901V181.766H461.889V180.434ZM460.143 178.886V183.314H469.755V178.886H460.143ZM463.923 187.328V192.602H465.849V187.328H463.923ZM453.789 179.084V181.064H459.765V179.084H453.789ZM456.039 175.718V192.62H457.983V175.718H456.039ZM455.895 180.56C455.427 182.666 454.401 185.51 453.303 187.004C453.627 187.58 454.113 188.57 454.311 189.218C455.481 187.328 456.507 183.854 457.011 181.064L455.895 180.56ZM457.929 181.802L456.975 182.558C457.479 183.458 458.469 185.51 458.865 186.572L460.125 185.132C459.801 184.592 458.343 182.306 457.929 181.802ZM474.471 179.426C474.183 180.506 473.409 181.298 472.239 181.802C472.581 182.054 473.139 182.666 473.355 182.954C474.705 182.27 475.677 181.154 476.073 179.642L474.471 179.426ZM478.845 179.516C478.629 180.578 477.999 181.352 476.973 181.874C477.297 182.126 477.873 182.738 478.089 183.044C479.331 182.324 480.123 181.19 480.465 179.714L478.845 179.516ZM471.681 182.792V184.304H488.223V182.792H471.681ZM481.869 179.894C481.959 186.68 483.057 192.494 486.171 192.494C487.503 192.494 488.079 191.972 488.349 189.884C487.881 189.704 487.251 189.326 486.837 188.93C486.765 190.154 486.639 190.568 486.315 190.568C484.893 190.568 483.831 185.69 483.885 179.894H481.869ZM474.669 183.89V190.928H476.397V183.89H474.669ZM477.459 183.89V190.658H479.169V183.89H477.459ZM471.753 190.622L471.951 192.188C474.471 192.026 477.999 191.774 481.329 191.468L481.347 190.1C477.855 190.316 474.129 190.532 471.753 190.622ZM472.617 186.788V187.886H475.551V186.788H472.617ZM472.455 185.042V186.158H475.551V185.042H472.455ZM472.203 188.552V189.722H475.443V188.552H472.203ZM478.323 186.752V187.85H481.239V186.752H478.323ZM478.287 185.024V186.14H481.347V185.024H478.287ZM478.233 188.462V189.614H481.527V188.462H478.233ZM484.515 180.47C485.073 181.1 485.721 181.982 485.973 182.576L487.575 181.712C487.269 181.136 486.603 180.29 486.009 179.696L484.515 180.47ZM485.973 184.52C485.073 187.436 483.039 189.884 480.213 191.306C480.591 191.63 481.185 192.314 481.437 192.692C484.479 191.036 486.549 188.39 487.665 184.988L485.973 184.52ZM474.291 181.1C474.921 181.622 475.641 182.396 475.965 182.9L477.279 181.928C476.919 181.424 476.163 180.704 475.533 180.218L474.291 181.1ZM478.683 181.172C479.295 181.712 480.033 182.504 480.375 183.008L481.707 182.072C481.329 181.55 480.573 180.83 479.925 180.308L478.683 181.172ZM474.075 176.798V178.148H479.727V176.798H474.075ZM481.563 176.816V178.13H488.277V176.816H481.563ZM474.183 175.556C473.607 176.672 472.581 177.77 471.519 178.508C471.933 178.85 472.653 179.624 472.941 179.984C474.093 179.084 475.335 177.59 476.073 176.132L474.183 175.556ZM481.653 175.556C481.203 176.726 480.357 177.86 479.385 178.616C479.853 178.904 480.645 179.534 480.987 179.894C482.031 178.994 483.039 177.518 483.633 176.078L481.653 175.556ZM475.479 178.634C476.001 179.084 476.649 179.714 476.937 180.11L478.647 179.264C478.287 178.832 477.603 178.238 477.081 177.842L475.479 178.634ZM483.309 178.67C483.741 179.048 484.245 179.624 484.479 179.984L486.243 179.174C485.973 178.796 485.433 178.274 485.001 177.914L483.309 178.67Z" fill="black"/>
<rect x="498" y="69" width="104" height="33" rx="16.5" fill="#F3F3F3"/>
<rect x="627" y="70" width="104" height="33" rx="16.5" fill="#F3F3F3"/>
<path d="M589.901 84.2004C589.501 83.8004 588.901 83.8004 588.501 84.2004L585.001 87.7004L581.501 84.2004C581.101 83.8004 580.501 83.8004 580.101 84.2004C579.701 84.6004 579.701 85.2004 580.101 85.6004L584.301 89.8004C584.501 90.0004 584.701 90.1004 585.001 90.1004C585.301 90.1004 585.501 90.0004 585.701 89.8004L589.901 85.6004C590.301 85.2004 590.301 84.6004 589.901 84.2004Z" fill="black"/>
<path d="M589.901 84.2004C589.501 83.8004 588.901 83.8004 588.501 84.2004L585.001 87.7004L581.501 84.2004C581.101 83.8004 580.501 83.8004 580.101 84.2004C579.701 84.6004 579.701 85.2004 580.101 85.6004L584.301 89.8004C584.501 90.0004 584.701 90.1004 585.001 90.1004C585.301 90.1004 585.501 90.0004 585.701 89.8004L589.901 85.6004C590.301 85.2004 590.301 84.6004 589.901 84.2004Z" fill="black"/>
<path d="M619.459 85H609.542C609.354 85 609.174 85.1054 609.041 85.2929C608.909 85.4804 608.834 85.7348 608.834 86C608.834 86.2652 608.909 86.5196 609.041 86.7071C609.174 86.8946 609.354 87 609.542 87H619.459C619.647 87 619.827 86.8946 619.96 86.7071C620.093 86.5196 620.167 86.2652 620.167 86C620.167 85.7348 620.093 85.4804 619.96 85.2929C619.827 85.1054 619.647 85 619.459 85Z" fill="black"/>
<path d="M718.901 85.2004C718.501 84.8004 717.901 84.8004 717.501 85.2004L714.001 88.7004L710.501 85.2004C710.101 84.8004 709.501 84.8004 709.101 85.2004C708.701 85.6004 708.701 86.2004 709.101 86.6004L713.301 90.8004C713.501 91.0004 713.701 91.1004 714.001 91.1004C714.301 91.1004 714.501 91.0004 714.701 90.8004L718.901 86.6004C719.301 86.2004 719.301 85.6004 718.901 85.2004Z" fill="black"/>
<rect x="498" y="118" width="104" height="33" rx="16.5" fill="#F3F3F3"/>
<rect x="498" y="20" width="80" height="33" rx="16.5" fill="#F3F3F3"/>
<rect x="590" y="20" width="80" height="33" rx="16.5" fill="#F3F3F3"/>
<rect x="627" y="118" width="104" height="33" rx="16.5" fill="#F3F3F3"/>
<path d="M619.459 134H609.542C609.354 134 609.174 134.105 609.041 134.293C608.909 134.48 608.834 134.735 608.834 135C608.834 135.265 608.909 135.52 609.041 135.707C609.174 135.895 609.354 136 609.542 136H619.459C619.647 136 619.827 135.895 619.96 135.707C620.093 135.52 620.167 135.265 620.167 135C620.167 134.735 620.093 134.48 619.96 134.293C619.827 134.105 619.647 134 619.459 134Z" fill="black"/>
<path d="M526.552 128.388V132.072H527.428V129.072H533.68V132.072H534.592V128.388H526.552ZM527.956 129.792V130.392H533.14V129.792H527.956ZM527.956 131.124V131.76H533.128V131.124H527.956ZM525.232 132.552V133.296H535.828V132.552H525.232ZM530.452 134.052V134.784H534.772V134.052H530.452ZM526.768 134.088V134.76H529.72V134.088H526.768ZM526.768 135.564V136.236H529.72V135.564H526.768ZM531.784 134.724L531.064 134.94C531.856 136.908 533.404 138.336 535.516 138.96C535.636 138.744 535.876 138.42 536.056 138.252C534.028 137.748 532.492 136.44 531.784 134.724ZM534.556 134.052V134.196C533.908 136.236 532.072 137.652 530.14 138.228C530.32 138.396 530.536 138.732 530.644 138.936C532.72 138.216 534.64 136.704 535.432 134.244L534.88 134.016L534.724 134.052H534.556ZM525.088 137.412L525.184 138.204C526.408 138.072 528.1 137.88 529.744 137.676L529.72 136.944C528.004 137.136 526.252 137.316 525.088 137.412ZM529.252 132.792V138.96H530.116V132.792H529.252ZM526.24 132.792V137.616H527.08V132.792H526.24ZM540.688 127.968C540.016 129.792 538.9 131.592 537.712 132.756C537.88 132.96 538.132 133.44 538.228 133.644C539.524 132.3 540.76 130.272 541.54 128.232L540.688 127.968ZM539.44 131.064V138.948H540.304V130.224L540.28 130.212L539.44 131.064ZM542.656 132.54V133.38H548.812V132.54H542.656ZM547.66 127.86C546.364 128.364 544.06 128.844 542.044 129.156C542.14 129.36 542.272 129.66 542.308 129.864C544.396 129.576 546.772 129.108 548.38 128.532L547.66 127.86ZM545.404 129.048C545.584 134.472 546.208 138.84 547.984 138.876C548.44 138.888 548.848 138.36 549.088 136.548C548.932 136.476 548.596 136.272 548.44 136.104C548.368 137.232 548.2 137.868 547.972 137.868C547.024 137.832 546.352 133.8 546.232 129.048H545.404ZM541.852 137.988C542.092 137.832 542.464 137.7 545.116 136.944C545.104 136.752 545.092 136.416 545.104 136.188L542.2 136.932L541.792 137.244L541.852 137.988ZM541.852 137.988C541.852 137.688 542.896 137.196 542.896 137.196V129.36L542.044 129.168V136.476C542.044 136.944 541.72 137.148 541.504 137.244C541.636 137.424 541.804 137.784 541.852 137.988ZM543.148 137.916V138.672H546.352V137.916H543.148ZM554.176 128.532V129.228H561.88V128.532H554.176ZM555.268 130.536H560.68V131.688H555.268V130.536ZM554.464 129.936V132.276H561.52V129.936H554.464ZM556.54 128.76V131.916H557.284V128.76H556.54ZM558.616 128.76V131.916H559.36V128.76H558.616ZM555.556 134.676H560.5V135.36H555.556V134.676ZM555.556 135.924H560.5V136.632H555.556V135.924ZM555.556 133.428H560.5V134.112H555.556V133.428ZM554.716 132.852V137.208H561.376V132.852H554.716ZM558.616 137.808C559.648 138.168 560.716 138.636 561.328 138.996L562.108 138.468C561.412 138.108 560.248 137.64 559.204 137.292L558.616 137.808ZM556.648 137.28C556.012 137.688 554.848 138.132 553.804 138.372C553.972 138.528 554.188 138.804 554.308 138.984C555.376 138.72 556.564 138.264 557.296 137.736L556.648 137.28ZM553.264 127.992C552.688 129.84 551.74 131.688 550.684 132.888C550.84 133.116 551.08 133.596 551.164 133.812C552.352 132.408 553.42 130.296 554.104 128.22L553.264 127.992ZM552.304 130.932V138.96H553.156V130.128L553.132 130.104L552.304 130.932ZM570.076 129.216V130.008H573.46V129.216H570.076ZM568.984 134.568V138.972H569.824V135.348H573.172V138.936H574.036V134.568H568.984ZM569.344 137.652V138.444H573.628V137.652H569.344ZM570.424 127.908C569.86 129.36 568.888 130.728 567.784 131.592C567.988 131.724 568.348 132.036 568.492 132.192C569.584 131.244 570.64 129.744 571.288 128.148L570.424 127.908ZM573.208 129.216V129.372C572.332 131.916 569.932 133.764 567.52 134.52C567.7 134.688 567.928 135.024 568.036 135.252C570.592 134.328 573.064 132.42 574.096 129.444L573.532 129.18L573.376 129.216H573.208ZM570.004 129.84L569.344 130.26C570.16 132.048 571.924 134.04 574.6 134.976C574.72 134.76 574.972 134.4 575.152 134.232C572.512 133.428 570.748 131.544 570.004 129.84ZM564.052 130.5V131.352H568.276V130.5H564.052ZM565.864 127.92V138.948H566.716V127.92H565.864ZM565.828 131.028C565.468 132.756 564.616 134.832 563.764 135.912C563.932 136.116 564.148 136.464 564.244 136.704C565.144 135.492 565.996 133.152 566.392 131.22L565.828 131.028ZM566.656 131.832L566.212 132.228C566.548 132.66 567.412 133.896 567.7 134.424L568.24 133.728C568 133.404 566.944 132.12 566.656 131.832Z" fill="#ABABAB"/>
<path d="M532.434 91.168C534.09 91.168 535.158 89.644 535.158 86.572C535.158 83.524 534.09 82.048 532.434 82.048C530.754 82.048 529.686 83.524 529.686 86.572C529.686 89.644 530.754 91.168 532.434 91.168ZM532.434 90.28C531.426 90.28 530.742 89.164 530.742 86.572C530.742 84.016 531.426 82.924 532.434 82.924C533.43 82.924 534.102 84.016 534.102 86.572C534.102 89.164 533.43 90.28 532.434 90.28ZM539.522 91.168C541.178 91.168 542.714 89.8 542.714 86.224C542.714 83.428 541.454 82.048 539.762 82.048C538.394 82.048 537.242 83.2 537.242 84.904C537.242 86.728 538.19 87.664 539.666 87.664C540.422 87.664 541.202 87.208 541.754 86.512L541.694 85.636C541.118 86.512 540.434 86.86 539.846 86.86C538.802 86.86 538.274 86.08 538.274 84.904C538.274 83.692 538.922 82.9 539.762 82.9C540.998 82.9 541.682 84.064 541.682 86.224C541.682 89.236 540.662 90.256 539.486 90.256C538.922 90.256 538.382 90.004 538.01 89.572L537.398 90.268C537.89 90.784 538.562 91.168 539.522 91.168ZM545.986 86.32C546.43 86.32 546.79 85.984 546.79 85.492C546.79 84.988 546.43 84.652 545.986 84.652C545.554 84.652 545.206 84.988 545.206 85.492C545.206 85.984 545.554 86.32 545.986 86.32ZM545.986 91.168C546.43 91.168 546.79 90.82 546.79 90.328C546.79 89.824 546.43 89.488 545.986 89.488C545.554 89.488 545.206 89.824 545.206 90.328C545.206 90.82 545.554 91.168 545.986 91.168ZM551.966 91.168C553.622 91.168 554.69 89.644 554.69 86.572C554.69 83.524 553.622 82.048 551.966 82.048C550.286 82.048 549.218 83.524 549.218 86.572C549.218 89.644 550.286 91.168 551.966 91.168ZM551.966 90.28C550.958 90.28 550.274 89.164 550.274 86.572C550.274 84.016 550.958 82.924 551.966 82.924C552.962 82.924 553.634 84.016 553.634 86.572C553.634 89.164 552.962 90.28 551.966 90.28ZM559.582 91.168C561.238 91.168 562.306 89.644 562.306 86.572C562.306 83.524 561.238 82.048 559.582 82.048C557.902 82.048 556.834 83.524 556.834 86.572C556.834 89.644 557.902 91.168 559.582 91.168ZM559.582 90.28C558.574 90.28 557.89 89.164 557.89 86.572C557.89 84.016 558.574 82.924 559.582 82.924C560.578 82.924 561.25 84.016 561.25 86.572C561.25 89.164 560.578 90.28 559.582 90.28Z" fill="#ABABAB"/>
<path d="M659.154 91H663.978V90.088H662.202V82.204H661.362C660.894 82.492 660.33 82.696 659.538 82.828V83.536H661.11V90.088H659.154V91ZM666.242 91H671.762V90.064H669.326C668.882 90.064 668.354 90.1 667.886 90.148C669.962 88.192 671.342 86.404 671.342 84.64C671.342 83.068 670.358 82.048 668.786 82.048C667.67 82.048 666.902 82.564 666.182 83.344L666.818 83.956C667.31 83.38 667.934 82.936 668.654 82.936C669.746 82.936 670.262 83.68 670.262 84.688C670.262 86.188 669.002 87.952 666.242 90.364V91ZM674.986 86.32C675.43 86.32 675.79 85.984 675.79 85.492C675.79 84.988 675.43 84.652 674.986 84.652C674.554 84.652 674.206 84.988 674.206 85.492C674.206 85.984 674.554 86.32 674.986 86.32ZM674.986 91.168C675.43 91.168 675.79 90.82 675.79 90.328C675.79 89.824 675.43 89.488 674.986 89.488C674.554 89.488 674.206 89.824 674.206 90.328C674.206 90.82 674.554 91.168 674.986 91.168ZM680.966 91.168C682.622 91.168 683.69 89.644 683.69 86.572C683.69 83.524 682.622 82.048 680.966 82.048C679.286 82.048 678.218 83.524 678.218 86.572C678.218 89.644 679.286 91.168 680.966 91.168ZM680.966 90.28C679.958 90.28 679.274 89.164 679.274 86.572C679.274 84.016 679.958 82.924 680.966 82.924C681.962 82.924 682.634 84.016 682.634 86.572C682.634 89.164 681.962 90.28 680.966 90.28ZM688.582 91.168C690.238 91.168 691.306 89.644 691.306 86.572C691.306 83.524 690.238 82.048 688.582 82.048C686.902 82.048 685.834 83.524 685.834 86.572C685.834 89.644 686.902 91.168 688.582 91.168ZM688.582 90.28C687.574 90.28 686.89 89.164 686.89 86.572C686.89 84.016 687.574 82.924 688.582 82.924C689.578 82.924 690.25 84.016 690.25 86.572C690.25 89.164 689.578 90.28 688.582 90.28Z" fill="#ABABAB"/>
<path d="M535.012 31.812C534.172 32.472 532.648 33.132 531.304 33.576C531.412 33.756 531.532 34.032 531.592 34.224C532.996 33.792 534.592 33.192 535.624 32.472L535.012 31.812ZM535.072 36.648C535.576 37.428 536.128 38.484 536.356 39.144L537.004 38.796C536.776 38.148 536.2 37.128 535.684 36.36L535.072 36.648ZM534.976 39.396C535.432 40.26 535.984 41.412 536.26 42.096L536.968 41.748C536.692 41.1 536.116 39.96 535.648 39.12L534.976 39.396ZM532.264 39.216C532.036 40.08 531.592 41.172 531.052 41.916C531.256 42 531.544 42.18 531.7 42.3C532.252 41.52 532.732 40.356 533.044 39.42L532.264 39.216ZM531.784 36.288C531.784 36.12 532.3 35.916 532.3 35.916V35.904C533.164 35.424 534.088 34.716 534.916 33.912L534.232 33.552C533.548 34.332 532.576 35.064 532.276 35.244C532 35.436 531.76 35.556 531.568 35.58C531.652 35.772 531.748 36.132 531.784 36.288ZM531.784 36.288C532.012 36.204 532.396 36.144 535.108 35.94C535.12 35.772 535.156 35.472 535.204 35.256L532.228 35.448L531.784 35.688V36.288ZM531.7 38.94C531.7 38.784 532.288 38.568 532.288 38.568V38.544C533.716 37.584 535.204 36.24 536.536 34.764L535.864 34.32C534.688 35.76 533.068 37.176 532.552 37.536C532.084 37.908 531.736 38.148 531.448 38.184C531.544 38.4 531.652 38.796 531.7 38.94ZM531.7 38.94C531.976 38.832 532.444 38.784 536.332 38.508C536.308 38.328 536.284 38.028 536.284 37.824L532.18 38.064L531.7 38.34V38.94ZM529.624 39.72C529.96 40.32 530.344 41.112 530.512 41.64L531.16 41.328C530.98 40.824 530.596 40.032 530.236 39.444L529.624 39.72ZM526.972 39.516C526.72 40.332 526.336 41.22 525.928 41.844C526.12 41.928 526.444 42.12 526.588 42.228C526.996 41.58 527.428 40.584 527.716 39.696L526.972 39.516ZM526.6 32.352V38.556H527.356V33.036H529.984V38.556H530.764V32.352H526.6ZM527.02 33.9V34.524H530.356V33.9H527.02ZM527.044 35.352V35.964H530.38V35.352H527.044ZM526.048 38.208V38.952H531.328V38.208H526.048ZM526.972 36.756V37.368H530.32V36.756H526.972ZM528.34 38.712V42.9H529.108V38.712H528.34ZM533.68 38.496V42.192C533.68 42.3 533.656 42.336 533.536 42.336C533.428 42.336 533.092 42.336 532.72 42.336C532.816 42.504 532.912 42.756 532.948 42.936C533.512 42.936 533.884 42.936 534.148 42.84C534.4 42.744 534.46 42.576 534.46 42.216V38.496H533.68ZM543.964 34.224V42.948H544.9V34.224H543.964ZM539.08 33.684V34.56H549.892V33.684H539.08ZM540.256 36.204V41.568H541.156V37.08H548.14V36.204H540.256ZM547.888 36.204V40.428C547.888 40.596 547.84 40.644 547.624 40.668C547.408 40.668 546.688 40.668 545.872 40.644C545.992 40.896 546.136 41.256 546.184 41.532C547.204 41.532 547.888 41.52 548.296 41.376C548.704 41.232 548.812 40.956 548.812 40.428V36.204H547.888ZM543.436 32.1C543.772 32.676 544.156 33.468 544.324 33.948L545.248 33.624C545.068 33.156 544.648 32.388 544.312 31.836L543.436 32.1Z" fill="#ABABAB"/>
<path d="M655.552 128.388V132.072H656.428V129.072H662.68V132.072H663.592V128.388H655.552ZM656.956 129.792V130.392H662.14V129.792H656.956ZM656.956 131.124V131.76H662.128V131.124H656.956ZM654.232 132.552V133.296H664.828V132.552H654.232ZM659.452 134.052V134.784H663.772V134.052H659.452ZM655.768 134.088V134.76H658.72V134.088H655.768ZM655.768 135.564V136.236H658.72V135.564H655.768ZM660.784 134.724L660.064 134.94C660.856 136.908 662.404 138.336 664.516 138.96C664.636 138.744 664.876 138.42 665.056 138.252C663.028 137.748 661.492 136.44 660.784 134.724ZM663.556 134.052V134.196C662.908 136.236 661.072 137.652 659.14 138.228C659.32 138.396 659.536 138.732 659.644 138.936C661.72 138.216 663.64 136.704 664.432 134.244L663.88 134.016L663.724 134.052H663.556ZM654.088 137.412L654.184 138.204C655.408 138.072 657.1 137.88 658.744 137.676L658.72 136.944C657.004 137.136 655.252 137.316 654.088 137.412ZM658.252 132.792V138.96H659.116V132.792H658.252ZM655.24 132.792V137.616H656.08V132.792H655.24ZM667.228 129.18V129.96H677.764V129.18H667.228ZM669.94 131.304H675.136V132.384H669.94V131.304ZM669.04 130.632V133.044H676.072V130.632H669.04ZM667.66 133.716V138.96H668.536V134.484H677.092V133.716H667.66ZM676.48 133.716V138.012C676.48 138.156 676.42 138.192 676.264 138.204C676.12 138.204 675.568 138.216 675.04 138.192C675.16 138.372 675.28 138.66 675.328 138.864C676.096 138.876 676.624 138.864 676.936 138.756C677.272 138.636 677.38 138.444 677.38 138.012V133.716H676.48ZM671.8 128.088C671.98 128.616 672.22 129.312 672.316 129.732L673.228 129.468C673.132 129.072 672.88 128.4 672.676 127.884L671.8 128.088ZM670.36 135.192V135.864H674.176V136.992H670.36V137.664H674.98V135.192H670.36ZM669.892 135.192V138.264H670.732V135.192H669.892ZM683.176 128.532V129.228H690.88V128.532H683.176ZM684.268 130.536H689.68V131.688H684.268V130.536ZM683.464 129.936V132.276H690.52V129.936H683.464ZM685.54 128.76V131.916H686.284V128.76H685.54ZM687.616 128.76V131.916H688.36V128.76H687.616ZM684.556 134.676H689.5V135.36H684.556V134.676ZM684.556 135.924H689.5V136.632H684.556V135.924ZM684.556 133.428H689.5V134.112H684.556V133.428ZM683.716 132.852V137.208H690.376V132.852H683.716ZM687.616 137.808C688.648 138.168 689.716 138.636 690.328 138.996L691.108 138.468C690.412 138.108 689.248 137.64 688.204 137.292L687.616 137.808ZM685.648 137.28C685.012 137.688 683.848 138.132 682.804 138.372C682.972 138.528 683.188 138.804 683.308 138.984C684.376 138.72 685.564 138.264 686.296 137.736L685.648 137.28ZM682.264 127.992C681.688 129.84 680.74 131.688 679.684 132.888C679.84 133.116 680.08 133.596 680.164 133.812C681.352 132.408 682.42 130.296 683.104 128.22L682.264 127.992ZM681.304 130.932V138.96H682.156V130.128L682.132 130.104L681.304 130.932ZM699.076 129.216V130.008H702.46V129.216H699.076ZM697.984 134.568V138.972H698.824V135.348H702.172V138.936H703.036V134.568H697.984ZM698.344 137.652V138.444H702.628V137.652H698.344ZM699.424 127.908C698.86 129.36 697.888 130.728 696.784 131.592C696.988 131.724 697.348 132.036 697.492 132.192C698.584 131.244 699.64 129.744 700.288 128.148L699.424 127.908ZM702.208 129.216V129.372C701.332 131.916 698.932 133.764 696.52 134.52C696.7 134.688 696.928 135.024 697.036 135.252C699.592 134.328 702.064 132.42 703.096 129.444L702.532 129.18L702.376 129.216H702.208ZM699.004 129.84L698.344 130.26C699.16 132.048 700.924 134.04 703.6 134.976C703.72 134.76 703.972 134.4 704.152 134.232C701.512 133.428 699.748 131.544 699.004 129.84ZM693.052 130.5V131.352H697.276V130.5H693.052ZM694.864 127.92V138.948H695.716V127.92H694.864ZM694.828 131.028C694.468 132.756 693.616 134.832 692.764 135.912C692.932 136.116 693.148 136.464 693.244 136.704C694.144 135.492 694.996 133.152 695.392 131.22L694.828 131.028ZM695.656 131.832L695.212 132.228C695.548 132.66 696.412 133.896 696.7 134.424L697.24 133.728C697 133.404 695.944 132.12 695.656 131.832Z" fill="#ABABAB"/>
<path d="M616.26 32.652V33.516H622.152V32.652H616.26ZM619.764 36.228V41.796C619.764 42 619.692 42.048 619.452 42.06C619.236 42.072 618.432 42.072 617.58 42.048C617.712 42.312 617.832 42.684 617.868 42.936C619.044 42.936 619.728 42.924 620.136 42.792C620.544 42.648 620.676 42.372 620.676 41.808V36.228H619.764ZM615.732 35.964V36.816H622.5V35.964H615.732ZM613.332 36.888V42.996H614.232V36.156L614.124 36.108L613.332 36.888ZM614.724 34.488C613.896 35.868 612.576 37.26 611.328 38.148C611.52 38.316 611.832 38.712 611.964 38.892C613.224 37.884 614.64 36.336 615.576 34.812L614.724 34.488ZM614.232 31.92C613.62 32.784 612.456 33.864 611.46 34.536C611.616 34.716 611.856 35.064 611.988 35.256C613.056 34.488 614.292 33.324 615.096 32.268L614.232 31.92ZM624.6 32.772V33.636H630.12V32.772H624.6ZM627.564 36.276V37.14H629.676V36.276H627.564ZM627.156 33.24V40.824H628.032V33.24H627.156ZM625.116 35.46V41.16H625.932V35.46H625.116ZM624.396 40.956L624.564 41.856C626.064 41.52 628.188 41.028 630.192 40.548L630.108 39.72C628.02 40.188 625.8 40.692 624.396 40.956ZM630.936 34.164V35.004H635.508V34.164H630.936ZM631.344 31.92C630.972 33.972 630.312 35.952 629.316 37.2C629.532 37.332 629.892 37.632 630.048 37.8C631.056 36.42 631.8 34.32 632.244 32.076L631.344 31.92ZM633.84 34.596C633.324 38.4 632.148 40.836 629.316 42.204C629.484 42.396 629.76 42.78 629.844 42.996C632.844 41.412 634.128 38.832 634.74 34.692L633.84 34.596ZM631.32 34.932L630.528 35.076C631.188 38.748 632.448 41.628 634.992 42.972C635.136 42.732 635.412 42.384 635.616 42.204C633.18 41.064 631.908 38.28 631.32 34.932ZM642.144 34.716H644.904V36.096H642.144V34.716ZM641.304 34.068V36.744H645.792V34.068H641.304ZM640.752 38.22H642.348V39.996H640.752V38.22ZM639.984 37.56V40.656H643.14V37.56H639.984ZM644.724 38.22H646.404V39.996H644.724V38.22ZM643.956 37.56V40.656H647.196V37.56H643.956ZM637.656 32.484V33.288H647.784V32.484H637.656ZM638.16 32.544V40.044C638.16 41.808 639.048 42.408 640.896 42.408C641.34 42.408 645.36 42.408 646.212 42.408C647.148 42.408 648.06 42.384 648.384 42.3C648.336 42.096 648.276 41.676 648.24 41.436C647.808 41.52 646.884 41.568 646.236 41.568C645.384 41.568 641.58 41.568 640.8 41.568C639.504 41.568 639.036 41.136 639.036 40.116V32.544H638.16Z" fill="#ABABAB"/>
<rect x="501" y="166" width="89" height="36" rx="18" fill="white" stroke="#C4C4C4"/>
<path d="M524.972 181.26V182.268H528.08V181.26H524.972ZM529.472 187.584V188.592H531.668V187.584H529.472ZM529.1 180.252V189.564H530.024V181.272H531.248V189.468H532.208V180.252H529.1ZM527.72 181.26V181.5C527.588 186.552 527.456 188.256 527.192 188.64C527.084 188.796 527 188.832 526.844 188.832C526.664 188.832 526.352 188.832 525.98 188.796C526.136 189.084 526.232 189.516 526.244 189.816C526.664 189.84 527.06 189.828 527.336 189.792C527.648 189.732 527.864 189.624 528.068 189.3C528.428 188.784 528.548 187.032 528.692 181.764C528.704 181.62 528.704 181.26 528.704 181.26H527.72ZM525.872 178.92C525.86 183.696 525.92 187.308 524 189.336C524.252 189.492 524.6 189.828 524.756 190.068C526.832 187.836 526.832 183.96 526.856 178.92H525.872ZM522.368 179.724V180.648H523.712V186.144H522.368V187.068H524.6V179.724H522.368ZM521.828 179.724V188.184H522.716V179.724H521.828ZM541.328 178.956V190.008H542.444V178.956H541.328ZM537.38 180.828V181.86H539.876V180.828H537.38ZM541.868 180.828V181.86H544.472V180.828H541.868ZM541.928 183.312V184.332H544.364V183.312H541.928ZM541.868 185.808V186.84H544.604V185.808H541.868ZM537.464 183.312V184.332H539.732V183.312H537.464ZM536.852 186.348L537.296 187.392C538.064 187.116 538.964 186.78 539.852 186.432L539.696 185.568C538.64 185.868 537.584 186.18 536.852 186.348ZM539.24 178.98V184.404C539.24 186.24 539 188.184 537.08 189.36C537.344 189.528 537.74 189.888 537.92 190.104C540.008 188.784 540.344 186.624 540.344 184.404V178.98H539.24ZM534.416 179.88V180.912H536.096V185.46H534.416V186.504H537.068V179.88H534.416ZM533.84 179.88V187.536H534.8V179.88H533.84ZM550.412 179.424V180.384H556.424V179.424H550.412ZM550.664 185.676V186.636H556.208V185.676H550.664ZM550.04 188.748V189.72H556.592V188.748H550.04ZM552.776 186.132V189.48H553.916V186.132H552.776ZM551.3 180.696C551.06 181.284 550.604 182.208 550.184 182.94C550.736 183.792 551.228 184.74 551.468 185.376L552.368 185.016C552.14 184.476 551.66 183.636 551.18 182.928C551.54 182.316 551.936 181.56 552.236 180.912L551.3 180.696ZM553.244 180.696C553.004 181.284 552.536 182.196 552.08 182.928C552.68 183.78 553.22 184.716 553.46 185.352L554.36 184.98C554.108 184.44 553.604 183.612 553.1 182.916C553.46 182.304 553.88 181.56 554.18 180.912L553.244 180.696ZM555.284 180.696C555.02 181.284 554.516 182.208 554.036 182.94C554.672 183.792 555.26 184.74 555.536 185.376L556.424 185.004C556.16 184.452 555.62 183.624 555.08 182.928C555.464 182.316 555.908 181.584 556.244 180.924L555.284 180.696ZM545.564 180.12V181.104H550.1V180.12H545.564ZM545.396 187.008V188.004H550.22V187.008H545.396ZM547.352 178.884V182.256H548.3V178.884H547.352ZM547.46 182.292V185.712H547.364V190.02H548.312V185.712H548.216V182.292H547.46ZM546.584 184.392H549.104V185.328H546.584V184.392ZM546.584 182.7H549.104V183.612H546.584V182.7ZM545.78 181.884V186.144H549.956V181.884H545.78ZM560.204 184.008V184.776H565.748V184.008H560.204ZM567.008 186.072C566.324 186.636 565.148 187.38 564.296 187.812L564.992 188.436C565.868 188.004 566.972 187.368 567.848 186.732L567.008 186.072ZM560.168 182.472V183.3H565.316V185.484H560.168V186.324H566.456V182.472H560.168ZM563.324 179.304L562.448 179.772C563.768 181.128 566.024 182.4 567.944 183.024C568.1 182.736 568.436 182.292 568.688 182.052C566.744 181.548 564.488 180.444 563.324 179.304ZM562.808 178.764C561.716 180.264 559.544 181.464 557.456 182.076C557.72 182.34 558.02 182.736 558.164 183.012C560.384 182.244 562.508 180.948 563.828 179.268L562.808 178.764ZM559.496 189.948C559.496 189.564 560.612 188.88 560.612 188.88V182.472H559.496V188.172C559.496 188.688 559.208 188.976 558.992 189.108C559.16 189.288 559.412 189.708 559.496 189.948ZM559.496 189.948C559.796 189.792 560.288 189.696 563.48 189.156C563.468 188.928 563.468 188.496 563.504 188.208L560.024 188.712L559.448 189.072L559.496 189.948ZM562.316 187.248C563.852 188.028 565.844 189.228 566.816 189.972L567.62 189.204C566.576 188.448 564.548 187.32 563.06 186.6L562.316 187.248ZM561.368 181.26V182.04H564.68V181.26H561.368Z" fill="black"/>
<rect x="597" y="166" width="89" height="36" rx="18" fill="white" stroke="#C4C4C4"/>
<path d="M635.852 185.136V189.876H636.884V186.156H639.08V189.588H640.148V185.136H635.852ZM637.376 179.784V185.628H638.528V179.784H637.376ZM641.216 178.92V190.008H642.344V178.92H641.216ZM644.504 178.92V189.96H645.656V178.92H644.504ZM635.42 182.268V183.336H640.4V182.268H635.42ZM640.172 181.092V182.184H646.568V181.092H640.172ZM641.744 184.632V185.712H645.188V184.632H641.744ZM641.744 188.268V189.348H645.188V188.268H641.744ZM636.356 188.148V189.168H639.68V188.148H636.356ZM635.636 179.16V180.216H640.16V179.16H635.636ZM653.324 184.572V190.008H654.356V185.604H657.044V189.96H658.124V184.572H653.324ZM655.004 178.896V184.872H656.108V178.896H655.004ZM655.652 181.44V182.496H658.568V181.44H655.652ZM653.864 188.448V189.492H657.548V188.448H653.864ZM648.728 180.072H651.86V182.856H648.728V180.072ZM647.864 179.28V183.648H652.76V179.28H647.864ZM648.812 180.636C649.004 181.2 649.16 181.944 649.184 182.436L649.724 182.268C649.688 181.8 649.532 181.056 649.328 180.492L648.812 180.636ZM649.22 187.596C649.34 188.256 649.4 189.132 649.364 189.696L650.132 189.612C650.144 189.048 650.084 188.184 649.952 187.524L649.22 187.596ZM650.456 187.584C650.684 188.208 650.9 189.024 650.948 189.564L651.68 189.408C651.62 188.88 651.392 188.064 651.152 187.452L650.456 187.584ZM651.668 187.56C652.016 188.16 652.34 188.964 652.46 189.48L653.204 189.204C653.072 188.676 652.736 187.896 652.376 187.308L651.668 187.56ZM648.116 187.308C647.984 188.04 647.708 188.952 647.348 189.516L648.152 189.852C648.5 189.276 648.74 188.34 648.884 187.584L648.116 187.308ZM651.224 180.468C651.128 180.996 650.9 181.812 650.72 182.316L651.176 182.484C651.38 182.028 651.62 181.284 651.836 180.684L651.224 180.468ZM647.828 184.332V185.22H652.796V184.332H647.828ZM649.904 179.676V183.276H649.76V186.396H650.768V183.276H650.624V179.676H649.904ZM647.6 186.024V186.9H652.952V186.024H647.6Z" fill="black"/>
<path d="M597 184C597 174.059 605.059 166 615 166H617V202H615C605.059 202 597 193.941 597 184Z" fill="#EB7E7E" stroke="#C4C4C4"/>
<path d="M420.937 35.5C420.937 33.2563 422.756 31.4375 425 31.4375C427.243 31.4375 429.062 33.2563 429.062 35.5C429.062 37.7437 427.243 39.5625 425 39.5625C422.756 39.5625 420.937 37.7437 420.937 35.5Z" fill="#6B6B6B"/>
<path fill-rule="evenodd" clip-rule="evenodd" d="M414.716 34.0967C415.146 28.8856 419.501 24.875 424.73 24.875H425.27C430.498 24.875 434.853 28.8856 435.283 34.0967C435.514 36.9025 434.647 39.6885 432.865 41.8679L426.874 49.1951C425.905 50.3798 424.094 50.3799 423.125 49.1951L417.134 41.8679C415.352 39.6885 414.485 36.9025 414.716 34.0967ZM425 29.5625C421.72 29.5625 419.062 32.2208 419.062 35.5C419.062 38.7792 421.72 41.4375 425 41.4375C428.279 41.4375 430.937 38.7792 430.937 35.5C430.937 32.2208 428.279 29.5625 425 29.5625Z" fill="#6B6B6B"/>
<path d="M425 72.5C418.125 72.5 412.5 78.125 412.5 85C412.5 91.875 418.125 97.5 425 97.5C431.875 97.5 437.5 91.875 437.5 85C437.5 78.125 431.875 72.5 425 72.5ZM426.25 85C426.25 85.5 426 85.875 425.625 86.125L422.375 88C421.75 88.375 421 88.125 420.625 87.5C420.25 86.875 420.5 86.125 421.125 85.75L423.75 84.25V78.75C423.75 78 424.25 77.5 425 77.5C425.75 77.5 426.25 78 426.25 78.75V85Z" fill="#6B6B6B"/>
<path d="M419.375 128.5C419.004 128.5 418.642 128.61 418.333 128.816C418.025 129.022 417.785 129.315 417.643 129.657C417.501 130 417.464 130.377 417.536 130.741C417.608 131.105 417.787 131.439 418.049 131.701C418.311 131.963 418.646 132.142 419.009 132.214C419.373 132.286 419.75 132.249 420.093 132.107C420.435 131.965 420.728 131.725 420.934 131.417C421.14 131.108 421.25 130.746 421.25 130.375C421.25 129.878 421.052 129.401 420.701 129.049C420.349 128.698 419.872 128.5 419.375 128.5V128.5ZM436.4 134.388L425.888 123.863C425.771 123.747 425.632 123.655 425.48 123.593C425.328 123.531 425.165 123.499 425 123.5H413.75C413.419 123.5 413.101 123.632 412.866 123.866C412.632 124.101 412.5 124.419 412.5 124.75V136C412.499 136.165 412.531 136.328 412.593 136.48C412.655 136.632 412.747 136.771 412.863 136.888L423.388 147.4C424.091 148.102 425.044 148.497 426.038 148.497C427.031 148.497 427.984 148.102 428.688 147.4L436.4 139.75C437.102 139.047 437.497 138.094 437.497 137.1C437.497 136.106 437.102 135.153 436.4 134.45V134.388ZM434.638 137.913L426.913 145.625C426.678 145.858 426.362 145.989 426.031 145.989C425.701 145.989 425.384 145.858 425.15 145.625L415 135.488V126H424.488L434.638 136.15C434.753 136.267 434.845 136.405 434.907 136.558C434.969 136.71 435.001 136.873 435 137.038C434.999 137.365 434.868 137.68 434.638 137.913V137.913Z" fill="#6B6B6B"/>
</g>
<rect width="330" height="330" rx="20" fill="white"/>
<path d="M32.496 27.3C31.704 29.236 30.23 31.018 28.558 32.14C29.042 32.602 29.856 33.614 30.186 34.098C32.078 32.668 33.816 30.38 34.828 27.938L32.496 27.3ZM32.804 29.28L31.572 31.282H41.01V29.28H32.804ZM32.76 30.578L31 31.546C32.386 34.252 35.444 37.046 40.042 38.124C40.372 37.486 41.032 36.496 41.516 35.99C36.984 35.22 34.014 32.91 32.76 30.578ZM26.512 30.49V44.24H28.756V30.49H26.512ZM24.598 27.322C23.674 30.556 22.09 33.768 20.352 35.858C20.77 36.54 21.43 38.058 21.628 38.696C23.828 36.056 25.808 31.898 27.04 28.048L24.598 27.322ZM22.86 33.504V47.958H25.368V31.106L25.302 31.062L22.86 33.504ZM29.636 39.268V41.556H40.68V39.268H29.636ZM30.846 42.15C30.208 43.426 29.174 44.724 28.03 45.604C28.58 45.89 29.57 46.528 30.01 46.902C31.132 45.912 32.342 44.306 33.112 42.81L30.846 42.15ZM36.896 42.986C37.886 44.108 38.964 45.692 39.404 46.748L41.45 45.648C40.944 44.614 39.866 43.14 38.832 42.062L36.896 42.986ZM33.728 37.398V47.914H36.192V37.398H33.728ZM37.82 30.006C36.368 33.174 32.98 35.088 28.8 36.034C29.262 36.54 30.01 37.618 30.252 38.168C34.696 36.848 38.392 34.56 40.284 30.622L37.82 30.006ZM54.914 27.608V47.958H57.576V27.608H54.914ZM51.174 28.532C50.668 31.238 49.744 34.032 48.556 35.77C49.194 36.056 50.338 36.65 50.866 37.046C52.032 35.11 53.088 32.03 53.704 29.06L51.174 28.532ZM52.01 31.59L51.372 34.164H62.196V31.59H52.01ZM48.952 37.97V40.566H63.252V37.97H48.952ZM47.324 27.41C46.224 30.556 44.354 33.68 42.396 35.682C42.836 36.32 43.562 37.772 43.804 38.41C46.158 35.88 48.402 31.92 49.81 28.18L47.324 27.41ZM45.146 33.482V47.958H47.654V30.996V30.974L45.146 33.482ZM73.988 33.416V35.572H85.076V33.416H73.988ZM67.256 44.614V46.66H72.074V44.614H67.256ZM67.3 34.186V36.232H70.798V37.728H67.278V39.774H73.284V34.186H67.3ZM67.3 40.94V43.008H71.172V47.43H73.614V40.94H67.3ZM65.848 34.186V47.892H68.312V34.186H65.848ZM68.29 32.426C68.07 33.196 67.608 34.274 67.234 35.022L69.544 35.528C69.962 34.868 70.49 33.944 71.04 32.91L68.29 32.426ZM74.45 36.892V46.022H76.804V39.114H82.766V36.892H74.45ZM82.04 36.892V43.558C82.04 43.756 81.996 43.822 81.82 43.822C81.644 43.822 81.182 43.822 80.698 43.8C80.962 44.438 81.226 45.34 81.292 46.022C82.326 46.022 83.14 46 83.756 45.626C84.394 45.252 84.548 44.636 84.548 43.602V36.892H82.04ZM78.212 34.054V47.958H80.676V34.054H78.212ZM67.806 28.708V30.666H75.11V28.708H67.806ZM76.958 28.708V30.666H85.186V28.708H76.958ZM67.938 27.124C67.212 29.016 65.936 30.93 64.55 32.184C65.056 32.602 65.936 33.504 66.332 33.966C67.806 32.47 69.346 30.094 70.27 27.784L67.938 27.124ZM77.354 27.08C76.804 28.73 75.792 30.38 74.604 31.436C75.176 31.766 76.144 32.558 76.584 32.976C77.838 31.722 79.07 29.72 79.774 27.696L77.354 27.08ZM69.5 31.546C70.16 32.118 71.04 32.976 71.414 33.504L73.064 31.986C72.646 31.458 71.744 30.688 71.062 30.182L69.5 31.546ZM79.664 31.414C80.324 32.074 81.182 33.02 81.556 33.636L83.338 32.096C82.92 31.524 82.04 30.644 81.336 30.072L79.664 31.414ZM93.524 36.474V38.388H106.174V36.474H93.524ZM92.71 39.774V41.688H106.966V39.774H92.71ZM96.186 35.33V40.852H98.606V35.33H96.186ZM101.026 35.33V40.852H103.468V35.33H101.026ZM100.674 42.59C101.972 43.25 103.402 44.196 104.172 44.878L106.526 43.8C105.558 43.096 103.842 42.15 102.39 41.446L100.674 42.59ZM96.956 41.512C96.032 42.238 94.47 42.942 92.974 43.404C93.546 43.756 94.47 44.526 94.932 44.966C96.406 44.35 98.166 43.36 99.266 42.326L96.956 41.512ZM94.25 28.048V29.676H97.198V30.644H94.25V32.272H99.398V28.048H94.25ZM101.224 28.07V29.698H104.282V30.666H101.224V32.294H106.526V28.07H101.224ZM100.234 28.07V32.36C100.234 34.274 100.718 35.022 102.72 35.022C103.116 35.022 104.766 35.022 105.206 35.022C105.822 35.022 106.482 34.978 106.856 34.868C106.768 34.384 106.724 33.636 106.68 33.086C106.284 33.196 105.58 33.218 105.14 33.218C104.744 33.218 103.248 33.218 102.852 33.218C102.39 33.218 102.324 32.998 102.324 32.404V28.07H100.234ZM93.392 35.66C93.832 35.44 94.58 35.308 99.068 34.582C99.112 34.142 99.266 33.284 99.442 32.756L94.228 33.482L93.304 34.098L93.392 35.66ZM93.392 35.66C93.392 34.978 95.306 33.944 95.306 33.944V28.048H93.26V32.294C93.26 33.152 92.908 33.526 92.556 33.724C92.864 34.186 93.282 35.132 93.392 35.66ZM87.144 28.554C88.156 29.654 89.432 31.194 90.026 32.118L92.05 30.666C91.39 29.786 90.136 28.4 89.08 27.344L87.144 28.554ZM86.924 32.492V34.604H90.972V32.492H86.924ZM91.346 42.018L89.586 42.722C91.214 46.946 93.942 47.628 99.068 47.628C101.664 47.628 104.48 47.562 106.768 47.43C106.9 46.704 107.252 45.516 107.626 44.966C105.118 45.208 101.488 45.362 99.112 45.362C95.13 45.34 92.534 44.988 91.346 42.018ZM90.422 37.794V38.19C89.938 41.996 88.574 44.768 86.418 46.242C86.924 46.594 87.782 47.474 88.134 48.002C90.444 46.264 92.072 42.986 92.732 38.19L91.478 37.75L91.06 37.794H90.422ZM87.43 40.192C87.606 39.994 88.244 39.84 88.728 39.84H91.148V37.794H88.354L87.43 38.3V40.192ZM87.43 40.192C87.43 39.598 89.168 38.74 89.168 38.74C90.246 37.332 91.874 34.494 92.732 32.976L91.126 32.36L90.488 32.624V32.69C89.872 33.878 88.2 36.76 87.65 37.354C87.276 37.816 86.946 37.97 86.594 38.08C86.836 38.52 87.298 39.642 87.43 40.192Z" fill="black"/>
<rect x="221" y="268" width="89" height="36" rx="18" fill="#FACA0F" stroke="#FACA0F"/>
<path d="M258.672 286.918V288.136H263.922V286.918H258.672ZM258.672 289.13V290.362H263.922V289.13H258.672ZM258.644 291.342V292.728H264.412V291.342H258.644ZM256.516 281.416V283.978H257.93V282.83H262.802V283.922H264.314V281.416H256.516ZM260.772 285.742V292H262.312V285.742H260.772ZM259.19 284.58H259.036L257.622 286.036V293.274H259.19V285.98H264.09V284.58H259.19ZM259.974 280.072C259.316 282.718 258 284.86 255.984 286.12C256.278 286.47 256.74 287.226 256.908 287.59C259.204 286.036 260.716 283.502 261.556 280.38L259.974 280.072ZM260.534 283.684C260.786 284.202 261.08 284.93 261.206 285.392L262.662 284.776C262.522 284.342 262.214 283.656 261.92 283.152L260.534 283.684ZM251.602 281.052V282.578H256.278V281.052H251.602ZM253.142 285.238V286.68H254.822V290.166H253.142V291.608H256.264V285.238H253.142ZM253.212 281.696C252.904 284.132 252.302 286.442 251.196 287.898C251.476 288.276 251.924 289.116 252.064 289.494C253.52 287.702 254.332 284.874 254.78 281.948L253.212 281.696ZM252.526 285.238V292.602H253.926V285.238H252.526ZM276.606 280.604V280.856C276.494 284.076 276.34 285.294 276.102 285.588C275.976 285.728 275.85 285.77 275.654 285.77C275.402 285.77 274.898 285.756 274.352 285.7C274.59 286.106 274.758 286.722 274.786 287.156C275.43 287.17 276.046 287.17 276.424 287.114C276.858 287.044 277.166 286.932 277.46 286.568C277.838 286.078 278.006 284.72 278.146 281.22C278.174 281.038 278.174 280.604 278.174 280.604H276.606ZM273.778 281.22C273.596 283.446 273.232 285.462 270.614 286.554C270.95 286.834 271.37 287.38 271.538 287.744C274.492 286.386 275.052 283.992 275.262 281.22H273.778ZM271.006 280.604V282.004H277.152V280.604H271.006ZM272.07 288.136V291.216C272.07 292.532 272.392 292.952 273.778 292.952C274.044 292.952 275.052 292.952 275.346 292.952C276.466 292.952 276.844 292.462 276.984 290.488C276.606 290.39 276.004 290.18 275.71 289.942C275.668 291.44 275.584 291.65 275.192 291.65C274.954 291.65 274.17 291.65 273.988 291.65C273.568 291.65 273.498 291.594 273.498 291.202V288.136H272.07ZM270.824 288.388C270.698 289.452 270.418 290.698 269.97 291.482L271.118 291.958C271.594 291.16 271.846 289.844 271.986 288.71L270.824 288.388ZM273.274 287.604C273.848 288.262 274.492 289.172 274.758 289.774L275.822 289.046C275.528 288.458 274.856 287.59 274.254 286.974L273.274 287.604ZM276.298 288.206C276.816 289.172 277.292 290.46 277.432 291.272L278.65 290.81C278.496 289.984 277.964 288.752 277.432 287.8L276.298 288.206ZM270.838 283.138C271.58 283.768 272.602 284.65 273.092 285.196L274.03 284.174C273.526 283.656 272.462 282.83 271.734 282.242L270.838 283.138ZM266.722 280.646C267.016 281.262 267.366 282.102 267.52 282.648L268.99 282.06C268.808 281.556 268.458 280.758 268.136 280.156L266.722 280.646ZM265.812 284.412V285.672H270.18V284.412H265.812ZM265.812 286.316V287.59H270.18V286.316H265.812ZM265.406 282.438V283.768H270.474V282.438H265.406ZM266.554 288.262V289.592H268.738V291.188H266.554V292.518H270.138V288.262H266.554ZM265.812 288.262V293.078H267.184V288.262H265.812Z" fill="white"/>
<path d="M299.764 37.0002L303.887 32.8872L303.887 32.887C304.122 32.6518 304.254 32.3328 304.254 32.0002C304.254 31.6676 304.122 31.3486 303.887 31.1134C303.652 30.8782 303.333 30.7461 303 30.7461C302.667 30.7461 302.348 30.8782 302.113 31.1134L302.113 31.1136L298 35.2362L293.887 31.1136L293.887 31.1134C293.652 30.8782 293.333 30.7461 293 30.7461C292.667 30.7461 292.348 30.8782 292.113 31.1134C291.878 31.3486 291.746 31.6676 291.746 32.0002C291.746 32.3328 291.878 32.6518 292.113 32.887L292.113 32.8872L296.236 37.0002L292.114 41.1127C292.114 41.1128 292.114 41.1128 292.114 41.1129C291.997 41.229 291.904 41.3672 291.84 41.5195C291.777 41.6718 291.744 41.8352 291.744 42.0002C291.744 42.1652 291.777 42.3286 291.84 42.4809C291.904 42.6329 291.996 42.7709 292.113 42.887C292.229 43.0038 292.367 43.0965 292.519 43.1599C292.672 43.2233 292.835 43.256 293 43.256C293.165 43.256 293.328 43.2233 293.481 43.1599C293.633 43.0964 293.771 43.0035 293.887 42.8865C293.887 42.8864 293.887 42.8863 293.887 42.8862L298 38.7642L302.112 42.8862C302.112 42.8863 302.113 42.8863 302.113 42.8864C302.229 43.0035 302.367 43.0964 302.519 43.1599C302.672 43.2233 302.835 43.256 303 43.256C303.165 43.256 303.328 43.2233 303.481 43.1599C303.633 43.0965 303.771 43.0038 303.887 42.887C304.004 42.7709 304.096 42.6329 304.16 42.4809C304.223 42.3286 304.256 42.1652 304.256 42.0002C304.256 41.8352 304.223 41.6718 304.16 41.5195C304.096 41.3672 304.003 41.229 303.886 41.1128C303.886 41.1128 303.886 41.1127 303.886 41.1127L299.764 37.0002Z" fill="#C4C4C4" stroke="#C4C4C4" stroke-width="0.5"/>
<path d="M54.792 79.894V81.928H60.426V79.894H54.792ZM56.718 75.97V87.904H58.734V75.97H56.718ZM54.396 87.598L55.26 89.776C56.898 89.02 58.932 88.048 60.804 87.13L60.318 85.222C58.158 86.122 55.872 87.076 54.396 87.598ZM65.106 75.718V88.426H67.14V75.718H65.106ZM59.778 82.954L60.588 84.862L69.894 80.83L69.102 78.994L59.778 82.954ZM61.56 77.464V89.11C61.56 91.612 62.244 92.26 64.71 92.26C65.268 92.26 67.968 92.26 68.562 92.26C70.668 92.26 71.316 91.414 71.586 88.858C71.01 88.75 70.164 88.408 69.696 88.084C69.552 89.938 69.372 90.334 68.382 90.334C67.824 90.334 65.43 90.334 64.89 90.334C63.774 90.334 63.612 90.19 63.612 89.128V77.464H61.56ZM68.58 79.498C68.544 82.018 68.382 85.384 68.112 87.31L69.876 87.814C70.308 85.636 70.542 82.342 70.65 79.822L70.74 79.498L69.102 78.994L68.382 79.498H68.58ZM80.514 80.488H83.466V81.982H80.514V80.488ZM78.498 79.084V83.404H85.608V79.084H78.498ZM78.39 85.636H79.794V87.616H78.39V85.636ZM76.644 84.178V89.056H81.63V84.178H76.644ZM84.222 85.636H85.68V87.616H84.222V85.636ZM82.44 84.178V89.056H87.552V84.178H82.44ZM73.008 76.348V78.256H88.38V76.348H73.008ZM73.728 76.384V87.652C73.728 90.982 75.222 91.972 78.408 91.972C79.2 91.972 84.312 91.972 85.536 91.972C86.994 91.972 88.596 91.954 89.28 91.774C89.172 91.27 89.046 90.28 88.992 89.74C88.236 89.902 86.796 89.992 85.644 89.992C84.348 89.992 79.29 89.992 78.228 89.992C76.374 89.992 75.834 89.38 75.834 87.814V76.384H73.728Z" fill="black"/>
<rect x="108" y="67" width="80" height="33" rx="16.5" fill="#F3F3F3"/>
<rect x="200" y="67" width="80" height="33" rx="16.5" fill="#F3F3F3"/>
<path d="M145.012 78.812C144.172 79.472 142.648 80.132 141.304 80.576C141.412 80.756 141.532 81.032 141.592 81.224C142.996 80.792 144.592 80.192 145.624 79.472L145.012 78.812ZM145.072 83.648C145.576 84.428 146.128 85.484 146.356 86.144L147.004 85.796C146.776 85.148 146.2 84.128 145.684 83.36L145.072 83.648ZM144.976 86.396C145.432 87.26 145.984 88.412 146.26 89.096L146.968 88.748C146.692 88.1 146.116 86.96 145.648 86.12L144.976 86.396ZM142.264 86.216C142.036 87.08 141.592 88.172 141.052 88.916C141.256 89 141.544 89.18 141.7 89.3C142.252 88.52 142.732 87.356 143.044 86.42L142.264 86.216ZM141.784 83.288C141.784 83.12 142.3 82.916 142.3 82.916V82.904C143.164 82.424 144.088 81.716 144.916 80.912L144.232 80.552C143.548 81.332 142.576 82.064 142.276 82.244C142 82.436 141.76 82.556 141.568 82.58C141.652 82.772 141.748 83.132 141.784 83.288ZM141.784 83.288C142.012 83.204 142.396 83.144 145.108 82.94C145.12 82.772 145.156 82.472 145.204 82.256L142.228 82.448L141.784 82.688V83.288ZM141.7 85.94C141.7 85.784 142.288 85.568 142.288 85.568V85.544C143.716 84.584 145.204 83.24 146.536 81.764L145.864 81.32C144.688 82.76 143.068 84.176 142.552 84.536C142.084 84.908 141.736 85.148 141.448 85.184C141.544 85.4 141.652 85.796 141.7 85.94ZM141.7 85.94C141.976 85.832 142.444 85.784 146.332 85.508C146.308 85.328 146.284 85.028 146.284 84.824L142.18 85.064L141.7 85.34V85.94ZM139.624 86.72C139.96 87.32 140.344 88.112 140.512 88.64L141.16 88.328C140.98 87.824 140.596 87.032 140.236 86.444L139.624 86.72ZM136.972 86.516C136.72 87.332 136.336 88.22 135.928 88.844C136.12 88.928 136.444 89.12 136.588 89.228C136.996 88.58 137.428 87.584 137.716 86.696L136.972 86.516ZM136.6 79.352V85.556H137.356V80.036H139.984V85.556H140.764V79.352H136.6ZM137.02 80.9V81.524H140.356V80.9H137.02ZM137.044 82.352V82.964H140.38V82.352H137.044ZM136.048 85.208V85.952H141.328V85.208H136.048ZM136.972 83.756V84.368H140.32V83.756H136.972ZM138.34 85.712V89.9H139.108V85.712H138.34ZM143.68 85.496V89.192C143.68 89.3 143.656 89.336 143.536 89.336C143.428 89.336 143.092 89.336 142.72 89.336C142.816 89.504 142.912 89.756 142.948 89.936C143.512 89.936 143.884 89.936 144.148 89.84C144.4 89.744 144.46 89.576 144.46 89.216V85.496H143.68ZM153.964 81.224V89.948H154.9V81.224H153.964ZM149.08 80.684V81.56H159.892V80.684H149.08ZM150.256 83.204V88.568H151.156V84.08H158.14V83.204H150.256ZM157.888 83.204V87.428C157.888 87.596 157.84 87.644 157.624 87.668C157.408 87.668 156.688 87.668 155.872 87.644C155.992 87.896 156.136 88.256 156.184 88.532C157.204 88.532 157.888 88.52 158.296 88.376C158.704 88.232 158.812 87.956 158.812 87.428V83.204H157.888ZM153.436 79.1C153.772 79.676 154.156 80.468 154.324 80.948L155.248 80.624C155.068 80.156 154.648 79.388 154.312 78.836L153.436 79.1Z" fill="#ABABAB"/>
<path d="M226.26 79.652V80.516H232.152V79.652H226.26ZM229.764 83.228V88.796C229.764 89 229.692 89.048 229.452 89.06C229.236 89.072 228.432 89.072 227.58 89.048C227.712 89.312 227.832 89.684 227.868 89.936C229.044 89.936 229.728 89.924 230.136 89.792C230.544 89.648 230.676 89.372 230.676 88.808V83.228H229.764ZM225.732 82.964V83.816H232.5V82.964H225.732ZM223.332 83.888V89.996H224.232V83.156L224.124 83.108L223.332 83.888ZM224.724 81.488C223.896 82.868 222.576 84.26 221.328 85.148C221.52 85.316 221.832 85.712 221.964 85.892C223.224 84.884 224.64 83.336 225.576 81.812L224.724 81.488ZM224.232 78.92C223.62 79.784 222.456 80.864 221.46 81.536C221.616 81.716 221.856 82.064 221.988 82.256C223.056 81.488 224.292 80.324 225.096 79.268L224.232 78.92ZM234.6 79.772V80.636H240.12V79.772H234.6ZM237.564 83.276V84.14H239.676V83.276H237.564ZM237.156 80.24V87.824H238.032V80.24H237.156ZM235.116 82.46V88.16H235.932V82.46H235.116ZM234.396 87.956L234.564 88.856C236.064 88.52 238.188 88.028 240.192 87.548L240.108 86.72C238.02 87.188 235.8 87.692 234.396 87.956ZM240.936 81.164V82.004H245.508V81.164H240.936ZM241.344 78.92C240.972 80.972 240.312 82.952 239.316 84.2C239.532 84.332 239.892 84.632 240.048 84.8C241.056 83.42 241.8 81.32 242.244 79.076L241.344 78.92ZM243.84 81.596C243.324 85.4 242.148 87.836 239.316 89.204C239.484 89.396 239.76 89.78 239.844 89.996C242.844 88.412 244.128 85.832 244.74 81.692L243.84 81.596ZM241.32 81.932L240.528 82.076C241.188 85.748 242.448 88.628 244.992 89.972C245.136 89.732 245.412 89.384 245.616 89.204C243.18 88.064 241.908 85.28 241.32 81.932ZM252.144 81.716H254.904V83.096H252.144V81.716ZM251.304 81.068V83.744H255.792V81.068H251.304ZM250.752 85.22H252.348V86.996H250.752V85.22ZM249.984 84.56V87.656H253.14V84.56H249.984ZM254.724 85.22H256.404V86.996H254.724V85.22ZM253.956 84.56V87.656H257.196V84.56H253.956ZM247.656 79.484V80.288H257.784V79.484H247.656ZM248.16 79.544V87.044C248.16 88.808 249.048 89.408 250.896 89.408C251.34 89.408 255.36 89.408 256.212 89.408C257.148 89.408 258.06 89.384 258.384 89.3C258.336 89.096 258.276 88.676 258.24 88.436C257.808 88.52 256.884 88.568 256.236 88.568C255.384 88.568 251.58 88.568 250.8 88.568C249.504 88.568 249.036 88.136 249.036 87.116V79.544H248.16Z" fill="#ABABAB"/>
<path d="M61.686 128.244V130.116H70.902V128.244H61.686ZM61.11 124.626V126.534H71.388V124.626H61.11ZM61.128 131.52V133.41H71.316V131.52H61.128ZM65.178 122.7V129.306H67.302V122.7H65.178ZM67.464 129.882V137.298C67.464 137.55 67.374 137.604 67.086 137.604C66.816 137.622 65.826 137.622 64.944 137.586C65.232 138.144 65.556 139.008 65.628 139.602C66.978 139.602 67.95 139.566 68.67 139.242C69.372 138.936 69.57 138.378 69.57 137.334V129.882H67.464ZM61.848 134.616C62.586 135.57 63.504 136.866 63.918 137.658L65.826 136.542C65.358 135.75 64.368 134.508 63.648 133.644L61.848 134.616ZM56.142 123.816V125.742H58.77V134.202H56.142V136.128H60.786V123.816H56.142ZM56.25 128.928V130.818H59.742V128.928H56.25ZM55.134 123.816V137.73H57.132V123.816H55.134ZM82.656 123.42V125.238H85.698V123.42H82.656ZM80.226 130.8V132.618H86.868V130.8H80.226ZM74.664 126.93V128.802H79.578V126.93H74.664ZM74.664 130.602V132.492H79.524V130.602H74.664ZM82.602 132.474L80.874 132.906C82.206 136.326 84.492 138.612 88.182 139.62C88.47 139.062 89.064 138.198 89.514 137.766C86.058 137.046 83.718 135.138 82.602 132.474ZM72.396 134.778L72.72 136.812C74.718 136.488 77.4 136.074 79.902 135.642L79.794 133.806C77.094 134.184 74.286 134.58 72.396 134.778ZM78.696 122.502C77.508 123.15 75.618 123.96 73.908 124.464C74.142 124.914 74.484 125.652 74.61 126.102C76.446 125.598 78.642 124.914 80.388 124.158L78.696 122.502ZM81.396 123.402V125.634C81.396 126.912 81.18 128.424 79.434 129.522C79.848 129.792 80.658 130.53 80.946 130.908C82.962 129.594 83.376 127.434 83.376 125.688V123.402H81.396ZM86.4 130.8V131.124C85.554 134.85 82.836 137.01 79.056 137.856C79.47 138.288 79.938 139.152 80.154 139.71C84.42 138.504 87.372 136.092 88.506 131.178L87.174 130.746L86.814 130.8H86.4ZM73.854 124.464V139.26H75.924V125.184L73.854 124.464ZM85.14 123.402V127.614C85.14 129.306 85.482 130.008 87.192 130.008C87.444 130.008 87.984 130.008 88.218 130.008C88.596 130.008 89.01 129.99 89.262 129.882C89.19 129.432 89.154 128.73 89.118 128.226C88.884 128.298 88.47 128.334 88.2 128.334C88.02 128.334 87.57 128.334 87.39 128.334C87.174 128.334 87.12 128.154 87.12 127.65V123.402H85.14Z" fill="black"/>
<rect x="108" y="115" width="87" height="33" rx="16.5" fill="#F3F3F3"/>
<rect x="218" y="115" width="87" height="33" rx="16.5" fill="#F3F3F3"/>
<path d="M182.9 130.2C182.5 129.8 181.9 129.8 181.5 130.2L178 133.7L174.5 130.2C174.1 129.8 173.5 129.8 173.1 130.2C172.7 130.6 172.7 131.2 173.1 131.6L177.3 135.8C177.5 136 177.7 136.1 178 136.1C178.3 136.1 178.5 136 178.7 135.8L182.9 131.6C183.3 131.2 183.3 130.6 182.9 130.2Z" fill="black"/>
<path d="M292.9 130.2C292.5 129.8 291.9 129.8 291.5 130.2L288 133.7L284.5 130.2C284.1 129.8 283.5 129.8 283.1 130.2C282.7 130.6 282.7 131.2 283.1 131.6L287.3 135.8C287.5 136 287.7 136.1 288 136.1C288.3 136.1 288.5 136 288.7 135.8L292.9 131.6C293.3 131.2 293.3 130.6 292.9 130.2Z" fill="black"/>
<path d="M211.458 131H201.541C201.353 131 201.173 131.105 201.04 131.293C200.908 131.48 200.833 131.735 200.833 132C200.833 132.265 200.908 132.52 201.04 132.707C201.173 132.895 201.353 133 201.541 133H211.458C211.646 133 211.826 132.895 211.959 132.707C212.092 132.52 212.166 132.265 212.166 132C212.166 131.735 212.092 131.48 211.959 131.293C211.826 131.105 211.646 131 211.458 131Z" fill="black"/>
<path d="M130.434 137.168C132.09 137.168 133.158 135.644 133.158 132.572C133.158 129.524 132.09 128.048 130.434 128.048C128.754 128.048 127.686 129.524 127.686 132.572C127.686 135.644 128.754 137.168 130.434 137.168ZM130.434 136.28C129.426 136.28 128.742 135.164 128.742 132.572C128.742 130.016 129.426 128.924 130.434 128.924C131.43 128.924 132.102 130.016 132.102 132.572C132.102 135.164 131.43 136.28 130.434 136.28ZM137.522 137.168C139.178 137.168 140.714 135.8 140.714 132.224C140.714 129.428 139.454 128.048 137.762 128.048C136.394 128.048 135.242 129.2 135.242 130.904C135.242 132.728 136.19 133.664 137.666 133.664C138.422 133.664 139.202 133.208 139.754 132.512L139.694 131.636C139.118 132.512 138.434 132.86 137.846 132.86C136.802 132.86 136.274 132.08 136.274 130.904C136.274 129.692 136.922 128.9 137.762 128.9C138.998 128.9 139.682 130.064 139.682 132.224C139.682 135.236 138.662 136.256 137.486 136.256C136.922 136.256 136.382 136.004 136.01 135.572L135.398 136.268C135.89 136.784 136.562 137.168 137.522 137.168ZM143.986 132.32C144.43 132.32 144.79 131.984 144.79 131.492C144.79 130.988 144.43 130.652 143.986 130.652C143.554 130.652 143.206 130.988 143.206 131.492C143.206 131.984 143.554 132.32 143.986 132.32ZM143.986 137.168C144.43 137.168 144.79 136.82 144.79 136.328C144.79 135.824 144.43 135.488 143.986 135.488C143.554 135.488 143.206 135.824 143.206 136.328C143.206 136.82 143.554 137.168 143.986 137.168ZM149.966 137.168C151.622 137.168 152.69 135.644 152.69 132.572C152.69 129.524 151.622 128.048 149.966 128.048C148.286 128.048 147.218 129.524 147.218 132.572C147.218 135.644 148.286 137.168 149.966 137.168ZM149.966 136.28C148.958 136.28 148.274 135.164 148.274 132.572C148.274 130.016 148.958 128.924 149.966 128.924C150.962 128.924 151.634 130.016 151.634 132.572C151.634 135.164 150.962 136.28 149.966 136.28ZM157.582 137.168C159.238 137.168 160.306 135.644 160.306 132.572C160.306 129.524 159.238 128.048 157.582 128.048C155.902 128.048 154.834 129.524 154.834 132.572C154.834 135.644 155.902 137.168 157.582 137.168ZM157.582 136.28C156.574 136.28 155.89 135.164 155.89 132.572C155.89 130.016 156.574 128.924 157.582 128.924C158.578 128.924 159.25 130.016 159.25 132.572C159.25 135.164 158.578 136.28 157.582 136.28Z" fill="#ABABAB"/>
<path d="M238.154 137H242.978V136.088H241.202V128.204H240.362C239.894 128.492 239.33 128.696 238.538 128.828V129.536H240.11V136.088H238.154V137ZM245.242 137H250.762V136.064H248.326C247.882 136.064 247.354 136.1 246.886 136.148C248.962 134.192 250.342 132.404 250.342 130.64C250.342 129.068 249.358 128.048 247.786 128.048C246.67 128.048 245.902 128.564 245.182 129.344L245.818 129.956C246.31 129.38 246.934 128.936 247.654 128.936C248.746 128.936 249.262 129.68 249.262 130.688C249.262 132.188 248.002 133.952 245.242 136.364V137ZM253.986 132.32C254.43 132.32 254.79 131.984 254.79 131.492C254.79 130.988 254.43 130.652 253.986 130.652C253.554 130.652 253.206 130.988 253.206 131.492C253.206 131.984 253.554 132.32 253.986 132.32ZM253.986 137.168C254.43 137.168 254.79 136.82 254.79 136.328C254.79 135.824 254.43 135.488 253.986 135.488C253.554 135.488 253.206 135.824 253.206 136.328C253.206 136.82 253.554 137.168 253.986 137.168ZM259.966 137.168C261.622 137.168 262.69 135.644 262.69 132.572C262.69 129.524 261.622 128.048 259.966 128.048C258.286 128.048 257.218 129.524 257.218 132.572C257.218 135.644 258.286 137.168 259.966 137.168ZM259.966 136.28C258.958 136.28 258.274 135.164 258.274 132.572C258.274 130.016 258.958 128.924 259.966 128.924C260.962 128.924 261.634 130.016 261.634 132.572C261.634 135.164 260.962 136.28 259.966 136.28ZM267.582 137.168C269.238 137.168 270.306 135.644 270.306 132.572C270.306 129.524 269.238 128.048 267.582 128.048C265.902 128.048 264.834 129.524 264.834 132.572C264.834 135.644 265.902 137.168 267.582 137.168ZM267.582 136.28C266.574 136.28 265.89 135.164 265.89 132.572C265.89 130.016 266.574 128.924 267.582 128.924C268.578 128.924 269.25 130.016 269.25 132.572C269.25 135.164 268.578 136.28 267.582 136.28Z" fill="#ABABAB"/>
<path d="M59.706 172.51V174.076H71.298V172.51H59.706ZM61.902 176.11H68.778V177.334H61.902V176.11ZM60.048 174.85V178.576H70.74V174.85H60.048ZM63.018 173.086V177.856H64.71V173.086H63.018ZM65.898 173.086V177.856H67.626V173.086H65.898ZM62.316 182.23H68.454V182.896H62.316V182.23ZM62.316 184.048H68.454V184.732H62.316V184.048ZM62.316 180.412H68.454V181.078H62.316V180.412ZM60.318 179.206V185.938H70.56V179.206H60.318ZM65.952 186.946C67.428 187.45 68.976 188.152 69.858 188.674L71.712 187.468C70.668 186.964 68.868 186.262 67.338 185.758L65.952 186.946ZM63.27 185.722C62.28 186.316 60.588 186.874 59.04 187.18C59.418 187.54 59.922 188.206 60.156 188.638C61.758 188.296 63.576 187.63 64.764 186.802L63.27 185.722ZM57.762 171.754C56.988 174.382 55.656 177.028 54.198 178.72C54.54 179.296 55.062 180.52 55.242 181.06C57.078 178.9 58.734 175.48 59.76 172.33L57.762 171.754ZM56.34 176.686V188.602H58.392V174.742L58.338 174.706L56.34 176.686ZM78.516 174.742V176.848H88.596V174.742H78.516ZM79.578 177.856C80.046 180.286 80.514 183.454 80.64 185.326L82.764 184.714C82.584 182.896 82.062 179.8 81.522 177.406L79.578 177.856ZM85.626 177.352C85.356 180.124 84.69 183.85 84.042 186.19L85.914 186.586C86.598 184.3 87.372 180.736 87.894 177.694L85.626 177.352ZM77.868 185.83V187.9H89.208V185.83H77.868ZM81.936 171.97C82.26 172.852 82.638 174.058 82.764 174.814L84.924 174.22C84.726 173.446 84.348 172.33 84.006 171.448L81.936 171.97ZM76.644 171.79C75.726 174.364 74.16 176.92 72.54 178.558C72.9 179.08 73.494 180.268 73.692 180.79C75.654 178.738 77.526 175.498 78.678 172.42L76.644 171.79ZM74.826 176.758V188.602H77.004V174.598V174.58L74.826 176.758Z" fill="black"/>
<rect x="108" y="163" width="87" height="33" rx="16.5" fill="#F3F3F3"/>
<rect x="218" y="163" width="87" height="33" rx="16.5" fill="#F3F3F3"/>
<path d="M211.458 179H201.541C201.353 179 201.173 179.105 201.04 179.293C200.908 179.48 200.833 179.735 200.833 180C200.833 180.265 200.908 180.52 201.04 180.707C201.173 180.895 201.353 181 201.541 181H211.458C211.646 181 211.826 180.895 211.959 180.707C212.092 180.52 212.166 180.265 212.166 180C212.166 179.735 212.092 179.48 211.959 179.293C211.826 179.105 211.646 179 211.458 179Z" fill="black"/>
<path d="M128.552 173.388V177.072H129.428V174.072H135.68V177.072H136.592V173.388H128.552ZM129.956 174.792V175.392H135.14V174.792H129.956ZM129.956 176.124V176.76H135.128V176.124H129.956ZM127.232 177.552V178.296H137.828V177.552H127.232ZM132.452 179.052V179.784H136.772V179.052H132.452ZM128.768 179.088V179.76H131.72V179.088H128.768ZM128.768 180.564V181.236H131.72V180.564H128.768ZM133.784 179.724L133.064 179.94C133.856 181.908 135.404 183.336 137.516 183.96C137.636 183.744 137.876 183.42 138.056 183.252C136.028 182.748 134.492 181.44 133.784 179.724ZM136.556 179.052V179.196C135.908 181.236 134.072 182.652 132.14 183.228C132.32 183.396 132.536 183.732 132.644 183.936C134.72 183.216 136.64 181.704 137.432 179.244L136.88 179.016L136.724 179.052H136.556ZM127.088 182.412L127.184 183.204C128.408 183.072 130.1 182.88 131.744 182.676L131.72 181.944C130.004 182.136 128.252 182.316 127.088 182.412ZM131.252 177.792V183.96H132.116V177.792H131.252ZM128.24 177.792V182.616H129.08V177.792H128.24ZM142.688 172.968C142.016 174.792 140.9 176.592 139.712 177.756C139.88 177.96 140.132 178.44 140.228 178.644C141.524 177.3 142.76 175.272 143.54 173.232L142.688 172.968ZM141.44 176.064V183.948H142.304V175.224L142.28 175.212L141.44 176.064ZM144.656 177.54V178.38H150.812V177.54H144.656ZM149.66 172.86C148.364 173.364 146.06 173.844 144.044 174.156C144.14 174.36 144.272 174.66 144.308 174.864C146.396 174.576 148.772 174.108 150.38 173.532L149.66 172.86ZM147.404 174.048C147.584 179.472 148.208 183.84 149.984 183.876C150.44 183.888 150.848 183.36 151.088 181.548C150.932 181.476 150.596 181.272 150.44 181.104C150.368 182.232 150.2 182.868 149.972 182.868C149.024 182.832 148.352 178.8 148.232 174.048H147.404ZM143.852 182.988C144.092 182.832 144.464 182.7 147.116 181.944C147.104 181.752 147.092 181.416 147.104 181.188L144.2 181.932L143.792 182.244L143.852 182.988ZM143.852 182.988C143.852 182.688 144.896 182.196 144.896 182.196V174.36L144.044 174.168V181.476C144.044 181.944 143.72 182.148 143.504 182.244C143.636 182.424 143.804 182.784 143.852 182.988ZM145.148 182.916V183.672H148.352V182.916H145.148ZM156.176 173.532V174.228H163.88V173.532H156.176ZM157.268 175.536H162.68V176.688H157.268V175.536ZM156.464 174.936V177.276H163.52V174.936H156.464ZM158.54 173.76V176.916H159.284V173.76H158.54ZM160.616 173.76V176.916H161.36V173.76H160.616ZM157.556 179.676H162.5V180.36H157.556V179.676ZM157.556 180.924H162.5V181.632H157.556V180.924ZM157.556 178.428H162.5V179.112H157.556V178.428ZM156.716 177.852V182.208H163.376V177.852H156.716ZM160.616 182.808C161.648 183.168 162.716 183.636 163.328 183.996L164.108 183.468C163.412 183.108 162.248 182.64 161.204 182.292L160.616 182.808ZM158.648 182.28C158.012 182.688 156.848 183.132 155.804 183.372C155.972 183.528 156.188 183.804 156.308 183.984C157.376 183.72 158.564 183.264 159.296 182.736L158.648 182.28ZM155.264 172.992C154.688 174.84 153.74 176.688 152.684 177.888C152.84 178.116 153.08 178.596 153.164 178.812C154.352 177.408 155.42 175.296 156.104 173.22L155.264 172.992ZM154.304 175.932V183.96H155.156V175.128L155.132 175.104L154.304 175.932ZM172.076 174.216V175.008H175.46V174.216H172.076ZM170.984 179.568V183.972H171.824V180.348H175.172V183.936H176.036V179.568H170.984ZM171.344 182.652V183.444H175.628V182.652H171.344ZM172.424 172.908C171.86 174.36 170.888 175.728 169.784 176.592C169.988 176.724 170.348 177.036 170.492 177.192C171.584 176.244 172.64 174.744 173.288 173.148L172.424 172.908ZM175.208 174.216V174.372C174.332 176.916 171.932 178.764 169.52 179.52C169.7 179.688 169.928 180.024 170.036 180.252C172.592 179.328 175.064 177.42 176.096 174.444L175.532 174.18L175.376 174.216H175.208ZM172.004 174.84L171.344 175.26C172.16 177.048 173.924 179.04 176.6 179.976C176.72 179.76 176.972 179.4 177.152 179.232C174.512 178.428 172.748 176.544 172.004 174.84ZM166.052 175.5V176.352H170.276V175.5H166.052ZM167.864 172.92V183.948H168.716V172.92H167.864ZM167.828 176.028C167.468 177.756 166.616 179.832 165.764 180.912C165.932 181.116 166.148 181.464 166.244 181.704C167.144 180.492 167.996 178.152 168.392 176.22L167.828 176.028ZM168.656 176.832L168.212 177.228C168.548 177.66 169.412 178.896 169.7 179.424L170.24 178.728C170 178.404 168.944 177.12 168.656 176.832Z" fill="#ABABAB"/>
<path d="M238.552 173.388V177.072H239.428V174.072H245.68V177.072H246.592V173.388H238.552ZM239.956 174.792V175.392H245.14V174.792H239.956ZM239.956 176.124V176.76H245.128V176.124H239.956ZM237.232 177.552V178.296H247.828V177.552H237.232ZM242.452 179.052V179.784H246.772V179.052H242.452ZM238.768 179.088V179.76H241.72V179.088H238.768ZM238.768 180.564V181.236H241.72V180.564H238.768ZM243.784 179.724L243.064 179.94C243.856 181.908 245.404 183.336 247.516 183.96C247.636 183.744 247.876 183.42 248.056 183.252C246.028 182.748 244.492 181.44 243.784 179.724ZM246.556 179.052V179.196C245.908 181.236 244.072 182.652 242.14 183.228C242.32 183.396 242.536 183.732 242.644 183.936C244.72 183.216 246.64 181.704 247.432 179.244L246.88 179.016L246.724 179.052H246.556ZM237.088 182.412L237.184 183.204C238.408 183.072 240.1 182.88 241.744 182.676L241.72 181.944C240.004 182.136 238.252 182.316 237.088 182.412ZM241.252 177.792V183.96H242.116V177.792H241.252ZM238.24 177.792V182.616H239.08V177.792H238.24ZM250.228 174.18V174.96H260.764V174.18H250.228ZM252.94 176.304H258.136V177.384H252.94V176.304ZM252.04 175.632V178.044H259.072V175.632H252.04ZM250.66 178.716V183.96H251.536V179.484H260.092V178.716H250.66ZM259.48 178.716V183.012C259.48 183.156 259.42 183.192 259.264 183.204C259.12 183.204 258.568 183.216 258.04 183.192C258.16 183.372 258.28 183.66 258.328 183.864C259.096 183.876 259.624 183.864 259.936 183.756C260.272 183.636 260.38 183.444 260.38 183.012V178.716H259.48ZM254.8 173.088C254.98 173.616 255.22 174.312 255.316 174.732L256.228 174.468C256.132 174.072 255.88 173.4 255.676 172.884L254.8 173.088ZM253.36 180.192V180.864H257.176V181.992H253.36V182.664H257.98V180.192H253.36ZM252.892 180.192V183.264H253.732V180.192H252.892ZM266.176 173.532V174.228H273.88V173.532H266.176ZM267.268 175.536H272.68V176.688H267.268V175.536ZM266.464 174.936V177.276H273.52V174.936H266.464ZM268.54 173.76V176.916H269.284V173.76H268.54ZM270.616 173.76V176.916H271.36V173.76H270.616ZM267.556 179.676H272.5V180.36H267.556V179.676ZM267.556 180.924H272.5V181.632H267.556V180.924ZM267.556 178.428H272.5V179.112H267.556V178.428ZM266.716 177.852V182.208H273.376V177.852H266.716ZM270.616 182.808C271.648 183.168 272.716 183.636 273.328 183.996L274.108 183.468C273.412 183.108 272.248 182.64 271.204 182.292L270.616 182.808ZM268.648 182.28C268.012 182.688 266.848 183.132 265.804 183.372C265.972 183.528 266.188 183.804 266.308 183.984C267.376 183.72 268.564 183.264 269.296 182.736L268.648 182.28ZM265.264 172.992C264.688 174.84 263.74 176.688 262.684 177.888C262.84 178.116 263.08 178.596 263.164 178.812C264.352 177.408 265.42 175.296 266.104 173.22L265.264 172.992ZM264.304 175.932V183.96H265.156V175.128L265.132 175.104L264.304 175.932ZM282.076 174.216V175.008H285.46V174.216H282.076ZM280.984 179.568V183.972H281.824V180.348H285.172V183.936H286.036V179.568H280.984ZM281.344 182.652V183.444H285.628V182.652H281.344ZM282.424 172.908C281.86 174.36 280.888 175.728 279.784 176.592C279.988 176.724 280.348 177.036 280.492 177.192C281.584 176.244 282.64 174.744 283.288 173.148L282.424 172.908ZM285.208 174.216V174.372C284.332 176.916 281.932 178.764 279.52 179.52C279.7 179.688 279.928 180.024 280.036 180.252C282.592 179.328 285.064 177.42 286.096 174.444L285.532 174.18L285.376 174.216H285.208ZM282.004 174.84L281.344 175.26C282.16 177.048 283.924 179.04 286.6 179.976C286.72 179.76 286.972 179.4 287.152 179.232C284.512 178.428 282.748 176.544 282.004 174.84ZM276.052 175.5V176.352H280.276V175.5H276.052ZM277.864 172.92V183.948H278.716V172.92H277.864ZM277.828 176.028C277.468 177.756 276.616 179.832 275.764 180.912C275.932 181.116 276.148 181.464 276.244 181.704C277.144 180.492 277.996 178.152 278.392 176.22L277.828 176.028ZM278.656 176.832L278.212 177.228C278.548 177.66 279.412 178.896 279.7 179.424L280.24 178.728C280 178.404 278.944 177.12 278.656 176.832Z" fill="#ABABAB"/>
<path d="M25.994 231.204C26.462 231.636 27.002 232.248 27.254 232.662L28.46 231.798C28.208 231.402 27.632 230.808 27.164 230.43L25.994 231.204ZM20.756 232.23V233.994H28.73V232.23H20.756ZM20.738 225.534V227.244H28.64V225.534H20.738ZM26.804 222.438C26.624 223.122 26.264 224.112 25.976 224.778L27.362 225.228C27.704 224.634 28.136 223.752 28.568 222.906L26.804 222.438ZM23.852 221.826V230.412H25.724V221.826H23.852ZM20.972 222.906C21.386 223.608 21.764 224.526 21.872 225.138L23.402 224.544C23.276 223.932 22.862 223.032 22.43 222.366L20.972 222.906ZM23.942 235.614C25.04 236.28 26.552 237.252 27.254 237.882L28.424 236.406C27.668 235.812 26.12 234.894 25.058 234.3L23.942 235.614ZM26.624 227.676L25.58 228.45C26.156 228.954 27.362 230.106 27.83 230.682L28.982 229.332C28.622 229.026 27.11 227.946 26.624 227.676ZM22.43 227.604C21.998 228.45 21.152 229.386 20.324 229.854C20.702 230.16 21.278 230.79 21.548 231.204C22.448 230.52 23.276 229.224 23.726 228.072L22.43 227.604ZM28.766 222.42V224.274H37.298V222.42H28.766ZM31.25 229.656H34.706V230.772H31.25V229.656ZM31.25 232.266H34.706V233.4H31.25V232.266ZM31.25 227.064H34.706V228.162H31.25V227.064ZM29.306 225.462V235.002H36.758V225.462H29.306ZM31.844 223.446C31.754 224.31 31.502 225.516 31.25 226.344L33.032 226.686C33.374 225.948 33.824 224.832 34.202 223.716L31.844 223.446ZM31.034 235.092C30.404 235.848 29.144 236.838 28.028 237.342C28.478 237.72 29.09 238.332 29.432 238.71C30.584 238.17 31.97 237.126 32.78 236.208L31.034 235.092ZM33.194 236.172C34.184 236.91 35.498 237.972 36.092 238.638L37.748 237.468C37.046 236.784 35.714 235.794 34.724 235.128L33.194 236.172ZM23.69 230.772V232.608C23.69 234.048 23.33 235.812 20.36 236.964C20.738 237.324 21.26 238.044 21.458 238.494C25.04 237.036 25.544 234.66 25.544 232.68V230.772H23.69ZM48.296 223.914V234.102H50.402V223.914H48.296ZM52.544 222.078V235.992C52.544 236.334 52.4 236.442 52.058 236.442C51.68 236.46 50.528 236.46 49.34 236.406C49.646 237.018 49.988 238.026 50.096 238.638C51.752 238.638 52.94 238.566 53.696 238.224C54.434 237.864 54.686 237.27 54.686 236.01V222.078H52.544ZM41.924 230.322V232.212H46.064V230.322H41.924ZM45.11 230.322V230.646C44.966 234.66 44.804 236.19 44.498 236.55C44.336 236.73 44.156 236.766 43.886 236.766C43.562 236.766 42.86 236.766 42.104 236.694C42.428 237.198 42.644 237.99 42.68 238.566C43.544 238.584 44.372 238.584 44.858 238.512C45.434 238.422 45.848 238.278 46.208 237.81C46.712 237.198 46.892 235.47 47.072 231.114C47.09 230.862 47.108 230.322 47.108 230.322H45.11ZM41.456 224.454H44.858V226.92H41.456V224.454ZM39.512 222.564V228.846H46.928V222.564H39.512ZM41.33 228.252C41.204 231.42 40.952 234.984 38.414 237.072C38.936 237.414 39.548 238.098 39.872 238.638C42.788 236.154 43.256 232.068 43.454 228.252H41.33ZM56.234 240.276H57.998L62.48 222.492H60.734L56.234 240.276ZM72.8429 223.266V228.612H74.3729V223.266H72.8429ZM75.3449 223.266V228.612H76.8749V223.266H75.3449ZM76.4969 235.182C77.3249 236.064 78.2609 237.324 78.6749 238.134L80.3309 237.162C79.8629 236.37 78.9269 235.218 78.0629 234.354L76.4969 235.182ZM71.3309 234.336C70.8449 235.362 69.9629 236.424 69.0629 237.126C69.5129 237.396 70.3049 237.954 70.6649 238.278C71.5829 237.45 72.5729 236.136 73.2209 234.876L71.3309 234.336ZM69.8009 222.384V224.094H80.0789V222.384H69.8009ZM70.8809 229.926V231.564H79.0349V229.926H70.8809ZM69.8189 232.284V233.976H80.1149V232.284H69.8189ZM71.8889 226.434H77.9009V227.766H71.8889V226.434ZM70.1429 224.886V229.314H79.7549V224.886H70.1429ZM73.9229 233.328V238.602H75.8489V233.328H73.9229ZM63.7889 225.084V227.064H69.7649V225.084H63.7889ZM66.0389 221.718V238.62H67.9829V221.718H66.0389ZM65.8949 226.56C65.4269 228.666 64.4009 231.51 63.3029 233.004C63.6269 233.58 64.1129 234.57 64.3109 235.218C65.4809 233.328 66.5069 229.854 67.0109 227.064L65.8949 226.56ZM67.9289 227.802L66.9749 228.558C67.4789 229.458 68.4689 231.51 68.8649 232.572L70.1249 231.132C69.8009 230.592 68.3429 228.306 67.9289 227.802ZM84.4709 225.426C84.1829 226.506 83.4089 227.298 82.2389 227.802C82.5809 228.054 83.1389 228.666 83.3549 228.954C84.7049 228.27 85.6769 227.154 86.0729 225.642L84.4709 225.426ZM88.8449 225.516C88.6289 226.578 87.9989 227.352 86.9729 227.874C87.2969 228.126 87.8729 228.738 88.0889 229.044C89.3309 228.324 90.1229 227.19 90.4649 225.714L88.8449 225.516ZM81.6809 228.792V230.304H98.2229V228.792H81.6809ZM91.8689 225.894C91.9589 232.68 93.0569 238.494 96.1709 238.494C97.5029 238.494 98.0789 237.972 98.3489 235.884C97.8809 235.704 97.2509 235.326 96.8369 234.93C96.7649 236.154 96.6389 236.568 96.3149 236.568C94.8929 236.568 93.8309 231.69 93.8849 225.894H91.8689ZM84.6689 229.89V236.928H86.3969V229.89H84.6689ZM87.4589 229.89V236.658H89.1689V229.89H87.4589ZM81.7529 236.622L81.9509 238.188C84.4709 238.026 87.9989 237.774 91.3289 237.468L91.3469 236.1C87.8549 236.316 84.1289 236.532 81.7529 236.622ZM82.6169 232.788V233.886H85.5509V232.788H82.6169ZM82.4549 231.042V232.158H85.5509V231.042H82.4549ZM82.2029 234.552V235.722H85.4429V234.552H82.2029ZM88.3229 232.752V233.85H91.2389V232.752H88.3229ZM88.2869 231.024V232.14H91.3469V231.024H88.2869ZM88.2329 234.462V235.614H91.5269V234.462H88.2329ZM94.5149 226.47C95.0729 227.1 95.7209 227.982 95.9729 228.576L97.5749 227.712C97.2689 227.136 96.6029 226.29 96.0089 225.696L94.5149 226.47ZM95.9729 230.52C95.0729 233.436 93.0389 235.884 90.2129 237.306C90.5909 237.63 91.1849 238.314 91.4369 238.692C94.4789 237.036 96.5489 234.39 97.6649 230.988L95.9729 230.52ZM84.2909 227.1C84.9209 227.622 85.6409 228.396 85.9649 228.9L87.2789 227.928C86.9189 227.424 86.1629 226.704 85.5329 226.218L84.2909 227.1ZM88.6829 227.172C89.2949 227.712 90.0329 228.504 90.3749 229.008L91.7069 228.072C91.3289 227.55 90.5729 226.83 89.9249 226.308L88.6829 227.172ZM84.0749 222.798V224.148H89.7269V222.798H84.0749ZM91.5629 222.816V224.13H98.2769V222.816H91.5629ZM84.1829 221.556C83.6069 222.672 82.5809 223.77 81.5189 224.508C81.9329 224.85 82.6529 225.624 82.9409 225.984C84.0929 225.084 85.3349 223.59 86.0729 222.132L84.1829 221.556ZM91.6529 221.556C91.2029 222.726 90.3569 223.86 89.3849 224.616C89.8529 224.904 90.6449 225.534 90.9869 225.894C92.0309 224.994 93.0389 223.518 93.6329 222.078L91.6529 221.556ZM85.4789 224.634C86.0009 225.084 86.6489 225.714 86.9369 226.11L88.6469 225.264C88.2869 224.832 87.6029 224.238 87.0809 223.842L85.4789 224.634ZM93.3089 224.67C93.7409 225.048 94.2449 225.624 94.4789 225.984L96.2429 225.174C95.9729 224.796 95.4329 224.274 95.0009 223.914L93.3089 224.67Z" fill="black"/>
<path d="M123.5 225.819C123.357 225.819 123.215 225.846 123.083 225.901C122.951 225.955 122.831 226.035 122.73 226.136C122.629 226.237 122.549 226.358 122.494 226.49C122.44 226.622 122.412 226.764 122.413 226.906L122.421 230.421L118.906 230.413C118.618 230.413 118.342 230.527 118.138 230.731C117.934 230.935 117.819 231.212 117.819 231.5C117.819 231.788 117.934 232.065 118.138 232.269C118.342 232.473 118.618 232.587 118.906 232.587L122.421 232.579L122.413 236.094C122.412 236.236 122.44 236.378 122.494 236.51C122.549 236.642 122.629 236.763 122.73 236.864C122.831 236.965 122.951 237.045 123.083 237.099C123.215 237.154 123.357 237.181 123.5 237.181C123.643 237.181 123.785 237.154 123.917 237.099C124.049 237.045 124.169 236.965 124.27 236.864C124.371 236.763 124.451 236.642 124.506 236.51C124.56 236.378 124.588 236.236 124.587 236.094L124.579 232.579L128.094 232.587C128.236 232.588 128.378 232.56 128.51 232.506C128.642 232.451 128.763 232.371 128.864 232.27C128.965 232.169 129.045 232.049 129.099 231.917C129.154 231.785 129.181 231.643 129.181 231.5C129.181 231.357 129.154 231.215 129.099 231.083C129.045 230.951 128.965 230.831 128.864 230.73C128.763 230.629 128.642 230.549 128.51 230.494C128.378 230.44 128.236 230.412 128.094 230.413L124.579 230.421L124.587 226.906C124.588 226.764 124.56 226.622 124.506 226.49C124.451 226.358 124.371 226.237 124.27 226.136C124.169 226.035 124.049 225.955 123.917 225.901C123.785 225.846 123.643 225.819 123.5 225.819ZM123.5 220.675C122.063 220.65 120.635 220.911 119.299 221.444C117.964 221.977 116.748 222.77 115.723 223.778C114.697 224.786 113.883 225.987 113.327 227.313C112.771 228.639 112.485 230.062 112.485 231.5C112.485 232.938 112.771 234.361 113.327 235.687C113.883 237.013 114.697 238.214 115.723 239.222C116.748 240.23 117.964 241.023 119.299 241.556C120.635 242.089 122.063 242.35 123.5 242.325C124.937 242.35 126.365 242.089 127.701 241.556C129.036 241.023 130.252 240.23 131.277 239.222C132.303 238.214 133.117 237.013 133.673 235.687C134.229 234.361 134.515 232.938 134.515 231.5C134.515 230.062 134.229 228.639 133.673 227.313C133.117 225.987 132.303 224.786 131.277 223.778C130.252 222.77 129.036 221.977 127.701 221.444C126.365 220.911 124.937 220.65 123.5 220.675ZM132.167 231.5C132.168 233.504 131.474 235.446 130.204 236.996C128.933 238.546 127.165 239.607 125.2 239.999C123.235 240.391 121.194 240.09 119.427 239.146C117.659 238.203 116.273 236.676 115.505 234.825C114.737 232.974 114.634 230.914 115.214 228.996C115.795 227.078 117.022 225.421 118.687 224.306C120.353 223.192 122.353 222.689 124.347 222.884C126.342 223.079 128.207 223.959 129.625 225.375C130.432 226.177 131.073 227.132 131.509 228.183C131.945 229.234 132.169 230.362 132.167 231.5Z" fill="#C4C4C4"/>
<path d="M36.0003 274.667C32.5822 274.677 29.2983 275.999 26.827 278.36V276C26.827 275.647 26.6865 275.308 26.4365 275.058C26.1864 274.807 25.8473 274.667 25.4937 274.667C25.14 274.667 24.8009 274.807 24.5508 275.058C24.3008 275.308 24.1603 275.647 24.1603 276V282C24.1603 282.354 24.3008 282.693 24.5508 282.943C24.8009 283.193 25.14 283.334 25.4937 283.334H31.4937C31.8473 283.334 32.1864 283.193 32.4365 282.943C32.6865 282.693 32.827 282.354 32.827 282C32.827 281.647 32.6865 281.308 32.4365 281.058C32.1864 280.807 31.8473 280.667 31.4937 280.667H28.2937C30.008 278.875 32.293 277.737 34.7557 277.448C37.2184 277.159 39.705 277.736 41.7879 279.082C43.8708 280.427 45.4198 282.456 46.1688 284.82C46.9177 287.184 46.8197 289.735 45.8915 292.034C44.9634 294.334 43.2632 296.238 41.0832 297.419C38.9032 298.601 36.3796 298.986 33.9464 298.509C31.5132 298.031 29.3223 296.721 27.7504 294.803C26.1786 292.885 25.324 290.48 25.3337 288C25.3337 287.647 25.1932 287.308 24.9431 287.058C24.6931 286.807 24.3539 286.667 24.0003 286.667C23.6467 286.667 23.3076 286.807 23.0575 287.058C22.8075 287.308 22.667 287.647 22.667 288C22.667 290.637 23.449 293.215 24.9141 295.408C26.3791 297.601 28.4615 299.31 30.8979 300.319C33.3342 301.328 36.0151 301.592 38.6015 301.077C41.1879 300.563 43.5637 299.293 45.4284 297.428C47.2931 295.564 48.563 293.188 49.0775 290.602C49.5919 288.015 49.3279 285.334 48.3187 282.898C47.3096 280.462 45.6006 278.379 43.4079 276.914C41.2153 275.449 38.6374 274.667 36.0003 274.667ZM36.0003 282.667C35.6467 282.667 35.3076 282.807 35.0575 283.058C34.8075 283.308 34.667 283.647 34.667 284V288C34.667 288.354 34.8075 288.693 35.0575 288.943C35.3076 289.193 35.6467 289.334 36.0003 289.334H38.667C39.0206 289.334 39.3598 289.193 39.6098 288.943C39.8598 288.693 40.0003 288.354 40.0003 288C40.0003 287.647 39.8598 287.308 39.6098 287.058C39.3598 286.807 39.0206 286.667 38.667 286.667H37.3337V284C37.3337 283.647 37.1932 283.308 36.9431 283.058C36.6931 282.807 36.3539 282.667 36.0003 282.667Z" fill="#FACA0F"/>
<path d="M30.937 82.5C30.937 80.2563 32.7559 78.4375 34.9995 78.4375C37.2432 78.4375 39.062 80.2563 39.062 82.5C39.062 84.7437 37.2432 86.5625 34.9995 86.5625C32.7559 86.5625 30.937 84.7437 30.937 82.5Z" fill="#6B6B6B"/>
<path fill-rule="evenodd" clip-rule="evenodd" d="M24.7164 81.0967C25.146 75.8856 29.5007 71.875 34.7296 71.875H35.2695C40.4984 71.875 44.8531 75.8856 45.2826 81.0967C45.5139 83.9025 44.6472 86.6885 42.8652 88.8679L36.8738 96.1951C35.9051 97.3798 34.094 97.3799 33.1252 96.1951L27.1339 88.8679C25.3518 86.6885 24.4852 83.9025 24.7164 81.0967ZM34.9995 76.5625C31.7203 76.5625 29.062 79.2208 29.062 82.5C29.062 85.7792 31.7203 88.4375 34.9995 88.4375C38.2787 88.4375 40.937 85.7792 40.937 82.5C40.937 79.2208 38.2787 76.5625 34.9995 76.5625Z" fill="#6B6B6B"/>
<path d="M35 118.5C28.125 118.5 22.5 124.125 22.5 131C22.5 137.875 28.125 143.5 35 143.5C41.875 143.5 47.5 137.875 47.5 131C47.5 124.125 41.875 118.5 35 118.5ZM36.25 131C36.25 131.5 36 131.875 35.625 132.125L32.375 134C31.75 134.375 31 134.125 30.625 133.5C30.25 132.875 30.5 132.125 31.125 131.75L33.75 130.25V124.75C33.75 124 34.25 123.5 35 123.5C35.75 123.5 36.25 124 36.25 124.75V131Z" fill="#6B6B6B"/>
<path d="M29.375 173.5C29.0042 173.5 28.6417 173.61 28.3333 173.816C28.025 174.022 27.7847 174.315 27.6427 174.657C27.5008 175 27.4637 175.377 27.536 175.741C27.6084 176.105 27.787 176.439 28.0492 176.701C28.3114 176.963 28.6455 177.142 29.0092 177.214C29.3729 177.286 29.7499 177.249 30.0926 177.107C30.4352 176.965 30.728 176.725 30.934 176.417C31.1401 176.108 31.25 175.746 31.25 175.375C31.25 174.878 31.0525 174.401 30.7008 174.049C30.3492 173.698 29.8723 173.5 29.375 173.5ZM46.4 179.388L35.8875 168.863C35.7707 168.747 35.6322 168.655 35.4799 168.593C35.3276 168.531 35.1645 168.499 35 168.5H23.75C23.4185 168.5 23.1006 168.632 22.8661 168.866C22.6317 169.101 22.5 169.419 22.5 169.75V181C22.4991 181.165 22.5306 181.328 22.5928 181.48C22.655 181.632 22.7467 181.771 22.8625 181.888L33.3875 192.4C34.0906 193.102 35.0438 193.497 36.0375 193.497C37.0313 193.497 37.9844 193.102 38.6875 192.4L46.4 184.75C47.1023 184.047 47.4967 183.094 47.4967 182.1C47.4967 181.106 47.1023 180.153 46.4 179.45V179.388ZM44.6375 182.913L36.9125 190.625C36.6783 190.858 36.3615 190.989 36.0313 190.989C35.701 190.989 35.3842 190.858 35.15 190.625L25 180.488V171H34.4875L44.6375 181.15C44.7534 181.267 44.845 181.405 44.9072 181.558C44.9694 181.71 45.001 181.873 45 182.038C44.9986 182.365 44.8685 182.68 44.6375 182.913Z" fill="#6B6B6B"/>
<path d="M56.588 292.736V293.648H67.424V292.736H56.588ZM56.66 285.008V285.92H67.352V285.008H56.66ZM57.476 290.996V291.884H66.656V290.996H57.476ZM61.376 283.88V293.192H62.516V283.88H61.376ZM65.648 282.92C63.692 283.256 60.356 283.472 57.56 283.532C57.656 283.76 57.776 284.156 57.788 284.42C60.596 284.384 63.98 284.18 66.212 283.796L65.648 282.92ZM58.976 288.764H65.048V289.52H58.976V288.764ZM58.976 287.3H65.048V288.044H58.976V287.3ZM57.872 286.52V290.3H66.2V286.52H57.872ZM75.872 284.108H77.624V285.02H75.872V284.108ZM73.124 284.108H74.84V285.02H73.124V284.108ZM70.424 284.108H72.08V285.02H70.424V284.108ZM69.332 283.316V285.812H78.764V283.316H69.332ZM68.792 286.412V287.264H79.064V286.412H68.792ZM73.352 285.56C73.28 286.4 73.124 287.492 72.968 288.188H74.036C74.204 287.504 74.396 286.472 74.516 285.62L73.352 285.56ZM68.648 292.856V293.672H79.376V292.856H68.648ZM70.736 289.172V289.796H77.24V289.172H70.736ZM70.784 290.384V290.996H77.228V290.384H70.784ZM70.82 291.608V292.232H77.288V291.608H70.82ZM70.16 287.876V293.3H71.24V288.608H76.688V293.3H77.804V287.876H70.16Z" fill="black"/>
<defs>
<filter id="filter0_d_1109_9546" x="386" y="0" width="383" height="226" filterUnits="userSpaceOnUse" color-interpolation-filters="sRGB">
<feFlood flood-opacity="0" result="BackgroundImageFix"/>
<feColorMatrix in="SourceAlpha" type="matrix" values="0 0 0 0 0 0 0 0 0 0 0 0 0 0 0 0 0 0 127 0" result="hardAlpha"/>
<feOffset dy="4"/>
<feGaussianBlur stdDeviation="2"/>
<feComposite in2="hardAlpha" operator="out"/>
<feColorMatrix type="matrix" values="0 0 0 0 0 0 0 0 0 0 0 0 0 0 0 0 0 0 0.25 0"/>
<feBlend mode="normal" in2="BackgroundImageFix" result="effect1_dropShadow_1109_9546"/>
<feBlend mode="normal" in="SourceGraphic" in2="effect1_dropShadow_1109_9546" result="shape"/>
</filter>
</defs>
</svg>
