<svg width="516" height="250" viewBox="0 0 516 250" fill="none" xmlns="http://www.w3.org/2000/svg">
<path d="M5.064 117H9.36V109.656H15.24V117H19.512V99.12H15.24V105.936H9.36V99.12H5.064V117ZM23.4579 117H34.7379V113.544H31.5219V99.576H28.3779C27.1299 100.344 25.8819 100.824 23.9619 101.208V103.848H27.2499V113.544H23.4579V117ZM43.7593 117H47.8393V111.072C47.8393 108.912 47.4793 106.464 47.2873 104.472H47.4073L49.1593 108.384L53.5753 117H57.9433V99.12H53.8633V105.048C53.8633 107.184 54.2233 109.752 54.4393 111.648H54.3193L52.5673 107.688L48.1273 99.12H43.7593V117ZM67.6794 117.336C71.1354 117.336 74.3514 114.696 74.3514 110.16C74.3514 105.648 71.1354 103.008 67.6794 103.008C64.1994 103.008 60.9834 105.648 60.9834 110.16C60.9834 114.696 64.1994 117.336 67.6794 117.336ZM67.6794 113.88C66.0714 113.88 65.3514 112.44 65.3514 110.16C65.3514 107.904 66.0714 106.464 67.6794 106.464C69.2634 106.464 69.9834 107.904 69.9834 110.16C69.9834 112.44 69.2634 113.88 67.6794 113.88ZM81.4712 117.336C82.8632 117.336 83.8472 117.048 84.5672 116.832L83.8952 113.736C83.5592 113.856 83.0792 114 82.6472 114C81.6392 114 80.9192 113.4 80.9192 111.888V106.68H84.1352V103.344H80.9192V99.72H77.3912L76.9112 103.344L74.7992 103.512V106.68H76.6472V111.936C76.6472 115.152 78.0392 117.336 81.4712 117.336ZM92.031 117.336C95.487 117.336 98.703 114.696 98.703 110.16C98.703 105.648 95.487 103.008 92.031 103.008C88.551 103.008 85.335 105.648 85.335 110.16C85.335 114.696 88.551 117.336 92.031 117.336ZM92.031 113.88C90.423 113.88 89.703 112.44 89.703 110.16C89.703 107.904 90.423 106.464 92.031 106.464C93.615 106.464 94.335 107.904 94.335 110.16C94.335 112.44 93.615 113.88 92.031 113.88ZM112.749 117.336C117.069 117.336 119.565 114.72 119.565 111.744C119.565 109.224 118.245 107.736 116.037 106.848L113.805 105.96C112.221 105.336 111.117 104.952 111.117 103.944C111.117 103.008 111.909 102.48 113.229 102.48C114.621 102.48 115.725 102.96 116.901 103.848L119.037 101.16C117.477 99.6 115.293 98.808 113.229 98.808C109.437 98.808 106.749 101.208 106.749 104.208C106.749 106.8 108.501 108.36 110.373 109.104L112.653 110.064C114.189 110.712 115.173 111.048 115.173 112.08C115.173 113.04 114.429 113.64 112.845 113.64C111.429 113.64 109.773 112.896 108.525 111.816L106.077 114.768C107.925 116.472 110.421 117.336 112.749 117.336ZM125.653 117.336C127.165 117.336 128.437 116.64 129.565 115.632H129.685L129.973 117H133.453V109.248C133.453 104.976 131.461 103.008 127.933 103.008C125.797 103.008 123.853 103.728 122.053 104.808L123.541 107.616C124.909 106.848 126.037 106.416 127.117 106.416C128.509 106.416 129.085 107.064 129.181 108.168C123.853 108.744 121.597 110.304 121.597 113.184C121.597 115.464 123.133 117.336 125.653 117.336ZM127.117 114.024C126.229 114.024 125.653 113.64 125.653 112.848C125.653 111.888 126.517 111.096 129.181 110.76V112.944C128.557 113.616 127.981 114.024 127.117 114.024ZM136.751 117H141.023V107.88C141.839 107.088 142.415 106.656 143.375 106.656C144.455 106.656 144.959 107.184 144.959 109.08V117H149.231V108.552C149.231 105.144 147.959 103.008 144.983 103.008C143.135 103.008 141.743 103.944 140.615 105.048H140.543L140.231 103.344H136.751V117ZM156.628 117.336C160.348 117.336 162.316 115.392 162.316 112.872C162.316 110.4 160.42 109.416 158.716 108.768C157.3 108.264 156.124 107.952 156.124 107.136C156.124 106.488 156.58 106.152 157.564 106.152C158.452 106.152 159.412 106.608 160.396 107.304L162.292 104.76C161.14 103.872 159.556 103.008 157.42 103.008C154.228 103.008 152.14 104.76 152.14 107.328C152.14 109.608 153.988 110.712 155.62 111.36C157.012 111.912 158.332 112.296 158.332 113.112C158.332 113.784 157.852 114.192 156.724 114.192C155.644 114.192 154.516 113.688 153.268 112.752L151.372 115.416C152.764 116.568 154.852 117.336 156.628 117.336ZM174.059 117H178.355V102.696H183.203V99.12H169.235V102.696H174.059V117ZM192.554 117.336C194.882 117.336 196.874 116.448 198.386 114.696L196.13 112.008C195.29 112.92 194.162 113.64 192.722 113.64C190.202 113.64 188.57 111.576 188.57 108.024C188.57 104.544 190.466 102.48 192.77 102.48C194.042 102.48 194.978 103.056 195.89 103.872L198.122 101.136C196.898 99.888 195.026 98.808 192.698 98.808C188.162 98.808 184.178 102.216 184.178 108.168C184.178 114.216 188.018 117.336 192.554 117.336ZM206.486 117H213.23C217.118 117 220.214 115.368 220.214 111.72C220.214 109.344 218.846 108 217.046 107.52V107.424C218.486 106.872 219.374 105.144 219.374 103.56C219.374 100.128 216.422 99.12 212.726 99.12H206.486V117ZM210.782 106.224V102.408H212.558C214.358 102.408 215.198 102.936 215.198 104.208C215.198 105.432 214.382 106.224 212.558 106.224H210.782ZM210.782 113.712V109.368H212.918C215.006 109.368 216.038 109.968 216.038 111.432C216.038 112.968 214.982 113.712 212.918 113.712H210.782ZM226.725 117.336C227.685 117.336 228.381 117.168 228.837 116.976L228.333 113.832C228.093 113.88 227.997 113.88 227.853 113.88C227.517 113.88 227.109 113.616 227.109 112.704V97.824H222.837V112.56C222.837 115.416 223.797 117.336 226.725 117.336ZM234.262 117.336C235.774 117.336 237.046 116.64 238.174 115.632H238.294L238.582 117H242.062V109.248C242.062 104.976 240.07 103.008 236.542 103.008C234.406 103.008 232.462 103.728 230.662 104.808L232.15 107.616C233.518 106.848 234.646 106.416 235.726 106.416C237.118 106.416 237.694 107.064 237.79 108.168C232.462 108.744 230.206 110.304 230.206 113.184C230.206 115.464 231.742 117.336 234.262 117.336ZM235.726 114.024C234.838 114.024 234.262 113.64 234.262 112.848C234.262 111.888 235.126 111.096 237.79 110.76V112.944C237.166 113.616 236.59 114.024 235.726 114.024ZM251.385 117.336C252.825 117.336 254.553 116.904 255.897 115.728L254.241 112.92C253.545 113.472 252.729 113.88 251.865 113.88C250.209 113.88 248.961 112.44 248.961 110.16C248.961 107.904 250.137 106.464 252.033 106.464C252.609 106.464 253.137 106.68 253.761 107.184L255.753 104.472C254.721 103.584 253.425 103.008 251.769 103.008C247.953 103.008 244.593 105.648 244.593 110.16C244.593 114.696 247.545 117.336 251.385 117.336ZM258.251 117H262.451V113.616L264.035 111.816L266.987 117H271.619L266.531 109.032L271.283 103.344H266.603L262.571 108.48H262.451V97.824H258.251V117ZM278.227 117H290.611V113.4H287.323C286.507 113.4 285.283 113.52 284.395 113.64C287.083 110.856 289.795 107.76 289.795 104.856C289.795 101.448 287.395 99.24 283.939 99.24C281.395 99.24 279.763 100.152 278.011 102L280.339 104.304C281.203 103.44 282.139 102.576 283.363 102.576C284.803 102.576 285.691 103.44 285.691 105.096C285.691 107.544 282.547 110.52 278.227 114.552V117ZM299.884 117H303.868V99.576H298.588L292.372 109.968V112.944H305.836V109.68H296.452L298.492 106.176C298.996 105.144 299.476 104.16 299.932 103.152H300.028C299.98 104.28 299.884 106.008 299.884 107.136V117ZM308.197 121.968H312.469V118.056L312.325 115.92C313.237 116.832 314.341 117.336 315.493 117.336C318.421 117.336 321.229 114.648 321.229 109.944C321.229 105.744 319.165 103.008 315.901 103.008C314.485 103.008 313.141 103.704 312.061 104.664H311.989L311.677 103.344H308.197V121.968ZM314.485 113.832C313.837 113.832 313.141 113.64 312.469 113.04V107.64C313.189 106.848 313.837 106.488 314.629 106.488C316.141 106.488 316.837 107.616 316.837 110.016C316.837 112.752 315.781 113.832 314.485 113.832ZM321.712 117H326.152L327.088 114.84C327.424 114.048 327.76 113.256 328.096 112.512H328.216C328.648 113.256 329.056 114.072 329.464 114.84L330.712 117H335.296L331.12 110.376L335.056 103.344H330.64L329.8 105.432C329.512 106.224 329.176 107.016 328.912 107.784H328.792C328.408 107.016 328.024 106.224 327.664 105.432L326.536 103.344H321.952L325.888 109.896L321.712 117Z" fill="black"/>
<path d="M4.3 59H12.8V46.65C12.8 42.15 12.05 37.05 11.65 32.9H11.9L15.55 41.05L24.75 59H33.85V21.75H25.35V34.1C25.35 38.55 26.1 43.9 26.55 47.85H26.3L22.65 39.6L13.4 21.75H4.3V59ZM54.1336 59.7C61.3336 59.7 68.0336 54.2 68.0336 44.75C68.0336 35.35 61.3336 29.85 54.1336 29.85C46.8836 29.85 40.1836 35.35 40.1836 44.75C40.1836 54.2 46.8836 59.7 54.1336 59.7ZM54.1336 52.5C50.7836 52.5 49.2836 49.5 49.2836 44.75C49.2836 40.05 50.7836 37.05 54.1336 37.05C57.4336 37.05 58.9336 40.05 58.9336 44.75C58.9336 49.5 57.4336 52.5 54.1336 52.5ZM82.8664 59.7C85.7664 59.7 87.8164 59.1 89.3164 58.65L87.9164 52.2C87.2164 52.45 86.2164 52.75 85.3164 52.75C83.2164 52.75 81.7164 51.5 81.7164 48.35V37.5H88.4164V30.55H81.7164V23H74.3664L73.3664 30.55L68.9664 30.9V37.5H72.8164V48.45C72.8164 55.15 75.7164 59.7 82.8664 59.7ZM104.866 59.7C112.066 59.7 118.766 54.2 118.766 44.75C118.766 35.35 112.066 29.85 104.866 29.85C97.616 29.85 90.916 35.35 90.916 44.75C90.916 54.2 97.616 59.7 104.866 59.7ZM104.866 52.5C101.516 52.5 100.016 49.5 100.016 44.75C100.016 40.05 101.516 37.05 104.866 37.05C108.166 37.05 109.666 40.05 109.666 44.75C109.666 49.5 108.166 52.5 104.866 52.5ZM148.028 59.7C157.028 59.7 162.228 54.25 162.228 48.05C162.228 42.8 159.478 39.7 154.878 37.85L150.228 36C146.928 34.7 144.628 33.9 144.628 31.8C144.628 29.85 146.278 28.75 149.028 28.75C151.928 28.75 154.228 29.75 156.678 31.6L161.128 26C157.878 22.75 153.328 21.1 149.028 21.1C141.128 21.1 135.528 26.1 135.528 32.35C135.528 37.75 139.178 41 143.078 42.55L147.828 44.55C151.028 45.9 153.078 46.6 153.078 48.75C153.078 50.75 151.528 52 148.228 52C145.278 52 141.828 50.45 139.228 48.2L134.128 54.35C137.978 57.9 143.178 59.7 148.028 59.7ZM174.911 59.7C178.061 59.7 180.711 58.25 183.061 56.15H183.311L183.911 59H191.161V42.85C191.161 33.95 187.011 29.85 179.661 29.85C175.211 29.85 171.161 31.35 167.411 33.6L170.511 39.45C173.361 37.85 175.711 36.95 177.961 36.95C180.861 36.95 182.061 38.3 182.261 40.6C171.161 41.8 166.461 45.05 166.461 51.05C166.461 55.8 169.661 59.7 174.911 59.7ZM177.961 52.8C176.111 52.8 174.911 52 174.911 50.35C174.911 48.35 176.711 46.7 182.261 46V50.55C180.961 51.95 179.761 52.8 177.961 52.8ZM198.034 59H206.934V40C208.634 38.35 209.834 37.45 211.834 37.45C214.084 37.45 215.134 38.55 215.134 42.5V59H224.034V41.4C224.034 34.3 221.384 29.85 215.184 29.85C211.334 29.85 208.434 31.8 206.084 34.1H205.934L205.284 30.55H198.034V59ZM239.444 59.7C247.194 59.7 251.294 55.65 251.294 50.4C251.294 45.25 247.344 43.2 243.794 41.85C240.844 40.8 238.394 40.15 238.394 38.45C238.394 37.1 239.344 36.4 241.394 36.4C243.244 36.4 245.244 37.35 247.294 38.8L251.244 33.5C248.844 31.65 245.544 29.85 241.094 29.85C234.444 29.85 230.094 33.5 230.094 38.85C230.094 43.6 233.944 45.9 237.344 47.25C240.244 48.4 242.994 49.2 242.994 50.9C242.994 52.3 241.994 53.15 239.644 53.15C237.394 53.15 235.044 52.1 232.444 50.15L228.494 55.7C231.394 58.1 235.744 59.7 239.444 59.7ZM275.758 59H284.708V29.2H294.808V21.75H265.708V29.2H275.758V59ZM314.288 59.7C319.138 59.7 323.288 57.85 326.438 54.2L321.738 48.6C319.988 50.5 317.638 52 314.638 52C309.388 52 305.988 47.7 305.988 40.3C305.988 33.05 309.938 28.75 314.738 28.75C317.388 28.75 319.338 29.95 321.238 31.65L325.888 25.95C323.338 23.35 319.438 21.1 314.588 21.1C305.138 21.1 296.838 28.2 296.838 40.6C296.838 53.2 304.838 59.7 314.288 59.7Z" fill="black"/>
<path d="M383.064 121H389.808C393.696 121 396.792 119.368 396.792 115.72C396.792 113.344 395.424 112 393.624 111.52V111.424C395.064 110.872 395.952 109.144 395.952 107.56C395.952 104.128 393 103.12 389.304 103.12H383.064V121ZM387.36 110.224V106.408H389.136C390.936 106.408 391.776 106.936 391.776 108.208C391.776 109.432 390.96 110.224 389.136 110.224H387.36ZM387.36 117.712V113.368H389.496C391.584 113.368 392.616 113.968 392.616 115.432C392.616 116.968 391.56 117.712 389.496 117.712H387.36ZM407.12 121.336C411.992 121.336 415.304 117.832 415.304 111.976C415.304 106.144 411.992 102.808 407.12 102.808C402.248 102.808 398.936 106.12 398.936 111.976C398.936 117.832 402.248 121.336 407.12 121.336ZM407.12 117.64C404.768 117.64 403.328 115.432 403.328 111.976C403.328 108.52 404.768 106.48 407.12 106.48C409.472 106.48 410.936 108.52 410.936 111.976C410.936 115.432 409.472 117.64 407.12 117.64ZM418.619 121H429.875V117.4H422.915V103.12H418.619V121ZM432.962 121H438.338C443.546 121 447.146 118.192 447.146 111.976C447.146 105.76 443.546 103.12 438.098 103.12H432.962V121ZM437.258 117.544V106.552H437.834C440.714 106.552 442.754 107.728 442.754 111.976C442.754 116.224 440.714 117.544 437.834 117.544H437.258Z" fill="black"/>
<path d="M487.008 123H499.392V119.4H496.128C495.312 119.4 494.088 119.52 493.2 119.64C495.936 116.88 498.576 113.496 498.576 110.424C498.576 107.016 496.176 104.808 492.72 104.808C490.176 104.808 488.544 105.696 486.792 107.568L489.12 109.872C489.984 108.96 490.92 108.144 492.144 108.144C493.584 108.144 494.472 109.032 494.472 110.664C494.472 113.256 491.472 116.496 487.008 120.552V123ZM508.665 123H512.649V105.12H507.369L501.153 115.584V118.536H514.617V115.296H505.233L507.273 111.768C507.777 110.76 508.257 109.728 508.713 108.696H508.809C508.761 109.848 508.665 111.552 508.665 112.68V123Z" fill="black"/>
<path d="M487.458 144H495.486V141.858H492.984V130.68H491.022C490.158 131.202 489.258 131.544 487.908 131.796V133.434H490.338V141.858H487.458V144ZM501.909 144.252C504.591 144.252 506.391 142.722 506.391 140.706C506.391 138.87 505.383 137.808 504.159 137.142V137.052C505.023 136.422 505.869 135.324 505.869 133.992C505.869 131.868 504.357 130.464 501.999 130.464C499.677 130.464 497.967 131.832 497.967 133.974C497.967 135.378 498.723 136.404 499.731 137.142V137.214C498.507 137.862 497.463 138.996 497.463 140.706C497.463 142.794 499.353 144.252 501.909 144.252ZM502.755 136.404C501.351 135.846 500.307 135.216 500.307 133.974C500.307 132.912 501.027 132.318 501.945 132.318C503.043 132.318 503.709 133.074 503.709 134.172C503.709 134.964 503.403 135.72 502.755 136.404ZM501.963 142.38C500.721 142.38 499.731 141.606 499.731 140.4C499.731 139.41 500.235 138.51 500.973 137.934C502.683 138.654 503.925 139.212 503.925 140.598C503.925 141.75 503.115 142.38 501.963 142.38Z" fill="black"/>
<path d="M487.36 163H494.096V161.48H491.792V151.224H490.4C489.712 151.64 488.944 151.928 487.824 152.12V153.288H489.952V161.48H487.36V163ZM500.037 163.224C501.941 163.224 503.557 161.688 503.557 159.352C503.557 156.856 502.213 155.656 500.229 155.656C499.349 155.656 498.261 156.2 497.573 157.128L497.653 158.472C498.357 157.4 499.205 156.984 499.909 156.984C501.157 156.984 501.845 157.832 501.845 159.352C501.845 160.872 501.045 161.8 500.021 161.8C498.581 161.8 497.685 160.376 497.685 157.336C497.685 153.736 498.949 152.52 500.517 152.52C501.205 152.52 501.925 152.888 502.357 153.4L503.365 152.28C502.693 151.56 501.733 151.016 500.421 151.016C498.085 151.016 495.973 152.824 495.973 157.336C495.973 161.336 497.797 163.224 500.037 163.224Z" fill="black"/>
<path d="M487.056 177H491.88V176.088H490.104V168.204H489.264C488.796 168.492 488.232 168.696 487.44 168.828V169.536H489.012V176.088H487.056V177ZM493.184 177H498.704V176.064H496.268C495.824 176.064 495.296 176.1 494.828 176.148C496.904 174.192 498.284 172.404 498.284 170.64C498.284 169.068 497.3 168.048 495.728 168.048C494.612 168.048 493.844 168.564 493.124 169.344L493.76 169.956C494.252 169.38 494.876 168.936 495.596 168.936C496.688 168.936 497.204 169.68 497.204 170.688C497.204 172.188 495.944 173.952 493.184 176.364V177Z" fill="black"/>
<path d="M382.536 156H384.216V150.192C384.216 149.12 384.072 147.616 383.976 146.544H384.04L384.984 149.264L387.032 154.88H388.184L390.232 149.264L391.192 146.544H391.256C391.16 147.616 391.016 149.12 391.016 150.192V156H392.728V144.224H390.584L388.456 150.192C388.2 150.96 387.976 151.76 387.688 152.56H387.624C387.352 151.76 387.112 150.96 386.824 150.192L384.68 144.224H382.536V156ZM395.817 156H402.969V154.432H397.689V150.64H401.993V149.056H397.689V145.792H402.793V144.224H395.817V156ZM405.411 156H408.579C412.099 156 414.147 153.904 414.147 150.064C414.147 146.224 412.099 144.224 408.483 144.224H405.411V156ZM407.283 154.48V145.728H408.339C410.867 145.728 412.243 147.136 412.243 150.064C412.243 152.992 410.867 154.48 408.339 154.48H407.283ZM416.599 156H418.471V144.224H416.599V156ZM425.872 156.224C428.48 156.224 430.24 154.784 430.24 150.96V144.224H428.448V151.072C428.448 153.728 427.344 154.592 425.872 154.592C424.4 154.592 423.344 153.728 423.344 151.072V144.224H421.488V150.96C421.488 154.784 423.248 156.224 425.872 156.224ZM433.27 156H434.95V150.192C434.95 149.12 434.806 147.616 434.71 146.544H434.774L435.718 149.264L437.766 154.88H438.918L440.966 149.264L441.926 146.544H441.99C441.894 147.616 441.75 149.12 441.75 150.192V156H443.462V144.224H441.318L439.19 150.192C438.934 150.96 438.71 151.76 438.422 152.56H438.358C438.086 151.76 437.846 150.96 437.558 150.192L435.414 144.224H433.27V156Z" fill="black"/>
<path d="M4.638 154H7.302V148.24H12.342V154H14.988V140.68H12.342V145.936H7.302V140.68H4.638V154ZM17.379 154H26.307V151.768H23.391C22.761 151.768 21.879 151.858 21.213 151.93C23.589 149.446 25.695 147.088 25.695 144.838C25.695 142.372 24.003 140.788 21.501 140.788C19.683 140.788 18.477 141.49 17.253 142.804L18.711 144.244C19.395 143.524 20.169 142.858 21.159 142.858C22.437 142.858 23.139 143.65 23.139 144.964C23.139 146.908 20.853 149.158 17.379 152.488V154ZM32.9564 154H35.4764V148.672C35.4764 147.124 35.2604 145.45 35.1344 144.028H35.2244L36.5744 146.872L40.4264 154H43.1444V140.68H40.6064V145.99C40.6064 147.502 40.8224 149.284 40.9664 150.67H40.8764L39.5264 147.79L35.6564 140.68H32.9564V154ZM50.4348 154.252C52.9548 154.252 55.2588 152.308 55.2588 148.978C55.2588 145.63 52.9548 143.686 50.4348 143.686C47.8968 143.686 45.5928 145.63 45.5928 148.978C45.5928 152.308 47.8968 154.252 50.4348 154.252ZM50.4348 152.11C49.0488 152.11 48.2928 150.868 48.2928 148.978C48.2928 147.07 49.0488 145.846 50.4348 145.846C51.8028 145.846 52.5588 147.07 52.5588 148.978C52.5588 150.868 51.8028 152.11 50.4348 152.11ZM60.5823 154.252C61.4823 154.252 62.1843 154.054 62.7243 153.874L62.2923 151.948C62.0043 152.056 61.6263 152.182 61.2843 152.182C60.4023 152.182 59.9163 151.642 59.9163 150.49V146.008H62.4183V143.938H59.9163V141.202H57.7203L57.4323 143.938L55.8663 144.046V146.008H57.2703V150.49C57.2703 152.74 58.1883 154.252 60.5823 154.252ZM68.259 154.252C70.779 154.252 73.083 152.308 73.083 148.978C73.083 145.63 70.779 143.686 68.259 143.686C65.721 143.686 63.417 145.63 63.417 148.978C63.417 152.308 65.721 154.252 68.259 154.252ZM68.259 152.11C66.873 152.11 66.117 150.868 66.117 148.978C66.117 147.07 66.873 145.846 68.259 145.846C69.627 145.846 70.383 147.07 70.383 148.978C70.383 150.868 69.627 152.11 68.259 152.11ZM83.5867 154.252C86.6467 154.252 88.4647 152.398 88.4647 150.22C88.4647 148.312 87.4027 147.268 85.8007 146.602L84.0547 145.882C82.9207 145.432 81.9667 145.072 81.9667 144.118C81.9667 143.254 82.7047 142.732 83.8747 142.732C84.9727 142.732 85.8547 143.128 86.7187 143.83L88.0507 142.156C86.9707 141.058 85.4227 140.446 83.8747 140.446C81.1927 140.446 79.2667 142.12 79.2667 144.298C79.2667 146.224 80.6347 147.322 81.9667 147.862L83.7487 148.618C84.9367 149.122 85.7467 149.446 85.7467 150.436C85.7467 151.354 85.0267 151.948 83.6407 151.948C82.4707 151.948 81.1927 151.372 80.2567 150.49L78.7267 152.326C80.0227 153.568 81.7867 154.252 83.5867 154.252ZM93.0911 154.252C94.2431 154.252 95.2511 153.694 96.1331 152.938H96.2051L96.4031 154H98.5631V148.132C98.5631 145.198 97.2491 143.686 94.6931 143.686C93.0911 143.686 91.6691 144.28 90.4811 145L91.4351 146.764C92.3531 146.206 93.2711 145.81 94.2071 145.81C95.4491 145.81 95.8631 146.548 95.9171 147.538C91.8671 147.988 90.1211 149.122 90.1211 151.264C90.1211 152.992 91.2911 154.252 93.0911 154.252ZM93.9551 152.182C93.1811 152.182 92.6411 151.84 92.6411 151.066C92.6411 150.148 93.4511 149.482 95.9171 149.176V151.21C95.2691 151.84 94.7111 152.182 93.9551 152.182ZM101.26 154H103.906V147.07C104.644 146.35 105.166 145.954 105.994 145.954C106.966 145.954 107.416 146.476 107.416 148.06V154H110.062V147.718C110.062 145.198 109.108 143.686 106.948 143.686C105.58 143.686 104.536 144.406 103.672 145.27H103.618L103.402 143.938H101.26V154ZM115.671 154.252C118.281 154.252 119.667 152.848 119.667 151.066C119.667 149.212 118.209 148.528 116.877 148.024C115.797 147.646 114.879 147.358 114.879 146.638C114.879 146.044 115.293 145.648 116.211 145.648C116.949 145.648 117.669 146.008 118.371 146.512L119.577 144.928C118.749 144.28 117.597 143.686 116.139 143.686C113.835 143.686 112.395 144.964 112.395 146.746C112.395 148.456 113.817 149.212 115.095 149.716C116.139 150.112 117.201 150.472 117.201 151.21C117.201 151.84 116.733 152.29 115.725 152.29C114.789 152.29 113.943 151.876 113.025 151.174L111.837 152.848C112.827 153.676 114.321 154.252 115.671 154.252ZM128.643 154H131.307V142.894H135.069V140.68H124.881V142.894H128.643V154ZM142.015 154.252C143.743 154.252 145.165 153.586 146.263 152.308L144.859 150.634C144.157 151.408 143.257 151.948 142.123 151.948C139.999 151.948 138.649 150.22 138.649 147.304C138.649 144.46 140.161 142.732 142.159 142.732C143.185 142.732 143.941 143.182 144.625 143.848L146.029 142.138C145.165 141.238 143.815 140.446 142.123 140.446C138.739 140.446 135.931 143.002 135.931 147.394C135.931 151.84 138.649 154.252 142.015 154.252ZM152.488 154H157.24C160.156 154 162.388 152.758 162.388 150.076C162.388 148.294 161.326 147.268 159.904 146.926V146.854C161.038 146.44 161.704 145.198 161.704 143.974C161.704 141.49 159.616 140.68 156.88 140.68H152.488V154ZM155.152 146.098V142.732H156.736C158.338 142.732 159.112 143.182 159.112 144.352C159.112 145.432 158.392 146.098 156.7 146.098H155.152ZM155.152 151.948V148.078H157.006C158.842 148.078 159.796 148.636 159.796 149.932C159.796 151.3 158.806 151.948 157.006 151.948H155.152ZM168.736 154.252C171.256 154.252 173.56 152.308 173.56 148.978C173.56 145.63 171.256 143.686 168.736 143.686C166.198 143.686 163.894 145.63 163.894 148.978C163.894 152.308 166.198 154.252 168.736 154.252ZM168.736 152.11C167.35 152.11 166.594 150.868 166.594 148.978C166.594 147.07 167.35 145.846 168.736 145.846C170.104 145.846 170.86 147.07 170.86 148.978C170.86 150.868 170.104 152.11 168.736 152.11ZM178.275 154.252C178.905 154.252 179.319 154.144 179.625 154.036L179.301 152.074C179.121 152.11 179.049 152.11 178.959 152.11C178.707 152.11 178.437 151.912 178.437 151.282V139.654H175.791V151.174C175.791 153.046 176.421 154.252 178.275 154.252ZM185.015 154.252C186.059 154.252 187.067 153.694 187.805 152.956H187.859L188.057 154H190.217V139.654H187.571V143.182L187.679 144.766C186.941 144.1 186.239 143.686 185.105 143.686C182.945 143.686 180.875 145.684 180.875 148.978C180.875 152.29 182.495 154.252 185.015 154.252ZM185.681 152.074C184.367 152.074 183.593 151.048 183.593 148.942C183.593 146.926 184.565 145.846 185.699 145.846C186.329 145.846 186.977 146.062 187.571 146.62V151.048C186.995 151.786 186.401 152.074 185.681 152.074ZM197.167 154H205.195V151.858H202.693V141.022H200.731C199.867 141.544 198.967 141.886 197.617 142.156V143.794H200.047V151.858H197.167V154ZM211.618 154.252C214.3 154.252 216.1 152.722 216.1 150.706C216.1 148.96 215.074 147.988 213.868 147.304V147.214C214.714 146.62 215.578 145.576 215.578 144.316C215.578 142.192 214.066 140.788 211.708 140.788C209.386 140.788 207.676 142.138 207.676 144.298C207.676 145.648 208.45 146.602 209.44 147.34V147.412C208.234 148.06 207.172 149.086 207.172 150.706C207.172 152.794 209.062 154.252 211.618 154.252ZM212.464 146.584C211.078 146.026 210.016 145.486 210.016 144.298C210.016 143.218 210.736 142.642 211.654 142.642C212.752 142.642 213.418 143.398 213.418 144.478C213.418 145.234 213.076 145.918 212.464 146.584ZM211.672 152.38C210.43 152.38 209.44 151.606 209.44 150.4C209.44 149.482 209.962 148.69 210.682 148.132C212.374 148.852 213.634 149.302 213.634 150.598C213.634 151.75 212.824 152.38 211.672 152.38ZM218.365 157.87H221.011V154.81L220.921 153.172C221.677 153.874 222.541 154.252 223.405 154.252C225.619 154.252 227.689 152.272 227.689 148.816C227.689 145.702 226.213 143.686 223.729 143.686C222.649 143.686 221.605 144.244 220.777 144.982H220.723L220.507 143.938H218.365V157.87ZM222.829 152.074C222.289 152.074 221.641 151.894 221.011 151.336V146.89C221.695 146.188 222.307 145.846 222.973 145.846C224.377 145.846 224.971 146.908 224.971 148.852C224.971 151.03 224.035 152.074 222.829 152.074ZM228.217 154H230.971L231.889 152.146C232.177 151.552 232.447 150.958 232.735 150.4H232.825C233.167 150.958 233.491 151.57 233.815 152.146L234.931 154H237.775L234.607 149.05L237.559 143.938H234.823L233.995 145.702C233.743 146.296 233.491 146.854 233.257 147.43H233.167C232.861 146.854 232.555 146.296 232.285 145.702L231.259 143.938H228.433L231.385 148.762L228.217 154Z" fill="black"/>
<path d="M4.536 187H6.408V181.656H11.448V187H13.304V175.224H11.448V180.04H6.408V175.224H4.536V187ZM19.1314 187.224C21.3074 187.224 23.0834 186.008 23.0834 183.928C23.0834 182.392 22.0114 181.4 20.6514 181.048V180.984C21.8994 180.504 22.6834 179.624 22.6834 178.312C22.6834 176.408 21.1954 175.336 19.0834 175.336C17.7234 175.336 16.6354 175.928 15.6914 176.776L16.6674 177.928C17.3394 177.256 18.1074 176.808 19.0034 176.808C20.1394 176.808 20.8114 177.432 20.8114 178.44C20.8114 179.544 20.0434 180.392 17.7394 180.392V181.768C20.3794 181.768 21.2114 182.584 21.2114 183.832C21.2114 185 20.2994 185.704 18.9874 185.704C17.7554 185.704 16.8914 185.112 16.2034 184.408L15.2914 185.592C16.0914 186.488 17.2914 187.224 19.1314 187.224ZM29.1141 187H30.8901V181.464C30.8901 180.168 30.7301 178.824 30.6501 177.592H30.7301L31.9621 180.072L35.8501 187H37.7701V175.224H35.9941V180.728C35.9941 181.992 36.1381 183.432 36.2501 184.632H36.1701L34.9381 182.152L31.0181 175.224H29.1141V187ZM44.2401 187.224C46.4161 187.224 48.3841 185.528 48.3841 182.616C48.3841 179.672 46.4161 177.976 44.2401 177.976C42.0481 177.976 40.0961 179.672 40.0961 182.616C40.0961 185.528 42.0481 187.224 44.2401 187.224ZM44.2401 185.704C42.8481 185.704 42.0001 184.472 42.0001 182.616C42.0001 180.744 42.8481 179.512 44.2401 179.512C45.6161 179.512 46.4961 180.744 46.4961 182.616C46.4961 184.472 45.6161 185.704 44.2401 185.704ZM53.086 187.224C53.742 187.224 54.334 187.048 54.83 186.888L54.494 185.528C54.222 185.64 53.854 185.752 53.55 185.752C52.638 185.752 52.254 185.192 52.254 184.152V179.672H54.558V178.2H52.254V175.768H50.718L50.51 178.2L49.134 178.296V179.672H50.414V184.136C50.414 185.976 51.118 187.224 53.086 187.224ZM59.6776 187.224C61.8536 187.224 63.8216 185.528 63.8216 182.616C63.8216 179.672 61.8536 177.976 59.6776 177.976C57.4856 177.976 55.5336 179.672 55.5336 182.616C55.5336 185.528 57.4856 187.224 59.6776 187.224ZM59.6776 185.704C58.2856 185.704 57.4376 184.472 57.4376 182.616C57.4376 180.744 58.2856 179.512 59.6776 179.512C61.0536 179.512 61.9336 180.744 61.9336 182.616C61.9336 184.472 61.0536 185.704 59.6776 185.704ZM73.1151 187.224C75.6911 187.224 77.2591 185.672 77.2591 183.784C77.2591 182.056 76.2511 181.192 74.8591 180.6L73.2431 179.928C72.2831 179.528 71.3391 179.144 71.3391 178.136C71.3391 177.208 72.1071 176.632 73.3071 176.632C74.3471 176.632 75.1791 177.032 75.9151 177.672L76.8751 176.504C75.9951 175.592 74.6991 175.016 73.3071 175.016C71.0671 175.016 69.4511 176.408 69.4511 178.264C69.4511 179.976 70.6991 180.872 71.8351 181.336L73.4671 182.056C74.5551 182.52 75.3551 182.856 75.3551 183.928C75.3551 184.936 74.5551 185.592 73.1471 185.592C72.0111 185.592 70.8431 185.048 70.0111 184.2L68.9231 185.496C69.9951 186.584 71.4831 187.224 73.1151 187.224ZM81.3935 187.224C82.4495 187.224 83.3935 186.696 84.1935 186.008H84.2575L84.4015 187H85.9215V181.72C85.9215 179.368 84.9135 177.976 82.7215 177.976C81.3135 177.976 80.0655 178.568 79.1695 179.128L79.8575 180.392C80.5935 179.912 81.4735 179.48 82.4015 179.48C83.6815 179.48 84.0495 180.376 84.0655 181.4C80.4175 181.8 78.8175 182.776 78.8175 184.664C78.8175 186.216 79.8895 187.224 81.3935 187.224ZM81.9695 185.752C81.1855 185.752 80.5935 185.4 80.5935 184.536C80.5935 183.544 81.4575 182.888 84.0655 182.584V184.728C83.3455 185.4 82.7375 185.752 81.9695 185.752ZM88.5166 187H90.3726V180.76C91.1406 179.992 91.7006 179.576 92.5166 179.576C93.5406 179.576 93.9886 180.168 93.9886 181.704V187H95.8446V181.464C95.8446 179.24 95.0126 177.976 93.1406 177.976C91.9406 177.976 91.0286 178.632 90.2286 179.432H90.1806L90.0206 178.2H88.5166V187ZM100.901 187.224C103.061 187.224 104.229 186.024 104.229 184.536C104.229 182.888 102.885 182.328 101.653 181.864C100.677 181.512 99.829 181.224 99.829 180.472C99.829 179.864 100.277 179.384 101.253 179.384C101.973 179.384 102.597 179.72 103.205 180.152L104.069 179.016C103.365 178.456 102.389 177.976 101.221 177.976C99.253 177.976 98.069 179.08 98.069 180.552C98.069 182.056 99.365 182.68 100.549 183.128C101.493 183.48 102.485 183.848 102.485 184.632C102.485 185.304 101.989 185.816 100.949 185.816C99.989 185.816 99.237 185.416 98.453 184.808L97.589 186.008C98.437 186.712 99.685 187.224 100.901 187.224ZM112.342 187H114.214V176.792H117.67V175.224H108.886V176.792H112.342V187ZM123.8 187.224C125.336 187.224 126.536 186.616 127.48 185.512L126.472 184.344C125.784 185.112 124.952 185.592 123.88 185.592C121.8 185.592 120.488 183.88 120.488 181.08C120.488 178.328 121.896 176.632 123.928 176.632C124.888 176.632 125.624 177.064 126.232 177.688L127.224 176.488C126.504 175.72 125.368 175.016 123.896 175.016C120.92 175.016 118.568 177.304 118.568 181.144C118.568 185.016 120.856 187.224 123.8 187.224ZM133.145 187H134.825V181.192C134.825 180.12 134.681 178.616 134.585 177.544H134.649L135.593 180.264L137.641 185.88H138.793L140.841 180.264L141.801 177.544H141.865C141.769 178.616 141.625 180.12 141.625 181.192V187H143.337V175.224H141.193L139.065 181.192C138.809 181.96 138.585 182.76 138.297 183.56H138.233C137.961 182.76 137.721 181.96 137.433 181.192L135.289 175.224H133.145V187ZM149.947 187.224C151.099 187.224 152.107 186.84 152.923 186.296L152.283 185.112C151.627 185.528 150.971 185.768 150.187 185.768C148.667 185.768 147.611 184.776 147.467 183.096H153.179C153.227 182.872 153.259 182.52 153.259 182.152C153.259 179.656 151.995 177.976 149.675 177.976C147.627 177.976 145.659 179.752 145.659 182.616C145.659 185.512 147.547 187.224 149.947 187.224ZM147.435 181.816C147.627 180.28 148.603 179.432 149.707 179.432C150.987 179.432 151.659 180.296 151.659 181.816H147.435ZM158.369 187.224C159.361 187.224 160.273 186.696 160.945 186.024H160.993L161.137 187H162.657V174.264H160.801V177.512L160.881 178.968C160.177 178.36 159.521 177.976 158.513 177.976C156.561 177.976 154.753 179.752 154.753 182.616C154.753 185.528 156.161 187.224 158.369 187.224ZM158.817 185.688C157.441 185.688 156.657 184.584 156.657 182.584C156.657 180.696 157.649 179.512 158.881 179.512C159.537 179.512 160.161 179.736 160.801 180.328V184.616C160.177 185.352 159.537 185.688 158.817 185.688ZM165.407 187H167.263V178.2H165.407V187ZM166.335 176.552C167.007 176.552 167.487 176.12 167.487 175.448C167.487 174.792 167.007 174.36 166.335 174.36C165.647 174.36 165.199 174.792 165.199 175.448C165.199 176.12 165.647 176.552 166.335 176.552ZM172.609 187.224C173.825 187.224 174.673 186.6 175.473 185.672H175.521L175.665 187H177.185V178.2H175.345V184.312C174.609 185.24 174.049 185.624 173.233 185.624C172.193 185.624 171.745 185.032 171.745 183.512V178.2H169.905V183.736C169.905 185.976 170.737 187.224 172.609 187.224ZM179.939 187H181.795V180.76C182.499 179.96 183.171 179.576 183.763 179.576C184.771 179.576 185.235 180.168 185.235 181.704V187H187.075V180.76C187.811 179.96 188.451 179.576 189.059 179.576C190.051 179.576 190.515 180.168 190.515 181.704V187H192.355V181.464C192.355 179.24 191.507 177.976 189.667 177.976C188.562 177.976 187.667 178.68 186.786 179.592C186.419 178.584 185.683 177.976 184.371 177.976C183.283 177.976 182.403 178.632 181.651 179.432H181.603L181.443 178.2H179.939V187ZM198.61 187H205.346V185.48H203.042V175.544H201.65C200.962 175.96 200.194 176.248 199.074 176.456V177.624H201.202V185.48H198.61V187ZM211.271 187.224C213.175 187.224 214.791 185.752 214.791 183.496C214.791 181.128 213.447 179.96 211.463 179.96C210.583 179.96 209.511 180.52 208.823 181.448L208.887 182.808C209.607 181.704 210.439 181.304 211.143 181.304C212.391 181.304 213.079 182.088 213.079 183.496C213.079 184.936 212.279 185.8 211.239 185.8C209.815 185.8 208.919 184.488 208.919 181.656C208.919 178.056 210.199 176.856 211.735 176.856C212.439 176.856 213.159 177.208 213.591 177.72L214.599 176.584C213.927 175.896 212.967 175.336 211.639 175.336C209.319 175.336 207.191 177.144 207.191 181.656C207.191 185.448 209.015 187.224 211.271 187.224ZM216.876 190.568H218.732V187.72L218.668 186.232C219.404 186.872 220.204 187.224 220.988 187.224C222.972 187.224 224.78 185.48 224.78 182.472C224.78 179.752 223.516 177.976 221.292 177.976C220.3 177.976 219.356 178.52 218.588 179.176H218.54L218.38 178.2H216.876V190.568ZM220.636 185.688C220.092 185.688 219.42 185.48 218.732 184.888V180.584C219.468 179.88 220.124 179.512 220.796 179.512C222.268 179.512 222.876 180.648 222.876 182.488C222.876 184.552 221.9 185.688 220.636 185.688ZM225.396 187H227.332L228.34 185.144C228.628 184.616 228.884 184.088 229.172 183.592H229.252C229.556 184.088 229.876 184.616 230.164 185.144L231.316 187H233.316L230.484 182.616L233.108 178.2H231.188L230.276 179.96C230.02 180.472 229.78 180.952 229.54 181.448H229.476C229.188 180.952 228.9 180.472 228.644 179.96L227.588 178.2H225.604L228.228 182.424L225.396 187Z" fill="black"/>
<path d="M9.768 219.224C12.072 219.224 13.544 217.848 13.544 216.04C13.544 214.264 12.44 213.528 11.096 212.936L9.368 212.168C8.52 211.8 7.384 211.32 7.384 209.976C7.384 208.776 8.36 207.992 9.864 207.992C11 207.992 11.912 208.472 12.6 209.16L13.144 208.536C12.408 207.752 11.256 207.128 9.864 207.128C7.864 207.128 6.408 208.328 6.408 210.056C6.408 211.784 7.736 212.52 8.776 212.984L10.504 213.752C11.656 214.264 12.584 214.696 12.584 216.12C12.584 217.448 11.512 218.36 9.784 218.36C8.456 218.36 7.24 217.752 6.408 216.808L5.8 217.464C6.744 218.504 8.088 219.224 9.768 219.224ZM19.6093 219.224C20.7772 219.224 21.6572 218.568 22.4893 217.592H22.5213L22.6172 219H23.4012V210.472H22.4573V216.712C21.5132 217.88 20.7933 218.392 19.8172 218.392C18.5052 218.392 17.9452 217.576 17.9452 215.816V210.472H17.0172V215.928C17.0172 218.136 17.8332 219.224 19.6093 219.224ZM31.2711 219.224C33.2871 219.224 35.0311 217.528 35.0311 214.616C35.0311 211.976 33.8791 210.264 31.6071 210.264C30.5991 210.264 29.5911 210.856 28.7431 211.576L28.7911 209.928V206.296H27.8471V219H28.6151L28.7111 218.136H28.7591C29.5431 218.808 30.4711 219.224 31.2711 219.224ZM31.2071 218.408C30.5831 218.408 29.6711 218.12 28.7911 217.368V212.424C29.7351 211.56 30.6311 211.08 31.4471 211.08C33.3351 211.08 34.0551 212.568 34.0551 214.616C34.0551 216.888 32.8551 218.408 31.2071 218.408ZM40.9178 219.224C41.3178 219.224 41.8618 219.064 42.3578 218.888L42.1178 218.168C41.8298 218.296 41.3978 218.424 41.0938 218.424C39.9418 218.424 39.6698 217.72 39.6698 216.648V211.272H42.1018V210.472H39.6698V208.008H38.8698L38.7738 210.472L37.4138 210.552V211.272H38.7418V216.584C38.7418 218.168 39.2378 219.224 40.9178 219.224ZM45.4227 219H46.3667V210.472H45.4227V219ZM45.9027 208.472C46.3347 208.472 46.6387 208.184 46.6387 207.688C46.6387 207.256 46.3347 206.952 45.9027 206.952C45.4707 206.952 45.1667 207.256 45.1667 207.688C45.1667 208.184 45.4707 208.472 45.9027 208.472ZM53.2121 219.224C53.6121 219.224 54.1561 219.064 54.6521 218.888L54.4121 218.168C54.1241 218.296 53.6921 218.424 53.3881 218.424C52.2361 218.424 51.9641 217.72 51.9641 216.648V211.272H54.3961V210.472H51.9641V208.008H51.1641L51.0681 210.472L49.7081 210.552V211.272H51.0361V216.584C51.0361 218.168 51.5321 219.224 53.2121 219.224ZM58.8531 219.224C59.1571 219.224 59.3171 219.176 59.4931 219.128L59.3491 218.376C59.1731 218.408 59.1091 218.408 59.0291 218.408C58.8051 218.408 58.6611 218.232 58.6611 217.832V206.296H57.7171V217.736C57.7171 218.728 58.0851 219.224 58.8531 219.224ZM66.5271 219.224C67.7431 219.224 68.5591 218.808 69.2471 218.376L68.8791 217.688C68.2391 218.136 67.5351 218.424 66.6231 218.424C64.7671 218.424 63.5351 216.968 63.5031 214.904H69.5511C69.5831 214.68 69.5991 214.456 69.5991 214.232C69.5991 211.736 68.3511 210.264 66.2871 210.264C64.3671 210.264 62.5431 211.976 62.5431 214.76C62.5431 217.56 64.3191 219.224 66.5271 219.224ZM63.4871 214.168C63.6791 212.2 64.9111 211.048 66.3031 211.048C67.7911 211.048 68.7351 212.104 68.7351 214.168H63.4871ZM78.0597 219H78.9557V212.024C78.9557 210.856 78.8917 209.768 78.8437 208.632H78.9077L80.2197 210.984L84.9717 219H85.9797V207.336H85.0517V214.248C85.0517 215.4 85.1317 216.568 85.1957 217.704H85.1157L83.8197 215.368L79.0517 207.336H78.0597V219ZM93.7083 219.224C95.7723 219.224 97.5643 217.576 97.5643 214.76C97.5643 211.896 95.7723 210.264 93.7083 210.264C91.6443 210.264 89.8363 211.896 89.8363 214.76C89.8363 217.576 91.6443 219.224 93.7083 219.224ZM93.7083 218.408C92.0283 218.408 90.8123 216.936 90.8123 214.76C90.8123 212.568 92.0283 211.064 93.7083 211.064C95.3723 211.064 96.6043 212.568 96.6043 214.76C96.6043 216.936 95.3723 218.408 93.7083 218.408ZM103.47 219.224C103.87 219.224 104.414 219.064 104.91 218.888L104.67 218.168C104.382 218.296 103.95 218.424 103.646 218.424C102.494 218.424 102.222 217.72 102.222 216.648V211.272H104.654V210.472H102.222V208.008H101.422L101.326 210.472L99.9663 210.552V211.272H101.294V216.584C101.294 218.168 101.79 219.224 103.47 219.224ZM110.925 219.224C112.989 219.224 114.781 217.576 114.781 214.76C114.781 211.896 112.989 210.264 110.925 210.264C108.861 210.264 107.053 211.896 107.053 214.76C107.053 217.576 108.861 219.224 110.925 219.224ZM110.925 218.408C109.245 218.408 108.029 216.936 108.029 214.76C108.029 212.568 109.245 211.064 110.925 211.064C112.589 211.064 113.821 212.568 113.821 214.76C113.821 216.936 112.589 218.408 110.925 218.408ZM126.532 219.224C128.836 219.224 130.308 217.848 130.308 216.04C130.308 214.264 129.204 213.528 127.86 212.936L126.132 212.168C125.284 211.8 124.148 211.32 124.148 209.976C124.148 208.776 125.124 207.992 126.628 207.992C127.764 207.992 128.676 208.472 129.364 209.16L129.908 208.536C129.172 207.752 128.02 207.128 126.628 207.128C124.628 207.128 123.172 208.328 123.172 210.056C123.172 211.784 124.5 212.52 125.54 212.984L127.268 213.752C128.42 214.264 129.348 214.696 129.348 216.12C129.348 217.448 128.276 218.36 126.548 218.36C125.22 218.36 124.004 217.752 123.172 216.808L122.564 217.464C123.508 218.504 124.852 219.224 126.532 219.224ZM135.797 219.224C136.901 219.224 137.925 218.616 138.773 217.928H138.821L138.917 219H139.701V213.592C139.701 211.704 138.965 210.264 136.933 210.264C135.541 210.264 134.357 210.92 133.717 211.368L134.117 212.056C134.725 211.608 135.685 211.064 136.821 211.064C138.437 211.064 138.789 212.376 138.757 213.64C134.997 214.072 133.317 214.968 133.317 216.856C133.317 218.44 134.437 219.224 135.797 219.224ZM135.989 218.424C135.045 218.424 134.261 217.976 134.261 216.808C134.261 215.512 135.397 214.712 138.757 214.344V217.112C137.765 217.976 136.933 218.424 135.989 218.424ZM143.939 219H144.883V212.616C145.875 211.608 146.579 211.096 147.555 211.096C148.883 211.096 149.427 211.912 149.427 213.672V219H150.371V213.544C150.371 211.352 149.539 210.264 147.779 210.264C146.595 210.264 145.715 210.92 144.867 211.784H144.835L144.723 210.472H143.939V219ZM156.8 219.224C158.688 219.224 159.712 218.104 159.712 216.776C159.712 215.128 158.288 214.68 156.976 214.184C155.984 213.8 155.04 213.448 155.04 212.52C155.04 211.752 155.632 211.032 156.912 211.032C157.744 211.032 158.336 211.384 158.912 211.8L159.392 211.176C158.784 210.648 157.856 210.264 156.912 210.264C155.12 210.264 154.128 211.304 154.128 212.552C154.128 214.024 155.472 214.552 156.72 215C157.712 215.368 158.784 215.816 158.784 216.84C158.784 217.704 158.128 218.44 156.832 218.44C155.664 218.44 154.88 217.976 154.16 217.368L153.648 218.04C154.432 218.696 155.536 219.224 156.8 219.224ZM170.605 219H171.581V208.168H175.245V207.336H166.941V208.168H170.605V219ZM182.535 219.224C184.039 219.224 185.111 218.6 186.023 217.56L185.463 216.936C184.631 217.864 183.751 218.36 182.583 218.36C180.135 218.36 178.599 216.312 178.599 213.144C178.599 209.976 180.151 207.992 182.631 207.992C183.687 207.992 184.519 208.472 185.143 209.16L185.687 208.536C185.063 207.816 184.007 207.128 182.631 207.128C179.671 207.128 177.607 209.448 177.607 213.16C177.607 216.888 179.639 219.224 182.535 219.224ZM194.465 219H200.721V218.184H195.409V207.336H194.465V219ZM203.993 219H204.937V210.472H203.993V219ZM204.473 208.472C204.905 208.472 205.209 208.184 205.209 207.688C205.209 207.256 204.905 206.952 204.473 206.952C204.041 206.952 203.737 207.256 203.737 207.688C203.737 208.184 204.041 208.472 204.473 208.472ZM212.198 223.08C214.694 223.08 216.278 221.672 216.278 220.168C216.278 218.824 215.366 218.216 213.446 218.216H211.654C210.406 218.216 210.054 217.736 210.054 217.128C210.054 216.6 210.358 216.248 210.71 215.96C211.094 216.168 211.622 216.296 212.086 216.296C213.766 216.296 215.094 215.048 215.094 213.304C215.094 212.424 214.742 211.704 214.23 211.24H216.134V210.472H213.238C212.966 210.36 212.566 210.264 212.086 210.264C210.406 210.264 209.046 211.496 209.046 213.288C209.046 214.312 209.59 215.144 210.134 215.608V215.672C209.734 215.96 209.19 216.504 209.19 217.256C209.19 217.912 209.526 218.36 209.958 218.632V218.696C209.174 219.24 208.678 219.992 208.678 220.728C208.678 222.168 210.054 223.08 212.198 223.08ZM212.086 215.592C210.95 215.592 209.974 214.664 209.974 213.288C209.974 211.864 210.934 211 212.086 211C213.254 211 214.198 211.88 214.198 213.288C214.198 214.664 213.222 215.592 212.086 215.592ZM212.294 222.36C210.566 222.36 209.558 221.656 209.558 220.616C209.558 220.04 209.862 219.416 210.614 218.904C211.046 219.016 211.478 219.048 211.686 219.048H213.43C214.678 219.048 215.35 219.384 215.35 220.296C215.35 221.32 214.166 222.36 212.294 222.36ZM219.365 219H220.309V212.616C221.301 211.608 222.005 211.096 222.981 211.096C224.309 211.096 224.853 211.912 224.853 213.672V219H225.797V213.544C225.797 211.352 224.965 210.264 223.205 210.264C222.021 210.264 221.141 210.92 220.277 211.784L220.309 209.928V206.296H219.365V219ZM232.451 219.224C232.851 219.224 233.395 219.064 233.891 218.888L233.651 218.168C233.363 218.296 232.931 218.424 232.627 218.424C231.475 218.424 231.203 217.72 231.203 216.648V211.272H233.635V210.472H231.203V208.008H230.403L230.307 210.472L228.947 210.552V211.272H230.275V216.584C230.275 218.168 230.771 219.224 232.451 219.224ZM241.656 219H247.672V218.2H245.224V207.688H244.472C243.928 208.008 243.208 208.264 242.248 208.424V209.064H244.296V218.2H241.656V219ZM254.682 219.224C256.378 219.224 257.834 217.752 257.834 215.656C257.834 213.368 256.618 212.152 254.65 212.152C253.61 212.152 252.554 212.792 251.77 213.784L251.786 214.68C252.698 213.4 253.738 212.904 254.538 212.904C256.186 212.904 256.922 214.056 256.922 215.656C256.922 217.256 255.962 218.44 254.698 218.44C252.762 218.44 251.85 216.632 251.85 213.848C251.85 209.688 253.354 208.296 255.13 208.296C255.866 208.296 256.57 208.6 257.034 209.192L257.594 208.584C257.002 207.928 256.218 207.48 255.13 207.48C252.922 207.48 250.922 209.144 250.922 213.848C250.922 217.32 252.426 219.224 254.682 219.224ZM261.453 222.808H262.397V219.736L262.381 218.184C263.229 218.84 264.093 219.224 264.877 219.224C266.893 219.224 268.637 217.528 268.637 214.616C268.637 211.976 267.485 210.264 265.229 210.264C264.189 210.264 263.197 210.872 262.381 211.528H262.349L262.237 210.472H261.453V222.808ZM264.813 218.408C264.189 218.408 263.293 218.12 262.397 217.368V212.424C263.373 211.56 264.237 211.08 265.053 211.08C266.941 211.08 267.661 212.568 267.661 214.616C267.661 216.888 266.461 218.408 264.813 218.408ZM270.826 219H271.818L273.194 216.744C273.514 216.216 273.818 215.688 274.154 215.192H274.234C274.57 215.688 274.906 216.216 275.21 216.744L276.666 219H277.706L274.826 214.632L277.466 210.472H276.474L275.21 212.568C274.922 213.048 274.65 213.512 274.378 213.992H274.298C273.994 213.512 273.69 213.048 273.402 212.568L272.09 210.472H271.066L273.706 214.552L270.826 219Z" fill="black"/>
<path d="M8.024 246H9.152V238.14H11.804V237.204H5.372V238.14H8.024V246ZM15.9498 246.168C16.8378 246.168 17.5218 245.868 18.0978 245.496L17.7018 244.764C17.2218 245.088 16.7058 245.292 16.0818 245.292C14.8338 245.292 13.9938 244.392 13.9098 243.012H18.3018C18.3378 242.844 18.3498 242.616 18.3498 242.388C18.3498 240.516 17.4138 239.328 15.7578 239.328C14.2578 239.328 12.8298 240.636 12.8298 242.76C12.8298 244.896 14.2098 246.168 15.9498 246.168ZM13.8978 242.22C14.0418 240.936 14.8578 240.204 15.7698 240.204C16.8018 240.204 17.3898 240.912 17.3898 242.22H13.8978ZM19.8734 246H21.0254L21.9014 244.476C22.1174 244.08 22.3334 243.684 22.5614 243.312H22.6214C22.8614 243.684 23.1014 244.092 23.3294 244.476L24.2894 246H25.4774L23.3414 242.712L25.3094 239.484H24.1694L23.3774 240.912C23.1734 241.284 22.9814 241.644 22.7894 242.016H22.7414C22.5134 241.644 22.2974 241.284 22.0934 240.912L21.2174 239.484H20.0414L22.0094 242.604L19.8734 246ZM29.4224 246.168C29.8304 246.168 30.2624 246.048 30.6224 245.916L30.4064 245.1C30.2024 245.184 29.9024 245.28 29.6744 245.28C28.9184 245.28 28.6664 244.812 28.6664 244.02V240.372H30.4304V239.484H28.6664V237.648H27.7424L27.6224 239.484L26.6024 239.556V240.372H27.5744V243.996C27.5744 245.292 28.0304 246.168 29.4224 246.168ZM36.6055 246H37.6615V241.392C37.6615 240.456 37.5775 239.532 37.5175 238.644H37.5775L38.5255 240.456L41.7175 246H42.8695V237.204H41.8015V241.776C41.8015 242.688 41.8855 243.684 41.9575 244.572H41.8975L40.9495 242.748L37.7455 237.204H36.6055V246ZM48.6733 246.168C50.2693 246.168 51.6853 244.908 51.6853 242.76C51.6853 240.576 50.2693 239.328 48.6733 239.328C47.0653 239.328 45.6493 240.576 45.6493 242.76C45.6493 244.908 47.0653 246.168 48.6733 246.168ZM48.6733 245.256C47.5333 245.256 46.7773 244.248 46.7773 242.76C46.7773 241.248 47.5333 240.24 48.6733 240.24C49.8013 240.24 50.5573 241.248 50.5573 242.76C50.5573 244.248 49.8013 245.256 48.6733 245.256ZM56.1609 246.168C56.5689 246.168 57.0009 246.048 57.3609 245.916L57.1449 245.1C56.9409 245.184 56.6409 245.28 56.4129 245.28C55.6569 245.28 55.4049 244.812 55.4049 244.02V240.372H57.1689V239.484H55.4049V237.648H54.4809L54.3609 239.484L53.3409 239.556V240.372H54.3129V243.996C54.3129 245.292 54.7689 246.168 56.1609 246.168ZM61.9254 246.168C63.5214 246.168 64.9374 244.908 64.9374 242.76C64.9374 240.576 63.5214 239.328 61.9254 239.328C60.3174 239.328 58.9014 240.576 58.9014 242.76C58.9014 244.908 60.3174 246.168 61.9254 246.168ZM61.9254 245.256C60.7854 245.256 60.0294 244.248 60.0294 242.76C60.0294 241.248 60.7854 240.24 61.9254 240.24C63.0534 240.24 63.8094 241.248 63.8094 242.76C63.8094 244.248 63.0534 245.256 61.9254 245.256ZM73.8063 246.168C75.6543 246.168 76.7943 245.064 76.7943 243.672C76.7943 242.364 76.0143 241.752 74.9823 241.308L73.7343 240.768C73.0503 240.48 72.2823 240.168 72.2823 239.304C72.2823 238.524 72.9303 238.02 73.9263 238.02C74.7303 238.02 75.3783 238.344 75.9183 238.848L76.5063 238.14C75.8943 237.492 74.9703 237.048 73.9263 237.048C72.3183 237.048 71.1543 238.032 71.1543 239.388C71.1543 240.672 72.1143 241.296 72.9423 241.644L74.2023 242.196C75.0303 242.556 75.6663 242.844 75.6663 243.756C75.6663 244.608 74.9823 245.184 73.8303 245.184C72.9183 245.184 72.0303 244.764 71.3943 244.092L70.7343 244.86C71.5023 245.664 72.5703 246.168 73.8063 246.168ZM80.8827 246.168C81.6867 246.168 82.4187 245.748 83.0307 245.232H83.0787L83.1747 246H84.0747V242.004C84.0747 240.384 83.4027 239.328 81.8067 239.328C80.7627 239.328 79.8507 239.784 79.2507 240.168L79.6827 240.936C80.1867 240.588 80.8707 240.228 81.6387 240.228C82.7067 240.228 82.9707 241.032 82.9707 241.872C80.1987 242.184 78.9747 242.892 78.9747 244.308C78.9747 245.484 79.7907 246.168 80.8827 246.168ZM81.1827 245.28C80.5467 245.28 80.0427 244.98 80.0427 244.236C80.0427 243.396 80.7747 242.856 82.9707 242.604V244.416C82.3467 244.98 81.8187 245.28 81.1827 245.28ZM87.1045 246H88.1965V241.272C88.8445 240.624 89.3125 240.276 89.9725 240.276C90.8365 240.276 91.2085 240.792 91.2085 242.016V246H92.3125V241.872C92.3125 240.216 91.6885 239.328 90.3205 239.328C89.4205 239.328 88.7485 239.82 88.1365 240.432H88.1005L87.9925 239.484H87.1045V246ZM97.0927 246.168C98.6287 246.168 99.4567 245.292 99.4567 244.224C99.4567 242.988 98.4247 242.604 97.4767 242.244C96.7327 241.98 96.0727 241.74 96.0727 241.116C96.0727 240.612 96.4447 240.18 97.2727 240.18C97.8487 240.18 98.3167 240.432 98.7607 240.756L99.2887 240.06C98.7847 239.652 98.0647 239.328 97.2607 239.328C95.8447 239.328 95.0167 240.132 95.0167 241.164C95.0167 242.28 96.0127 242.712 96.9127 243.06C97.6327 243.324 98.4127 243.624 98.4127 244.284C98.4127 244.86 97.9807 245.316 97.1167 245.316C96.3367 245.316 95.7607 244.992 95.1967 244.536L94.6567 245.268C95.2687 245.772 96.1687 246.168 97.0927 246.168ZM107.526 246H108.654V238.14H111.306V237.204H104.874V238.14H107.526V246ZM116.818 246.168C117.958 246.168 118.81 245.712 119.506 244.896L118.906 244.2C118.342 244.824 117.694 245.184 116.866 245.184C115.186 245.184 114.13 243.804 114.13 241.584C114.13 239.388 115.234 238.02 116.902 238.02C117.646 238.02 118.234 238.356 118.69 238.848L119.302 238.128C118.786 237.564 117.958 237.048 116.89 237.048C114.658 237.048 112.99 238.776 112.99 241.608C112.99 244.464 114.622 246.168 116.818 246.168ZM125.75 246H126.866V242.28H128.498C130.286 242.28 131.57 241.44 131.57 239.676C131.57 237.852 130.286 237.204 128.498 237.204H125.75V246ZM126.866 241.38V238.116H128.342C129.71 238.116 130.466 238.524 130.466 239.676C130.466 240.816 129.71 241.38 128.342 241.38H126.866ZM130.586 246H131.834L129.146 241.404L128.282 241.98L130.586 246ZM136.695 246.168C137.583 246.168 138.267 245.868 138.843 245.496L138.447 244.764C137.967 245.088 137.451 245.292 136.827 245.292C135.579 245.292 134.739 244.392 134.655 243.012H139.047C139.083 242.844 139.095 242.616 139.095 242.388C139.095 240.516 138.159 239.328 136.503 239.328C135.003 239.328 133.575 240.636 133.575 242.76C133.575 244.896 134.955 246.168 136.695 246.168ZM134.643 242.22C134.787 240.936 135.603 240.204 136.515 240.204C137.547 240.204 138.135 240.912 138.135 242.22H134.643ZM143.703 249C145.707 249 146.991 247.968 146.991 246.756C146.991 245.676 146.235 245.208 144.723 245.208H143.451C142.575 245.208 142.299 244.908 142.299 244.488C142.299 244.14 142.491 243.912 142.719 243.72C143.019 243.864 143.379 243.936 143.691 243.936C145.023 243.936 146.079 243.072 146.079 241.68C146.079 241.116 145.863 240.636 145.551 240.336H146.883V239.484H144.615C144.387 239.4 144.063 239.328 143.691 239.328C142.371 239.328 141.243 240.216 141.243 241.656C141.243 242.436 141.675 243.06 142.107 243.408V243.456C141.759 243.696 141.375 244.116 141.375 244.656C141.375 245.172 141.627 245.52 141.963 245.736V245.784C141.363 246.168 141.003 246.708 141.003 247.26C141.003 248.376 142.107 249 143.703 249ZM143.691 243.204C142.935 243.204 142.299 242.592 142.299 241.656C142.299 240.684 142.923 240.12 143.691 240.12C144.459 240.12 145.083 240.696 145.083 241.656C145.083 242.592 144.447 243.204 143.691 243.204ZM143.847 248.256C142.671 248.256 141.963 247.812 141.963 247.104C141.963 246.732 142.155 246.336 142.623 246C142.923 246.084 143.223 246.108 143.475 246.108H144.603C145.455 246.108 145.923 246.312 145.923 246.924C145.923 247.596 145.107 248.256 143.847 248.256ZM151.137 246.168C152.037 246.168 152.685 245.688 153.297 244.98H153.321L153.417 246H154.317V239.484H153.225V244.116C152.613 244.884 152.133 245.208 151.473 245.208C150.609 245.208 150.237 244.692 150.237 243.48V239.484H149.145V243.612C149.145 245.28 149.769 246.168 151.137 246.168ZM158.642 246.168C158.942 246.168 159.11 246.12 159.266 246.072L159.122 245.232C158.99 245.256 158.942 245.256 158.894 245.256C158.726 245.256 158.582 245.124 158.582 244.776V236.46H157.49V244.704C157.49 245.64 157.814 246.168 158.642 246.168ZM163.36 246.168C164.164 246.168 164.896 245.748 165.508 245.232H165.556L165.652 246H166.552V242.004C166.552 240.384 165.88 239.328 164.284 239.328C163.24 239.328 162.328 239.784 161.728 240.168L162.16 240.936C162.664 240.588 163.348 240.228 164.116 240.228C165.184 240.228 165.448 241.032 165.448 241.872C162.676 242.184 161.452 242.892 161.452 244.308C161.452 245.484 162.268 246.168 163.36 246.168ZM163.66 245.28C163.024 245.28 162.52 244.98 162.52 244.236C162.52 243.396 163.252 242.856 165.448 242.604V244.416C164.824 244.98 164.296 245.28 163.66 245.28ZM169.581 246H170.673V241.824C171.105 240.708 171.777 240.312 172.317 240.312C172.581 240.312 172.725 240.348 172.953 240.42L173.157 239.46C172.941 239.364 172.749 239.328 172.461 239.328C171.729 239.328 171.057 239.844 170.613 240.672H170.577L170.469 239.484H169.581V246ZM178.789 246H183.613V245.088H181.837V237.456H180.997C180.529 237.732 179.965 237.936 179.173 238.08V238.788H180.745V245.088H178.789V246ZM185.878 246H191.398V245.064H188.914C188.47 245.064 187.93 245.1 187.474 245.148C189.502 243.012 190.978 241.416 190.978 239.808C190.978 238.284 189.994 237.3 188.422 237.3C187.306 237.3 186.538 237.804 185.818 238.584L186.454 239.208C186.946 238.632 187.57 238.176 188.29 238.176C189.382 238.176 189.898 238.872 189.898 239.844C189.898 241.248 188.458 242.796 185.878 245.364V246ZM194.07 248.748H195.162V246.552L195.138 245.412C195.726 245.892 196.338 246.168 196.926 246.168C198.426 246.168 199.758 244.872 199.758 242.652C199.758 240.636 198.858 239.328 197.166 239.328C196.41 239.328 195.69 239.748 195.102 240.24H195.066L194.958 239.484H194.07V248.748ZM196.758 245.244C196.326 245.244 195.75 245.064 195.162 244.572V241.14C195.798 240.552 196.35 240.24 196.902 240.24C198.138 240.24 198.63 241.212 198.63 242.664C198.63 244.272 197.826 245.244 196.758 245.244ZM201.29 246H202.442L203.318 244.476C203.534 244.08 203.75 243.684 203.978 243.312H204.038C204.278 243.684 204.518 244.092 204.746 244.476L205.706 246H206.894L204.758 242.712L206.726 239.484H205.586L204.794 240.912C204.59 241.284 204.398 241.644 204.206 242.016H204.158C203.93 241.644 203.714 241.284 203.51 240.912L202.634 239.484H201.458L203.426 242.604L201.29 246Z" fill="black"/>
</svg>
