<svg width="826" height="190" viewBox="0 0 826 190" fill="none" xmlns="http://www.w3.org/2000/svg">
<path d="M2.008 13.736V20.248H3.72V15.448H6.168V19.864H7.976V13.736H2.008ZM3.944 6.792V14.552H5.896V6.792H3.944ZM9.112 5.48V20.44H11.032V5.48H9.112ZM13.432 5.48V20.376H15.384V5.48H13.432ZM1.464 9.928V11.72H8.248V9.928H1.464ZM7.896 8.296V10.136H16.52V8.296H7.896ZM9.992 13V14.808H14.536V13H9.992ZM9.992 17.752V19.56H14.536V17.752H9.992ZM2.84 17.64V19.352H7.176V17.64H2.84ZM1.752 5.736V7.528H7.912V5.736H1.752ZM26.68 12.984V20.424H28.424V14.712H31.4V20.36H33.224V12.984H26.68ZM28.808 5.432V13.448H30.68V5.432H28.808ZM29.928 8.728V10.504H33.784V8.728H29.928ZM27.592 18.072V19.816H32.248V18.072H27.592ZM20.76 7.192H24.648V10.68H20.76V7.192ZM19.336 5.896V11.976H26.136V5.896H19.336ZM20.728 7.88C20.968 8.616 21.16 9.576 21.192 10.216L22.024 9.944C21.976 9.336 21.768 8.376 21.512 7.64L20.728 7.88ZM21.208 17.208C21.352 18.104 21.416 19.272 21.368 20.024L22.616 19.896C22.632 19.128 22.552 17.976 22.392 17.096L21.208 17.208ZM22.84 17.192C23.128 18.04 23.4 19.144 23.464 19.88L24.648 19.624C24.568 18.904 24.28 17.816 23.976 16.984L22.84 17.192ZM24.44 17.16C24.904 17.96 25.352 19.048 25.512 19.752L26.728 19.288C26.552 18.568 26.088 17.528 25.592 16.744L24.44 17.16ZM19.672 16.744C19.48 17.704 19.112 18.888 18.648 19.656L19.976 20.2C20.424 19.432 20.744 18.2 20.936 17.208L19.672 16.744ZM23.864 7.624C23.736 8.296 23.448 9.32 23.224 9.976L23.928 10.232C24.2 9.656 24.52 8.728 24.824 7.96L23.864 7.624ZM19.352 12.664V14.12H26.088V12.664H19.352ZM22.088 6.552V11.384H21.832V15.56H23.512V11.384H23.256V6.552H22.088ZM19.032 14.92V16.36H26.312V14.92H19.032Z" fill="black"/>
<path d="M282.96 9.368V10.936H287.776V9.368H282.96ZM286.208 13.528V15.112H288.72V13.528H286.208ZM288.896 9.96V11.528H297.2V9.96H288.896ZM285.472 12.008V18.024H287.12V12.008H285.472ZM283.216 12.44V18.568H284.72V12.44H283.216ZM292.08 14.792V19.88H293.568V14.792H292.08ZM287.232 9.368V9.672C286.88 10.36 286.128 11.4 285.472 12.008C285.728 12.232 286.192 12.696 286.384 13C287.28 12.248 288.272 11.08 288.976 10.056L287.936 9.272L287.616 9.368H287.232ZM282.416 18.136L282.8 19.912C284.512 19.48 286.768 18.904 288.896 18.344L288.704 16.728C286.416 17.272 284 17.832 282.416 18.136ZM293.872 12.04C294.672 12.84 295.584 13.976 295.952 14.712L297.36 13.896C296.944 13.144 295.984 12.072 295.184 11.304L293.872 12.04ZM289.6 14.712V16.328C289.6 17.256 289.392 18.584 287.904 19.432C288.24 19.64 288.768 20.12 289.024 20.424C290.848 19.4 291.136 17.624 291.136 16.376V14.712H289.6ZM289.408 14.52C289.408 14.232 290.592 13.768 290.592 13.768V13.736C291.776 12.568 293.056 10.904 294.032 9.224L292.304 8.68C291.552 10.28 290.304 11.928 289.888 12.344C289.504 12.776 289.2 13.048 288.848 13.128C289.04 13.512 289.312 14.232 289.408 14.52ZM289.408 14.52C289.952 14.344 290.736 14.312 296.16 14.072C296.048 13.736 295.92 13.144 295.856 12.728L290.352 12.872L289.392 13.352L289.408 14.52ZM294.432 14.68V18.28C294.432 19.688 294.704 20.28 296.096 20.28C296.288 20.28 296.608 20.28 296.784 20.28C297.072 20.28 297.376 20.264 297.584 20.184C297.536 19.8 297.488 19.208 297.472 18.792C297.28 18.856 296.96 18.888 296.768 18.888C296.64 18.888 296.384 18.888 296.256 18.888C296.08 18.888 296.064 18.728 296.064 18.312V14.68H294.432ZM282.832 6.28V7.88H289.712V6.28H282.832ZM285.744 5.4V8.856H287.648V5.4H285.744ZM292.464 5.4V8.744H294.368V5.4H292.464ZM290.272 6.28V7.88H297.152V6.28H290.272ZM303.712 12.344V13.576H310.752V12.344H303.712ZM312.624 15.16C311.712 15.896 310.176 16.856 309.056 17.4L310.208 18.456C311.344 17.928 312.816 17.112 314.016 16.296L312.624 15.16ZM303.664 10.296V11.656H310.064V14.232H303.664V15.608H312V10.296H303.664ZM307.792 6.04L306.336 6.824C308.16 8.584 311.136 10.2 313.728 11C314 10.536 314.56 9.784 314.976 9.384C312.352 8.76 309.344 7.416 307.792 6.04ZM306.896 5.208C305.424 7.128 302.528 8.632 299.808 9.432C300.24 9.864 300.736 10.504 300.976 10.968C303.92 9.944 306.768 8.28 308.608 6.056L306.896 5.208ZM302.56 20.376C302.56 19.752 304.368 18.664 304.368 18.664V10.296H302.48V17.64C302.48 18.36 302.08 18.792 301.744 19.016C302.016 19.304 302.432 19.992 302.56 20.376ZM302.56 20.376C303.024 20.152 303.76 20.024 308.064 19.432C308.032 19.048 308.032 18.328 308.096 17.848L303.408 18.376L302.48 18.952L302.56 20.376ZM306.352 16.84C308.384 17.816 311.04 19.384 312.32 20.392L313.68 19.096C312.288 18.072 309.568 16.632 307.6 15.736L306.352 16.84ZM305.12 8.6V9.864H309.44V8.6H305.12Z" fill="black"/>
<path d="M1 29L262 29" stroke="#FACA0F" stroke-width="2"/>
<path d="M282 29L543 29" stroke="#96DB5F" stroke-width="2"/>
<path d="M573.896 6.888V11.8H574.536V6.888H573.896ZM576.328 6.888V11.8H576.984V6.888H576.328ZM577.224 16.888C578.072 17.72 579.032 18.872 579.464 19.64L580.072 19.24C579.656 18.488 578.696 17.368 577.8 16.536L577.224 16.888ZM572.824 16.568C572.28 17.576 571.416 18.552 570.488 19.24C570.696 19.336 571 19.544 571.144 19.656C571.992 18.936 572.92 17.848 573.544 16.776L572.824 16.568ZM571.016 6.504V7.176H579.912V6.504H571.016ZM572.136 13.144V13.816H578.856V13.144H572.136ZM571.064 15.208V15.88H580.024V15.208H571.064ZM572.104 9.112H578.936V11.464H572.104V9.112ZM571.416 8.456V12.12H579.656V8.456H571.416ZM575.032 15.464V20.184H575.768V15.464H575.032ZM566.008 8.808V9.544H571.048V8.808H566.008ZM568.424 5.656V20.168H569.16V5.656H568.424ZM568.376 9.176C567.88 11.576 566.712 14.504 565.624 15.976C565.784 16.136 565.992 16.456 566.088 16.664C567.224 15.064 568.392 11.896 568.904 9.368L568.376 9.176ZM569.096 10.392L568.68 10.712C569.08 11.272 570.2 13.224 570.552 13.944L571.048 13.336C570.76 12.856 569.448 10.824 569.096 10.392ZM585.752 8.936C585.464 10.056 584.648 10.872 583.592 11.416C583.752 11.528 584.008 11.768 584.088 11.896C585.192 11.288 586.104 10.312 586.424 9.032L585.752 8.936ZM589.768 9.048C589.512 10.152 588.824 10.952 587.848 11.496C588.008 11.608 588.264 11.848 588.36 11.976C589.352 11.352 590.152 10.408 590.456 9.144L589.768 9.048ZM583.112 11.928V12.568H597.416V11.928H583.112ZM592.536 9.032C592.664 15.4 594.024 20.072 596.216 20.072C597.016 20.072 597.304 19.608 597.432 18.2C597.256 18.152 597 18.008 596.824 17.848C596.76 19.016 596.632 19.352 596.264 19.352C594.712 19.368 593.32 15.272 593.256 9.032H592.536ZM586.152 12.216V19.064H586.84V12.216H586.152ZM588.696 12.216V18.952H589.384V12.216H588.696ZM583.224 18.888L583.384 19.56C585.656 19.432 588.84 19.24 591.848 19.016L591.864 18.456C588.696 18.632 585.352 18.808 583.224 18.888ZM584.024 15.336V15.912H586.6V15.336H584.024ZM583.864 13.72V14.296H586.584V13.72H583.864ZM583.72 17V17.592H586.584V17H583.72ZM589.096 15.352V15.944H591.592V15.352H589.096ZM589.096 13.736V14.312H591.736V13.736H589.096ZM589.016 16.984V17.576H591.8V16.984H589.016ZM594.344 9.64C595.016 10.2 595.8 10.984 596.152 11.512L596.712 11.128C596.344 10.6 595.56 9.832 594.856 9.304L594.344 9.64ZM595.784 13.08C595.08 16.024 593.256 18.328 590.568 19.816C590.712 19.928 590.936 20.136 591.048 20.28C593.816 18.728 595.64 16.312 596.456 13.24L595.784 13.08ZM585.464 10.104C586.072 10.584 586.76 11.256 587.096 11.72L587.576 11.304C587.256 10.856 586.552 10.2 585.944 9.752L585.464 10.104ZM589.512 10.232C590.2 10.696 590.968 11.416 591.336 11.896L591.832 11.464C591.448 10.984 590.664 10.328 589.976 9.864L589.512 10.232ZM585.064 6.744V7.368H590.264V6.744H585.064ZM591.832 6.76V7.384H597.496V6.76H591.832ZM585.576 5.544C585.032 6.696 584.12 7.832 583.144 8.6C583.32 8.728 583.608 8.984 583.72 9.096C584.68 8.28 585.656 7.016 586.264 5.736L585.576 5.544ZM592.216 5.56C591.784 6.728 590.968 7.8 590.024 8.536C590.216 8.648 590.52 8.888 590.648 9.016C591.576 8.232 592.456 7.016 592.968 5.736L592.216 5.56ZM586.408 7.784C586.888 8.216 587.496 8.808 587.784 9.192L588.392 8.824C588.072 8.44 587.464 7.88 586.968 7.464L586.408 7.784ZM593.384 7.912C593.736 8.232 594.136 8.68 594.344 8.984L594.936 8.616C594.728 8.312 594.312 7.896 593.976 7.592L593.384 7.912ZM605.224 18.824V19.544H613.272V18.824H605.224ZM604.824 7.288V8.008H610.824V7.288H604.824ZM605.72 5.64C604.792 7.352 602.92 9.48 600.296 10.952C600.472 11.08 600.728 11.336 600.84 11.528C603.56 9.928 605.48 7.72 606.6 5.8L605.72 5.64ZM610.536 7.288V7.432C608.76 11.736 604.168 14.904 600.184 16.056C600.344 16.216 600.536 16.536 600.632 16.76C604.744 15.448 609.4 12.264 611.336 7.528L610.856 7.24L610.696 7.288H610.536ZM602.888 9.736C604.248 10.68 605.832 12.072 606.536 13.032L607.176 12.504C606.424 11.528 604.84 10.168 603.464 9.256L602.888 9.736ZM612.872 13.64V20.232H613.656V13.64H612.872ZM605.608 13.64H605.512L604.84 14.312V20.2H605.608V14.376H613.272V13.64H605.608ZM627.144 10.312V16.776H627.864V10.312H627.144ZM624.296 13.736V14.392H630.952V13.736H624.296ZM622.6 16.248V16.952H632.328V16.248H622.6ZM623.832 11.224V20.184H624.568V11.896H630.968V11.224H623.832ZM630.616 11.224V19.256C630.616 19.448 630.536 19.512 630.344 19.528C630.136 19.528 629.464 19.528 628.648 19.496C628.76 19.704 628.888 20.008 628.936 20.2C629.944 20.2 630.552 20.2 630.888 20.056C631.24 19.96 631.352 19.72 631.352 19.256V11.224H630.616ZM630.888 5.912C629.224 6.52 625.912 6.92 623.288 7.144C623.384 7.32 623.48 7.576 623.512 7.752C626.168 7.56 629.528 7.16 631.416 6.504L630.888 5.912ZM630.536 7.336C630.024 8.28 629.352 9.256 628.6 9.976C628.808 10.056 629.16 10.2 629.304 10.296C629.976 9.608 630.712 8.52 631.24 7.528L630.536 7.336ZM626.488 7.96C626.952 8.6 627.384 9.496 627.544 10.088L628.216 9.848C628.04 9.256 627.608 8.376 627.096 7.736L626.488 7.96ZM623.688 8.152C624.264 8.84 624.856 9.784 625.112 10.408L625.752 10.088C625.48 9.48 624.872 8.568 624.28 7.896L623.688 8.152ZM620.136 6.968V20.232H620.872V6.968H620.136ZM617.64 10.312V11.032H623.08V10.312H617.64ZM620.136 10.584C619.624 12.648 618.488 15.24 617.48 16.552C617.624 16.712 617.848 17 617.944 17.208C618.984 15.768 620.12 12.968 620.648 10.76L620.136 10.584ZM622.28 6.056C621.256 6.568 619.272 7.016 617.592 7.32C617.688 7.464 617.8 7.72 617.848 7.896C619.592 7.624 621.64 7.176 622.936 6.6L622.28 6.056ZM620.824 11.976L620.44 12.312C620.888 12.776 622.152 14.344 622.52 14.92L623 14.344C622.68 13.928 621.208 12.328 620.824 11.976Z" fill="#ABABAB"/>
<path d="M565 29L826 29" stroke="#ABABAB"/>
<rect x="565" y="77" width="261" height="48" rx="24" fill="#F3F3F3"/>
<rect x="1" y="77" width="270" height="48" rx="24" fill="#F5F5F5" stroke="#FACA0F" stroke-width="2"/>
<rect x="283" y="78" width="259" height="46" rx="23" fill="#F3F3F3" stroke="#96DB5F" stroke-width="2"/>
<rect x="2" y="143" width="268" height="46" rx="23" fill="#F3F3F3" stroke="#F47777" stroke-width="2"/>
</svg>
