<svg width="314" height="247" viewBox="0 0 314 247" fill="none" xmlns="http://www.w3.org/2000/svg">
<g filter="url(#filter0_d_1006_9558)">
<rect x="172" y="6" width="132" height="132" rx="50" fill="white"/>
<g clip-path="url(#clip0_1006_9558)">
<path d="M265.364 37.458C261.136 33.2246 255.979 30.0357 250.302 28.1446L244.76 37.7489C251.396 39.397 257.193 43.4317 261.043 49.0826C264.894 54.7334 266.528 61.6045 265.634 68.3839C264.741 75.1632 261.381 81.3758 256.197 85.8355C251.014 90.2951 244.369 92.6893 237.532 92.5609C230.695 92.4326 224.145 89.7906 219.133 85.1394C214.12 80.4883 210.996 74.1539 210.358 67.3458C209.719 60.5377 211.61 53.7328 215.67 48.2305C219.73 42.7282 225.674 38.914 232.368 37.5162L226.778 27.8379C220.406 29.7856 214.647 33.3492 210.06 38.1822C205.473 43.0151 202.215 48.9529 200.603 55.4179C198.991 61.8829 199.08 68.6551 200.86 75.0757C202.64 81.4964 206.052 87.347 210.764 92.0585L238.064 119.359L265.364 92.0585C268.949 88.4734 271.793 84.2173 273.734 79.5331C275.674 74.8489 276.673 69.8284 276.673 64.7583C276.673 59.6881 275.674 54.6676 273.734 49.9834C271.793 45.2992 268.949 41.0431 265.364 37.458Z" fill="#FACA0F"/>
<path d="M213.107 63.4736H236.573L225.012 43.4453C221.549 45.5646 218.655 48.4961 216.581 51.986C214.507 55.4759 213.314 59.419 213.107 63.4736Z" fill="#FACA0F"/>
<path d="M213.107 66.0439C213.314 70.0986 214.507 74.0416 216.581 77.5315C218.655 81.0214 221.549 83.953 225.012 86.0722L236.573 66.0439H213.107Z" fill="#FACA0F"/>
<path d="M252.18 44.1328L241.016 63.4683H263.022C262.826 59.628 261.746 55.8848 259.866 52.5308C257.985 49.1768 255.355 46.3027 252.18 44.1328Z" fill="#FACA0F"/>
<path d="M238.63 48.3632L233.87 40.1182C231.58 40.5117 229.357 41.2238 227.265 42.2336L238.794 62.209L249.995 42.8101C247.886 41.6657 245.622 40.8321 243.274 40.335L238.63 48.3632Z" fill="#FACA0F"/>
<path d="M252.18 85.3843C255.355 83.2144 257.985 80.3403 259.866 76.9863C261.746 73.6323 262.826 69.8891 263.022 66.0488H241.016L252.18 85.3843Z" fill="#FACA0F"/>
<path d="M227.265 87.2986C230.831 89.0081 234.751 89.8472 238.705 89.747C242.658 89.6467 246.531 88.6101 250.006 86.7222L238.805 67.3232L227.265 87.2986Z" fill="#FACA0F"/>
<path d="M228.423 24.6914L238.63 42.3662L248.837 24.6914H228.423Z" fill="#FACA0F"/>
</g>
</g>
<path d="M289.652 182.148C286.531 179.002 282.724 176.633 278.534 175.228L274.442 182.364C279.341 183.588 283.62 186.586 286.463 190.785C289.305 194.983 290.512 200.089 289.852 205.126C289.192 210.163 286.712 214.779 282.885 218.092C279.059 221.406 274.154 223.185 269.107 223.089C264.06 222.994 259.225 221.031 255.525 217.575C251.825 214.119 249.519 209.413 249.047 204.354C248.576 199.296 249.972 194.24 252.969 190.152C255.966 186.063 260.354 183.23 265.295 182.191L261.169 175C256.465 176.447 252.213 179.095 248.828 182.686C245.442 186.277 243.037 190.688 241.847 195.492C240.657 200.295 240.722 205.327 242.036 210.098C243.351 214.868 245.869 219.215 249.347 222.716L269.5 243L289.652 222.716C292.299 220.052 294.398 216.89 295.83 213.41C297.263 209.929 298 206.199 298 202.432C298 198.665 297.263 194.934 295.83 191.454C294.398 187.974 292.299 184.811 289.652 182.148Z" fill="#DCDCDC"/>
<path d="M251 202H268L259.625 187C257.116 188.587 255.019 190.783 253.516 193.396C252.014 196.01 251.15 198.963 251 202V202Z" fill="#DCDCDC"/>
<path d="M10 214H32L21.1612 194C17.9146 196.116 15.2014 199.044 13.2566 202.529C11.3118 206.014 10.194 209.951 10 214V214Z" fill="#DCDCDC"/>
<path d="M251 203C251.15 206.037 252.014 208.99 253.516 211.604C255.019 214.217 257.116 216.413 259.625 218L268 203H251Z" fill="#DCDCDC"/>
<path d="M10 216C10.194 220.049 11.3118 223.986 13.2566 227.471C15.2014 230.956 17.9146 233.884 21.1612 236L32 216H10Z" fill="#DCDCDC"/>
<path d="M280.625 188L272 202H289C288.849 199.219 288.015 196.509 286.562 194.081C285.109 191.652 283.077 189.571 280.625 188V188Z" fill="#DCDCDC"/>
<path d="M48.1613 195L37 214H59C58.8046 210.226 57.7247 206.548 55.8445 203.252C53.9644 199.956 51.3349 197.132 48.1613 195V195Z" fill="#DCDCDC"/>
<path d="M269.5 190.345L265.94 184C264.228 184.303 262.565 184.851 261 185.628L269.623 201L278 186.072C276.422 185.191 274.729 184.549 272.973 184.167L269.5 190.345Z" fill="#DCDCDC"/>
<path d="M34.5 198.584L29.6838 190C27.3669 190.41 25.1172 191.151 23 192.203L34.6659 213L46 192.803C43.8652 191.611 41.5744 190.743 39.1985 190.226L34.5 198.584Z" fill="#DCDCDC"/>
<path d="M280.625 217C283.077 215.429 285.109 213.348 286.562 210.919C288.015 208.491 288.849 205.781 289 203H272L280.625 217Z" fill="#DCDCDC"/>
<path d="M48.1613 235C51.3349 232.868 53.9644 230.044 55.8445 226.748C57.7247 223.452 58.8046 219.774 59 216H37L48.1613 235Z" fill="#DCDCDC"/>
<path d="M261 219.138C263.666 220.434 266.597 221.07 269.552 220.994C272.507 220.918 275.402 220.132 278 218.702L269.627 204L261 219.138Z" fill="#DCDCDC"/>
<path d="M23 236.591C26.6066 238.267 30.5719 239.09 34.5702 238.992C38.5684 238.894 42.4856 237.877 46 236.026L34.6712 217L23 236.591Z" fill="#DCDCDC"/>
<path d="M262 172L270 185L278 172H262Z" fill="#DCDCDC"/>
<path d="M24 176L34.5 193L45 176H24Z" fill="#DCDCDC"/>
<g filter="url(#filter1_d_1006_9558)">
<rect x="10" y="6" width="132" height="132" rx="50" fill="#FACA0F"/>
<g clip-path="url(#clip1_1006_9558)">
<rect width="77.2149" height="94.6676" transform="translate(37.457 24.6914)" fill="#FACA0F"/>
<path d="M103.364 37.458C99.136 33.2246 93.9787 30.0357 88.3021 28.1446L82.7595 37.7489C89.396 39.397 95.1929 43.4317 99.0434 49.0826C102.894 54.7334 104.528 61.6045 103.634 68.3839C102.741 75.1632 99.381 81.3758 94.1974 85.8355C89.0137 90.2951 82.3691 92.6893 75.5323 92.5609C68.6955 92.4326 62.1454 89.7906 57.1329 85.1394C52.1203 80.4883 48.9964 74.1539 48.3577 67.3458C47.719 60.5377 49.6102 53.7328 53.6701 48.2305C57.7301 42.7282 63.6744 38.914 70.3681 37.5162L64.7779 27.8379C58.406 29.7856 52.6466 33.3492 48.0599 38.1822C43.4731 43.0151 40.2153 48.9529 38.6032 55.4179C36.991 61.8829 37.0795 68.6551 38.86 75.0757C40.6405 81.4964 44.0524 87.347 48.7638 92.0585L76.064 119.359L103.364 92.0585C106.949 88.4734 109.793 84.2173 111.734 79.5331C113.674 74.8489 114.673 69.8284 114.673 64.7583C114.673 59.6881 113.674 54.6676 111.734 49.9834C109.793 45.2992 106.949 41.0431 103.364 37.458Z" fill="white"/>
<path d="M51.1074 63.4736H74.5734L63.0123 43.4453C59.5494 45.5646 56.6554 48.4961 54.581 51.986C52.5066 55.4759 51.3143 59.419 51.1074 63.4736Z" fill="white"/>
<path d="M51.1074 66.0439C51.3143 70.0986 52.5066 74.0416 54.581 77.5315C56.6554 81.0214 59.5494 83.953 63.0123 86.0722L74.5734 66.0439H51.1074Z" fill="white"/>
<path d="M90.1801 44.1328L79.0156 63.4683H101.022C100.826 59.628 99.7462 55.8848 97.8655 52.5308C95.9849 49.1768 93.3546 46.3027 90.1801 44.1328Z" fill="white"/>
<path d="M76.6301 48.3632L71.8702 40.1182C69.5805 40.5117 67.357 41.2238 65.2646 42.2336L76.794 62.209L87.9954 42.8101C85.8857 41.6657 83.6216 40.8321 81.2735 40.335L76.6301 48.3632Z" fill="white"/>
<path d="M90.1801 85.3843C93.3546 83.2144 95.9849 80.3403 97.8655 76.9863C99.7462 73.6323 100.826 69.8891 101.022 66.0488H79.0156L90.1801 85.3843Z" fill="white"/>
<path d="M65.2646 87.2986C68.8307 89.0081 72.7514 89.8472 76.7047 89.747C80.658 89.6467 84.5312 88.6101 88.006 86.7222L76.8046 67.3232L65.2646 87.2986Z" fill="white"/>
<path d="M66.4229 24.6914L76.63 42.3662L86.8372 24.6914H66.4229Z" fill="white"/>
</g>
</g>
<path d="M148.344 202.667C148.344 196.983 152.891 192.375 158.5 192.375C164.109 192.375 168.656 196.983 168.656 202.667C168.656 208.351 164.109 212.958 158.5 212.958C152.891 212.958 148.344 208.351 148.344 202.667Z" fill="#DCDCDC"/>
<path fill-rule="evenodd" clip-rule="evenodd" d="M132.792 199.112C133.866 185.91 144.753 175.75 157.825 175.75H159.175C172.247 175.75 183.134 185.91 184.208 199.112C184.786 206.22 182.619 213.277 178.164 218.799L163.186 237.361C160.764 240.362 156.236 240.362 153.814 237.361L138.836 218.799C134.381 213.277 132.214 206.22 132.792 199.112ZM158.5 187.625C150.302 187.625 143.656 194.359 143.656 202.667C143.656 210.974 150.302 217.708 158.5 217.708C166.698 217.708 173.344 210.974 173.344 202.667C173.344 194.359 166.698 187.625 158.5 187.625Z" fill="#DCDCDC"/>
<line x1="86" y1="216" x2="106" y2="216" stroke="#DCDCDC" stroke-width="4"/>
<line x1="206" y1="212" x2="225" y2="212" stroke="#DCDCDC" stroke-width="4"/>
<line x1="206" y1="218" x2="225" y2="218" stroke="#DCDCDC" stroke-width="4"/>
<line x1="96" y1="225" x2="96" y2="207" stroke="#DCDCDC" stroke-width="4"/>
<defs>
<filter id="filter0_d_1006_9558" x="162" y="0" width="152" height="152" filterUnits="userSpaceOnUse" color-interpolation-filters="sRGB">
<feFlood flood-opacity="0" result="BackgroundImageFix"/>
<feColorMatrix in="SourceAlpha" type="matrix" values="0 0 0 0 0 0 0 0 0 0 0 0 0 0 0 0 0 0 127 0" result="hardAlpha"/>
<feOffset dy="4"/>
<feGaussianBlur stdDeviation="5"/>
<feComposite in2="hardAlpha" operator="out"/>
<feColorMatrix type="matrix" values="0 0 0 0 0 0 0 0 0 0 0 0 0 0 0 0 0 0 0.25 0"/>
<feBlend mode="normal" in2="BackgroundImageFix" result="effect1_dropShadow_1006_9558"/>
<feBlend mode="normal" in="SourceGraphic" in2="effect1_dropShadow_1006_9558" result="shape"/>
</filter>
<filter id="filter1_d_1006_9558" x="0" y="0" width="152" height="152" filterUnits="userSpaceOnUse" color-interpolation-filters="sRGB">
<feFlood flood-opacity="0" result="BackgroundImageFix"/>
<feColorMatrix in="SourceAlpha" type="matrix" values="0 0 0 0 0 0 0 0 0 0 0 0 0 0 0 0 0 0 127 0" result="hardAlpha"/>
<feOffset dy="4"/>
<feGaussianBlur stdDeviation="5"/>
<feComposite in2="hardAlpha" operator="out"/>
<feColorMatrix type="matrix" values="0 0 0 0 0 0 0 0 0 0 0 0 0 0 0 0 0 0 0.25 0"/>
<feBlend mode="normal" in2="BackgroundImageFix" result="effect1_dropShadow_1006_9558"/>
<feBlend mode="normal" in="SourceGraphic" in2="effect1_dropShadow_1006_9558" result="shape"/>
</filter>
<clipPath id="clip0_1006_9558">
<rect width="77.2149" height="94.6676" fill="white" transform="translate(199.457 24.6914)"/>
</clipPath>
<clipPath id="clip1_1006_9558">
<rect width="77.2149" height="94.6676" fill="white" transform="translate(37.457 24.6914)"/>
</clipPath>
</defs>
</svg>
