<svg width="506" height="474" viewBox="0 0 506 474" fill="none" xmlns="http://www.w3.org/2000/svg">
<path d="M37.5003 418.583C25.3545 418.583 15.417 428.896 15.417 441.5C15.417 454.104 25.3545 464.416 37.5003 464.416C49.6462 464.416 59.5837 454.104 59.5837 441.5C59.5837 428.896 49.6462 418.583 37.5003 418.583ZM39.7087 441.5C39.7087 442.416 39.267 443.104 38.6045 443.562L32.8628 447C31.7587 447.687 30.4337 447.229 29.7712 446.083C29.1087 444.937 29.5503 443.562 30.6545 442.875L35.292 440.125V430.041C35.292 428.666 36.1753 427.75 37.5003 427.75C38.8253 427.75 39.7087 428.666 39.7087 430.041V441.5Z" fill="#6B6B6B"/>
<path d="M123.187 432.75C122.507 432.75 121.843 432.951 121.277 433.329C120.712 433.707 120.272 434.244 120.011 434.872C119.751 435.5 119.683 436.191 119.816 436.858C119.948 437.525 120.276 438.137 120.757 438.618C121.237 439.099 121.85 439.426 122.517 439.559C123.183 439.691 123.875 439.623 124.503 439.363C125.131 439.103 125.668 438.662 126.045 438.097C126.423 437.532 126.625 436.867 126.625 436.187C126.625 435.276 126.263 434.401 125.618 433.757C124.973 433.112 124.099 432.75 123.187 432.75V432.75ZM154.4 443.543L135.127 424.248C134.913 424.035 134.659 423.867 134.38 423.753C134.1 423.639 133.801 423.581 133.5 423.583H112.875C112.267 423.583 111.684 423.824 111.254 424.254C110.824 424.684 110.583 425.267 110.583 425.875V446.5C110.581 446.801 110.639 447.1 110.753 447.38C110.867 447.659 111.035 447.913 111.248 448.127L130.543 467.4C131.833 468.687 133.58 469.41 135.402 469.41C137.224 469.41 138.971 468.687 140.26 467.4L154.4 453.375C155.687 452.086 156.41 450.338 156.41 448.516C156.41 446.695 155.687 444.947 154.4 443.658V443.543ZM151.168 450.006L137.006 464.146C136.577 464.572 135.996 464.812 135.39 464.812C134.785 464.812 134.204 464.572 133.775 464.146L115.166 445.56V428.166H132.56L151.168 446.775C151.381 446.989 151.549 447.243 151.663 447.522C151.777 447.801 151.835 448.1 151.833 448.402C151.831 449.003 151.592 449.579 151.168 450.006V450.006Z" fill="#6B6B6B"/>
<path d="M38.7602 169.727L15 192.033V219.297H29.5357V200.846C29.5357 200.02 30.0947 199.469 30.9333 199.469H46.8666C47.7052 199.469 48.2643 200.02 48.2643 200.846V219.297H62.8V192.033L38.7602 169.727Z" fill="#93C862"/>
<path d="M45.1893 201.947H32.6104V219.297H45.1893V201.947Z" fill="#93C862"/>
<path d="M38.7602 8.85156L15 31.9549V60.1923H29.5357V41.0821C29.5357 40.2265 30.0947 39.656 30.9333 39.656H46.8666C47.7052 39.656 48.2643 40.2265 48.2643 41.0821V60.1923H62.8V31.9549L38.7602 8.85156Z" fill="#FACA0F"/>
<path d="M45.1893 42.2227H32.6104V60.1919H45.1893V42.2227Z" fill="#FACA0F"/>
<path d="M38.7602 337.311L15 359.617V386.881H30.9333H33.7286H44.0713H46.8666H62.8V359.617L38.7602 337.311ZM33.7286 384.127V369.807H44.0713V384.127H33.7286ZM59.7251 384.127H46.5871V368.43C46.5871 367.604 46.0281 367.053 45.1895 367.053H32.0515C31.2129 367.053 30.6538 367.604 30.6538 368.43V384.127H17.5158V360.719L38.4807 341.166L59.4456 360.719V384.127H59.7251Z" fill="#8E8E8E"/>
<path d="M123.226 214.238C136.053 214.238 146.451 203.481 146.451 190.212C146.451 176.943 136.053 166.186 123.226 166.186C110.398 166.186 100 176.943 100 190.212C100 203.481 110.398 214.238 123.226 214.238Z" fill="#93C862"/>
<path d="M147.901 218.692L137.256 207.681C136.477 206.875 136.477 205.532 137.256 204.726C138.035 203.921 139.333 203.921 140.112 204.726L150.757 215.738C151.535 216.544 151.535 217.887 150.757 218.692C149.978 219.498 148.679 219.498 147.901 218.692Z" fill="#93C862"/>
<path d="M149.688 56.737L139.333 46.0161C142.603 41.7841 144.783 36.7058 144.783 30.781C144.783 17.5209 134.427 7.08203 121.892 7.08203C109.356 7.08203 99 17.803 99 30.781C99 44.0412 109.356 54.48 121.892 54.48C127.614 54.48 132.52 52.5051 136.608 48.8374L146.963 59.5584C147.781 60.4047 149.143 60.4047 149.961 59.5584C150.506 58.9941 150.506 57.5834 149.688 56.737Z" fill="#FACA0F"/>
<path d="M150.688 385.31L140.333 374.947C143.603 370.856 145.783 365.947 145.783 360.22C145.783 347.401 135.427 337.311 122.892 337.311C110.356 337.311 100 347.674 100 360.22C100 373.038 110.356 383.129 122.892 383.129C128.614 383.129 133.52 381.219 137.608 377.674L147.963 388.038C148.781 388.856 150.143 388.856 150.961 388.038C151.506 387.492 151.506 386.129 150.688 385.31ZM103.27 359.947C103.27 349.311 111.991 340.583 122.619 340.583C133.247 340.583 141.968 349.311 141.968 359.947C141.968 370.583 133.247 379.31 122.619 379.31C111.991 379.31 103.27 370.856 103.27 359.947Z" fill="#8E8E8E"/>
<path d="M221.352 173.657L224.267 168.747C225.433 166.725 223.976 164.414 221.644 164.414H204.156C201.824 164.414 200.367 166.725 201.533 168.747L204.448 173.657C195.412 177.123 189 185.789 189 195.61C189 208.608 199.784 219.296 212.9 219.296C226.016 219.296 236.8 208.608 236.8 195.61C236.8 185.5 230.388 176.835 221.352 173.657ZM224.559 179.434C229.222 182.612 232.428 187.811 233.011 193.877H216.398L224.559 179.434ZM220.187 168.169L217.563 172.502L215.523 175.968L212.9 180.59L210.277 175.968L208.237 172.502L205.613 168.169H220.187ZM206.488 176.835L210.568 183.767C211.151 184.634 212.026 185.211 213.191 185.211C214.357 185.211 215.232 184.634 215.815 183.767L219.895 176.835C220.478 177.123 221.061 177.412 221.644 177.412L213.191 191.855L204.739 177.412C205.03 177.412 205.613 177.123 206.488 176.835ZM201.241 179.434L209.694 193.877H193.08C193.372 187.811 196.578 182.612 201.241 179.434ZM192.789 197.632H209.402L200.95 212.074C196.578 208.608 193.372 203.409 192.789 197.632ZM212.9 215.541C209.985 215.541 207.071 214.963 204.448 213.807L212.9 199.365L221.352 213.807C218.729 214.963 215.815 215.541 212.9 215.541ZM224.559 211.785L216.106 197.343H232.72C232.428 203.409 229.222 208.608 224.559 211.785Z" fill="#93C862"/>
<path d="M219.352 14.5537L222.267 9.6433C223.433 7.62135 221.976 5.31055 219.644 5.31055H202.156C199.824 5.31055 198.367 7.62135 199.533 9.6433L202.448 14.5537C193.412 18.0199 187 26.6854 187 36.5063C187 49.5046 197.784 60.192 210.9 60.192C224.016 60.192 234.8 49.5046 234.8 36.5063C234.8 26.3966 228.388 17.7311 219.352 14.5537ZM222.559 20.3307C227.222 23.5081 230.428 28.7074 231.011 34.7732H214.398L222.559 20.3307ZM218.187 9.06559L215.563 13.3983L213.523 16.8645L210.9 21.4861L208.277 16.8645L206.237 13.3983L203.613 9.06559H218.187ZM204.488 17.7311L208.568 24.6635C209.151 25.53 210.026 26.1077 211.191 26.1077C212.357 26.1077 213.232 25.53 213.815 24.6635L217.895 17.7311C218.478 18.0199 219.061 18.3088 219.644 18.3088L211.191 32.7513L202.739 18.3088C203.03 18.3088 203.613 18.0199 204.488 17.7311ZM199.241 20.3307L207.694 34.7732H191.08C191.372 28.7074 194.578 23.5081 199.241 20.3307ZM190.789 38.5283H207.402L198.95 52.9708C194.578 49.5046 191.372 44.3053 190.789 38.5283ZM210.9 56.437C207.985 56.437 205.071 55.8593 202.448 54.7039L210.9 40.2614L219.352 54.7039C216.729 55.8593 213.815 56.437 210.9 56.437ZM222.559 52.6819L214.106 38.2394H230.72C230.428 44.3053 227.222 49.5046 222.559 52.6819Z" fill="#FACA0F"/>
<path d="M221.352 346.554L224.267 341.643C225.433 339.621 223.976 337.311 221.644 337.311H204.156C201.824 337.311 200.367 339.621 201.533 341.643L204.448 346.554C195.412 350.02 189 358.685 189 368.506C189 381.505 199.784 392.192 212.9 392.192C226.016 392.192 236.8 381.505 236.8 368.506C236.8 358.397 230.388 349.731 221.352 346.554ZM224.559 352.331C229.222 355.508 232.428 360.707 233.011 366.773H216.398L224.559 352.331ZM220.187 341.066L217.563 345.398L215.523 348.865L212.9 353.486L210.277 348.865L208.237 345.398L205.613 341.066H220.187ZM206.488 349.731L210.568 356.663C211.151 357.53 212.026 358.108 213.191 358.108C214.357 358.108 215.232 357.53 215.815 356.663L219.895 349.731C220.478 350.02 221.061 350.309 221.644 350.309L213.191 364.751L204.739 350.309C205.03 350.309 205.613 350.02 206.488 349.731ZM201.241 352.331L209.694 366.773H193.08C193.372 360.707 196.578 355.508 201.241 352.331ZM192.789 370.528H209.402L200.95 384.971C196.578 381.505 193.372 376.305 192.789 370.528ZM212.9 388.437C209.985 388.437 207.071 387.859 204.448 386.704L212.9 372.261L221.352 386.704C218.729 387.859 215.815 388.437 212.9 388.437ZM224.559 384.682L216.106 370.239H232.72C232.428 376.305 229.222 381.505 224.559 384.682Z" fill="#8E8E8E"/>
<path d="M300.301 217.526C296.816 217.526 294.136 215.607 293.064 212.73C292.796 211.77 293.064 210.491 294.136 209.852C294.94 209.532 296.012 209.852 296.549 211.131C296.817 212.09 298.425 213.369 300.569 213.369C302.713 213.369 304.053 212.41 304.589 211.131C304.857 210.171 305.929 209.532 307.001 209.852C307.805 210.171 308.341 211.45 308.073 212.73C306.465 215.607 303.785 217.526 300.301 217.526Z" fill="#93C862"/>
<path d="M324.514 199.204C324.514 199.204 319.122 199.204 319.122 180.924C319.122 170.953 310.892 162.645 300.392 162.645C291.311 162.645 283.649 169.015 282.23 177.601C281.946 178.432 281.946 179.539 281.946 180.924C281.946 199.204 276.554 199.204 276.554 199.204C275.135 199.204 274 200.312 274 201.697C274 203.081 275.135 204.189 276.554 204.189H324.514C325.932 204.189 327.068 203.081 327.068 201.697C327.351 200.312 326.216 199.204 324.514 199.204Z" fill="#93C862"/>
<path d="M297.301 56.6529C293.816 56.6529 291.136 54.7343 290.064 51.8565C289.796 50.8972 290.064 49.6181 291.136 48.9786C291.94 48.6589 293.012 48.9786 293.549 50.2577C293.817 51.217 295.425 52.496 297.569 52.496C299.713 52.496 301.053 51.5367 301.589 50.2577C301.857 49.2984 302.929 48.6589 304.001 48.9786C304.805 49.2984 305.341 50.5774 305.073 51.8565C303.465 54.7343 300.785 56.6529 297.301 56.6529Z" fill="#FACA0F"/>
<path d="M321.514 38.3308C321.514 38.3308 316.122 38.3308 316.122 20.0511C316.122 10.0804 307.892 1.77148 297.392 1.77148C288.311 1.77148 280.649 8.14167 279.23 16.7276C278.946 17.5585 278.946 18.6663 278.946 20.0511C278.946 38.3308 273.554 38.3308 273.554 38.3308C272.135 38.3308 271 39.4387 271 40.8235C271 42.2083 272.135 43.3162 273.554 43.3162H321.514C322.932 43.3162 324.068 42.2083 324.068 40.8235C324.351 39.4387 323.216 38.3308 321.514 38.3308Z" fill="#FACA0F"/>
<path d="M299.255 392C295.91 392 293.336 390.052 292.307 387.13C292.049 386.156 292.307 384.857 293.336 384.208C294.108 383.883 295.138 384.208 295.652 385.507C295.91 386.481 297.454 387.779 299.513 387.779C301.571 387.779 302.858 386.805 303.373 385.507C303.63 384.533 304.66 383.883 305.689 384.208C306.461 384.533 306.976 385.831 306.718 387.13C305.174 390.052 302.601 392 299.255 392Z" fill="#8E8E8E"/>
<path d="M299.364 338.183C307.273 338.183 313.545 345.055 313.545 353.72C313.545 365.97 315.727 371.946 317.909 374.934H280.818C283 372.245 285.182 366.269 285.182 353.72C285.182 352.525 285.182 351.628 285.455 351.031C286.545 343.262 292.545 338.183 299.364 338.183ZM299.364 334C290.636 334 283.273 340.872 281.909 350.135C281.636 351.031 281.636 352.226 281.636 353.72C281.636 373.44 276.455 373.44 276.455 373.44C275.091 373.44 274 374.635 274 376.129C274 377.623 275.091 378.818 276.455 378.818H322.545C323.909 378.818 325 377.623 325 376.129C325 374.635 323.909 373.44 322.545 373.44C322.545 373.44 317.364 373.44 317.364 353.72C317.364 342.665 309.182 334 299.364 334Z" fill="#8E8E8E"/>
<path d="M388.785 185.659C395.956 185.659 401.768 179.714 401.768 172.381C401.768 165.048 395.956 159.104 388.785 159.104C381.615 159.104 375.803 165.048 375.803 172.381C375.803 179.714 381.615 185.659 388.785 185.659Z" fill="#93C862"/>
<path d="M410.816 212.215H366.754C365.102 212.215 364 211.128 364 209.499V201.351C364 195.376 368.957 190.487 375.016 190.487H402.555C408.613 190.487 413.57 195.376 413.57 201.351V209.499C413.57 211.128 412.469 212.215 410.816 212.215Z" fill="#93C862"/>
<path d="M385.785 26.5556C392.956 26.5556 398.768 20.6109 398.768 13.2778C398.768 5.94466 392.956 0 385.785 0C378.615 0 372.803 5.94466 372.803 13.2778C372.803 20.6109 378.615 26.5556 385.785 26.5556Z" fill="#FACA0F"/>
<path d="M407.816 53.1111H363.754C362.102 53.1111 361 52.0247 361 50.3952V42.2474C361 36.2724 365.957 31.3838 372.016 31.3838H399.555C405.613 31.3838 410.57 36.2724 410.57 42.2474V50.3952C410.57 52.0247 409.469 53.1111 407.816 53.1111Z" fill="#FACA0F"/>
<path d="M387.785 357.291C394.67 357.291 400.178 351.671 400.178 344.646C400.178 337.62 394.67 332 387.785 332C380.9 332 375.393 337.62 375.393 344.646C375.393 351.671 380.9 357.291 387.785 357.291ZM387.785 335.653C392.467 335.653 396.598 339.587 396.598 344.646C396.598 349.704 392.742 353.638 387.785 353.638C382.828 353.638 378.973 349.704 378.973 344.646C378.973 339.587 383.104 335.653 387.785 335.653Z" fill="#8E8E8E"/>
<path d="M401.555 362.35H374.016C367.957 362.35 363 367.471 363 373.731V382.266C363 383.973 364.102 385.112 365.754 385.112H409.816C411.469 385.112 412.57 383.973 412.57 382.266V373.731C412.57 367.471 407.613 362.35 401.555 362.35ZM408.99 381.128H366.855V373.731C366.855 369.463 370.16 366.048 374.291 366.048H401.83C405.961 366.048 409.266 369.463 409.266 373.731V381.128H408.99Z" fill="#8E8E8E"/>
<path d="M49.5708 241.862H24.7857C19.5188 241.862 15.4912 245.89 15.4912 251.157V300.727C15.4912 301.347 15.4912 301.657 15.801 302.276C16.7305 303.825 18.5894 304.135 20.1384 303.515L37.1782 293.601L54.2181 303.515C54.8377 303.825 55.1475 303.825 55.7671 303.825C57.626 303.825 58.8653 302.586 58.8653 300.727V251.157C58.8653 245.89 54.8377 241.862 49.5708 241.862Z" fill="#96DB5F"/>
<path d="M49.5708 86.0488H24.7857C19.5188 86.0488 15.4912 89.9805 15.4912 95.122V143.512C15.4912 144.117 15.4912 144.419 15.801 145.024C16.7305 146.536 18.5894 146.839 20.1384 146.234L37.1782 136.556L54.2181 146.234C54.8377 146.536 55.1475 146.536 55.7671 146.536C57.626 146.536 58.8653 145.327 58.8653 143.512V95.122C58.8653 89.9805 54.8377 86.0488 49.5708 86.0488Z" fill="#FACA0F"/>
<path d="M320.166 435.408C320.408 434.2 319.441 432.75 318.233 432.75L304.458 430.816L298.175 418.25C297.933 417.766 297.691 417.525 297.208 417.283C296 416.558 294.55 417.041 293.825 418.25L287.783 430.816L274.008 432.75C273.283 432.75 272.8 432.991 272.558 433.475C271.591 434.441 271.591 435.891 272.558 436.858L282.466 446.525L280.05 460.3C280.05 460.783 280.05 461.266 280.291 461.75C281.016 462.958 282.466 463.441 283.675 462.716L296 456.191L308.325 462.716C308.566 462.958 309.05 462.958 309.533 462.958C309.775 462.958 309.775 462.958 310.016 462.958C311.225 462.716 312.191 461.508 311.95 460.058L309.533 446.283L319.441 436.616C319.925 436.375 320.166 435.891 320.166 435.408Z" fill="#BFBFBF"/>
<path d="M414.75 263.513C415.013 262.2 413.963 260.625 412.65 260.625L397.688 258.525L390.862 244.875C390.6 244.35 390.338 244.088 389.812 243.825C388.5 243.038 386.925 243.563 386.138 244.875L379.575 258.525L364.613 260.625C363.825 260.625 363.3 260.888 363.038 261.413C361.988 262.463 361.988 264.038 363.038 265.088L373.8 275.588L371.175 290.55C371.175 291.075 371.175 291.6 371.438 292.125C372.225 293.438 373.8 293.963 375.113 293.175L388.5 286.088L401.888 293.175C402.15 293.438 402.675 293.438 403.2 293.438C403.463 293.438 403.462 293.438 403.725 293.438C405.037 293.175 406.088 291.863 405.825 290.288L403.2 275.325L413.963 264.825C414.488 264.563 414.75 264.038 414.75 263.513Z" fill="#96DB5F"/>
<path d="M414.75 104.092C415.013 102.8 413.963 101.25 412.65 101.25L397.688 99.1833L390.862 85.75C390.6 85.2333 390.338 84.975 389.812 84.7167C388.5 83.9417 386.925 84.4583 386.138 85.75L379.575 99.1833L364.613 101.25C363.825 101.25 363.3 101.508 363.038 102.025C361.988 103.058 361.988 104.608 363.038 105.642L373.8 115.975L371.175 130.7C371.175 131.217 371.175 131.733 371.438 132.25C372.225 133.542 373.8 134.058 375.113 133.283L388.5 126.308L401.888 133.283C402.15 133.542 402.675 133.542 403.2 133.542C403.463 133.542 403.462 133.542 403.725 133.542C405.037 133.283 406.088 131.992 405.825 130.442L403.2 115.717L413.963 105.383C414.488 105.125 414.75 104.608 414.75 104.092Z" fill="#FACA0F"/>
<path d="M117.463 269.353C117.463 263.792 121.864 259.284 127.292 259.284C132.721 259.284 137.121 263.792 137.121 269.353C137.121 274.914 132.721 279.422 127.292 279.422C121.864 279.422 117.463 274.914 117.463 269.353Z" fill="#96DB5F"/>
<path fill-rule="evenodd" clip-rule="evenodd" d="M102.412 265.875C103.451 252.959 113.988 243.019 126.639 243.019H127.945C140.597 243.019 151.133 252.959 152.172 265.875C152.732 272.829 150.635 279.734 146.323 285.136L131.827 303.296C129.483 306.233 125.101 306.233 122.757 303.296L108.261 285.136C103.95 279.734 101.853 272.829 102.412 265.875ZM127.292 254.637C119.358 254.637 112.926 261.225 112.926 269.353C112.926 277.48 119.358 284.069 127.292 284.069C135.226 284.069 141.658 277.48 141.658 269.353C141.658 261.225 135.226 254.637 127.292 254.637Z" fill="#96DB5F"/>
<path d="M121.463 109.982C121.463 104.421 125.864 99.9127 131.292 99.9127C136.721 99.9127 141.121 104.421 141.121 109.982C141.121 115.543 136.721 120.051 131.292 120.051C125.864 120.051 121.463 115.543 121.463 109.982Z" fill="#FACA0F"/>
<path fill-rule="evenodd" clip-rule="evenodd" d="M106.412 106.504C107.451 93.5877 117.988 83.6475 130.639 83.6475H131.945C144.597 83.6475 155.133 93.5877 156.172 106.504C156.732 113.458 154.635 120.363 150.323 125.765L135.827 143.925C133.483 146.862 129.101 146.862 126.757 143.925L112.261 125.765C107.95 120.363 105.853 113.458 106.412 106.504ZM131.292 95.2655C123.358 95.2655 116.926 101.854 116.926 109.982C116.926 118.109 123.358 124.698 131.292 124.698C139.226 124.698 145.658 118.109 145.658 109.982C145.658 101.854 139.226 95.2655 131.292 95.2655Z" fill="#FACA0F"/>
<path d="M213.293 102.552C212.958 102.551 212.626 102.617 212.317 102.748C212.007 102.878 211.726 103.07 211.49 103.313C211.253 103.555 211.066 103.843 210.938 104.16C210.811 104.477 210.746 104.817 210.747 105.16L210.765 113.589L202.537 113.57C201.862 113.57 201.214 113.845 200.737 114.334C200.26 114.823 199.991 115.486 199.991 116.178C199.991 116.869 200.26 117.533 200.737 118.022C201.214 118.511 201.862 118.785 202.537 118.785L210.765 118.767L210.747 127.196C210.746 127.539 210.811 127.878 210.938 128.195C211.066 128.512 211.253 128.8 211.49 129.043C211.726 129.285 212.007 129.477 212.317 129.608C212.626 129.738 212.958 129.805 213.293 129.803C213.627 129.805 213.959 129.738 214.268 129.608C214.578 129.477 214.859 129.285 215.096 129.043C215.332 128.8 215.52 128.512 215.647 128.195C215.775 127.878 215.839 127.539 215.838 127.196L215.82 118.767L224.048 118.785C224.383 118.787 224.714 118.72 225.024 118.59C225.333 118.459 225.615 118.267 225.851 118.025C226.088 117.782 226.275 117.494 226.403 117.177C226.53 116.86 226.595 116.521 226.594 116.178C226.595 115.835 226.53 115.495 226.403 115.178C226.275 114.861 226.088 114.573 225.851 114.331C225.615 114.088 225.333 113.896 225.024 113.766C224.714 113.635 224.383 113.569 224.048 113.57L215.82 113.589L215.838 105.16C215.839 104.817 215.775 104.477 215.647 104.16C215.52 103.843 215.332 103.555 215.096 103.313C214.859 103.07 214.578 102.878 214.268 102.748C213.959 102.617 213.627 102.551 213.293 102.552V102.552ZM213.293 90.2121C209.927 90.1522 206.583 90.7795 203.457 92.0575C200.33 93.3355 197.483 95.2386 195.082 97.6556C192.682 100.073 190.775 102.955 189.473 106.135C188.171 109.316 187.501 112.729 187.501 116.178C187.501 119.626 188.171 123.04 189.473 126.22C190.775 129.4 192.682 132.283 195.082 134.7C197.483 137.117 200.33 139.02 203.457 140.298C206.583 141.576 209.927 142.203 213.293 142.143C216.658 142.203 220.002 141.576 223.129 140.298C226.255 139.02 229.102 137.117 231.503 134.7C233.904 132.283 235.811 129.4 237.112 126.22C238.414 123.04 239.084 119.626 239.084 116.178C239.084 112.729 238.414 109.316 237.112 106.135C235.811 102.955 233.904 100.073 231.503 97.6556C229.102 95.2386 226.255 93.3355 223.129 92.0575C220.002 90.7795 216.658 90.1522 213.293 90.2121V90.2121ZM233.585 116.178C233.587 120.984 231.963 125.643 228.989 129.36C226.014 133.077 221.874 135.623 217.273 136.563C212.672 137.504 207.894 136.781 203.755 134.518C199.616 132.255 196.37 128.592 194.572 124.153C192.773 119.713 192.533 114.773 193.892 110.172C195.251 105.572 198.125 101.597 202.024 98.9234C205.923 96.2502 210.607 95.0447 215.276 95.5122C219.946 95.9796 224.313 98.0912 227.633 101.487C229.524 103.411 231.024 105.7 232.046 108.222C233.067 110.743 233.59 113.448 233.585 116.178V116.178Z" fill="#FACA0F"/>
<path d="M216.293 260.152C215.958 260.15 215.626 260.217 215.317 260.347C215.007 260.478 214.726 260.67 214.49 260.912C214.253 261.155 214.066 261.443 213.938 261.76C213.811 262.077 213.746 262.417 213.747 262.759L213.765 271.188L205.537 271.17C204.862 271.17 204.214 271.444 203.737 271.934C203.26 272.423 202.991 273.086 202.991 273.777C202.991 274.469 203.26 275.132 203.737 275.621C204.214 276.11 204.862 276.385 205.537 276.385L213.765 276.367L213.747 284.795C213.746 285.138 213.811 285.478 213.938 285.795C214.066 286.112 214.253 286.4 214.49 286.642C214.726 286.885 215.007 287.077 215.317 287.207C215.626 287.338 215.958 287.404 216.293 287.403C216.627 287.404 216.959 287.338 217.268 287.207C217.578 287.077 217.859 286.885 218.096 286.642C218.332 286.4 218.52 286.112 218.647 285.795C218.775 285.478 218.839 285.138 218.838 284.795L218.82 276.367L227.048 276.385C227.383 276.386 227.714 276.32 228.024 276.189C228.333 276.059 228.615 275.867 228.851 275.624C229.088 275.382 229.275 275.094 229.403 274.777C229.53 274.46 229.595 274.12 229.594 273.777C229.595 273.435 229.53 273.095 229.403 272.778C229.275 272.461 229.088 272.173 228.851 271.93C228.615 271.688 228.333 271.496 228.024 271.365C227.714 271.235 227.383 271.168 227.048 271.17L218.82 271.188L218.838 262.759C218.839 262.417 218.775 262.077 218.647 261.76C218.52 261.443 218.332 261.155 218.096 260.912C217.859 260.67 217.578 260.478 217.268 260.347C216.959 260.217 216.627 260.15 216.293 260.152V260.152ZM216.293 247.812C212.927 247.752 209.583 248.379 206.457 249.657C203.33 250.935 200.483 252.838 198.082 255.255C195.682 257.672 193.775 260.555 192.473 263.735C191.171 266.915 190.501 270.329 190.501 273.777C190.501 277.226 191.171 280.64 192.473 283.82C193.775 287 195.682 289.882 198.082 292.299C200.483 294.717 203.33 296.62 206.457 297.898C209.583 299.176 212.927 299.803 216.293 299.743C219.658 299.803 223.002 299.176 226.129 297.898C229.255 296.62 232.102 294.717 234.503 292.299C236.904 289.882 238.811 287 240.112 283.82C241.414 280.64 242.084 277.226 242.084 273.777C242.084 270.329 241.414 266.915 240.112 263.735C238.811 260.555 236.904 257.672 234.503 255.255C232.102 252.838 229.255 250.935 226.129 249.657C223.002 248.379 219.658 247.752 216.293 247.812V247.812ZM236.585 273.777C236.587 278.584 234.963 283.242 231.989 286.959C229.014 290.677 224.874 293.222 220.273 294.163C215.672 295.103 210.894 294.381 206.755 292.118C202.616 289.855 199.37 286.192 197.572 281.752C195.773 277.313 195.533 272.372 196.892 267.772C198.251 263.172 201.125 259.196 205.024 256.523C208.923 253.85 213.607 252.644 218.276 253.112C222.946 253.579 227.313 255.691 230.633 259.087C232.524 261.011 234.024 263.3 235.046 265.821C236.067 268.343 236.59 271.047 236.585 273.777V273.777Z" fill="#96DB5F"/>
<path d="M301.096 90.8682C294.666 90.886 288.489 93.2998 283.841 97.6111V93.3024C283.841 92.6568 283.576 92.0377 283.106 91.5811C282.636 91.1246 281.998 90.8682 281.333 90.8682C280.667 90.8682 280.03 91.1246 279.559 91.5811C279.089 92.0377 278.825 92.6568 278.825 93.3024V104.257C278.825 104.902 279.089 105.521 279.559 105.978C280.03 106.434 280.667 106.691 281.333 106.691H292.619C293.284 106.691 293.922 106.434 294.392 105.978C294.863 105.521 295.127 104.902 295.127 104.257C295.127 103.611 294.863 102.992 294.392 102.535C293.922 102.079 293.284 101.822 292.619 101.822H286.599C289.824 98.5516 294.122 96.4734 298.755 95.9452C303.387 95.417 308.064 96.4718 311.982 98.9281C315.9 101.384 318.814 105.089 320.223 109.405C321.632 113.72 321.447 118.377 319.701 122.575C317.956 126.773 314.757 130.25 310.657 132.407C306.556 134.564 301.809 135.268 297.232 134.396C292.655 133.524 288.534 131.132 285.578 127.631C282.621 124.13 281.014 119.738 281.032 115.211C281.032 114.565 280.767 113.946 280.297 113.489C279.827 113.033 279.189 112.776 278.524 112.776C277.858 112.776 277.221 113.033 276.75 113.489C276.28 113.946 276.016 114.565 276.016 115.211C276.016 120.025 277.487 124.732 280.242 128.735C282.998 132.738 286.915 135.858 291.498 137.7C296.081 139.543 301.124 140.025 305.989 139.086C310.854 138.146 315.323 135.828 318.83 132.424C322.338 129.019 324.726 124.682 325.694 119.96C326.662 115.238 326.165 110.343 324.267 105.895C322.369 101.447 319.154 97.6454 315.03 94.9706C310.905 92.2958 306.056 90.8682 301.096 90.8682ZM301.096 105.474C300.431 105.474 299.793 105.73 299.322 106.187C298.852 106.643 298.588 107.262 298.588 107.908V115.211C298.588 115.856 298.852 116.476 299.322 116.932C299.793 117.389 300.431 117.645 301.096 117.645H306.112C306.777 117.645 307.415 117.389 307.885 116.932C308.356 116.476 308.62 115.856 308.62 115.211C308.62 114.565 308.356 113.946 307.885 113.489C307.415 113.033 306.777 112.776 306.112 112.776H303.604V107.908C303.604 107.262 303.34 106.643 302.869 106.187C302.399 105.73 301.761 105.474 301.096 105.474Z" fill="#FACA0F"/>
<path d="M304.096 247.868C297.666 247.886 291.489 250.3 286.841 254.611V250.302C286.841 249.657 286.576 249.038 286.106 248.581C285.636 248.125 284.998 247.868 284.333 247.868C283.667 247.868 283.03 248.125 282.559 248.581C282.089 249.038 281.825 249.657 281.825 250.302V261.257C281.825 261.902 282.089 262.521 282.559 262.978C283.03 263.434 283.667 263.691 284.333 263.691H295.619C296.284 263.691 296.922 263.434 297.392 262.978C297.863 262.521 298.127 261.902 298.127 261.257C298.127 260.611 297.863 259.992 297.392 259.535C296.922 259.079 296.284 258.822 295.619 258.822H289.599C292.824 255.552 297.122 253.473 301.755 252.945C306.387 252.417 311.064 253.472 314.982 255.928C318.9 258.384 321.814 262.089 323.223 266.405C324.632 270.72 324.447 275.377 322.701 279.575C320.956 283.773 317.757 287.25 313.657 289.407C309.556 291.564 304.809 292.268 300.232 291.396C295.655 290.524 291.534 288.132 288.578 284.631C285.621 281.13 284.014 276.738 284.032 272.211C284.032 271.565 283.767 270.946 283.297 270.489C282.827 270.033 282.189 269.776 281.524 269.776C280.858 269.776 280.221 270.033 279.75 270.489C279.28 270.946 279.016 271.565 279.016 272.211C279.016 277.025 280.487 281.732 283.242 285.735C285.998 289.738 289.915 292.858 294.498 294.7C299.081 296.543 304.124 297.025 308.989 296.086C313.854 295.146 318.323 292.828 321.83 289.424C325.338 286.019 327.726 281.682 328.694 276.96C329.662 272.238 329.165 267.343 327.267 262.895C325.369 258.447 322.154 254.645 318.03 251.971C313.905 249.296 309.056 247.868 304.096 247.868ZM304.096 262.474C303.431 262.474 302.793 262.73 302.322 263.187C301.852 263.643 301.588 264.262 301.588 264.908V272.211C301.588 272.856 301.852 273.476 302.322 273.932C302.793 274.389 303.431 274.645 304.096 274.645H309.112C309.777 274.645 310.415 274.389 310.885 273.932C311.356 273.476 311.62 272.856 311.62 272.211C311.62 271.565 311.356 270.946 310.885 270.489C310.415 270.033 309.777 269.776 309.112 269.776H306.604V264.908C306.604 264.262 306.34 263.643 305.869 263.187C305.399 262.73 304.761 262.474 304.096 262.474Z" fill="#96DB5F"/>
<path d="M504.017 166.63H452.983C451.888 166.63 451 167.666 451 168.945C451 170.223 451.888 171.26 452.983 171.26H504.017C505.112 171.26 506 170.223 506 168.945C506 167.666 505.112 166.63 504.017 166.63Z" fill="#96DB5F"/>
<path d="M504.017 183.992H452.983C451.888 183.992 451 185.115 451 186.5C451 187.885 451.888 189.008 452.983 189.008H504.017C505.112 189.008 506 187.885 506 186.5C506 185.115 505.112 183.992 504.017 183.992Z" fill="#96DB5F"/>
<path d="M504.017 201.74H452.983C451.888 201.74 451 202.777 451 204.055C451 205.334 451.888 206.37 452.983 206.37H504.017C505.112 206.37 506 205.334 506 204.055C506 202.777 505.112 201.74 504.017 201.74Z" fill="#96DB5F"/>
<path d="M469.038 193.522C472.743 193.522 475.746 190.378 475.746 186.5C475.746 182.622 472.743 179.478 469.038 179.478C465.333 179.478 462.33 182.622 462.33 186.5C462.33 190.378 465.333 193.522 469.038 193.522Z" fill="#96DB5F"/>
<path d="M488.714 176.045C492.419 176.045 495.422 172.901 495.422 169.022C495.422 165.144 492.419 162 488.714 162C485.009 162 482.006 165.144 482.006 169.022C482.006 172.901 485.009 176.045 488.714 176.045Z" fill="#96DB5F"/>
<path d="M488.714 211C492.419 211 495.422 207.856 495.422 203.977C495.422 200.099 492.419 196.955 488.714 196.955C485.009 196.955 482.006 200.099 482.006 203.977C482.006 207.856 485.009 211 488.714 211Z" fill="#96DB5F"/>
<path d="M500.017 11.4414H448.983C447.888 11.4414 447 12.4355 447 13.6619C447 14.8882 447.888 15.8823 448.983 15.8823H500.017C501.112 15.8823 502 14.8882 502 13.6619C502 12.4355 501.112 11.4414 500.017 11.4414Z" fill="#FACA0F"/>
<path d="M500.017 28.0947H448.983C447.888 28.0947 447 29.1717 447 30.5002C447 31.8288 447.888 32.9057 448.983 32.9057H500.017C501.112 32.9057 502 31.8288 502 30.5002C502 29.1717 501.112 28.0947 500.017 28.0947Z" fill="#FACA0F"/>
<path d="M500.017 45.1182H448.983C447.888 45.1182 447 46.1123 447 47.3386C447 48.565 447.888 49.5591 448.983 49.5591H500.017C501.112 49.5591 502 48.565 502 47.3386C502 46.1123 501.112 45.1182 500.017 45.1182Z" fill="#FACA0F"/>
<path d="M465.038 37.236C468.743 37.236 471.746 34.2203 471.746 30.5003C471.746 26.7803 468.743 23.7646 465.038 23.7646C461.333 23.7646 458.33 26.7803 458.33 30.5003C458.33 34.2203 461.333 37.236 465.038 37.236Z" fill="#FACA0F"/>
<path d="M484.714 20.4713C488.419 20.4713 491.422 17.4557 491.422 13.7357C491.422 10.0157 488.419 7 484.714 7C481.009 7 478.006 10.0157 478.006 13.7357C478.006 17.4557 481.009 20.4713 484.714 20.4713Z" fill="#FACA0F"/>
<path d="M484.714 53.9997C488.419 53.9997 491.422 50.984 491.422 47.264C491.422 43.544 488.419 40.5283 484.714 40.5283C481.009 40.5283 478.006 43.544 478.006 47.264C478.006 50.984 481.009 53.9997 484.714 53.9997Z" fill="#FACA0F"/>
<path d="M503.017 342.63H451.983C450.888 342.63 450 343.666 450 344.945C450 346.223 450.888 347.26 451.983 347.26H503.017C504.112 347.26 505 346.223 505 344.945C505 343.666 504.112 342.63 503.017 342.63Z" fill="#BFBFBF"/>
<path d="M503.017 359.992H451.983C450.888 359.992 450 361.115 450 362.5C450 363.885 450.888 365.008 451.983 365.008H503.017C504.112 365.008 505 363.885 505 362.5C505 361.115 504.112 359.992 503.017 359.992Z" fill="#BFBFBF"/>
<path d="M503.017 377.74H451.983C450.888 377.74 450 378.777 450 380.055C450 381.334 450.888 382.37 451.983 382.37H503.017C504.112 382.37 505 381.334 505 380.055C505 378.777 504.112 377.74 503.017 377.74Z" fill="#BFBFBF"/>
<path d="M468.038 369.522C471.743 369.522 474.746 366.378 474.746 362.5C474.746 358.622 471.743 355.478 468.038 355.478C464.333 355.478 461.33 358.622 461.33 362.5C461.33 366.378 464.333 369.522 468.038 369.522Z" fill="#BFBFBF"/>
<path d="M487.714 352.045C491.419 352.045 494.422 348.901 494.422 345.022C494.422 341.144 491.419 338 487.714 338C484.009 338 481.006 341.144 481.006 345.022C481.006 348.901 484.009 352.045 487.714 352.045Z" fill="#BFBFBF"/>
<path d="M487.714 387C491.419 387 494.422 383.856 494.422 379.977C494.422 376.099 491.419 372.955 487.714 372.955C484.009 372.955 481.006 376.099 481.006 379.977C481.006 383.856 484.009 387 487.714 387Z" fill="#BFBFBF"/>
<path fill-rule="evenodd" clip-rule="evenodd" d="M219.584 424L222 426.695L207.832 442.5L222 458.305L219.584 461L203 442.5L219.584 424Z" fill="black"/>
</svg>
