<svg width="301" height="256" viewBox="0 0 301 256" fill="none" xmlns="http://www.w3.org/2000/svg">
<rect width="300" height="120" rx="20" fill="white"/>
<path d="M88.044 35.404V37.312H103.992V35.404H88.044ZM96.108 38.662V40.516H102.84V38.662H96.108ZM95.1 36.376V43.036H97.278V36.376H95.1ZM92.31 39.256L90.528 39.832C92.004 43.594 94.47 44.332 98.61 44.332H103.758C103.866 43.702 104.19 42.748 104.496 42.28C103.2 42.316 99.726 42.334 98.736 42.316C95.586 42.298 93.3 41.884 92.31 39.256ZM90.744 37.69C90.33 40.102 89.232 42.01 87.396 43.144C87.864 43.468 88.692 44.26 89.016 44.656C91.014 43.234 92.31 40.966 92.904 37.996L90.744 37.69ZM91.806 32.182H100.068V33.082H91.806V32.182ZM91.806 29.86H100.068V30.76H91.806V29.86ZM89.718 28.33V34.612H102.264V28.33H89.718ZM109.194 42.082V43.954H118.716V42.082H109.194ZM107.952 37.492V44.602H110.184V39.346H117.834V44.602H120.21V37.492H107.952ZM106.062 28.618V30.634H121.902V28.618H106.062ZM114.342 29.32C112.452 31.822 108.942 33.784 105.342 34.828C105.81 35.278 106.548 36.286 106.872 36.79C110.49 35.458 114.234 33.208 116.502 30.256L114.342 29.32ZM115.44 33.352C117.348 34.18 119.688 35.566 120.948 36.574L122.532 34.954C121.2 34.018 118.914 32.704 116.988 31.912L115.44 33.352ZM112.848 32.596V36.97H115.062V30.436L115.026 30.418L112.848 32.596ZM134.61 29.914V40.102H136.5V29.914H134.61ZM137.796 28.078V42.154C137.796 42.442 137.706 42.532 137.436 42.532C137.112 42.55 136.194 42.55 135.276 42.514C135.546 43.09 135.834 44.026 135.906 44.584C137.256 44.584 138.282 44.512 138.93 44.17C139.56 43.846 139.776 43.27 139.776 42.172V28.078H137.796ZM131.532 28.438V42.514C131.532 42.694 131.496 42.748 131.352 42.748C131.226 42.748 130.902 42.748 130.578 42.748C130.83 43.216 131.118 44.098 131.172 44.602C131.892 44.602 132.396 44.53 132.828 44.224C133.278 43.864 133.386 43.306 133.386 42.568V28.438H131.532ZM124.53 28.438V44.62H126.312V30.328H132.54V28.438H124.53ZM123.522 34.882V36.844H134.304V34.882H123.522ZM127.104 29.194V44.26H128.472V29.194H127.104ZM129.3 29.194V44.224H130.686V29.194H129.3ZM142.17 28.42V44.566H144.042V30.346H146.31V28.42H142.17ZM145.77 28.42V29.032C145.518 30.148 144.996 32.524 144.528 34.108C145.482 35.368 145.662 36.538 145.662 37.384C145.662 37.924 145.572 38.302 145.356 38.464C145.248 38.572 145.086 38.626 144.906 38.626C144.69 38.626 144.456 38.626 144.15 38.608C144.456 39.13 144.6 39.94 144.6 40.462C145.014 40.462 145.446 40.462 145.752 40.426C146.148 40.354 146.49 40.246 146.778 40.012C147.318 39.598 147.552 38.824 147.552 37.636C147.534 36.592 147.336 35.314 146.31 33.892C146.814 32.506 147.372 30.67 147.804 29.122L146.4 28.348L146.112 28.42H145.77ZM149.19 33.19V35.044H156.48V33.19H149.19ZM147.804 36.52V38.482H158.226V36.52H147.804ZM149.154 39.058C148.614 40.264 147.732 41.56 146.814 42.424C147.264 42.694 148.056 43.252 148.398 43.576C149.316 42.604 150.378 41.038 151.044 39.598L149.154 39.058ZM154.662 39.76C155.544 40.876 156.552 42.424 156.984 43.432L158.676 42.478C158.208 41.488 157.218 40.03 156.264 38.95L154.662 39.76ZM152.088 33.604V42.352C152.088 42.568 152.016 42.658 151.764 42.658C151.512 42.658 150.702 42.658 149.91 42.622C150.216 43.162 150.522 44.008 150.63 44.584C151.836 44.584 152.7 44.548 153.33 44.224C153.978 43.9 154.176 43.36 154.176 42.37V33.604H152.088ZM152.61 27.502C151.44 29.662 149.244 31.57 147.048 32.668C147.552 33.082 148.128 33.748 148.434 34.252C150.81 32.866 153.024 30.742 154.428 28.204L152.61 27.502ZM153.816 28.726L152.124 29.464C154.122 31.948 155.778 33.226 157.308 34.18C157.596 33.586 158.226 32.866 158.73 32.434C157.29 31.75 155.616 30.688 153.816 28.726ZM168.576 34.45V36.484H174.444V34.45H168.576ZM167.73 34.45V41.488C167.73 43.792 168.414 44.404 170.646 44.404C171.114 44.404 173.094 44.404 173.598 44.404C175.65 44.404 176.244 43.54 176.514 40.534C175.902 40.408 174.984 40.03 174.516 39.688C174.39 41.956 174.264 42.37 173.436 42.37C172.95 42.37 171.312 42.37 170.916 42.37C170.052 42.37 169.908 42.244 169.908 41.47V34.45H167.73ZM167.658 28.618V30.67H173.31V37.384H175.488V28.618H167.658ZM160.44 33.1V34.702H166.182V33.1H160.44ZM160.08 35.692V37.312H166.488V35.692H160.08ZM159.558 30.418V32.128H167.082V30.418H159.558ZM161.394 38.248V39.958H164.274V42.064H161.394V43.774H166.164V38.248H161.394ZM160.35 38.248V44.494H162.222V38.248H160.35ZM161.502 28.42C162.042 29.122 162.6 30.13 162.834 30.76L164.634 29.806C164.382 29.158 163.806 28.258 163.23 27.574L161.502 28.42ZM178.836 32.254V34.054H183.192V32.254H178.836ZM177.792 35.386V37.204H184.02V35.386H177.792ZM177.756 38.05C178.008 39.04 178.278 40.336 178.35 41.182L179.826 40.768C179.718 39.94 179.448 38.662 179.16 37.69L177.756 38.05ZM177.486 42.19L177.918 44.134C179.664 43.81 181.95 43.378 184.11 42.928L184.002 41.236C181.59 41.614 179.106 41.992 177.486 42.19ZM182.94 37.582C182.832 38.482 182.562 39.796 182.346 40.624L183.462 40.948C183.714 40.174 184.02 38.968 184.308 37.924L182.94 37.582ZM180.186 32.992V42.982L181.932 42.64V32.992H180.186ZM180.708 27.646C179.934 29.284 178.602 30.868 177.306 31.912C177.54 32.416 177.918 33.586 177.972 34.036C179.664 32.632 181.338 30.382 182.328 28.24L180.708 27.646ZM180.456 29.518C181.554 30.598 183.066 32.11 183.786 33.046L185.01 31.624C184.254 30.778 182.67 29.32 181.59 28.312L180.456 29.518ZM192.768 36.358C192.264 37.114 191.364 38.122 190.734 38.698L191.904 39.778C192.57 39.22 193.452 38.356 194.208 37.564L192.768 36.358ZM184.416 37.402C185.028 38.104 185.838 39.094 186.18 39.706L187.692 38.572C187.296 37.96 186.468 37.042 185.838 36.376L184.416 37.402ZM186.828 29.212V30.85H191.526V29.212H186.828ZM186.36 31.876V33.496H191.13V31.876H186.36ZM184.29 34.288V36.178H194.37V34.288H184.29ZM188.178 35.476V42.568C188.178 42.748 188.124 42.802 187.908 42.802C187.728 42.802 187.08 42.82 186.504 42.784C186.756 43.306 187.008 44.098 187.08 44.638C188.106 44.638 188.88 44.584 189.438 44.314C190.032 44.008 190.158 43.504 190.158 42.586V35.476H188.178ZM183.822 41.758L184.902 43.378C185.82 42.73 186.9 41.938 187.836 41.2L187.224 39.634C185.964 40.462 184.686 41.272 183.822 41.758ZM186.486 27.7C186.108 29.572 185.496 32.002 184.992 33.496H187.062C187.494 32.092 188.07 29.788 188.484 27.916L186.486 27.7ZM190.932 29.212V29.446C190.752 30.67 190.302 32.974 189.888 34.72L191.85 34.972C192.246 33.262 192.696 31.12 192.966 29.338L191.49 29.14L191.166 29.212H190.932ZM190.32 40.93C191.328 41.668 192.732 42.748 193.38 43.396L194.568 41.938C193.866 41.326 192.444 40.318 191.454 39.652L190.32 40.93ZM202.614 38.374H204.954C204.666 35.89 208.608 35.566 208.608 32.938C208.608 30.544 206.7 29.32 204.09 29.32C202.164 29.32 200.58 30.202 199.428 31.534L200.904 32.884C201.786 31.966 202.686 31.462 203.784 31.462C205.206 31.462 206.07 32.074 206.07 33.172C206.07 34.918 202.236 35.548 202.614 38.374ZM203.802 43.18C204.702 43.18 205.386 42.514 205.386 41.578C205.386 40.642 204.702 39.994 203.802 39.994C202.884 39.994 202.2 40.642 202.2 41.578C202.2 42.514 202.866 43.18 203.802 43.18Z" fill="black"/>
<rect x="52" y="62" width="89" height="36" rx="18" fill="#FACA0F" stroke="#FACA0F"/>
<path d="M89.812 80.092V81.576H102.216V80.092H89.812ZM96.084 82.626V84.068H101.32V82.626H96.084ZM95.3 80.848V86.028H96.994V80.848H95.3ZM93.13 83.088L91.744 83.536C92.892 86.462 94.81 87.036 98.03 87.036H102.034C102.118 86.546 102.37 85.804 102.608 85.44C101.6 85.468 98.898 85.482 98.128 85.468C95.678 85.454 93.9 85.132 93.13 83.088ZM91.912 81.87C91.59 83.746 90.736 85.23 89.308 86.112C89.672 86.364 90.316 86.98 90.568 87.288C92.122 86.182 93.13 84.418 93.592 82.108L91.912 81.87ZM92.738 77.586H99.164V78.286H92.738V77.586ZM92.738 75.78H99.164V76.48H92.738V75.78ZM91.114 74.59V79.476H100.872V74.59H91.114Z" fill="white"/>
<rect x="159" y="62" width="89" height="36" rx="18" fill="white" stroke="#C4C4C4"/>
<path d="M199.7 84.496V85.492H206.288V84.496H199.7ZM199.052 81.388V86.008H200.216V82.372H205.808V85.996H207.044V81.388H199.052ZM197.756 75.52V76.588H208.232V75.52H197.756ZM203.408 75.916C202.112 77.608 199.724 78.952 197.336 79.684C197.588 79.924 197.972 80.452 198.14 80.716C200.528 79.816 203.024 78.34 204.536 76.408L203.408 75.916ZM203.948 78.376C205.28 78.94 206.9 79.888 207.764 80.572L208.58 79.72C207.692 79.072 206.096 78.16 204.764 77.62L203.948 78.376ZM202.4 77.848V81.04H203.552V76.72L203.54 76.708L202.4 77.848Z" fill="#C4C4C4"/>
<rect x="1" y="136" width="300" height="120" rx="20" fill="white"/>
<path d="M89.044 171.404V173.312H104.992V171.404H89.044ZM97.108 174.662V176.516H103.84V174.662H97.108ZM96.1 172.376V179.036H98.278V172.376H96.1ZM93.31 175.256L91.528 175.832C93.004 179.594 95.47 180.332 99.61 180.332H104.758C104.866 179.702 105.19 178.748 105.496 178.28C104.2 178.316 100.726 178.334 99.736 178.316C96.586 178.298 94.3 177.884 93.31 175.256ZM91.744 173.69C91.33 176.102 90.232 178.01 88.396 179.144C88.864 179.468 89.692 180.26 90.016 180.656C92.014 179.234 93.31 176.966 93.904 173.996L91.744 173.69ZM92.806 168.182H101.068V169.082H92.806V168.182ZM92.806 165.86H101.068V166.76H92.806V165.86ZM90.718 164.33V170.612H103.264V164.33H90.718ZM110.194 178.082V179.954H119.716V178.082H110.194ZM108.952 173.492V180.602H111.184V175.346H118.834V180.602H121.21V173.492H108.952ZM107.062 164.618V166.634H122.902V164.618H107.062ZM115.342 165.32C113.452 167.822 109.942 169.784 106.342 170.828C106.81 171.278 107.548 172.286 107.872 172.79C111.49 171.458 115.234 169.208 117.502 166.256L115.342 165.32ZM116.44 169.352C118.348 170.18 120.688 171.566 121.948 172.574L123.532 170.954C122.2 170.018 119.914 168.704 117.988 167.912L116.44 169.352ZM113.848 168.596V172.97H116.062V166.436L116.026 166.418L113.848 168.596ZM135.61 165.914V176.102H137.5V165.914H135.61ZM138.796 164.078V178.154C138.796 178.442 138.706 178.532 138.436 178.532C138.112 178.55 137.194 178.55 136.276 178.514C136.546 179.09 136.834 180.026 136.906 180.584C138.256 180.584 139.282 180.512 139.93 180.17C140.56 179.846 140.776 179.27 140.776 178.172V164.078H138.796ZM132.532 164.438V178.514C132.532 178.694 132.496 178.748 132.352 178.748C132.226 178.748 131.902 178.748 131.578 178.748C131.83 179.216 132.118 180.098 132.172 180.602C132.892 180.602 133.396 180.53 133.828 180.224C134.278 179.864 134.386 179.306 134.386 178.568V164.438H132.532ZM125.53 164.438V180.62H127.312V166.328H133.54V164.438H125.53ZM124.522 170.882V172.844H135.304V170.882H124.522ZM128.104 165.194V180.26H129.472V165.194H128.104ZM130.3 165.194V180.224H131.686V165.194H130.3ZM143.17 164.42V180.566H145.042V166.346H147.31V164.42H143.17ZM146.77 164.42V165.032C146.518 166.148 145.996 168.524 145.528 170.108C146.482 171.368 146.662 172.538 146.662 173.384C146.662 173.924 146.572 174.302 146.356 174.464C146.248 174.572 146.086 174.626 145.906 174.626C145.69 174.626 145.456 174.626 145.15 174.608C145.456 175.13 145.6 175.94 145.6 176.462C146.014 176.462 146.446 176.462 146.752 176.426C147.148 176.354 147.49 176.246 147.778 176.012C148.318 175.598 148.552 174.824 148.552 173.636C148.534 172.592 148.336 171.314 147.31 169.892C147.814 168.506 148.372 166.67 148.804 165.122L147.4 164.348L147.112 164.42H146.77ZM150.19 169.19V171.044H157.48V169.19H150.19ZM148.804 172.52V174.482H159.226V172.52H148.804ZM150.154 175.058C149.614 176.264 148.732 177.56 147.814 178.424C148.264 178.694 149.056 179.252 149.398 179.576C150.316 178.604 151.378 177.038 152.044 175.598L150.154 175.058ZM155.662 175.76C156.544 176.876 157.552 178.424 157.984 179.432L159.676 178.478C159.208 177.488 158.218 176.03 157.264 174.95L155.662 175.76ZM153.088 169.604V178.352C153.088 178.568 153.016 178.658 152.764 178.658C152.512 178.658 151.702 178.658 150.91 178.622C151.216 179.162 151.522 180.008 151.63 180.584C152.836 180.584 153.7 180.548 154.33 180.224C154.978 179.9 155.176 179.36 155.176 178.37V169.604H153.088ZM153.61 163.502C152.44 165.662 150.244 167.57 148.048 168.668C148.552 169.082 149.128 169.748 149.434 170.252C151.81 168.866 154.024 166.742 155.428 164.204L153.61 163.502ZM154.816 164.726L153.124 165.464C155.122 167.948 156.778 169.226 158.308 170.18C158.596 169.586 159.226 168.866 159.73 168.434C158.29 167.75 156.616 166.688 154.816 164.726ZM169.576 170.45V172.484H175.444V170.45H169.576ZM168.73 170.45V177.488C168.73 179.792 169.414 180.404 171.646 180.404C172.114 180.404 174.094 180.404 174.598 180.404C176.65 180.404 177.244 179.54 177.514 176.534C176.902 176.408 175.984 176.03 175.516 175.688C175.39 177.956 175.264 178.37 174.436 178.37C173.95 178.37 172.312 178.37 171.916 178.37C171.052 178.37 170.908 178.244 170.908 177.47V170.45H168.73ZM168.658 164.618V166.67H174.31V173.384H176.488V164.618H168.658ZM161.44 169.1V170.702H167.182V169.1H161.44ZM161.08 171.692V173.312H167.488V171.692H161.08ZM160.558 166.418V168.128H168.082V166.418H160.558ZM162.394 174.248V175.958H165.274V178.064H162.394V179.774H167.164V174.248H162.394ZM161.35 174.248V180.494H163.222V174.248H161.35ZM162.502 164.42C163.042 165.122 163.6 166.13 163.834 166.76L165.634 165.806C165.382 165.158 164.806 164.258 164.23 163.574L162.502 164.42ZM179.836 168.254V170.054H184.192V168.254H179.836ZM178.792 171.386V173.204H185.02V171.386H178.792ZM178.756 174.05C179.008 175.04 179.278 176.336 179.35 177.182L180.826 176.768C180.718 175.94 180.448 174.662 180.16 173.69L178.756 174.05ZM178.486 178.19L178.918 180.134C180.664 179.81 182.95 179.378 185.11 178.928L185.002 177.236C182.59 177.614 180.106 177.992 178.486 178.19ZM183.94 173.582C183.832 174.482 183.562 175.796 183.346 176.624L184.462 176.948C184.714 176.174 185.02 174.968 185.308 173.924L183.94 173.582ZM181.186 168.992V178.982L182.932 178.64V168.992H181.186ZM181.708 163.646C180.934 165.284 179.602 166.868 178.306 167.912C178.54 168.416 178.918 169.586 178.972 170.036C180.664 168.632 182.338 166.382 183.328 164.24L181.708 163.646ZM181.456 165.518C182.554 166.598 184.066 168.11 184.786 169.046L186.01 167.624C185.254 166.778 183.67 165.32 182.59 164.312L181.456 165.518ZM193.768 172.358C193.264 173.114 192.364 174.122 191.734 174.698L192.904 175.778C193.57 175.22 194.452 174.356 195.208 173.564L193.768 172.358ZM185.416 173.402C186.028 174.104 186.838 175.094 187.18 175.706L188.692 174.572C188.296 173.96 187.468 173.042 186.838 172.376L185.416 173.402ZM187.828 165.212V166.85H192.526V165.212H187.828ZM187.36 167.876V169.496H192.13V167.876H187.36ZM185.29 170.288V172.178H195.37V170.288H185.29ZM189.178 171.476V178.568C189.178 178.748 189.124 178.802 188.908 178.802C188.728 178.802 188.08 178.82 187.504 178.784C187.756 179.306 188.008 180.098 188.08 180.638C189.106 180.638 189.88 180.584 190.438 180.314C191.032 180.008 191.158 179.504 191.158 178.586V171.476H189.178ZM184.822 177.758L185.902 179.378C186.82 178.73 187.9 177.938 188.836 177.2L188.224 175.634C186.964 176.462 185.686 177.272 184.822 177.758ZM187.486 163.7C187.108 165.572 186.496 168.002 185.992 169.496H188.062C188.494 168.092 189.07 165.788 189.484 163.916L187.486 163.7ZM191.932 165.212V165.446C191.752 166.67 191.302 168.974 190.888 170.72L192.85 170.972C193.246 169.262 193.696 167.12 193.966 165.338L192.49 165.14L192.166 165.212H191.932ZM191.32 176.93C192.328 177.668 193.732 178.748 194.38 179.396L195.568 177.938C194.866 177.326 193.444 176.318 192.454 175.652L191.32 176.93ZM203.614 174.374H205.954C205.666 171.89 209.608 171.566 209.608 168.938C209.608 166.544 207.7 165.32 205.09 165.32C203.164 165.32 201.58 166.202 200.428 167.534L201.904 168.884C202.786 167.966 203.686 167.462 204.784 167.462C206.206 167.462 207.07 168.074 207.07 169.172C207.07 170.918 203.236 171.548 203.614 174.374ZM204.802 179.18C205.702 179.18 206.386 178.514 206.386 177.578C206.386 176.642 205.702 175.994 204.802 175.994C203.884 175.994 203.2 176.642 203.2 177.578C203.2 178.514 203.866 179.18 204.802 179.18Z" fill="black"/>
<rect x="53" y="198" width="89" height="36" rx="18" fill="#96DB5F" stroke="#96DB5F"/>
<path d="M90.812 216.092V217.576H103.216V216.092H90.812ZM97.084 218.626V220.068H102.32V218.626H97.084ZM96.3 216.848V222.028H97.994V216.848H96.3ZM94.13 219.088L92.744 219.536C93.892 222.462 95.81 223.036 99.03 223.036H103.034C103.118 222.546 103.37 221.804 103.608 221.44C102.6 221.468 99.898 221.482 99.128 221.468C96.678 221.454 94.9 221.132 94.13 219.088ZM92.912 217.87C92.59 219.746 91.736 221.23 90.308 222.112C90.672 222.364 91.316 222.98 91.568 223.288C93.122 222.182 94.13 220.418 94.592 218.108L92.912 217.87ZM93.738 213.586H100.164V214.286H93.738V213.586ZM93.738 211.78H100.164V212.48H93.738V211.78ZM92.114 210.59V215.476H101.872V210.59H92.114Z" fill="white"/>
<rect x="160" y="198" width="89" height="36" rx="18" fill="white" stroke="#C4C4C4"/>
<path d="M200.7 220.496V221.492H207.288V220.496H200.7ZM200.052 217.388V222.008H201.216V218.372H206.808V221.996H208.044V217.388H200.052ZM198.756 211.52V212.588H209.232V211.52H198.756ZM204.408 211.916C203.112 213.608 200.724 214.952 198.336 215.684C198.588 215.924 198.972 216.452 199.14 216.716C201.528 215.816 204.024 214.34 205.536 212.408L204.408 211.916ZM204.948 214.376C206.28 214.94 207.9 215.888 208.764 216.572L209.58 215.72C208.692 215.072 207.096 214.16 205.764 213.62L204.948 214.376ZM203.4 213.848V217.04H204.552V212.72L204.54 212.708L203.4 213.848Z" fill="#C4C4C4"/>
</svg>
