<svg width="537" height="184" viewBox="0 0 537 184" fill="none" xmlns="http://www.w3.org/2000/svg">
<rect x="2" y="136" width="252" height="48" rx="24" fill="#F3F3F3"/>
<path d="M235.287 151.036H213.475C213.006 151.036 212.627 151.492 212.627 152.054C212.627 152.617 213.006 153.073 213.475 153.073H235.287C235.755 153.073 236.134 152.617 236.134 152.054C236.134 151.492 235.755 151.036 235.287 151.036Z" fill="#BFBFBF"/>
<path d="M235.287 158.673H213.475C213.006 158.673 212.627 159.167 212.627 159.776C212.627 160.385 213.006 160.879 213.475 160.879H235.287C235.755 160.879 236.134 160.385 236.134 159.776C236.134 159.167 235.755 158.673 235.287 158.673Z" fill="#BFBFBF"/>
<path d="M235.287 166.479H213.475C213.006 166.479 212.627 166.934 212.627 167.497C212.627 168.059 213.006 168.515 213.475 168.515H235.287C235.755 168.515 236.134 168.059 236.134 167.497C236.134 166.934 235.755 166.479 235.287 166.479Z" fill="#BFBFBF"/>
<path d="M220.336 162.865C221.919 162.865 223.203 161.482 223.203 159.776C223.203 158.07 221.919 156.688 220.336 156.688C218.752 156.688 217.469 158.07 217.469 159.776C217.469 161.482 218.752 162.865 220.336 162.865Z" fill="#BFBFBF"/>
<path d="M228.747 155.177C230.33 155.177 231.614 153.794 231.614 152.089C231.614 150.383 230.33 149 228.747 149C227.164 149 225.88 150.383 225.88 152.089C225.88 153.794 227.164 155.177 228.747 155.177Z" fill="#BFBFBF"/>
<path d="M228.747 170.551C230.33 170.551 231.614 169.168 231.614 167.463C231.614 165.757 230.33 164.374 228.747 164.374C227.164 164.374 225.88 165.757 225.88 167.463C225.88 169.168 227.164 170.551 228.747 170.551Z" fill="#BFBFBF"/>
<path d="M26.8852 154.944V161.772H27.7372V154.944H26.8852ZM23.8972 161.388V162.156H29.8612V161.388H23.8972ZM28.2652 157.764V158.52H30.2692V157.764H28.2652ZM24.4612 157.764V158.52H26.3812V157.764H24.4612ZM24.0292 159.708V160.476H26.4532V159.708H24.0292ZM24.0292 156.108V160.236H24.8452V156.372L24.0292 156.108ZM25.9372 155.268C25.4572 155.532 24.6052 155.916 24.0292 156.108L24.4492 156.636C25.0372 156.48 25.8412 156.216 26.5012 155.916L25.9372 155.268ZM29.6332 161.388V161.52C28.6612 163.656 26.0092 164.784 23.2132 165.18C23.3692 165.384 23.5612 165.744 23.6332 165.972C26.5972 165.456 29.3812 164.22 30.5452 161.616L29.9692 161.352L29.8132 161.388H29.6332ZM25.5052 162L24.7372 162.288C25.9492 164.196 28.1932 165.468 30.8812 165.96C31.0132 165.732 31.2532 165.36 31.4572 165.168C28.8172 164.772 26.5732 163.644 25.5052 162ZM28.1812 155.808V156.576H29.8972V159.72H28.1812V160.488H30.6892V155.808H28.1812ZM20.3212 161.292L20.5732 162.156C21.4972 161.808 22.6732 161.364 23.7772 160.932L23.6212 160.116C22.4092 160.572 21.1612 161.028 20.3212 161.292ZM20.4412 157.344V158.184H23.6572V157.344H20.4412ZM21.7852 154.944V164.82C21.7852 164.976 21.7372 165.012 21.5932 165.024C21.4492 165.024 21.0172 165.024 20.5252 165.012C20.6452 165.252 20.7532 165.624 20.7772 165.864C21.4972 165.864 21.9412 165.84 22.2292 165.684C22.5052 165.54 22.6252 165.288 22.6252 164.82V154.944H21.7852ZM35.0572 155.52V156.168H41.7292V158.304H34.9972V158.94H42.6172V155.52H35.0572ZM39.9172 160.2H42.6772V161.376H39.9172V160.2ZM39.0652 159.564V162.012H43.5532V159.564H39.0652ZM33.4972 156.912V157.548H42.1732V156.912H33.4972ZM42.1492 156.864V157.584H44.2132V156.864H42.1492ZM33.8452 159.564V160.236H38.2372V159.564H33.8452ZM33.3772 162.744V163.5H44.2732V162.744H33.3772ZM40.9012 161.904V165.012C40.9012 165.192 40.8532 165.228 40.6372 165.252C40.4452 165.252 39.7132 165.264 38.9212 165.228C39.0412 165.456 39.1732 165.756 39.2212 165.972C40.2532 165.972 40.8892 165.972 41.2852 165.852C41.6692 165.732 41.7892 165.516 41.7892 165.036V161.904H40.9012ZM35.5972 159.816V161.58H36.4372V159.816H35.5972ZM33.6052 161.52L33.6772 162.252C34.9492 162.156 36.7492 162.012 38.4772 161.868V161.196C36.6772 161.328 34.8292 161.46 33.6052 161.52ZM35.3692 163.956C36.0772 164.364 36.8812 164.988 37.2532 165.444L37.9012 164.868C37.5052 164.412 36.6652 163.812 35.9812 163.428L35.3692 163.956ZM52.3372 159.084V159.912H56.7412V159.084H52.3372ZM49.7572 164.52V165.324H55.7452V164.52H49.7572ZM51.9052 157.656V162.06H52.8292V157.656H51.9052ZM49.2772 161.544V165.816H50.1532V162.372H55.2412V165.792H56.1532V161.544H49.2772ZM47.6692 156.396V157.248H57.1132V156.396H47.6692ZM47.2852 156.396V159.528C47.2852 161.28 47.1892 163.728 46.1452 165.456C46.3612 165.552 46.7692 165.816 46.9372 165.972C48.0292 164.136 48.1972 161.4 48.1972 159.54V156.396H47.2852ZM51.3652 155.172C51.7132 155.688 52.0372 156.396 52.1572 156.864L53.0932 156.612C52.9612 156.144 52.6132 155.46 52.2532 154.956L51.3652 155.172ZM59.7412 156V158.472H60.6292V156.828H68.8972V158.472H69.8092V156H59.7412ZM61.2532 157.98V158.772H68.2132V157.98H61.2532ZM63.4612 159.6C65.5012 161.424 65.3812 164.316 64.6252 164.88C64.4092 165.096 64.1812 165.132 63.8692 165.132C63.6172 165.132 63.2092 165.108 62.7652 165.072C62.9212 165.312 63.0052 165.672 63.0172 165.924C63.3892 165.936 63.7732 165.948 64.0372 165.936C64.5772 165.936 64.9012 165.852 65.2732 165.516C66.3652 164.712 66.4492 161.22 64.1332 159.216L63.4612 159.6ZM64.6972 158.208C63.6052 159.252 61.5412 160.056 59.7052 160.512C59.8612 160.68 60.1012 161.052 60.1972 161.232C62.0692 160.668 64.2052 159.744 65.4412 158.532L64.6972 158.208ZM64.3372 160.452C63.3052 161.244 61.2172 162.144 59.6692 162.528C59.8372 162.72 60.0292 163.02 60.1372 163.236C61.6972 162.732 63.7852 161.76 64.9252 160.884L64.3372 160.452ZM65.0092 161.892C63.8332 163.008 61.4212 164.16 59.4772 164.628C59.6452 164.832 59.8372 165.156 59.9452 165.384C61.9132 164.796 64.3372 163.56 65.6452 162.36L65.0092 161.892ZM67.0852 161.112L66.2932 161.304C66.9052 163.188 68.0932 164.724 69.7372 165.456C69.8572 165.228 70.1332 164.892 70.3252 164.724C68.7892 164.124 67.6252 162.732 67.0852 161.112ZM68.2252 159.228C67.3972 160.008 65.9932 161.028 64.9492 161.628L65.5372 162.144C66.5812 161.568 67.9492 160.632 68.9572 159.816L68.2252 159.228ZM63.8212 155.112C64.0852 155.556 64.3492 156.156 64.4572 156.54L65.4292 156.228C65.3212 155.844 65.0092 155.268 64.7452 154.848L63.8212 155.112ZM71.8372 167.148H72.6292L76.2172 155.472H75.4372L71.8372 167.148ZM84.3125 154.932C83.8445 156.036 83.0045 157.056 82.0925 157.728C82.2725 157.884 82.5605 158.22 82.6805 158.388C83.6525 157.62 84.5765 156.42 85.1285 155.148L84.3125 154.932ZM84.2405 156.012L83.7965 156.732H88.6805V156.012H84.2405ZM84.0605 156.552L83.4845 156.984C84.1805 158.412 85.7885 159.984 88.3445 160.632C88.4645 160.416 88.6925 160.08 88.8605 159.9C86.3165 159.372 84.7085 157.932 84.0605 156.552ZM81.0365 156.54V163.92H81.8165V156.54H81.0365ZM80.1485 154.944C79.6205 156.792 78.7325 158.64 77.7485 159.852C77.9045 160.068 78.1445 160.56 78.2285 160.764C79.3445 159.36 80.3405 157.248 80.9885 155.184L80.1485 154.944ZM79.1885 158.076V165.96H80.0525V157.26L80.0285 157.236L79.1885 158.076ZM82.4285 161.412V162.216H88.5725V161.412H82.4285ZM83.4845 162.708C83.1005 163.512 82.5005 164.328 81.8165 164.892C82.0205 164.988 82.3805 165.204 82.5245 165.336C83.1725 164.736 83.8445 163.824 84.2765 162.924L83.4845 162.708ZM86.5685 163.02C87.1565 163.656 87.8165 164.568 88.1045 165.168L88.8125 164.772C88.5125 164.184 87.8525 163.32 87.2405 162.684L86.5685 163.02ZM85.0205 160.188V165.936H85.8725V160.188H85.0205ZM87.2165 156.288C86.3525 158.148 84.4085 159.312 82.0925 159.912C82.2605 160.092 82.5245 160.464 82.6085 160.656C84.9965 159.9 87.0485 158.64 88.0685 156.504L87.2165 156.288ZM97.5725 155.076V165.96H98.4725V155.076H97.5725ZM95.4965 155.532C95.2205 157.092 94.7165 158.64 94.0205 159.648C94.2485 159.744 94.6205 159.96 94.8005 160.092C95.4845 159.024 96.0365 157.38 96.3605 155.7L95.4965 155.532ZM95.6165 157.38L95.3885 158.268H101.22V157.38H95.6165ZM94.1165 160.908V161.796H101.748V160.908H94.1165ZM93.5285 154.968C92.8925 156.792 91.8245 158.592 90.6965 159.756C90.8645 159.972 91.1285 160.44 91.2125 160.644C92.4605 159.288 93.6245 157.26 94.3805 155.232L93.5285 154.968ZM92.3165 158.064V165.948H93.1805V157.224L93.1685 157.212L92.3165 158.064ZM108.78 158.16V158.928H114.72V158.16H108.78ZM104.916 164.508V165.24H107.976V164.508H104.916ZM104.928 158.616V159.348H107.388V160.68H104.928V161.412H108.24V158.616H104.928ZM104.916 162.336V163.08H107.604V165.708H108.456V162.336H104.916ZM104.412 158.616V165.924H105.264V158.616H104.412ZM105.936 157.536C105.78 157.932 105.492 158.532 105.264 158.928L106.044 159.12C106.284 158.76 106.572 158.244 106.848 157.716L105.936 157.536ZM109.104 159.972V164.832H109.92V160.752H113.736V159.972H109.104ZM113.46 159.972V163.86C113.46 163.968 113.436 164.016 113.316 164.016C113.184 164.016 112.848 164.016 112.404 164.004C112.512 164.244 112.608 164.556 112.632 164.796C113.256 164.796 113.688 164.796 113.964 164.652C114.252 164.508 114.324 164.28 114.324 163.86V159.972H113.46ZM111.276 158.424V165.948H112.128V158.424H111.276ZM105.36 155.784V156.504H109.308V155.784H105.36ZM110.4 155.796V156.504H114.792V155.796H110.4ZM105.636 154.836C105.228 155.88 104.532 156.9 103.764 157.596C103.956 157.74 104.268 158.04 104.412 158.196C105.18 157.428 105.96 156.24 106.44 155.052L105.636 154.836ZM110.7 154.824C110.4 155.748 109.848 156.624 109.176 157.2C109.38 157.32 109.728 157.596 109.872 157.74C110.544 157.092 111.18 156.084 111.54 155.028L110.7 154.824ZM106.332 156.9C106.68 157.212 107.148 157.668 107.364 157.944L107.952 157.428C107.724 157.152 107.256 156.732 106.884 156.444L106.332 156.9ZM111.72 156.912C112.056 157.248 112.488 157.716 112.692 158.028L113.292 157.488C113.088 157.212 112.656 156.768 112.308 156.468L111.72 156.912ZM120.264 160.044V160.74H127.236V160.044H120.264ZM119.76 161.856V162.552H127.62V161.856H119.76ZM121.932 159.18V162.24H122.772V159.18H121.932ZM124.644 159.18V162.24H125.484V159.18H124.644ZM124.332 163.056C125.208 163.476 126.108 164.04 126.624 164.496L127.416 164.076C126.84 163.632 125.832 163.068 124.932 162.648L124.332 163.056ZM122.328 162.66C121.764 163.152 120.84 163.644 120 163.968C120.204 164.1 120.528 164.376 120.696 164.52C121.512 164.148 122.496 163.536 123.132 162.936L122.328 162.66ZM120.528 155.4V156.012H122.604V156.816H120.528V157.44H123.384V155.4H120.528ZM124.356 155.412V156.024H126.48V156.828H124.356V157.452H127.272V155.412H124.356ZM124.008 155.412V157.848C124.008 158.664 124.212 158.964 125.04 158.964C125.232 158.964 126.456 158.964 126.732 158.964C127.056 158.964 127.38 158.94 127.56 158.904C127.524 158.724 127.5 158.448 127.488 158.256C127.284 158.292 126.924 158.304 126.696 158.304C126.456 158.304 125.316 158.304 125.076 158.304C124.8 158.304 124.752 158.196 124.752 157.86V155.412H124.008ZM120.192 159.264C120.396 159.156 120.756 159.084 123.42 158.604C123.42 158.448 123.456 158.148 123.492 157.956L120.54 158.424L120.168 158.676L120.192 159.264ZM120.192 159.264C120.192 159 120.912 158.592 120.912 158.592V155.4H120.18V157.86C120.18 158.316 120.012 158.472 119.868 158.544C119.976 158.724 120.144 159.072 120.192 159.264ZM117.048 155.4C117.576 155.988 118.248 156.828 118.56 157.32L119.268 156.828C118.932 156.348 118.26 155.58 117.708 154.992L117.048 155.4ZM116.808 157.704V158.46H118.992V157.704H116.808ZM118.872 163.2L118.272 163.476C119.184 165.468 120.768 165.792 123.6 165.792C124.932 165.792 126.456 165.756 127.596 165.696C127.644 165.444 127.752 165.024 127.896 164.82C126.66 164.928 124.884 164.988 123.612 164.988C121.2 164.988 119.616 164.772 118.872 163.2ZM118.86 160.692V160.848C118.56 163.008 117.756 164.544 116.592 165.372C116.772 165.504 117.072 165.804 117.192 165.996C118.416 165.06 119.316 163.356 119.688 160.836L119.232 160.668L119.076 160.692H118.86ZM117 161.592C117.096 161.508 117.408 161.424 117.684 161.424H119.1V160.692H117.432L117 160.908V161.592ZM117 161.592C117 161.352 117.672 161.028 117.672 161.028C118.248 160.272 119.172 158.688 119.64 157.872L119.04 157.644L118.788 157.752V157.788C118.464 158.412 117.516 160.092 117.204 160.428C117.024 160.668 116.844 160.74 116.676 160.788C116.772 160.968 116.952 161.388 117 161.592Z" fill="#ABABAB"/>
<rect x="285" y="73" width="250" height="46" rx="23" fill="#F3F3F3" stroke="#96DB5F" stroke-width="2"/>
<path d="M518.447 87.0361H495.701C495.213 87.0361 494.817 87.492 494.817 88.0543C494.817 88.6167 495.213 89.0725 495.701 89.0725H518.447C518.935 89.0725 519.331 88.6167 519.331 88.0543C519.331 87.492 518.935 87.0361 518.447 87.0361Z" fill="#96DB5F"/>
<path d="M518.447 94.6729H495.701C495.213 94.6729 494.817 95.1667 494.817 95.7759C494.817 96.3851 495.213 96.8789 495.701 96.8789H518.447C518.935 96.8789 519.331 96.3851 519.331 95.7759C519.331 95.1667 518.935 94.6729 518.447 94.6729Z" fill="#96DB5F"/>
<path d="M518.447 102.479H495.701C495.213 102.479 494.817 102.934 494.817 103.497C494.817 104.059 495.213 104.515 495.701 104.515H518.447C518.935 104.515 519.331 104.059 519.331 103.497C519.331 102.934 518.935 102.479 518.447 102.479Z" fill="#96DB5F"/>
<path d="M502.857 98.8647C504.508 98.8647 505.847 97.4819 505.847 95.7761C505.847 94.0703 504.508 92.6875 502.857 92.6875C501.206 92.6875 499.867 94.0703 499.867 95.7761C499.867 97.4819 501.206 98.8647 502.857 98.8647Z" fill="#96DB5F"/>
<path d="M511.627 91.1772C513.278 91.1772 514.616 89.7944 514.616 88.0886C514.616 86.3828 513.278 85 511.627 85C509.975 85 508.637 86.3828 508.637 88.0886C508.637 89.7944 509.975 91.1772 511.627 91.1772Z" fill="#96DB5F"/>
<path d="M511.627 106.551C513.278 106.551 514.616 105.168 514.616 103.463C514.616 101.757 513.278 100.374 511.627 100.374C509.975 100.374 508.637 101.757 508.637 103.463C508.637 105.168 509.975 106.551 511.627 106.551Z" fill="#96DB5F"/>
<path d="M308.669 89.944V96.772H309.521V89.944H308.669ZM305.681 96.388V97.156H311.645V96.388H305.681ZM310.049 92.764V93.52H312.053V92.764H310.049ZM306.245 92.764V93.52H308.165V92.764H306.245ZM305.813 94.708V95.476H308.237V94.708H305.813ZM305.813 91.108V95.236H306.629V91.372L305.813 91.108ZM307.721 90.268C307.241 90.532 306.389 90.916 305.813 91.108L306.233 91.636C306.821 91.48 307.625 91.216 308.285 90.916L307.721 90.268ZM311.417 96.388V96.52C310.445 98.656 307.793 99.784 304.997 100.18C305.153 100.384 305.345 100.744 305.417 100.972C308.381 100.456 311.165 99.22 312.329 96.616L311.753 96.352L311.597 96.388H311.417ZM307.289 97L306.521 97.288C307.733 99.196 309.977 100.468 312.665 100.96C312.797 100.732 313.037 100.36 313.241 100.168C310.601 99.772 308.357 98.644 307.289 97ZM309.965 90.808V91.576H311.681V94.72H309.965V95.488H312.473V90.808H309.965ZM302.105 96.292L302.357 97.156C303.281 96.808 304.457 96.364 305.561 95.932L305.405 95.116C304.193 95.572 302.945 96.028 302.105 96.292ZM302.225 92.344V93.184H305.441V92.344H302.225ZM303.569 89.944V99.82C303.569 99.976 303.521 100.012 303.377 100.024C303.233 100.024 302.801 100.024 302.309 100.012C302.429 100.252 302.537 100.624 302.561 100.864C303.281 100.864 303.725 100.84 304.013 100.684C304.289 100.54 304.409 100.288 304.409 99.82V89.944H303.569ZM316.841 90.52V91.168H323.513V93.304H316.781V93.94H324.401V90.52H316.841ZM321.701 95.2H324.461V96.376H321.701V95.2ZM320.849 94.564V97.012H325.337V94.564H320.849ZM315.281 91.912V92.548H323.957V91.912H315.281ZM323.933 91.864V92.584H325.997V91.864H323.933ZM315.629 94.564V95.236H320.021V94.564H315.629ZM315.161 97.744V98.5H326.057V97.744H315.161ZM322.685 96.904V100.012C322.685 100.192 322.637 100.228 322.421 100.252C322.229 100.252 321.497 100.264 320.705 100.228C320.825 100.456 320.957 100.756 321.005 100.972C322.037 100.972 322.673 100.972 323.069 100.852C323.453 100.732 323.573 100.516 323.573 100.036V96.904H322.685ZM317.381 94.816V96.58H318.221V94.816H317.381ZM315.389 96.52L315.461 97.252C316.733 97.156 318.533 97.012 320.261 96.868V96.196C318.461 96.328 316.613 96.46 315.389 96.52ZM317.153 98.956C317.861 99.364 318.665 99.988 319.037 100.444L319.685 99.868C319.289 99.412 318.449 98.812 317.765 98.428L317.153 98.956ZM334.121 94.084V94.912H338.525V94.084H334.121ZM331.541 99.52V100.324H337.529V99.52H331.541ZM333.689 92.656V97.06H334.613V92.656H333.689ZM331.061 96.544V100.816H331.937V97.372H337.025V100.792H337.937V96.544H331.061ZM329.453 91.396V92.248H338.897V91.396H329.453ZM329.069 91.396V94.528C329.069 96.28 328.973 98.728 327.929 100.456C328.145 100.552 328.553 100.816 328.721 100.972C329.813 99.136 329.981 96.4 329.981 94.54V91.396H329.069ZM333.149 90.172C333.497 90.688 333.821 91.396 333.941 91.864L334.877 91.612C334.745 91.144 334.397 90.46 334.037 89.956L333.149 90.172ZM341.525 91V93.472H342.413V91.828H350.681V93.472H351.593V91H341.525ZM343.037 92.98V93.772H349.997V92.98H343.037ZM345.245 94.6C347.285 96.424 347.165 99.316 346.409 99.88C346.193 100.096 345.965 100.132 345.653 100.132C345.401 100.132 344.993 100.108 344.549 100.072C344.705 100.312 344.789 100.672 344.801 100.924C345.173 100.936 345.557 100.948 345.821 100.936C346.361 100.936 346.685 100.852 347.057 100.516C348.149 99.712 348.233 96.22 345.917 94.216L345.245 94.6ZM346.481 93.208C345.389 94.252 343.325 95.056 341.489 95.512C341.645 95.68 341.885 96.052 341.981 96.232C343.853 95.668 345.989 94.744 347.225 93.532L346.481 93.208ZM346.121 95.452C345.089 96.244 343.001 97.144 341.453 97.528C341.621 97.72 341.813 98.02 341.921 98.236C343.481 97.732 345.569 96.76 346.709 95.884L346.121 95.452ZM346.793 96.892C345.617 98.008 343.205 99.16 341.261 99.628C341.429 99.832 341.621 100.156 341.729 100.384C343.697 99.796 346.121 98.56 347.429 97.36L346.793 96.892ZM348.869 96.112L348.077 96.304C348.689 98.188 349.877 99.724 351.521 100.456C351.641 100.228 351.917 99.892 352.109 99.724C350.573 99.124 349.409 97.732 348.869 96.112ZM350.009 94.228C349.181 95.008 347.777 96.028 346.733 96.628L347.321 97.144C348.365 96.568 349.733 95.632 350.741 94.816L350.009 94.228ZM345.605 90.112C345.869 90.556 346.133 91.156 346.241 91.54L347.213 91.228C347.105 90.844 346.793 90.268 346.529 89.848L345.605 90.112ZM353.621 102.148H354.413L358.001 90.472H357.221L353.621 102.148ZM366.097 89.932C365.629 91.036 364.789 92.056 363.877 92.728C364.057 92.884 364.345 93.22 364.465 93.388C365.437 92.62 366.361 91.42 366.913 90.148L366.097 89.932ZM366.025 91.012L365.581 91.732H370.465V91.012H366.025ZM365.845 91.552L365.269 91.984C365.965 93.412 367.573 94.984 370.129 95.632C370.249 95.416 370.477 95.08 370.645 94.9C368.101 94.372 366.493 92.932 365.845 91.552ZM362.821 91.54V98.92H363.601V91.54H362.821ZM361.933 89.944C361.405 91.792 360.517 93.64 359.533 94.852C359.689 95.068 359.929 95.56 360.013 95.764C361.129 94.36 362.125 92.248 362.773 90.184L361.933 89.944ZM360.973 93.076V100.96H361.837V92.26L361.813 92.236L360.973 93.076ZM364.213 96.412V97.216H370.357V96.412H364.213ZM365.269 97.708C364.885 98.512 364.285 99.328 363.601 99.892C363.805 99.988 364.165 100.204 364.309 100.336C364.957 99.736 365.629 98.824 366.061 97.924L365.269 97.708ZM368.353 98.02C368.941 98.656 369.601 99.568 369.889 100.168L370.597 99.772C370.297 99.184 369.637 98.32 369.025 97.684L368.353 98.02ZM366.805 95.188V100.936H367.657V95.188H366.805ZM369.001 91.288C368.137 93.148 366.193 94.312 363.877 94.912C364.045 95.092 364.309 95.464 364.393 95.656C366.781 94.9 368.833 93.64 369.853 91.504L369.001 91.288ZM379.357 90.076V100.96H380.257V90.076H379.357ZM377.281 90.532C377.005 92.092 376.501 93.64 375.805 94.648C376.033 94.744 376.405 94.96 376.585 95.092C377.269 94.024 377.821 92.38 378.145 90.7L377.281 90.532ZM377.401 92.38L377.173 93.268H383.005V92.38H377.401ZM375.901 95.908V96.796H383.533V95.908H375.901ZM375.313 89.968C374.677 91.792 373.609 93.592 372.481 94.756C372.649 94.972 372.913 95.44 372.997 95.644C374.245 94.288 375.409 92.26 376.165 90.232L375.313 89.968ZM374.101 93.064V100.948H374.965V92.224L374.953 92.212L374.101 93.064ZM390.565 93.16V93.928H396.505V93.16H390.565ZM386.701 99.508V100.24H389.761V99.508H386.701ZM386.713 93.616V94.348H389.173V95.68H386.713V96.412H390.025V93.616H386.713ZM386.701 97.336V98.08H389.389V100.708H390.241V97.336H386.701ZM386.197 93.616V100.924H387.049V93.616H386.197ZM387.721 92.536C387.565 92.932 387.277 93.532 387.049 93.928L387.829 94.12C388.069 93.76 388.357 93.244 388.633 92.716L387.721 92.536ZM390.889 94.972V99.832H391.705V95.752H395.521V94.972H390.889ZM395.245 94.972V98.86C395.245 98.968 395.221 99.016 395.101 99.016C394.969 99.016 394.633 99.016 394.189 99.004C394.297 99.244 394.393 99.556 394.417 99.796C395.041 99.796 395.473 99.796 395.749 99.652C396.037 99.508 396.109 99.28 396.109 98.86V94.972H395.245ZM393.061 93.424V100.948H393.913V93.424H393.061ZM387.145 90.784V91.504H391.093V90.784H387.145ZM392.185 90.796V91.504H396.577V90.796H392.185ZM387.421 89.836C387.013 90.88 386.317 91.9 385.549 92.596C385.741 92.74 386.053 93.04 386.197 93.196C386.965 92.428 387.745 91.24 388.225 90.052L387.421 89.836ZM392.485 89.824C392.185 90.748 391.633 91.624 390.961 92.2C391.165 92.32 391.513 92.596 391.657 92.74C392.329 92.092 392.965 91.084 393.325 90.028L392.485 89.824ZM388.117 91.9C388.465 92.212 388.933 92.668 389.149 92.944L389.737 92.428C389.509 92.152 389.041 91.732 388.669 91.444L388.117 91.9ZM393.505 91.912C393.841 92.248 394.273 92.716 394.477 93.028L395.077 92.488C394.873 92.212 394.441 91.768 394.093 91.468L393.505 91.912ZM402.049 95.044V95.74H409.021V95.044H402.049ZM401.545 96.856V97.552H409.405V96.856H401.545ZM403.717 94.18V97.24H404.557V94.18H403.717ZM406.429 94.18V97.24H407.269V94.18H406.429ZM406.117 98.056C406.993 98.476 407.893 99.04 408.409 99.496L409.201 99.076C408.625 98.632 407.617 98.068 406.717 97.648L406.117 98.056ZM404.113 97.66C403.549 98.152 402.625 98.644 401.785 98.968C401.989 99.1 402.313 99.376 402.481 99.52C403.297 99.148 404.281 98.536 404.917 97.936L404.113 97.66ZM402.313 90.4V91.012H404.389V91.816H402.313V92.44H405.169V90.4H402.313ZM406.141 90.412V91.024H408.265V91.828H406.141V92.452H409.057V90.412H406.141ZM405.793 90.412V92.848C405.793 93.664 405.997 93.964 406.825 93.964C407.017 93.964 408.241 93.964 408.517 93.964C408.841 93.964 409.165 93.94 409.345 93.904C409.309 93.724 409.285 93.448 409.273 93.256C409.069 93.292 408.709 93.304 408.481 93.304C408.241 93.304 407.101 93.304 406.861 93.304C406.585 93.304 406.537 93.196 406.537 92.86V90.412H405.793ZM401.977 94.264C402.181 94.156 402.541 94.084 405.205 93.604C405.205 93.448 405.241 93.148 405.277 92.956L402.325 93.424L401.953 93.676L401.977 94.264ZM401.977 94.264C401.977 94 402.697 93.592 402.697 93.592V90.4H401.965V92.86C401.965 93.316 401.797 93.472 401.653 93.544C401.761 93.724 401.929 94.072 401.977 94.264ZM398.833 90.4C399.361 90.988 400.033 91.828 400.345 92.32L401.053 91.828C400.717 91.348 400.045 90.58 399.493 89.992L398.833 90.4ZM398.593 92.704V93.46H400.777V92.704H398.593ZM400.657 98.2L400.057 98.476C400.969 100.468 402.553 100.792 405.385 100.792C406.717 100.792 408.241 100.756 409.381 100.696C409.429 100.444 409.537 100.024 409.681 99.82C408.445 99.928 406.669 99.988 405.397 99.988C402.985 99.988 401.401 99.772 400.657 98.2ZM400.645 95.692V95.848C400.345 98.008 399.541 99.544 398.377 100.372C398.557 100.504 398.857 100.804 398.977 100.996C400.201 100.06 401.101 98.356 401.473 95.836L401.017 95.668L400.861 95.692H400.645ZM398.785 96.592C398.881 96.508 399.193 96.424 399.469 96.424H400.885V95.692H399.217L398.785 95.908V96.592ZM398.785 96.592C398.785 96.352 399.457 96.028 399.457 96.028C400.033 95.272 400.957 93.688 401.425 92.872L400.825 92.644L400.573 92.752V92.788C400.249 93.412 399.301 95.092 398.989 95.428C398.809 95.668 398.629 95.74 398.461 95.788C398.557 95.968 398.737 96.388 398.785 96.592Z" fill="#ABABAB"/>
<rect x="1" y="72" width="251" height="46" rx="23" fill="#F3F3F3" stroke="#96DB5F" stroke-width="2"/>
<path d="M235.377 86.0361H212.541C212.051 86.0361 211.653 86.492 211.653 87.0543C211.653 87.6167 212.051 88.0725 212.541 88.0725H235.377C235.867 88.0725 236.264 87.6167 236.264 87.0543C236.264 86.492 235.867 86.0361 235.377 86.0361Z" fill="#BFBFBF"/>
<path d="M235.377 93.6729H212.541C212.051 93.6729 211.653 94.1667 211.653 94.7759C211.653 95.3851 212.051 95.8789 212.541 95.8789H235.377C235.867 95.8789 236.264 95.3851 236.264 94.7759C236.264 94.1667 235.867 93.6729 235.377 93.6729Z" fill="#BFBFBF"/>
<path d="M235.377 101.479H212.541C212.051 101.479 211.653 101.934 211.653 102.497C211.653 103.059 212.051 103.515 212.541 103.515H235.377C235.867 103.515 236.264 103.059 236.264 102.497C236.264 101.934 235.867 101.479 235.377 101.479Z" fill="#BFBFBF"/>
<path d="M219.724 97.8647C221.382 97.8647 222.726 96.4819 222.726 94.7761C222.726 93.0703 221.382 91.6875 219.724 91.6875C218.067 91.6875 216.723 93.0703 216.723 94.7761C216.723 96.4819 218.067 97.8647 219.724 97.8647Z" fill="#BFBFBF"/>
<path d="M228.53 90.1772C230.188 90.1772 231.532 88.7944 231.532 87.0886C231.532 85.3828 230.188 84 228.53 84C226.872 84 225.528 85.3828 225.528 87.0886C225.528 88.7944 226.872 90.1772 228.53 90.1772Z" fill="#BFBFBF"/>
<path d="M228.53 105.551C230.188 105.551 231.532 104.168 231.532 102.463C231.532 100.757 230.188 99.374 228.53 99.374C226.872 99.374 225.528 100.757 225.528 102.463C225.528 104.168 226.872 105.551 228.53 105.551Z" fill="#BFBFBF"/>
<path d="M25.7241 89.944V96.772H26.5761V89.944H25.7241ZM22.7361 96.388V97.156H28.7001V96.388H22.7361ZM27.1041 92.764V93.52H29.1081V92.764H27.1041ZM23.3001 92.764V93.52H25.2201V92.764H23.3001ZM22.8681 94.708V95.476H25.2921V94.708H22.8681ZM22.8681 91.108V95.236H23.6841V91.372L22.8681 91.108ZM24.7761 90.268C24.2961 90.532 23.4441 90.916 22.8681 91.108L23.2881 91.636C23.8761 91.48 24.6801 91.216 25.3401 90.916L24.7761 90.268ZM28.4721 96.388V96.52C27.5001 98.656 24.8481 99.784 22.0521 100.18C22.2081 100.384 22.4001 100.744 22.4721 100.972C25.4361 100.456 28.2201 99.22 29.3841 96.616L28.8081 96.352L28.6521 96.388H28.4721ZM24.3441 97L23.5761 97.288C24.7881 99.196 27.0321 100.468 29.7201 100.96C29.8521 100.732 30.0921 100.36 30.2961 100.168C27.6561 99.772 25.4121 98.644 24.3441 97ZM27.0201 90.808V91.576H28.7361V94.72H27.0201V95.488H29.5281V90.808H27.0201ZM19.1601 96.292L19.4121 97.156C20.3361 96.808 21.5121 96.364 22.6161 95.932L22.4601 95.116C21.2481 95.572 20.0001 96.028 19.1601 96.292ZM19.2801 92.344V93.184H22.4961V92.344H19.2801ZM20.6241 89.944V99.82C20.6241 99.976 20.5761 100.012 20.4321 100.024C20.2881 100.024 19.8561 100.024 19.3641 100.012C19.4841 100.252 19.5921 100.624 19.6161 100.864C20.3361 100.864 20.7801 100.84 21.0681 100.684C21.3441 100.54 21.4641 100.288 21.4641 99.82V89.944H20.6241ZM33.8961 90.52V91.168H40.5681V93.304H33.8361V93.94H41.4561V90.52H33.8961ZM38.7561 95.2H41.5161V96.376H38.7561V95.2ZM37.9041 94.564V97.012H42.3921V94.564H37.9041ZM32.3361 91.912V92.548H41.0121V91.912H32.3361ZM40.9881 91.864V92.584H43.0521V91.864H40.9881ZM32.6841 94.564V95.236H37.0761V94.564H32.6841ZM32.2161 97.744V98.5H43.1121V97.744H32.2161ZM39.7401 96.904V100.012C39.7401 100.192 39.6921 100.228 39.4761 100.252C39.2841 100.252 38.5521 100.264 37.7601 100.228C37.8801 100.456 38.0121 100.756 38.0601 100.972C39.0921 100.972 39.7281 100.972 40.1241 100.852C40.5081 100.732 40.6281 100.516 40.6281 100.036V96.904H39.7401ZM34.4361 94.816V96.58H35.2761V94.816H34.4361ZM32.4441 96.52L32.5161 97.252C33.7881 97.156 35.5881 97.012 37.3161 96.868V96.196C35.5161 96.328 33.6681 96.46 32.4441 96.52ZM34.2081 98.956C34.9161 99.364 35.7201 99.988 36.0921 100.444L36.7401 99.868C36.3441 99.412 35.5041 98.812 34.8201 98.428L34.2081 98.956ZM51.1761 94.084V94.912H55.5801V94.084H51.1761ZM48.5961 99.52V100.324H54.5841V99.52H48.5961ZM50.7441 92.656V97.06H51.6681V92.656H50.7441ZM48.1161 96.544V100.816H48.9921V97.372H54.0801V100.792H54.9921V96.544H48.1161ZM46.5081 91.396V92.248H55.9521V91.396H46.5081ZM46.1241 91.396V94.528C46.1241 96.28 46.0281 98.728 44.9841 100.456C45.2001 100.552 45.6081 100.816 45.7761 100.972C46.8681 99.136 47.0361 96.4 47.0361 94.54V91.396H46.1241ZM50.2041 90.172C50.5521 90.688 50.8761 91.396 50.9961 91.864L51.9321 91.612C51.8001 91.144 51.4521 90.46 51.0921 89.956L50.2041 90.172ZM58.5801 91V93.472H59.4681V91.828H67.7361V93.472H68.6481V91H58.5801ZM60.0921 92.98V93.772H67.0521V92.98H60.0921ZM62.3001 94.6C64.3401 96.424 64.2201 99.316 63.4641 99.88C63.2481 100.096 63.0201 100.132 62.7081 100.132C62.4561 100.132 62.0481 100.108 61.6041 100.072C61.7601 100.312 61.8441 100.672 61.8561 100.924C62.2281 100.936 62.6121 100.948 62.8761 100.936C63.4161 100.936 63.7401 100.852 64.1121 100.516C65.2041 99.712 65.2881 96.22 62.9721 94.216L62.3001 94.6ZM63.5361 93.208C62.4441 94.252 60.3801 95.056 58.5441 95.512C58.7001 95.68 58.9401 96.052 59.0361 96.232C60.9081 95.668 63.0441 94.744 64.2801 93.532L63.5361 93.208ZM63.1761 95.452C62.1441 96.244 60.0561 97.144 58.5081 97.528C58.6761 97.72 58.8681 98.02 58.9761 98.236C60.5361 97.732 62.6241 96.76 63.7641 95.884L63.1761 95.452ZM63.8481 96.892C62.6721 98.008 60.2601 99.16 58.3161 99.628C58.4841 99.832 58.6761 100.156 58.7841 100.384C60.7521 99.796 63.1761 98.56 64.4841 97.36L63.8481 96.892ZM65.9241 96.112L65.1321 96.304C65.7441 98.188 66.9321 99.724 68.5761 100.456C68.6961 100.228 68.9721 99.892 69.1641 99.724C67.6281 99.124 66.4641 97.732 65.9241 96.112ZM67.0641 94.228C66.2361 95.008 64.8321 96.028 63.7881 96.628L64.3761 97.144C65.4201 96.568 66.7881 95.632 67.7961 94.816L67.0641 94.228ZM62.6601 90.112C62.9241 90.556 63.1881 91.156 63.2961 91.54L64.2681 91.228C64.1601 90.844 63.8481 90.268 63.5841 89.848L62.6601 90.112ZM70.6761 102.148H71.4681L75.0561 90.472H74.2761L70.6761 102.148ZM83.1513 89.932C82.6833 91.036 81.8433 92.056 80.9313 92.728C81.1113 92.884 81.3993 93.22 81.5193 93.388C82.4913 92.62 83.4153 91.42 83.9673 90.148L83.1513 89.932ZM83.0793 91.012L82.6353 91.732H87.5193V91.012H83.0793ZM82.8993 91.552L82.3233 91.984C83.0193 93.412 84.6273 94.984 87.1833 95.632C87.3033 95.416 87.5313 95.08 87.6993 94.9C85.1553 94.372 83.5473 92.932 82.8993 91.552ZM79.8753 91.54V98.92H80.6553V91.54H79.8753ZM78.9873 89.944C78.4593 91.792 77.5713 93.64 76.5873 94.852C76.7433 95.068 76.9833 95.56 77.0673 95.764C78.1833 94.36 79.1793 92.248 79.8273 90.184L78.9873 89.944ZM78.0273 93.076V100.96H78.8913V92.26L78.8673 92.236L78.0273 93.076ZM81.2673 96.412V97.216H87.4113V96.412H81.2673ZM82.3233 97.708C81.9393 98.512 81.3393 99.328 80.6553 99.892C80.8593 99.988 81.2193 100.204 81.3633 100.336C82.0113 99.736 82.6833 98.824 83.1153 97.924L82.3233 97.708ZM85.4073 98.02C85.9953 98.656 86.6553 99.568 86.9433 100.168L87.6513 99.772C87.3513 99.184 86.6913 98.32 86.0793 97.684L85.4073 98.02ZM83.8593 95.188V100.936H84.7113V95.188H83.8593ZM86.0553 91.288C85.1913 93.148 83.2473 94.312 80.9313 94.912C81.0993 95.092 81.3633 95.464 81.4473 95.656C83.8353 94.9 85.8873 93.64 86.9073 91.504L86.0553 91.288ZM96.4113 90.076V100.96H97.3113V90.076H96.4113ZM94.3353 90.532C94.0593 92.092 93.5553 93.64 92.8593 94.648C93.0873 94.744 93.4593 94.96 93.6393 95.092C94.3233 94.024 94.8753 92.38 95.1993 90.7L94.3353 90.532ZM94.4553 92.38L94.2273 93.268H100.059V92.38H94.4553ZM92.9553 95.908V96.796H100.587V95.908H92.9553ZM92.3673 89.968C91.7313 91.792 90.6633 93.592 89.5353 94.756C89.7033 94.972 89.9673 95.44 90.0513 95.644C91.2993 94.288 92.4633 92.26 93.2193 90.232L92.3673 89.968ZM91.1553 93.064V100.948H92.0193V92.224L92.0073 92.212L91.1553 93.064ZM107.619 93.16V93.928H113.559V93.16H107.619ZM103.755 99.508V100.24H106.815V99.508H103.755ZM103.767 93.616V94.348H106.227V95.68H103.767V96.412H107.079V93.616H103.767ZM103.755 97.336V98.08H106.443V100.708H107.295V97.336H103.755ZM103.251 93.616V100.924H104.103V93.616H103.251ZM104.775 92.536C104.619 92.932 104.331 93.532 104.103 93.928L104.883 94.12C105.123 93.76 105.411 93.244 105.687 92.716L104.775 92.536ZM107.943 94.972V99.832H108.759V95.752H112.575V94.972H107.943ZM112.299 94.972V98.86C112.299 98.968 112.275 99.016 112.155 99.016C112.023 99.016 111.687 99.016 111.243 99.004C111.351 99.244 111.447 99.556 111.471 99.796C112.095 99.796 112.527 99.796 112.803 99.652C113.091 99.508 113.163 99.28 113.163 98.86V94.972H112.299ZM110.115 93.424V100.948H110.967V93.424H110.115ZM104.199 90.784V91.504H108.147V90.784H104.199ZM109.239 90.796V91.504H113.631V90.796H109.239ZM104.475 89.836C104.067 90.88 103.371 91.9 102.603 92.596C102.795 92.74 103.107 93.04 103.251 93.196C104.019 92.428 104.799 91.24 105.279 90.052L104.475 89.836ZM109.539 89.824C109.239 90.748 108.687 91.624 108.015 92.2C108.219 92.32 108.567 92.596 108.711 92.74C109.383 92.092 110.019 91.084 110.379 90.028L109.539 89.824ZM105.171 91.9C105.519 92.212 105.987 92.668 106.203 92.944L106.791 92.428C106.563 92.152 106.095 91.732 105.723 91.444L105.171 91.9ZM110.559 91.912C110.895 92.248 111.327 92.716 111.531 93.028L112.131 92.488C111.927 92.212 111.495 91.768 111.147 91.468L110.559 91.912ZM119.103 95.044V95.74H126.075V95.044H119.103ZM118.599 96.856V97.552H126.459V96.856H118.599ZM120.771 94.18V97.24H121.611V94.18H120.771ZM123.483 94.18V97.24H124.323V94.18H123.483ZM123.171 98.056C124.047 98.476 124.947 99.04 125.463 99.496L126.255 99.076C125.679 98.632 124.671 98.068 123.771 97.648L123.171 98.056ZM121.167 97.66C120.603 98.152 119.679 98.644 118.839 98.968C119.043 99.1 119.367 99.376 119.535 99.52C120.351 99.148 121.335 98.536 121.971 97.936L121.167 97.66ZM119.367 90.4V91.012H121.443V91.816H119.367V92.44H122.223V90.4H119.367ZM123.195 90.412V91.024H125.319V91.828H123.195V92.452H126.111V90.412H123.195ZM122.847 90.412V92.848C122.847 93.664 123.051 93.964 123.879 93.964C124.071 93.964 125.295 93.964 125.571 93.964C125.895 93.964 126.219 93.94 126.399 93.904C126.363 93.724 126.339 93.448 126.327 93.256C126.123 93.292 125.763 93.304 125.535 93.304C125.295 93.304 124.155 93.304 123.915 93.304C123.639 93.304 123.591 93.196 123.591 92.86V90.412H122.847ZM119.031 94.264C119.235 94.156 119.595 94.084 122.259 93.604C122.259 93.448 122.295 93.148 122.331 92.956L119.379 93.424L119.007 93.676L119.031 94.264ZM119.031 94.264C119.031 94 119.751 93.592 119.751 93.592V90.4H119.019V92.86C119.019 93.316 118.851 93.472 118.707 93.544C118.815 93.724 118.983 94.072 119.031 94.264ZM115.887 90.4C116.415 90.988 117.087 91.828 117.399 92.32L118.107 91.828C117.771 91.348 117.099 90.58 116.547 89.992L115.887 90.4ZM115.647 92.704V93.46H117.831V92.704H115.647ZM117.711 98.2L117.111 98.476C118.023 100.468 119.607 100.792 122.439 100.792C123.771 100.792 125.295 100.756 126.435 100.696C126.483 100.444 126.591 100.024 126.735 99.82C125.499 99.928 123.723 99.988 122.451 99.988C120.039 99.988 118.455 99.772 117.711 98.2ZM117.699 95.692V95.848C117.399 98.008 116.595 99.544 115.431 100.372C115.611 100.504 115.911 100.804 116.031 100.996C117.255 100.06 118.155 98.356 118.527 95.836L118.071 95.668L117.915 95.692H117.699ZM115.839 96.592C115.935 96.508 116.247 96.424 116.523 96.424H117.939V95.692H116.271L115.839 95.908V96.592ZM115.839 96.592C115.839 96.352 116.511 96.028 116.511 96.028C117.087 95.272 118.011 93.688 118.479 92.872L117.879 92.644L117.627 92.752V92.788C117.303 93.412 116.355 95.092 116.043 95.428C115.863 95.668 115.683 95.74 115.515 95.788C115.611 95.968 115.791 96.388 115.839 96.592Z" fill="#ABABAB"/>
<rect x="284" y="1" width="251.359" height="46.161" rx="23.0805" fill="#F5F5F5" stroke="#FACA0F" stroke-width="2"/>
<path d="M516.693 15.46H494.936C494.469 15.46 494.091 15.8984 494.091 16.4391C494.091 16.9799 494.469 17.4183 494.936 17.4183H516.693C517.16 17.4183 517.538 16.9799 517.538 16.4391C517.538 15.8984 517.16 15.46 516.693 15.46Z" fill="#FACA0F"/>
<path d="M516.693 22.8047H494.936C494.469 22.8047 494.091 23.2796 494.091 23.8655C494.091 24.4513 494.469 24.9263 494.936 24.9263H516.693C517.16 24.9263 517.538 24.4513 517.538 23.8655C517.538 23.2796 517.16 22.8047 516.693 22.8047Z" fill="#FACA0F"/>
<path d="M516.693 30.3115H494.936C494.469 30.3115 494.091 30.7499 494.091 31.2907C494.091 31.8315 494.469 32.2699 494.936 32.2699H516.693C517.16 32.2699 517.538 31.8315 517.538 31.2907C517.538 30.7499 517.16 30.3115 516.693 30.3115Z" fill="#FACA0F"/>
<path d="M501.781 26.8351C503.36 26.8351 504.641 25.5053 504.641 23.8648C504.641 22.2244 503.36 20.8945 501.781 20.8945C500.201 20.8945 498.921 22.2244 498.921 23.8648C498.921 25.5053 500.201 26.8351 501.781 26.8351Z" fill="#FACA0F"/>
<path d="M510.169 19.4425C511.749 19.4425 513.029 18.1127 513.029 16.4722C513.029 14.8318 511.749 13.502 510.169 13.502C508.59 13.502 507.31 14.8318 507.31 16.4722C507.31 18.1127 508.59 19.4425 510.169 19.4425Z" fill="#FACA0F"/>
<path d="M510.169 34.2277C511.749 34.2277 513.029 32.8979 513.029 31.2574C513.029 29.617 511.749 28.2871 510.169 28.2871C508.59 28.2871 507.31 29.617 507.31 31.2574C507.31 32.8979 508.59 34.2277 510.169 34.2277Z" fill="#FACA0F"/>
<path d="M308.84 19.3698V26.1978H309.692V19.3698H308.84ZM305.852 25.8138V26.5818H311.816V25.8138H305.852ZM310.22 22.1898V22.9458H312.224V22.1898H310.22ZM306.416 22.1898V22.9458H308.336V22.1898H306.416ZM305.984 24.1338V24.9018H308.408V24.1338H305.984ZM305.984 20.5338V24.6618H306.8V20.7978L305.984 20.5338ZM307.892 19.6938C307.412 19.9578 306.56 20.3418 305.984 20.5338L306.404 21.0618C306.992 20.9058 307.796 20.6418 308.456 20.3418L307.892 19.6938ZM311.588 25.8138V25.9458C310.616 28.0818 307.964 29.2098 305.168 29.6058C305.324 29.8098 305.516 30.1698 305.588 30.3978C308.552 29.8818 311.336 28.6458 312.5 26.0418L311.924 25.7778L311.768 25.8138H311.588ZM307.46 26.4258L306.692 26.7138C307.904 28.6218 310.148 29.8938 312.836 30.3858C312.968 30.1578 313.208 29.7858 313.412 29.5938C310.772 29.1978 308.528 28.0698 307.46 26.4258ZM310.136 20.2338V21.0018H311.852V24.1458H310.136V24.9138H312.644V20.2338H310.136ZM302.276 25.7178L302.528 26.5818C303.452 26.2338 304.628 25.7898 305.732 25.3578L305.576 24.5418C304.364 24.9978 303.116 25.4538 302.276 25.7178ZM302.396 21.7698V22.6098H305.612V21.7698H302.396ZM303.74 19.3698V29.2458C303.74 29.4018 303.692 29.4378 303.548 29.4498C303.404 29.4498 302.972 29.4498 302.48 29.4378C302.6 29.6778 302.708 30.0498 302.732 30.2898C303.452 30.2898 303.896 30.2658 304.184 30.1098C304.46 29.9658 304.58 29.7138 304.58 29.2458V19.3698H303.74ZM317.012 19.9458V20.5938H323.684V22.7298H316.952V23.3658H324.572V19.9458H317.012ZM321.872 24.6258H324.632V25.8018H321.872V24.6258ZM321.02 23.9898V26.4378H325.508V23.9898H321.02ZM315.452 21.3378V21.9738H324.128V21.3378H315.452ZM324.104 21.2898V22.0098H326.168V21.2898H324.104ZM315.8 23.9898V24.6618H320.192V23.9898H315.8ZM315.332 27.1698V27.9258H326.228V27.1698H315.332ZM322.856 26.3298V29.4378C322.856 29.6178 322.808 29.6538 322.592 29.6778C322.4 29.6778 321.668 29.6898 320.876 29.6538C320.996 29.8818 321.128 30.1818 321.176 30.3978C322.208 30.3978 322.844 30.3978 323.24 30.2778C323.624 30.1578 323.744 29.9418 323.744 29.4618V26.3298H322.856ZM317.552 24.2418V26.0058H318.392V24.2418H317.552ZM315.56 25.9458L315.632 26.6778C316.904 26.5818 318.704 26.4378 320.432 26.2938V25.6218C318.632 25.7538 316.784 25.8858 315.56 25.9458ZM317.324 28.3818C318.032 28.7898 318.836 29.4138 319.208 29.8698L319.856 29.2938C319.46 28.8378 318.62 28.2378 317.936 27.8538L317.324 28.3818ZM334.292 23.5098V24.3378H338.696V23.5098H334.292ZM331.712 28.9458V29.7498H337.7V28.9458H331.712ZM333.86 22.0818V26.4858H334.784V22.0818H333.86ZM331.232 25.9698V30.2418H332.108V26.7978H337.196V30.2178H338.108V25.9698H331.232ZM329.624 20.8218V21.6738H339.068V20.8218H329.624ZM329.24 20.8218V23.9538C329.24 25.7058 329.144 28.1538 328.1 29.8818C328.316 29.9778 328.724 30.2418 328.892 30.3978C329.984 28.5618 330.152 25.8258 330.152 23.9658V20.8218H329.24ZM333.32 19.5978C333.668 20.1138 333.992 20.8218 334.112 21.2898L335.048 21.0378C334.916 20.5698 334.568 19.8858 334.208 19.3818L333.32 19.5978ZM341.696 20.4258V22.8978H342.584V21.2538H350.852V22.8978H351.764V20.4258H341.696ZM343.208 22.4058V23.1978H350.168V22.4058H343.208ZM345.416 24.0258C347.456 25.8498 347.336 28.7418 346.58 29.3058C346.364 29.5218 346.136 29.5578 345.824 29.5578C345.572 29.5578 345.164 29.5338 344.72 29.4978C344.876 29.7378 344.96 30.0978 344.972 30.3498C345.344 30.3618 345.728 30.3738 345.992 30.3618C346.532 30.3618 346.856 30.2778 347.228 29.9418C348.32 29.1378 348.404 25.6458 346.088 23.6418L345.416 24.0258ZM346.652 22.6338C345.56 23.6778 343.496 24.4818 341.66 24.9378C341.816 25.1058 342.056 25.4778 342.152 25.6578C344.024 25.0938 346.16 24.1698 347.396 22.9578L346.652 22.6338ZM346.292 24.8778C345.26 25.6698 343.172 26.5698 341.624 26.9538C341.792 27.1458 341.984 27.4458 342.092 27.6618C343.652 27.1578 345.74 26.1858 346.88 25.3098L346.292 24.8778ZM346.964 26.3178C345.788 27.4338 343.376 28.5858 341.432 29.0538C341.6 29.2578 341.792 29.5818 341.9 29.8098C343.868 29.2218 346.292 27.9858 347.6 26.7858L346.964 26.3178ZM349.04 25.5378L348.248 25.7298C348.86 27.6138 350.048 29.1498 351.692 29.8818C351.812 29.6538 352.088 29.3178 352.28 29.1498C350.744 28.5498 349.58 27.1578 349.04 25.5378ZM350.18 23.6538C349.352 24.4338 347.948 25.4538 346.904 26.0538L347.492 26.5698C348.536 25.9938 349.904 25.0578 350.912 24.2418L350.18 23.6538ZM345.776 19.5378C346.04 19.9818 346.304 20.5818 346.412 20.9658L347.384 20.6538C347.276 20.2698 346.964 19.6938 346.7 19.2738L345.776 19.5378ZM353.792 31.5738H354.584L358.172 19.8978H357.392L353.792 31.5738ZM366.268 19.3578C365.8 20.4618 364.96 21.4818 364.048 22.1538C364.228 22.3098 364.516 22.6458 364.636 22.8138C365.608 22.0458 366.532 20.8458 367.084 19.5738L366.268 19.3578ZM366.196 20.4378L365.752 21.1578H370.636V20.4378H366.196ZM366.016 20.9778L365.44 21.4098C366.136 22.8378 367.744 24.4098 370.3 25.0578C370.42 24.8418 370.648 24.5058 370.816 24.3258C368.272 23.7978 366.664 22.3578 366.016 20.9778ZM362.992 20.9658V28.3458H363.772V20.9658H362.992ZM362.104 19.3698C361.576 21.2178 360.688 23.0658 359.704 24.2778C359.86 24.4938 360.1 24.9858 360.184 25.1898C361.3 23.7858 362.296 21.6738 362.944 19.6098L362.104 19.3698ZM361.144 22.5018V30.3858H362.008V21.6858L361.984 21.6618L361.144 22.5018ZM364.384 25.8378V26.6418H370.528V25.8378H364.384ZM365.44 27.1338C365.056 27.9378 364.456 28.7538 363.772 29.3178C363.976 29.4138 364.336 29.6298 364.48 29.7618C365.128 29.1618 365.8 28.2498 366.232 27.3498L365.44 27.1338ZM368.524 27.4458C369.112 28.0818 369.772 28.9938 370.06 29.5938L370.768 29.1978C370.468 28.6098 369.808 27.7458 369.196 27.1098L368.524 27.4458ZM366.976 24.6138V30.3618H367.828V24.6138H366.976ZM369.172 20.7138C368.308 22.5738 366.364 23.7378 364.048 24.3378C364.216 24.5178 364.48 24.8898 364.564 25.0818C366.952 24.3258 369.004 23.0658 370.024 20.9298L369.172 20.7138ZM379.528 19.5018V30.3858H380.428V19.5018H379.528ZM377.452 19.9578C377.176 21.5178 376.672 23.0658 375.976 24.0738C376.204 24.1698 376.576 24.3858 376.756 24.5178C377.44 23.4498 377.992 21.8058 378.316 20.1258L377.452 19.9578ZM377.572 21.8058L377.344 22.6938H383.176V21.8058H377.572ZM376.072 25.3338V26.2218H383.704V25.3338H376.072ZM375.484 19.3938C374.848 21.2178 373.78 23.0178 372.652 24.1818C372.82 24.3978 373.084 24.8658 373.168 25.0698C374.416 23.7138 375.58 21.6858 376.336 19.6578L375.484 19.3938ZM374.272 22.4898V30.3738H375.136V21.6498L375.124 21.6378L374.272 22.4898ZM390.736 22.5858V23.3538H396.676V22.5858H390.736ZM386.872 28.9338V29.6658H389.932V28.9338H386.872ZM386.884 23.0418V23.7738H389.344V25.1058H386.884V25.8378H390.196V23.0418H386.884ZM386.872 26.7618V27.5058H389.56V30.1338H390.412V26.7618H386.872ZM386.368 23.0418V30.3498H387.22V23.0418H386.368ZM387.892 21.9618C387.736 22.3578 387.448 22.9578 387.22 23.3538L388 23.5458C388.24 23.1858 388.528 22.6698 388.804 22.1418L387.892 21.9618ZM391.06 24.3978V29.2578H391.876V25.1778H395.692V24.3978H391.06ZM395.416 24.3978V28.2858C395.416 28.3938 395.392 28.4418 395.272 28.4418C395.14 28.4418 394.804 28.4418 394.36 28.4298C394.468 28.6698 394.564 28.9818 394.588 29.2218C395.212 29.2218 395.644 29.2218 395.92 29.0778C396.208 28.9338 396.28 28.7058 396.28 28.2858V24.3978H395.416ZM393.232 22.8498V30.3738H394.084V22.8498H393.232ZM387.316 20.2098V20.9298H391.264V20.2098H387.316ZM392.356 20.2218V20.9298H396.748V20.2218H392.356ZM387.592 19.2618C387.184 20.3058 386.488 21.3258 385.72 22.0218C385.912 22.1658 386.224 22.4658 386.368 22.6218C387.136 21.8538 387.916 20.6658 388.396 19.4778L387.592 19.2618ZM392.656 19.2498C392.356 20.1738 391.804 21.0498 391.132 21.6258C391.336 21.7458 391.684 22.0218 391.828 22.1658C392.5 21.5178 393.136 20.5098 393.496 19.4538L392.656 19.2498ZM388.288 21.3258C388.636 21.6378 389.104 22.0938 389.32 22.3698L389.908 21.8538C389.68 21.5778 389.212 21.1578 388.84 20.8698L388.288 21.3258ZM393.676 21.3378C394.012 21.6738 394.444 22.1418 394.648 22.4538L395.248 21.9138C395.044 21.6378 394.612 21.1938 394.264 20.8938L393.676 21.3378ZM402.22 24.4698V25.1658H409.192V24.4698H402.22ZM401.716 26.2818V26.9778H409.576V26.2818H401.716ZM403.888 23.6058V26.6658H404.728V23.6058H403.888ZM406.6 23.6058V26.6658H407.44V23.6058H406.6ZM406.288 27.4818C407.164 27.9018 408.064 28.4658 408.58 28.9218L409.372 28.5018C408.796 28.0578 407.788 27.4938 406.888 27.0738L406.288 27.4818ZM404.284 27.0858C403.72 27.5778 402.796 28.0698 401.956 28.3938C402.16 28.5258 402.484 28.8018 402.652 28.9458C403.468 28.5738 404.452 27.9618 405.088 27.3618L404.284 27.0858ZM402.484 19.8258V20.4378H404.56V21.2418H402.484V21.8658H405.34V19.8258H402.484ZM406.312 19.8378V20.4498H408.436V21.2538H406.312V21.8778H409.228V19.8378H406.312ZM405.964 19.8378V22.2738C405.964 23.0898 406.168 23.3898 406.996 23.3898C407.188 23.3898 408.412 23.3898 408.688 23.3898C409.012 23.3898 409.336 23.3658 409.516 23.3298C409.48 23.1498 409.456 22.8738 409.444 22.6818C409.24 22.7178 408.88 22.7298 408.652 22.7298C408.412 22.7298 407.272 22.7298 407.032 22.7298C406.756 22.7298 406.708 22.6218 406.708 22.2858V19.8378H405.964ZM402.148 23.6898C402.352 23.5818 402.712 23.5098 405.376 23.0298C405.376 22.8738 405.412 22.5738 405.448 22.3818L402.496 22.8498L402.124 23.1018L402.148 23.6898ZM402.148 23.6898C402.148 23.4258 402.868 23.0178 402.868 23.0178V19.8258H402.136V22.2858C402.136 22.7418 401.968 22.8978 401.824 22.9698C401.932 23.1498 402.1 23.4978 402.148 23.6898ZM399.004 19.8258C399.532 20.4138 400.204 21.2538 400.516 21.7458L401.224 21.2538C400.888 20.7738 400.216 20.0058 399.664 19.4178L399.004 19.8258ZM398.764 22.1298V22.8858H400.948V22.1298H398.764ZM400.828 27.6258L400.228 27.9018C401.14 29.8938 402.724 30.2178 405.556 30.2178C406.888 30.2178 408.412 30.1818 409.552 30.1218C409.6 29.8698 409.708 29.4498 409.852 29.2458C408.616 29.3538 406.84 29.4138 405.568 29.4138C403.156 29.4138 401.572 29.1978 400.828 27.6258ZM400.816 25.1178V25.2738C400.516 27.4338 399.712 28.9698 398.548 29.7978C398.728 29.9298 399.028 30.2298 399.148 30.4218C400.372 29.4858 401.272 27.7818 401.644 25.2618L401.188 25.0938L401.032 25.1178H400.816ZM398.956 26.0178C399.052 25.9338 399.364 25.8498 399.64 25.8498H401.056V25.1178H399.388L398.956 25.3338V26.0178ZM398.956 26.0178C398.956 25.7778 399.628 25.4538 399.628 25.4538C400.204 24.6978 401.128 23.1138 401.596 22.2978L400.996 22.0698L400.744 22.1778V22.2138C400.42 22.8378 399.472 24.5178 399.16 24.8538C398.98 25.0938 398.8 25.1658 398.632 25.2138C398.728 25.3938 398.908 25.8138 398.956 26.0178Z" fill="#ABABAB"/>
<rect x="2" y="1" width="251.359" height="46.161" rx="23.0805" fill="#F5F5F5" stroke="#FACA0F" stroke-width="2"/>
<path d="M234.693 15.46H212.936C212.469 15.46 212.091 15.8984 212.091 16.4391C212.091 16.9799 212.469 17.4183 212.936 17.4183H234.693C235.16 17.4183 235.538 16.9799 235.538 16.4391C235.538 15.8984 235.16 15.46 234.693 15.46Z" fill="#BFBFBF"/>
<path d="M234.693 22.8047H212.936C212.469 22.8047 212.091 23.2796 212.091 23.8655C212.091 24.4513 212.469 24.9263 212.936 24.9263H234.693C235.16 24.9263 235.538 24.4513 235.538 23.8655C235.538 23.2796 235.16 22.8047 234.693 22.8047Z" fill="#BFBFBF"/>
<path d="M234.693 30.3115H212.936C212.469 30.3115 212.091 30.7499 212.091 31.2907C212.091 31.8315 212.469 32.2699 212.936 32.2699H234.693C235.16 32.2699 235.538 31.8315 235.538 31.2907C235.538 30.7499 235.16 30.3115 234.693 30.3115Z" fill="#BFBFBF"/>
<path d="M219.781 26.8351C221.36 26.8351 222.641 25.5053 222.641 23.8648C222.641 22.2244 221.36 20.8945 219.781 20.8945C218.201 20.8945 216.921 22.2244 216.921 23.8648C216.921 25.5053 218.201 26.8351 219.781 26.8351Z" fill="#BFBFBF"/>
<path d="M228.169 19.4425C229.749 19.4425 231.029 18.1127 231.029 16.4722C231.029 14.8318 229.749 13.502 228.169 13.502C226.59 13.502 225.31 14.8318 225.31 16.4722C225.31 18.1127 226.59 19.4425 228.169 19.4425Z" fill="#BFBFBF"/>
<path d="M228.169 34.2277C229.749 34.2277 231.029 32.8979 231.029 31.2574C231.029 29.617 229.749 28.2871 228.169 28.2871C226.59 28.2871 225.31 29.617 225.31 31.2574C225.31 32.8979 226.59 34.2277 228.169 34.2277Z" fill="#BFBFBF"/>
<path d="M26.8403 19.3698V26.1978H27.6923V19.3698H26.8403ZM23.8523 25.8138V26.5818H29.8163V25.8138H23.8523ZM28.2203 22.1898V22.9458H30.2243V22.1898H28.2203ZM24.4163 22.1898V22.9458H26.3363V22.1898H24.4163ZM23.9843 24.1338V24.9018H26.4083V24.1338H23.9843ZM23.9843 20.5338V24.6618H24.8003V20.7978L23.9843 20.5338ZM25.8923 19.6938C25.4123 19.9578 24.5603 20.3418 23.9843 20.5338L24.4043 21.0618C24.9923 20.9058 25.7963 20.6418 26.4563 20.3418L25.8923 19.6938ZM29.5883 25.8138V25.9458C28.6163 28.0818 25.9643 29.2098 23.1683 29.6058C23.3243 29.8098 23.5163 30.1698 23.5883 30.3978C26.5523 29.8818 29.3363 28.6458 30.5003 26.0418L29.9243 25.7778L29.7683 25.8138H29.5883ZM25.4603 26.4258L24.6923 26.7138C25.9043 28.6218 28.1483 29.8938 30.8363 30.3858C30.9683 30.1578 31.2083 29.7858 31.4123 29.5938C28.7723 29.1978 26.5283 28.0698 25.4603 26.4258ZM28.1363 20.2338V21.0018H29.8523V24.1458H28.1363V24.9138H30.6443V20.2338H28.1363ZM20.2763 25.7178L20.5283 26.5818C21.4523 26.2338 22.6283 25.7898 23.7323 25.3578L23.5763 24.5418C22.3643 24.9978 21.1163 25.4538 20.2763 25.7178ZM20.3963 21.7698V22.6098H23.6123V21.7698H20.3963ZM21.7403 19.3698V29.2458C21.7403 29.4018 21.6923 29.4378 21.5483 29.4498C21.4043 29.4498 20.9723 29.4498 20.4803 29.4378C20.6003 29.6778 20.7083 30.0498 20.7323 30.2898C21.4523 30.2898 21.8963 30.2658 22.1843 30.1098C22.4603 29.9658 22.5803 29.7138 22.5803 29.2458V19.3698H21.7403ZM35.0123 19.9458V20.5938H41.6843V22.7298H34.9523V23.3658H42.5723V19.9458H35.0123ZM39.8723 24.6258H42.6323V25.8018H39.8723V24.6258ZM39.0203 23.9898V26.4378H43.5083V23.9898H39.0203ZM33.4523 21.3378V21.9738H42.1283V21.3378H33.4523ZM42.1043 21.2898V22.0098H44.1683V21.2898H42.1043ZM33.8003 23.9898V24.6618H38.1923V23.9898H33.8003ZM33.3323 27.1698V27.9258H44.2283V27.1698H33.3323ZM40.8563 26.3298V29.4378C40.8563 29.6178 40.8083 29.6538 40.5923 29.6778C40.4003 29.6778 39.6683 29.6898 38.8763 29.6538C38.9963 29.8818 39.1283 30.1818 39.1763 30.3978C40.2083 30.3978 40.8443 30.3978 41.2403 30.2778C41.6243 30.1578 41.7443 29.9418 41.7443 29.4618V26.3298H40.8563ZM35.5523 24.2418V26.0058H36.3923V24.2418H35.5523ZM33.5603 25.9458L33.6323 26.6778C34.9043 26.5818 36.7043 26.4378 38.4323 26.2938V25.6218C36.6323 25.7538 34.7843 25.8858 33.5603 25.9458ZM35.3243 28.3818C36.0323 28.7898 36.8363 29.4138 37.2083 29.8698L37.8563 29.2938C37.4603 28.8378 36.6203 28.2378 35.9363 27.8538L35.3243 28.3818ZM52.2923 23.5098V24.3378H56.6963V23.5098H52.2923ZM49.7123 28.9458V29.7498H55.7003V28.9458H49.7123ZM51.8603 22.0818V26.4858H52.7843V22.0818H51.8603ZM49.2323 25.9698V30.2418H50.1083V26.7978H55.1963V30.2178H56.1083V25.9698H49.2323ZM47.6243 20.8218V21.6738H57.0683V20.8218H47.6243ZM47.2403 20.8218V23.9538C47.2403 25.7058 47.1443 28.1538 46.1003 29.8818C46.3163 29.9778 46.7243 30.2418 46.8923 30.3978C47.9843 28.5618 48.1523 25.8258 48.1523 23.9658V20.8218H47.2403ZM51.3203 19.5978C51.6683 20.1138 51.9923 20.8218 52.1123 21.2898L53.0483 21.0378C52.9163 20.5698 52.5683 19.8858 52.2083 19.3818L51.3203 19.5978ZM59.6963 20.4258V22.8978H60.5843V21.2538H68.8523V22.8978H69.7643V20.4258H59.6963ZM61.2083 22.4058V23.1978H68.1683V22.4058H61.2083ZM63.4163 24.0258C65.4563 25.8498 65.3363 28.7418 64.5803 29.3058C64.3643 29.5218 64.1363 29.5578 63.8243 29.5578C63.5723 29.5578 63.1643 29.5338 62.7203 29.4978C62.8763 29.7378 62.9603 30.0978 62.9723 30.3498C63.3443 30.3618 63.7283 30.3738 63.9923 30.3618C64.5323 30.3618 64.8563 30.2778 65.2283 29.9418C66.3203 29.1378 66.4043 25.6458 64.0883 23.6418L63.4163 24.0258ZM64.6523 22.6338C63.5603 23.6778 61.4963 24.4818 59.6603 24.9378C59.8163 25.1058 60.0563 25.4778 60.1523 25.6578C62.0243 25.0938 64.1603 24.1698 65.3963 22.9578L64.6523 22.6338ZM64.2923 24.8778C63.2603 25.6698 61.1723 26.5698 59.6243 26.9538C59.7923 27.1458 59.9843 27.4458 60.0923 27.6618C61.6523 27.1578 63.7403 26.1858 64.8803 25.3098L64.2923 24.8778ZM64.9643 26.3178C63.7883 27.4338 61.3763 28.5858 59.4323 29.0538C59.6003 29.2578 59.7923 29.5818 59.9003 29.8098C61.8683 29.2218 64.2923 27.9858 65.6003 26.7858L64.9643 26.3178ZM67.0403 25.5378L66.2483 25.7298C66.8603 27.6138 68.0483 29.1498 69.6923 29.8818C69.8123 29.6538 70.0883 29.3178 70.2803 29.1498C68.7443 28.5498 67.5803 27.1578 67.0403 25.5378ZM68.1803 23.6538C67.3523 24.4338 65.9483 25.4538 64.9043 26.0538L65.4923 26.5698C66.5363 25.9938 67.9043 25.0578 68.9123 24.2418L68.1803 23.6538ZM63.7763 19.5378C64.0403 19.9818 64.3043 20.5818 64.4123 20.9658L65.3843 20.6538C65.2763 20.2698 64.9643 19.6938 64.7003 19.2738L63.7763 19.5378ZM71.7923 31.5738H72.5843L76.1723 19.8978H75.3923L71.7923 31.5738ZM84.2675 19.3578C83.7995 20.4618 82.9595 21.4818 82.0475 22.1538C82.2275 22.3098 82.5155 22.6458 82.6355 22.8138C83.6075 22.0458 84.5315 20.8458 85.0835 19.5738L84.2675 19.3578ZM84.1955 20.4378L83.7515 21.1578H88.6355V20.4378H84.1955ZM84.0155 20.9778L83.4395 21.4098C84.1355 22.8378 85.7435 24.4098 88.2995 25.0578C88.4195 24.8418 88.6475 24.5058 88.8155 24.3258C86.2715 23.7978 84.6635 22.3578 84.0155 20.9778ZM80.9915 20.9658V28.3458H81.7715V20.9658H80.9915ZM80.1035 19.3698C79.5755 21.2178 78.6875 23.0658 77.7035 24.2778C77.8595 24.4938 78.0995 24.9858 78.1835 25.1898C79.2995 23.7858 80.2955 21.6738 80.9435 19.6098L80.1035 19.3698ZM79.1435 22.5018V30.3858H80.0075V21.6858L79.9835 21.6618L79.1435 22.5018ZM82.3835 25.8378V26.6418H88.5275V25.8378H82.3835ZM83.4395 27.1338C83.0555 27.9378 82.4555 28.7538 81.7715 29.3178C81.9755 29.4138 82.3355 29.6298 82.4795 29.7618C83.1275 29.1618 83.7995 28.2498 84.2315 27.3498L83.4395 27.1338ZM86.5235 27.4458C87.1115 28.0818 87.7715 28.9938 88.0595 29.5938L88.7675 29.1978C88.4675 28.6098 87.8075 27.7458 87.1955 27.1098L86.5235 27.4458ZM84.9755 24.6138V30.3618H85.8275V24.6138H84.9755ZM87.1715 20.7138C86.3075 22.5738 84.3635 23.7378 82.0475 24.3378C82.2155 24.5178 82.4795 24.8898 82.5635 25.0818C84.9515 24.3258 87.0035 23.0658 88.0235 20.9298L87.1715 20.7138ZM97.5275 19.5018V30.3858H98.4275V19.5018H97.5275ZM95.4515 19.9578C95.1755 21.5178 94.6715 23.0658 93.9755 24.0738C94.2035 24.1698 94.5755 24.3858 94.7555 24.5178C95.4395 23.4498 95.9915 21.8058 96.3155 20.1258L95.4515 19.9578ZM95.5715 21.8058L95.3435 22.6938H101.176V21.8058H95.5715ZM94.0715 25.3338V26.2218H101.704V25.3338H94.0715ZM93.4835 19.3938C92.8475 21.2178 91.7795 23.0178 90.6515 24.1818C90.8195 24.3978 91.0835 24.8658 91.1675 25.0698C92.4155 23.7138 93.5795 21.6858 94.3355 19.6578L93.4835 19.3938ZM92.2715 22.4898V30.3738H93.1355V21.6498L93.1235 21.6378L92.2715 22.4898ZM108.736 22.5858V23.3538H114.676V22.5858H108.736ZM104.872 28.9338V29.6658H107.932V28.9338H104.872ZM104.884 23.0418V23.7738H107.344V25.1058H104.884V25.8378H108.196V23.0418H104.884ZM104.872 26.7618V27.5058H107.56V30.1338H108.412V26.7618H104.872ZM104.368 23.0418V30.3498H105.22V23.0418H104.368ZM105.892 21.9618C105.736 22.3578 105.448 22.9578 105.22 23.3538L106 23.5458C106.24 23.1858 106.528 22.6698 106.804 22.1418L105.892 21.9618ZM109.06 24.3978V29.2578H109.876V25.1778H113.692V24.3978H109.06ZM113.416 24.3978V28.2858C113.416 28.3938 113.392 28.4418 113.272 28.4418C113.14 28.4418 112.804 28.4418 112.36 28.4298C112.468 28.6698 112.564 28.9818 112.588 29.2218C113.212 29.2218 113.644 29.2218 113.92 29.0778C114.208 28.9338 114.28 28.7058 114.28 28.2858V24.3978H113.416ZM111.232 22.8498V30.3738H112.084V22.8498H111.232ZM105.316 20.2098V20.9298H109.264V20.2098H105.316ZM110.356 20.2218V20.9298H114.748V20.2218H110.356ZM105.592 19.2618C105.184 20.3058 104.488 21.3258 103.72 22.0218C103.912 22.1658 104.224 22.4658 104.368 22.6218C105.136 21.8538 105.916 20.6658 106.396 19.4778L105.592 19.2618ZM110.656 19.2498C110.356 20.1738 109.804 21.0498 109.132 21.6258C109.336 21.7458 109.684 22.0218 109.828 22.1658C110.5 21.5178 111.136 20.5098 111.496 19.4538L110.656 19.2498ZM106.288 21.3258C106.636 21.6378 107.104 22.0938 107.32 22.3698L107.908 21.8538C107.68 21.5778 107.212 21.1578 106.84 20.8698L106.288 21.3258ZM111.676 21.3378C112.012 21.6738 112.444 22.1418 112.648 22.4538L113.248 21.9138C113.044 21.6378 112.612 21.1938 112.264 20.8938L111.676 21.3378ZM120.22 24.4698V25.1658H127.192V24.4698H120.22ZM119.716 26.2818V26.9778H127.576V26.2818H119.716ZM121.888 23.6058V26.6658H122.728V23.6058H121.888ZM124.6 23.6058V26.6658H125.44V23.6058H124.6ZM124.288 27.4818C125.164 27.9018 126.064 28.4658 126.58 28.9218L127.372 28.5018C126.796 28.0578 125.788 27.4938 124.888 27.0738L124.288 27.4818ZM122.284 27.0858C121.72 27.5778 120.796 28.0698 119.956 28.3938C120.16 28.5258 120.484 28.8018 120.652 28.9458C121.468 28.5738 122.452 27.9618 123.088 27.3618L122.284 27.0858ZM120.484 19.8258V20.4378H122.56V21.2418H120.484V21.8658H123.34V19.8258H120.484ZM124.312 19.8378V20.4498H126.436V21.2538H124.312V21.8778H127.228V19.8378H124.312ZM123.964 19.8378V22.2738C123.964 23.0898 124.168 23.3898 124.996 23.3898C125.188 23.3898 126.412 23.3898 126.688 23.3898C127.012 23.3898 127.336 23.3658 127.516 23.3298C127.48 23.1498 127.456 22.8738 127.444 22.6818C127.24 22.7178 126.88 22.7298 126.652 22.7298C126.412 22.7298 125.272 22.7298 125.032 22.7298C124.756 22.7298 124.708 22.6218 124.708 22.2858V19.8378H123.964ZM120.148 23.6898C120.352 23.5818 120.712 23.5098 123.376 23.0298C123.376 22.8738 123.412 22.5738 123.448 22.3818L120.496 22.8498L120.124 23.1018L120.148 23.6898ZM120.148 23.6898C120.148 23.4258 120.868 23.0178 120.868 23.0178V19.8258H120.136V22.2858C120.136 22.7418 119.968 22.8978 119.824 22.9698C119.932 23.1498 120.1 23.4978 120.148 23.6898ZM117.004 19.8258C117.532 20.4138 118.204 21.2538 118.516 21.7458L119.224 21.2538C118.888 20.7738 118.216 20.0058 117.664 19.4178L117.004 19.8258ZM116.764 22.1298V22.8858H118.948V22.1298H116.764ZM118.828 27.6258L118.228 27.9018C119.14 29.8938 120.724 30.2178 123.556 30.2178C124.888 30.2178 126.412 30.1818 127.552 30.1218C127.6 29.8698 127.708 29.4498 127.852 29.2458C126.616 29.3538 124.84 29.4138 123.568 29.4138C121.156 29.4138 119.572 29.1978 118.828 27.6258ZM118.816 25.1178V25.2738C118.516 27.4338 117.712 28.9698 116.548 29.7978C116.728 29.9298 117.028 30.2298 117.148 30.4218C118.372 29.4858 119.272 27.7818 119.644 25.2618L119.188 25.0938L119.032 25.1178H118.816ZM116.956 26.0178C117.052 25.9338 117.364 25.8498 117.64 25.8498H119.056V25.1178H117.388L116.956 25.3338V26.0178ZM116.956 26.0178C116.956 25.7778 117.628 25.4538 117.628 25.4538C118.204 24.6978 119.128 23.1138 119.596 22.2978L118.996 22.0698L118.744 22.1778V22.2138C118.42 22.8378 117.472 24.5178 117.16 24.8538C116.98 25.0938 116.8 25.1658 116.632 25.2138C116.728 25.3938 116.908 25.8138 116.956 26.0178Z" fill="#ABABAB"/>
</svg>
