<svg width="163" height="67" viewBox="0 0 163 67" fill="none" xmlns="http://www.w3.org/2000/svg">
<rect x="71" y="47" width="51" height="27" rx="13.5" transform="rotate(-180 71 47)" fill="#FACA0F"/>
<path d="M55.732 31.208V39.092H57.136V31.208H55.732ZM53.752 35.252H59.164V35.732H53.752V35.252ZM53.752 34.04H59.164V34.52H53.752V34.04ZM52.432 33.128V36.644H60.544V33.128H52.432ZM51.136 28.46V29.588H61.888V28.46H51.136ZM51.1 37.088V38.144H61.876V37.088H51.1ZM52.96 31.784V32.708H60.028V31.784H52.96ZM53.764 27.812V30.152H55.192V27.812H53.764ZM57.76 27.812V30.152H59.188V27.812H57.76ZM51.256 30.32V32.492H52.528V31.34H60.448V32.492H61.78V30.32H51.256Z" fill="white"/>
<path d="M33.744 35.696V39.056H35.172V35.696H33.744ZM33.3 31.808C32.844 32.336 32.076 33.044 31.44 33.476L32.412 34.016C33.048 33.632 33.864 33.008 34.596 32.42L33.3 31.808ZM35.832 32.456C34.728 33.416 32.928 34.628 31.512 35.36L32.424 36.008C33.852 35.312 35.688 34.196 37.092 33.152L35.832 32.456ZM30.144 33.752C31.056 34.244 32.208 34.988 32.748 35.492L33.756 34.616C33.156 34.1 31.956 33.404 31.08 32.96L30.144 33.752ZM36.348 34.484C37.332 35.12 38.52 36.08 39.06 36.728L40.14 35.924C39.54 35.252 38.316 34.352 37.356 33.752L36.348 34.484ZM35.928 37.16C36.84 37.64 38.052 38.372 38.628 38.852L39.756 38.036C39.12 37.544 37.872 36.86 36.984 36.428L35.928 37.16ZM29.208 35.252L29.28 36.392C31.656 36.356 35.316 36.272 38.736 36.176L38.796 35.108C35.364 35.18 31.596 35.24 29.208 35.252ZM31.692 36.464C31.044 37.04 29.952 37.604 28.932 37.952C29.244 38.18 29.76 38.66 30.012 38.936C31.008 38.48 32.232 37.736 33.012 36.968L31.692 36.464ZM33.744 27.8V32.096H35.184V27.8H33.744ZM29.82 28.46V29.492H39.312V28.46H29.82ZM30.444 29.96V30.98H38.688V29.96H30.444ZM29.172 31.448V32.54H39.852V31.448H29.172Z" fill="white"/>
<circle cx="33.5" cy="33.5" r="12.5" transform="rotate(-180 33.5 33.5)" fill="white"/>
<rect x="92" y="20" width="51" height="27" rx="13.5" fill="#96DB5F"/>
<path d="M127.732 31.208V39.092H129.136V31.208H127.732ZM125.752 35.252H131.164V35.732H125.752V35.252ZM125.752 34.04H131.164V34.52H125.752V34.04ZM124.432 33.128V36.644H132.544V33.128H124.432ZM123.136 28.46V29.588H133.888V28.46H123.136ZM123.1 37.088V38.144H133.876V37.088H123.1ZM124.96 31.784V32.708H132.028V31.784H124.96ZM125.764 27.812V30.152H127.192V27.812H125.764ZM129.76 27.812V30.152H131.188V27.812H129.76ZM123.256 30.32V32.492H124.528V31.34H132.448V32.492H133.78V30.32H123.256Z" fill="white"/>
<path d="M105.744 35.696V39.056H107.172V35.696H105.744ZM105.3 31.808C104.844 32.336 104.076 33.044 103.44 33.476L104.412 34.016C105.048 33.632 105.864 33.008 106.596 32.42L105.3 31.808ZM107.832 32.456C106.728 33.416 104.928 34.628 103.512 35.36L104.424 36.008C105.852 35.312 107.688 34.196 109.092 33.152L107.832 32.456ZM102.144 33.752C103.056 34.244 104.208 34.988 104.748 35.492L105.756 34.616C105.156 34.1 103.956 33.404 103.08 32.96L102.144 33.752ZM108.348 34.484C109.332 35.12 110.52 36.08 111.06 36.728L112.14 35.924C111.54 35.252 110.316 34.352 109.356 33.752L108.348 34.484ZM107.928 37.16C108.84 37.64 110.052 38.372 110.628 38.852L111.756 38.036C111.12 37.544 109.872 36.86 108.984 36.428L107.928 37.16ZM101.208 35.252L101.28 36.392C103.656 36.356 107.316 36.272 110.736 36.176L110.796 35.108C107.364 35.18 103.596 35.24 101.208 35.252ZM103.692 36.464C103.044 37.04 101.952 37.604 100.932 37.952C101.244 38.18 101.76 38.66 102.012 38.936C103.008 38.48 104.232 37.736 105.012 36.968L103.692 36.464ZM105.744 27.8V32.096H107.184V27.8H105.744ZM101.82 28.46V29.492H111.312V28.46H101.82ZM102.444 29.96V30.98H110.688V29.96H102.444ZM101.172 31.448V32.54H111.852V31.448H101.172Z" fill="white"/>
<circle cx="129.5" cy="33.5" r="12.5" fill="white"/>
<rect x="0.5" y="0.5" width="162" height="66" rx="4.5" stroke="#7B61FF" stroke-dasharray="10 5"/>
</svg>
