<svg width="50" height="52" viewBox="0 0 50 52" fill="none" xmlns="http://www.w3.org/2000/svg">
<path d="M24.7607 51.6663C21.4807 51.6663 18.9576 49.8602 17.9484 47.1509C17.6961 46.2478 17.9484 45.0436 18.9576 44.4416C19.7145 44.1406 20.7238 44.4416 21.2284 45.6457C21.4807 46.5488 22.9945 47.7529 25.013 47.7529C27.0314 47.7529 28.293 46.8498 28.7976 45.6457C29.0499 44.7426 30.0591 44.1406 31.0683 44.4416C31.8252 44.7426 32.3298 45.9467 32.0775 47.1509C30.5637 49.8602 28.0406 51.6663 24.7607 51.6663Z" fill="#FACA0F"/>
<path d="M47.5546 34.4178C47.5546 34.4178 42.4786 34.4178 42.4786 17.2089C42.4786 7.82222 34.7309 0 24.8459 0C16.2968 0 9.08346 5.99704 7.74765 14.08C7.48049 14.8622 7.48047 15.9052 7.48047 17.2089C7.48047 34.4178 2.40443 34.4178 2.40443 34.4178C1.06863 34.4178 0 35.4607 0 36.7644C0 38.0681 1.06863 39.1111 2.40443 39.1111H47.5546C48.8904 39.1111 49.9591 38.0681 49.9591 36.7644C50.2262 35.4607 49.1576 34.4178 47.5546 34.4178Z" fill="#FACA0F"/>
</svg>
