<svg width="50" height="58" viewBox="0 0 50 58" fill="none" xmlns="http://www.w3.org/2000/svg">
<path d="M33.8415 9.66862L36.8903 4.53216C38.1098 2.41715 36.5854 0 34.1463 0H15.8537C13.4146 0 11.8902 2.41715 13.1097 4.53216L16.1585 9.66862C6.70731 13.2943 0 22.3587 0 32.6316C0 46.2281 11.2805 57.4074 25 57.4074C38.7195 57.4074 50 46.2281 50 32.6316C50 22.0565 43.2927 12.9922 33.8415 9.66862ZM37.1951 15.7115C42.0732 19.0351 45.4268 24.4737 46.0366 30.8187H28.6585L37.1951 15.7115ZM32.622 3.92787L29.878 8.46004L27.7439 12.0858L25 16.9201L22.2561 12.0858L20.122 8.46004L17.378 3.92787H32.622ZM18.2927 12.9922L22.561 20.2437C23.1707 21.1501 24.0854 21.7544 25.3049 21.7544C26.5244 21.7544 27.439 21.1501 28.0488 20.2437L32.3171 12.9922C32.9268 13.2943 33.5366 13.5965 34.1463 13.5965L25.3049 28.7037L16.4634 13.5965C16.7683 13.5965 17.3781 13.2943 18.2927 12.9922ZM12.8049 15.7115L21.6463 30.8187H4.26828C4.57315 24.4737 7.92682 19.0351 12.8049 15.7115ZM3.9634 34.7466H21.3415L12.5 49.8538C7.92683 46.2281 4.57316 40.7895 3.9634 34.7466ZM25 53.4795C21.9512 53.4795 18.9024 52.8752 16.1585 51.6667L25 36.5595L33.8415 51.6667C31.0976 52.8752 28.0488 53.4795 25 53.4795ZM37.1951 49.5517L28.3537 34.4444H45.7317C45.4268 40.7895 42.0732 46.2281 37.1951 49.5517Z" fill="#FACA0F"/>
</svg>
