<svg width="270" height="284" viewBox="0 0 270 284" fill="none" xmlns="http://www.w3.org/2000/svg">
<path d="M135 284C209.558 284 270 223.888 270 149.738C270 75.5867 209.558 15.4756 135 15.4756C60.4416 15.4756 0 75.5867 0 149.738C0 223.888 60.4416 284 135 284Z" fill="#FACA0F"/>
<path d="M195.416 45.6677C159.27 24.9568 113.317 23.4494 74.584 45.6837L135 149.738L195.416 45.6677Z" fill="#F2F2F2"/>
<path d="M74.5846 45.668C38.4795 66.4427 14.1875 105.27 14.1875 149.738H135L74.5846 45.668Z" fill="#CCCCCC"/>
<path d="M14.168 149.738C14.2081 191.213 35.8695 231.558 74.5838 253.793L135 149.738H14.168Z" fill="white"/>
<path d="M74.584 253.809C110.729 274.519 156.683 276.027 195.416 253.793L135 149.738L74.584 253.809Z" fill="#F2F2F2"/>
<path d="M195.416 253.809C231.521 233.034 255.813 194.207 255.813 149.738H135L195.416 253.809Z" fill="#CCCCCC"/>
<path d="M255.832 149.738C255.792 108.263 234.13 67.9179 195.416 45.6836L135 149.738H255.832Z" fill="white"/>
<path d="M142.407 42.4959L159.671 12.7615C160.422 11.4681 160.817 10.0008 160.817 8.50722C160.817 7.01365 160.421 5.54641 159.67 4.25302C158.919 2.95963 157.839 1.88567 156.538 1.1391C155.238 0.392527 153.762 -0.000335258 152.261 2.1467e-07H117.738C116.236 -0.000335258 114.761 0.392527 113.46 1.1391C112.159 1.88567 111.079 2.95963 110.328 4.25302C109.577 5.54641 109.182 7.01365 109.182 8.50722C109.182 10.0008 109.577 11.4681 110.328 12.7615L127.592 42.4959C128.343 43.7889 129.422 44.8626 130.723 45.609C132.023 46.3555 133.498 46.7485 134.999 46.7485C136.501 46.7485 137.976 46.3555 139.276 45.609C140.576 44.8626 141.656 43.7889 142.407 42.4959Z" fill="#998675"/>
<path d="M119.616 71.3268C119.459 72.4037 119.148 73.4528 118.694 74.4428C118.926 74.581 119.196 74.7857 119.581 75.017C120.466 75.5488 121.672 75.6152 123.161 75.6152C124.893 75.6111 126.623 75.5046 128.342 75.2962C128.132 75.7948 127.986 76.3172 127.906 76.8515C126.853 76.9153 124.583 77.0057 123.081 77.0057C121.386 77.0057 120.308 76.8648 119.373 76.3277C118.838 76.0353 118.384 75.6126 118.114 75.6126C117.844 75.6126 117.371 76.482 117.044 77.2078L116.031 75.7641C116.309 75.4264 116.618 75.1149 116.954 74.8336C117.475 74.0769 117.845 73.2276 118.044 72.3318H116.491C116.774 71.5794 117.095 70.5585 117.389 69.5615H116.288V68.2082H119.253C118.985 69.1015 118.686 70.1225 118.392 71.0158H118.533L118.753 70.9785L119.616 71.3268ZM117.691 67.852C117.523 67.2644 117.191 66.3312 116.959 65.6293L118.346 65.2598C118.59 65.9484 118.924 66.831 119.116 67.4053L117.691 67.852ZM123.506 68.3677C123.387 68.7125 123.305 69.0691 123.262 69.4312C120.709 69.8273 120.287 69.9177 120.041 70.0453C119.937 69.6461 119.768 69.2663 119.541 68.9207C119.747 68.8197 119.966 68.6017 119.966 68.0912V65.6532H123.583V68.0779H121.145V68.6921L123.506 68.3677ZM127.959 73.5229H125.521C126.246 73.8743 126.945 74.2749 127.615 74.7219L126.254 75.3467C125.615 74.8316 124.922 74.386 124.187 74.0174L124.944 73.5202H122.436L123.426 73.8658C122.666 74.5054 121.814 75.0263 120.897 75.4105C120.543 75.0728 120.161 74.7651 119.755 74.4906C120.521 74.2735 121.252 73.9466 121.923 73.5202H119.629V72.4089H121.634V71.6326H120.081V70.5212H121.634V69.8459H123.019V70.5239H124.457V69.8459H125.882V70.5239H127.459V71.6352H125.882V72.4116H127.959V73.5229ZM121.145 66.5811V67.1554H122.313V66.5811H121.145ZM123.016 72.4116H124.455V71.6352H123.016V72.4116ZM125.455 69.6678C124.286 69.6678 124.016 69.2345 124.016 68.1364V65.6612H127.676V68.0859H125.211V68.163C125.211 68.506 125.262 68.6336 125.532 68.6336H126.853C127.146 68.6423 127.439 68.6173 127.727 68.5591C127.751 68.8782 127.791 69.2983 127.828 69.5801C127.521 69.6477 127.207 69.6772 126.893 69.6678H125.455ZM125.211 66.5918V67.166H126.393V66.5918H125.211Z" fill="black"/>
<path d="M133.987 73.2304C132.434 73.8153 130.766 74.4161 129.482 74.8761L128.852 73.4351C129.338 73.2942 129.956 73.1161 130.621 72.9034V67.9955H129.199V66.5917H133.589V67.9955H132.164V72.4248L133.744 71.9144L133.987 73.2304ZM135.682 74.6342L136.861 75.4637C135.848 76.1904 134.727 76.7547 133.538 77.1359C133.263 76.7627 132.954 76.4164 132.613 76.1017C133.674 75.7736 134.675 75.2781 135.577 74.6342H134.281V67.8944H136.297C136.361 67.602 136.412 67.2936 136.462 67.0144H133.757V65.7383H141.02V67.0144H138.184C138.08 67.3202 137.965 67.6126 137.863 67.8944H140.536V74.6342H135.682ZM135.682 69.822H139.045V69.0244H135.692L135.682 69.822ZM135.682 71.6591H139.045V70.8429H135.692L135.682 71.6591ZM135.682 73.5202H139.045V72.704H135.692L135.682 73.5202ZM138.673 74.6687C139.565 75.1329 140.419 75.6663 141.226 76.2639L140.031 77.1572C139.252 76.5302 138.423 75.9665 137.553 75.4716L138.673 74.6687Z" fill="black"/>
<path d="M153.748 70.2441V71.8925H141.951V70.2441H153.748Z" fill="black"/>
<path d="M55.0432 123.708C54.4497 123.556 53.4713 123.378 52.7441 123.226L53.1157 121.847C53.8375 121.982 54.7705 122.134 55.3666 122.256L55.0432 123.708ZM58.3954 118.954C58.6347 119.229 58.9037 119.477 59.1974 119.693C58.2671 122.086 58.1281 122.501 58.1281 122.774C57.7289 122.665 57.3145 122.621 56.9011 122.644C56.9144 122.415 56.8342 122.112 56.3905 121.865L54.2679 120.645L56.0777 117.529L58.1896 118.741L56.9706 120.842L57.5052 121.147L58.3954 118.954ZM59.029 123.785C59.8881 124.458 60.646 125.251 61.2799 126.138C61.5178 126.007 61.8145 125.872 62.2209 125.662C63.1191 125.159 63.7901 124.16 64.5333 122.878C65.394 121.382 66.1635 119.835 66.8376 118.247C67.1665 118.678 67.5492 119.066 67.9764 119.401C67.5059 120.339 66.4473 122.341 65.6961 123.633C64.8487 125.093 64.1884 125.952 63.2528 126.489C62.7341 126.797 62.1353 126.983 62.0017 127.214C61.868 127.446 62.384 128.278 62.8571 128.929L61.0954 129.081C60.94 128.672 60.8228 128.25 60.7452 127.821C60.348 126.993 59.7944 126.249 59.1145 125.63L58.3366 126.959C57.8234 126.34 57.0936 125.553 56.3744 124.8L55.8157 125.763L54.6395 125.087L56.1205 122.532C56.7701 123.2 57.5052 123.976 58.1361 124.678L58.2056 124.556L58.2832 124.348L59.029 123.785ZM55.658 120.094L56.1579 120.382L56.7434 119.377L56.2435 119.089L55.658 120.094ZM60.5046 117.925C59.9192 118.93 59.4086 118.946 58.4516 118.398L56.2969 117.159L58.1254 114.009L60.2346 115.221L59.0049 117.348L59.0718 117.385C59.3712 117.558 59.5075 117.577 59.6412 117.345L60.3041 116.208C60.4565 115.956 60.5802 115.689 60.6731 115.41C60.9644 115.545 61.3494 115.724 61.6141 115.83C61.5186 116.129 61.3876 116.415 61.2238 116.683L60.5046 117.925ZM57.7031 116.596L58.203 116.883L58.7938 115.865L58.2939 115.577L57.7031 116.596ZM65.1107 117.694L63.8917 119.794C64.5598 119.346 65.2583 118.944 65.9822 118.592L65.8458 120.079C65.079 120.371 64.3459 120.745 63.6591 121.192L63.603 120.291L62.3465 122.458L63.1485 121.78C63.3269 122.753 63.3539 123.747 63.2287 124.729C62.7582 124.87 62.2997 125.047 61.8573 125.26C62.0508 124.492 62.1319 123.699 62.0979 122.907L60.9538 124.875L59.9887 124.322L60.9885 122.596L60.3122 122.208L59.5343 123.537L58.5692 122.982L59.3444 121.652L58.7563 121.315L59.4487 120.121L60.0368 120.459L60.7559 119.22L60.1678 118.882L60.8789 117.656L61.467 117.994L62.269 116.633L63.2341 117.189L62.4321 118.55L63.1111 118.938L64.151 117.149L65.1107 117.694ZM61.6729 121.397L62.392 120.161L61.7156 119.77L60.9965 121.009L61.6729 121.397Z" fill="black"/>
<path d="M67.8723 112.358C67.605 113.988 67.2949 115.724 67.0516 117.058L65.4717 116.875C65.592 116.383 65.7391 115.763 65.9021 115.086L61.6249 112.637L60.9138 113.863L59.6895 113.161L61.8842 109.38L63.1086 110.082L62.3948 111.31L66.2523 113.525L66.5972 111.908L67.8723 112.358ZM69.9414 111.6L71.254 110.997C71.3805 112.233 71.311 113.482 71.0482 114.697C70.5862 114.743 70.1297 114.832 69.6848 114.963C69.9307 113.885 69.9993 112.774 69.888 111.674L69.241 112.791L63.3732 109.423L64.381 107.686C64.1565 107.484 63.9159 107.288 63.6967 107.102L62.344 109.436L61.2319 108.798L64.8649 102.542L65.9743 103.18L64.5575 105.621C64.7713 105.863 64.9692 106.11 65.1643 106.339L66.5009 104.028L72.3821 107.397L69.9414 111.6ZM65.7631 109.183L67.4446 106.288L66.7442 105.884L65.0574 108.795L65.7631 109.183ZM67.3671 110.101L69.0379 107.2L68.3268 106.793L66.6453 109.688L67.3671 110.101ZM68.9898 111.034L70.6712 108.138L69.9495 107.732L68.268 110.627L68.9898 111.034ZM71.4866 109.032C72.339 108.495 73.2329 108.027 74.1599 107.631L74.3336 109.117C73.3977 109.472 72.4928 109.903 71.6283 110.406L71.4866 109.032Z" fill="black"/>
<path d="M73.515 93.0186L74.8944 93.8162L69.1068 103.786L67.7274 102.989L70.4541 98.2907C69.5073 98.1299 68.5525 98.0198 67.5938 97.961L67.9226 96.3206C68.8234 96.3525 70.0612 96.3977 70.7803 96.5041L70.4942 98.2242L73.515 93.0186ZM72.9403 100.463C74.1489 102.234 75.149 104.138 75.921 106.136C75.3485 106.369 74.7905 106.635 74.2502 106.934C73.6542 105.05 72.7599 103.273 71.601 101.67L72.9403 100.463ZM74.0497 97.2538C75.9584 97.1289 78.6263 96.847 80.1661 96.8763L80.118 98.7214C78.6424 98.6097 75.9236 98.7719 73.9401 98.8703L74.0497 97.2538Z" fill="black"/>
<path d="M70.0401 197.996C70.6229 199.001 70.3797 199.45 69.4253 199.998L67.268 201.237L65.4395 198.086L67.5513 196.874L68.7837 199.001L68.8505 198.963C69.1499 198.791 69.2355 198.684 69.1018 198.45L68.4389 197.312C68.3002 197.056 68.1315 196.817 67.9363 196.6C68.2036 196.416 68.5485 196.174 68.7757 195.999C68.9841 196.231 69.1636 196.487 69.3103 196.762L70.0401 197.996ZM67.4818 199.742L67.9817 199.455L67.3936 198.44L66.8937 198.727L67.4818 199.742ZM69.8878 200.327C70.2467 200.257 70.597 200.149 70.933 200.006C72.5557 202.008 72.8444 202.329 73.0716 202.475C72.7763 202.764 72.5307 203.099 72.3445 203.467C72.152 203.342 71.8553 203.262 71.4089 203.518L69.2863 204.735L67.4792 201.619L69.5884 200.407L70.81 202.507L71.3447 202.199L69.8878 200.327ZM69.5135 203.252L70.0134 202.965L69.4306 201.957L68.9307 202.244L69.5135 203.252ZM72.3499 205.586C71.9221 206.022 71.2805 206.775 70.7833 207.325L69.7675 206.317C70.246 205.762 70.8368 205.036 71.2511 204.581L72.3499 205.586ZM72.152 193.909L73.371 196.01C73.3149 195.213 73.3149 194.413 73.371 193.617L74.5954 194.476C74.467 195.283 74.4258 196.102 74.4724 196.919L73.6704 196.515L74.9296 198.682L74.7344 197.658C75.671 197.992 76.5509 198.466 77.3435 199.064C77.2267 199.538 77.1498 200.021 77.1136 200.508C76.542 199.956 75.8927 199.489 75.1862 199.123L76.3277 201.09L75.36 201.646L74.3602 199.923L73.6811 200.311L74.4591 201.641L73.4913 202.196L72.7134 200.867L72.1253 201.205L71.4329 200.011L72.021 199.673L71.3019 198.434L70.7138 198.772L70.0027 197.546L70.5908 197.209L69.8022 195.847L70.7673 195.294L71.5693 196.653L72.2456 196.265L71.2057 194.473L72.152 193.909ZM74.4109 202.191C75.427 201.789 76.4955 201.533 77.5841 201.431C77.5841 201.165 77.6349 200.827 77.6429 200.367C77.6563 199.344 77.1083 198.267 76.3758 196.983C75.5027 195.494 74.5404 194.058 73.494 192.684C74.0337 192.616 74.5627 192.481 75.0686 192.282C75.6487 193.157 76.8623 195.068 77.6135 196.361C78.4609 197.82 78.878 198.82 78.878 199.894C78.878 200.492 78.7497 201.101 78.878 201.335C79.0063 201.569 80.0061 201.542 80.8001 201.455L80.0489 203.05C79.6153 202.979 79.1893 202.869 78.7764 202.72C77.8567 202.649 76.9318 202.754 76.0523 203.031L76.8302 204.36C76.0283 204.493 74.983 204.73 73.9699 204.972L74.5259 205.934L73.3497 206.61L71.866 204.057C72.7722 203.831 73.8175 203.587 74.7424 203.393L74.6703 203.273L74.5286 203.103L74.4109 202.191ZM73.6571 198.735L72.938 197.496L72.259 197.884L72.9781 199.123L73.6571 198.735Z" fill="black"/>
<path d="M69.2588 186.694L69.3898 185.263C70.5304 185.771 71.5833 186.455 72.5095 187.289C72.3235 187.713 72.1768 188.152 72.0711 188.602C71.2548 187.852 70.3224 187.237 69.3096 186.781L69.9592 187.898L64.0914 191.269L63.0836 189.533C62.7948 189.623 62.5035 189.732 62.2335 189.828L63.5861 192.162L62.4767 192.8L58.8438 186.545L59.9558 185.907L61.3727 188.347C61.6908 188.283 62.0035 188.236 62.3003 188.185L60.9636 185.875L66.8448 182.506L69.2588 186.694ZM65.0618 189.086L63.383 186.191L62.6826 186.593L64.3614 189.488L65.0618 189.086ZM68.8845 188.852C70.1704 189.895 71.5284 191.032 72.5683 191.907L71.6166 193.178C71.2504 192.827 70.7879 192.38 70.28 191.912L66.0028 194.364L66.7138 195.592L65.4922 196.294L63.2974 192.513L64.5218 191.811L65.2329 193.037L69.0904 190.822L67.8553 189.719L68.8845 188.852ZM66.6631 188.166L64.9816 185.271L64.2705 185.681L65.952 188.576L66.6631 188.166ZM68.2857 187.236L66.6042 184.341L65.8932 184.747L67.5746 187.643L68.2857 187.236ZM67.7912 184.085C67.7482 183.092 67.7849 182.098 67.9008 181.11L69.2829 181.703C69.1237 182.687 69.0468 183.682 69.053 184.678L67.7912 184.085Z" fill="black"/>
<path d="M60.6599 171.071L61.9698 170.318L67.6933 180.177L66.3834 180.929L64.8997 178.377C63.8919 178.706 62.7317 179.108 61.5314 179.544L62.6221 181.424L61.3229 182.171L60.1173 180.092C59.4249 180.357 58.7298 180.623 58.0722 180.91L59.7938 183.875L58.4812 184.627L53.541 176.12L54.8536 175.364L57.2275 179.456C57.8904 179.19 58.5908 178.924 59.2832 178.659L58.0963 176.614L57.9172 176.407L57.3825 175.311C58.7191 174.631 60.3712 173.876 61.895 173.206L60.6599 171.071ZM60.6973 178.108C61.9083 177.664 63.0605 177.252 64.0523 176.917L62.7157 174.607C61.6464 175.077 60.4701 175.617 59.5211 176.074L60.6973 178.108Z" fill="black"/>
<path d="M150.384 228.15C150.542 227.073 150.853 226.023 151.309 225.034C151.076 224.895 150.806 224.691 150.424 224.459C149.536 223.928 148.331 223.861 146.842 223.861C145.109 223.869 143.378 223.979 141.658 224.191C141.867 223.692 142.014 223.17 142.094 222.636C143.147 222.572 145.417 222.481 146.919 222.481C148.614 222.481 149.691 222.622 150.627 223.159C151.162 223.452 151.616 223.874 151.886 223.874C152.156 223.874 152.629 223.005 152.955 222.279L153.969 223.723C153.691 224.061 153.382 224.372 153.046 224.653C152.525 225.41 152.155 226.259 151.956 227.155H153.509C153.225 227.908 152.905 228.929 152.611 229.926H153.712V231.279H150.755C151.023 230.386 151.319 229.365 151.616 228.471H151.474L151.255 228.509L150.384 228.15ZM142.043 225.954H144.481C143.757 225.602 143.057 225.202 142.388 224.755L143.749 224.127C144.387 224.643 145.08 225.089 145.815 225.456L145.059 225.954H147.563L146.574 225.608C147.334 224.968 148.186 224.447 149.103 224.063C149.457 224.401 149.839 224.709 150.245 224.983C149.479 225.2 148.748 225.527 148.077 225.954H150.36V227.065H148.365V227.841H149.919V228.966H148.365V229.644H146.981V228.966H145.542V229.644H144.118V228.966H142.54V227.854H144.118V227.078H142.04L142.043 225.954ZM144.545 229.809C145.714 229.809 145.984 230.242 145.984 231.34V233.815H142.324V231.391H144.789V231.313C144.789 230.97 144.738 230.84 144.468 230.84H143.147C142.854 230.832 142.561 230.858 142.273 230.917C142.249 230.598 142.209 230.178 142.171 229.896C142.479 229.829 142.793 229.799 143.107 229.809H144.545ZM144.789 232.885V232.31H143.61V232.885H144.789ZM146.983 227.065H145.545V227.841H146.983V227.065ZM146.494 231.109C146.613 230.764 146.695 230.407 146.737 230.045C149.29 229.649 149.713 229.559 149.959 229.434C150.064 229.832 150.232 230.211 150.459 230.556C150.253 230.657 150.034 230.875 150.034 231.385V233.823H146.419V231.399H148.857V230.784L146.494 231.109ZM148.855 232.895V232.321H147.686V232.895H148.855ZM152.306 231.619C152.474 232.207 152.806 233.14 153.038 233.842L151.651 234.211C151.408 233.523 151.073 232.64 150.881 232.066L152.306 231.619Z" fill="black"/>
<path d="M131.317 224.805C130.425 224.341 129.571 223.807 128.764 223.21L129.969 222.316C130.749 222.943 131.577 223.507 132.447 224.002L131.317 224.805ZM134.319 224.842L133.14 224.013C134.153 223.286 135.274 222.722 136.463 222.34C136.737 222.714 137.047 223.06 137.388 223.375C136.327 223.703 135.326 224.198 134.423 224.842H135.72V231.582H133.704C133.64 231.874 133.589 232.183 133.538 232.462H136.243V233.738H128.98V232.462H131.817C131.921 232.156 132.036 231.864 132.137 231.582H129.464V224.842H134.319ZM134.319 225.953H130.945V226.77H134.308L134.319 225.953ZM134.319 227.815H130.945V228.631H134.308L134.319 227.815ZM134.319 229.652H130.945V230.449H134.308L134.319 229.652ZM136.024 226.243C137.577 225.658 139.246 225.057 140.529 224.598L141.157 226.052C140.67 226.193 140.053 226.371 139.387 226.584V231.486H140.812V232.89H136.412V231.486H137.837V227.051L136.257 227.562L136.024 226.243Z" fill="black"/>
<path d="M116.779 233.178V222.865H118.383V223.606H126.021V222.764H127.561V233.178H116.779ZM118.383 225.074V226.478C118.592 226.451 118.803 226.438 119.014 226.438H120.129C121.324 226.438 121.58 227.052 121.58 228.352V231.71H122.824C122.888 228.607 123.158 226.733 125.173 225.648C125.379 226.086 125.666 226.48 126.021 226.81V225.074H118.383ZM118.383 231.721H120.156V228.328C120.156 227.895 120.129 227.703 119.888 227.703H119.054C118.83 227.7 118.606 227.721 118.386 227.767L118.383 231.721ZM126.021 231.721V226.885C124.492 227.765 124.353 229.155 124.326 231.721H126.021Z" fill="black"/>
<path d="M210.971 175.692C210.112 175.018 209.354 174.225 208.72 173.339C208.482 173.469 208.185 173.605 207.779 173.815C206.881 174.317 206.21 175.317 205.467 176.598C204.606 178.095 203.836 179.641 203.162 181.23C202.833 180.798 202.451 180.411 202.023 180.076C202.497 179.137 203.553 177.135 204.304 175.843C205.151 174.383 205.811 173.525 206.747 172.988C207.266 172.679 207.865 172.493 207.998 172.262C208.132 172.031 207.616 171.198 207.143 170.547L208.904 170.396C209.06 170.804 209.177 171.226 209.255 171.656C209.652 172.484 210.207 173.228 210.888 173.846L211.663 172.517C212.177 173.137 212.906 173.924 213.625 174.676L214.184 173.714L215.363 174.389L213.879 176.944C213.23 176.276 212.495 175.5 211.864 174.798L211.794 174.921L211.719 175.128L210.971 175.692ZM204.889 181.78L206.108 179.68C205.44 180.128 204.742 180.529 204.018 180.881L204.154 179.398C204.92 179.103 205.653 178.729 206.341 178.281L206.397 179.182L207.653 177.016L206.851 177.694C206.673 176.721 206.646 175.726 206.771 174.745C207.242 174.604 207.7 174.426 208.143 174.213C207.949 174.982 207.868 175.775 207.902 176.566L209.046 174.599L210.011 175.152L209.011 176.877L209.688 177.266L210.466 175.936L211.431 176.492L210.655 177.821L211.244 178.159L210.551 179.353L209.963 179.015L209.244 180.254L209.832 180.591L209.121 181.82L208.533 181.479L207.731 182.841L206.766 182.285L207.568 180.924L206.889 180.536L205.849 182.325L204.889 181.78ZM208.327 178.079L207.608 179.318L208.284 179.706L209.003 178.467L208.327 178.079ZM209.495 181.551C210.081 180.546 210.594 180.53 211.548 181.078L213.706 182.317L211.874 185.467L209.765 184.255L210.998 182.128L210.931 182.091C210.629 181.918 210.492 181.9 210.359 182.131L209.696 183.269C209.543 183.52 209.419 183.788 209.327 184.066C209.035 183.928 208.65 183.75 208.386 183.644C208.481 183.344 208.613 183.058 208.779 182.79L209.495 181.551ZM211.604 180.522C211.365 180.248 211.096 180 210.802 179.783C211.733 177.39 211.872 176.976 211.872 176.702C212.271 176.811 212.685 176.855 213.099 176.832C213.085 177.061 213.166 177.364 213.609 177.611L215.732 178.831L213.922 181.947L211.81 180.735L213.029 178.635L212.495 178.329L211.604 180.522ZM212.297 182.878L211.797 182.591L211.206 183.609L211.706 183.896L212.297 182.878ZM214.342 179.382L213.842 179.095L213.256 180.1L213.756 180.387L214.342 179.382ZM214.957 175.771C215.55 175.92 216.529 176.098 217.256 176.25L216.884 177.63C216.162 177.494 215.229 177.343 214.633 177.22L214.957 175.771Z" fill="black"/>
<path d="M198.525 190.444C197.672 190.981 196.779 191.45 195.852 191.846L195.678 190.359C196.614 190.004 197.519 189.573 198.383 189.07L198.525 190.444ZM200.059 187.876L198.747 188.48C198.622 187.243 198.691 185.994 198.952 184.779C199.414 184.732 199.871 184.643 200.316 184.513C200.07 185.59 200.001 186.7 200.113 187.799L200.76 186.682L206.641 190.051L205.633 191.787C205.858 191.989 206.098 192.186 206.317 192.372L207.67 190.038L208.782 190.681L205.152 196.934L204.04 196.299L205.457 193.855C205.243 193.614 205.045 193.366 204.85 193.138L203.513 195.448L197.632 192.08L200.059 187.876ZM201.022 188.442L199.34 191.338L200.051 191.747L201.733 188.852L201.022 188.442ZM202.644 189.376L200.963 192.276L201.674 192.683L203.355 189.788L202.644 189.376ZM202.131 187.118C202.398 185.489 202.706 183.753 202.949 182.418L204.529 182.604C204.409 183.093 204.262 183.713 204.099 184.391L208.376 186.839L209.087 185.614L210.311 186.316L208.116 190.096L206.892 189.394L207.606 188.166L203.748 185.951L203.403 187.568L202.131 187.118ZM204.243 190.293L202.561 193.188L203.262 193.592L204.943 190.694L204.243 190.293Z" fill="black"/>
<path d="M191.039 203.034L189.684 202.255L195.252 192.662L196.607 193.438L191.039 203.034ZM195.637 203.714L194.3 202.94L198.214 196.198L199.551 196.972L195.637 203.714ZM198.676 206.633L197.34 205.868L202.202 197.49L203.539 198.256L198.676 206.633Z" fill="black"/>
<path d="M195.586 97.2829C194.57 97.6847 193.502 97.9407 192.413 98.0432C192.413 98.3091 192.362 98.6467 192.354 99.1067C192.354 100.13 192.889 101.207 193.622 102.488C194.494 103.979 195.456 105.415 196.503 106.79C195.964 106.858 195.435 106.993 194.929 107.192C194.349 106.317 193.135 104.405 192.384 103.113C191.536 101.654 191.119 100.654 191.119 99.5799C191.119 98.9791 191.248 98.3729 191.119 98.1389C190.991 97.905 189.991 97.9316 189.197 98.0193L189.948 96.4241C190.382 96.4945 190.808 96.6048 191.221 96.7538C192.141 96.8237 193.065 96.7181 193.945 96.4427L193.167 95.1134C193.969 94.9778 195.014 94.7438 196.03 94.5019L195.471 93.5395L196.648 92.8642L198.131 95.4165C197.225 95.6425 196.183 95.887 195.255 96.0785L195.327 96.2008L195.469 96.3709L195.586 97.2829ZM197.845 105.565L196.626 103.464C196.682 104.261 196.682 105.06 196.626 105.857L195.415 105.006C195.545 104.199 195.586 103.379 195.538 102.563L196.34 102.967L195.084 100.8L195.276 101.824C194.34 101.49 193.46 101.016 192.667 100.417C192.784 99.9434 192.861 99.4605 192.897 98.9738C193.47 99.5259 194.12 99.9925 194.827 100.359L193.683 98.3915L194.651 97.8359L195.651 99.5587L196.33 99.1705L195.552 97.8412L196.519 97.2855L197.297 98.6148L197.885 98.2772L198.578 99.4709L197.99 99.8086L198.709 101.047L199.297 100.707L200.008 101.935L199.42 102.273L200.208 103.632L199.243 104.187L198.441 102.829L197.773 103.212L198.813 105.004L197.845 105.565ZM196.343 100.752L197.059 101.991L197.738 101.601L197.019 100.364L196.343 100.752ZM200.11 99.1572C199.75 99.2261 199.4 99.334 199.064 99.4789C197.442 97.4769 197.153 97.1552 196.926 97.009C197.221 96.7202 197.467 96.3852 197.653 96.0173C197.845 96.1423 198.142 96.222 198.588 95.9668L200.711 94.7491L202.521 97.8651L200.409 99.0774L199.19 96.9771L198.655 97.2829L200.11 99.1572ZM197.647 93.8957C198.075 93.4597 198.717 92.7046 199.214 92.1543L200.23 93.1646C199.751 93.7176 199.161 94.4461 198.749 94.9007L197.647 93.8957ZM199.96 101.481C199.377 100.476 199.62 100.027 200.575 99.4789L202.732 98.24L204.561 101.39L202.449 102.603L201.216 100.476L201.149 100.516C200.85 100.689 200.765 100.782 200.901 101.029L201.561 102.167C201.7 102.423 201.869 102.662 202.064 102.879C201.796 103.06 201.452 103.305 201.227 103.478C201.012 103.248 200.828 102.993 200.679 102.717L199.96 101.481ZM200.495 96.2221L199.995 96.5092L200.577 97.5168L201.077 97.2297L200.495 96.2221ZM202.518 99.7341L202.008 100.021L202.596 101.037L203.098 100.75L202.518 99.7341Z" fill="black"/>
<path d="M201.118 110.611C199.83 109.566 198.472 108.43 197.432 107.553L198.383 106.285C198.75 106.636 199.212 107.082 199.72 107.548L203.997 105.099L203.286 103.871L204.508 103.169L206.703 106.95L205.478 107.651L204.772 106.426L200.918 108.64L202.15 109.744L201.118 110.611ZM200.741 112.783L200.61 114.213C199.47 113.705 198.417 113.021 197.49 112.187C197.678 111.764 197.824 111.324 197.929 110.874C198.745 111.624 199.678 112.239 200.69 112.695L200.041 111.578L205.922 108.207L206.93 109.943C207.218 109.853 207.51 109.744 207.78 109.648L206.427 107.314L207.539 106.676L211.17 112.932L210.057 113.57L208.641 111.129C208.323 111.193 208.01 111.241 207.713 111.291L209.05 113.602L203.168 116.97L200.741 112.783ZM202.209 115.388C202.252 116.382 202.215 117.378 202.099 118.366L200.72 117.773C200.877 116.789 200.953 115.794 200.947 114.798L202.209 115.388ZM201.714 112.238L203.396 115.133L204.107 114.726L202.425 111.831L201.714 112.238ZM203.337 111.307L205.018 114.202L205.729 113.793L204.048 110.898L203.337 111.307ZM204.941 110.387L206.622 113.282L207.323 112.881L205.641 109.986L204.941 110.387Z" fill="black"/>
<path d="M209.922 127.999L208.401 128.873L202.701 119.057L204.225 118.183L209.922 127.999ZM215.803 123.399L214.346 124.237L209.713 116.261L211.17 115.426L215.803 123.399Z" fill="black"/>
</svg>
