<svg width="243" height="33" viewBox="0 0 243 33" fill="none" xmlns="http://www.w3.org/2000/svg">
<path d="M117.477 29.6921C117.477 31.2335 116.2 32.5 114.597 32.5H3.97079C2.36754 32.5 1.08594 31.2326 1.08594 29.6921V3.31226C1.08594 1.77171 2.36849 0.5 3.97079 0.5H114.596C116.199 0.5 117.476 1.7707 117.476 3.31226L117.477 29.6921Z" stroke="white"/>
<path d="M26.42 16.3153C26.3945 13.5521 28.7406 12.2077 28.8479 12.1451C27.5192 10.2564 25.4598 9.99832 24.7361 9.97775C23.0065 9.80028 21.3287 10.9869 20.4476 10.9869C19.5489 10.9869 18.1921 9.99489 16.7298 10.024C14.848 10.0523 13.0875 11.1146 12.122 12.7641C10.1295 16.1275 11.6155 21.0702 13.5246 23.7888C14.4795 25.1203 15.5954 26.607 17.056 26.5547C18.4849 26.4972 19.0187 25.6664 20.743 25.6664C22.4516 25.6664 22.9528 26.5547 24.4424 26.5212C25.976 26.4972 26.9415 25.1838 27.863 23.8403C28.9666 22.3142 29.4098 20.8113 29.4274 20.7341C29.3913 20.7221 26.4491 19.6273 26.42 16.3153Z" fill="white"/>
<path d="M23.6062 8.18931C24.3747 7.25222 24.9005 5.97734 24.7546 4.68359C23.6422 4.73161 22.2511 5.43378 21.45 6.35029C20.7413 7.15791 20.1082 8.48167 20.2717 9.72654C21.5213 9.81742 22.8042 9.11182 23.6062 8.18931Z" fill="white"/>
<path d="M47.0971 26.3618H45.1001L44.0062 23.0104H40.204L39.162 26.3618H37.2178L40.9848 14.9521H43.3116L47.0971 26.3618ZM43.6765 21.6044L42.6872 18.625C42.5826 18.3207 42.3865 17.6039 42.0972 16.4757H42.062C41.9468 16.9609 41.7613 17.6777 41.5063 18.625L40.5346 21.6044H43.6765V21.6044Z" fill="white"/>
<path d="M56.7842 22.1491C56.7842 23.5483 56.3964 24.6543 55.6208 25.4662C54.9261 26.1889 54.0635 26.5499 53.0338 26.5499C51.9223 26.5499 51.1239 26.1606 50.6376 25.3822H50.6024V29.7161H48.7277V20.845C48.7277 19.9654 48.7039 19.0626 48.6582 18.1367H50.307L50.4116 19.4407H50.4468C51.072 18.4582 52.0208 17.9678 53.2941 17.9678C54.2895 17.9678 55.1204 18.351 55.7852 19.1183C56.4518 19.8865 56.7842 20.8965 56.7842 22.1491ZM54.8742 22.216C54.8742 21.4152 54.6896 20.755 54.3185 20.2355C53.9131 19.6936 53.3688 19.4227 52.6864 19.4227C52.2239 19.4227 51.8036 19.5736 51.4281 19.8711C51.0518 20.1712 50.8055 20.563 50.6903 21.0482C50.6323 21.2746 50.6033 21.4598 50.6033 21.6055V22.9773C50.6033 23.5757 50.7915 24.0807 51.1678 24.4931C51.5442 24.9055 52.0331 25.1112 52.6346 25.1112C53.3407 25.1112 53.8903 24.8455 54.2833 24.3156C54.6773 23.7849 54.8742 23.0853 54.8742 22.216Z" fill="white"/>
<path d="M66.4913 22.1491C66.4913 23.5483 66.1035 24.6543 65.327 25.4662C64.6332 26.1889 63.7706 26.5499 62.7409 26.5499C61.6294 26.5499 60.831 26.1606 60.3456 25.3822H60.3104V29.7161H58.4357V20.845C58.4357 19.9654 58.4119 19.0626 58.3662 18.1367H60.015L60.1196 19.4407H60.1548C60.7791 18.4582 61.7279 17.9678 63.0021 17.9678C63.9966 17.9678 64.8276 18.351 65.4941 19.1183C66.158 19.8865 66.4913 20.8965 66.4913 22.1491ZM64.5814 22.216C64.5814 21.4152 64.3958 20.755 64.0247 20.2355C63.6194 19.6936 63.0768 19.4227 62.3936 19.4227C61.9302 19.4227 61.5107 19.5736 61.1344 19.8711C60.758 20.1712 60.5127 20.563 60.3975 21.0482C60.3403 21.2746 60.3104 21.4598 60.3104 21.6055V22.9773C60.3104 23.5757 60.4986 24.0807 60.8732 24.4931C61.2496 24.9046 61.7385 25.1112 62.3417 25.1112C63.0478 25.1112 63.5974 24.8455 63.9905 24.3156C64.3844 23.7849 64.5814 23.0853 64.5814 22.216Z" fill="white"/>
<path d="M77.3399 23.1624C77.3399 24.1329 76.9943 24.9225 76.3005 25.5321C75.5381 26.1982 74.4768 26.5309 73.1129 26.5309C71.8537 26.5309 70.8442 26.2943 70.0801 25.8201L70.5145 24.2966C71.3375 24.7819 72.2406 25.0254 73.2246 25.0254C73.9307 25.0254 74.4803 24.8693 74.8751 24.559C75.2682 24.2486 75.4643 23.8319 75.4643 23.3124C75.4643 22.8494 75.3025 22.4593 74.978 22.143C74.6553 21.8266 74.1162 21.5325 73.3635 21.2607C71.3147 20.5157 70.2911 19.4243 70.2911 17.9891C70.2911 17.0511 70.6499 16.2821 71.3683 15.6837C72.0841 15.0844 73.039 14.7852 74.2332 14.7852C75.2981 14.7852 76.1827 14.9661 76.8888 15.327L76.4201 16.8171C75.7606 16.4673 75.0149 16.2924 74.1804 16.2924C73.5209 16.2924 73.0056 16.451 72.6363 16.7665C72.3241 17.0486 72.1676 17.3924 72.1676 17.7996C72.1676 18.2506 72.3461 18.6235 72.7049 18.9167C73.0171 19.1877 73.5842 19.4809 74.4073 19.7972C75.4141 20.1925 76.1537 20.6546 76.6294 21.1844C77.1033 21.7126 77.3399 22.3736 77.3399 23.1624Z" fill="white"/>
<path d="M83.5383 19.5076H81.4718V23.502C81.4718 24.518 81.8359 25.0256 82.5657 25.0256C82.9007 25.0256 83.1786 24.9973 83.3984 24.9407L83.4503 26.3287C83.081 26.4633 82.5947 26.5311 81.9924 26.5311C81.252 26.5311 80.6734 26.3107 80.2557 25.8709C79.8398 25.4302 79.6305 24.6912 79.6305 23.6529V19.5059H78.3994V18.1342H79.6305V16.6278L81.4718 16.0859V18.1342H83.5383V19.5076Z" fill="white"/>
<path d="M92.8616 22.1817C92.8616 23.4463 92.4905 24.4845 91.7501 25.2964C90.9736 26.1323 89.943 26.549 88.6583 26.549C87.4202 26.549 86.4345 26.1486 85.6994 25.3479C84.9642 24.5471 84.5967 23.5363 84.5967 22.318C84.5967 21.0431 84.9748 19.9988 85.7337 19.1869C86.4908 18.3742 87.5126 17.9678 88.7973 17.9678C90.0354 17.9678 91.0317 18.3682 91.7835 19.1698C92.5028 19.9474 92.8616 20.9514 92.8616 22.1817ZM90.9165 22.2408C90.9165 21.4821 90.7503 20.8313 90.4135 20.2886C90.0204 19.6319 89.4585 19.3044 88.7304 19.3044C87.9768 19.3044 87.4044 19.6328 87.0113 20.2886C86.6746 20.8322 86.5084 21.4932 86.5084 22.2751C86.5084 23.0339 86.6746 23.6846 87.0113 24.2264C87.4167 24.8832 87.983 25.2107 88.7137 25.2107C89.4295 25.2107 89.9914 24.8763 90.3968 24.2093C90.7424 23.6563 90.9165 22.9987 90.9165 22.2408Z" fill="white"/>
<path d="M98.9559 19.7442C98.7704 19.7108 98.5725 19.6936 98.365 19.6936C97.7055 19.6936 97.1955 19.9363 96.8367 20.4224C96.5246 20.8511 96.368 21.3929 96.368 22.0471V26.3638H94.4942L94.5118 20.7276C94.5118 19.7794 94.488 18.916 94.4414 18.1375H96.0743L96.1429 19.7116H96.1948C96.3927 19.1706 96.7048 18.7351 97.1322 18.4085C97.5499 18.1144 98.001 17.9678 98.4872 17.9678C98.6605 17.9678 98.817 17.9798 98.9559 18.0012V19.7442Z" fill="white"/>
<path d="M107.342 21.8598C107.342 22.1874 107.32 22.4634 107.273 22.6889H101.649C101.671 23.5017 101.943 24.1233 102.465 24.5519C102.939 24.9352 103.552 25.1272 104.305 25.1272C105.137 25.1272 105.897 24.9978 106.58 24.738L106.874 26.0069C106.076 26.3464 105.133 26.5153 104.045 26.5153C102.737 26.5153 101.71 26.1397 100.962 25.3896C100.216 24.6394 99.8428 23.632 99.8428 22.3683C99.8428 21.1277 100.19 20.0946 100.886 19.2706C101.614 18.391 102.598 17.9512 103.836 17.9512C105.052 17.9512 105.973 18.391 106.598 19.2706C107.093 19.9694 107.342 20.8336 107.342 21.8598ZM105.554 21.3857C105.566 20.8439 105.444 20.3758 105.19 19.9805C104.866 19.4721 104.367 19.2183 103.696 19.2183C103.083 19.2183 102.585 19.4661 102.204 19.9634C101.892 20.3586 101.706 20.8327 101.649 21.3849H105.554V21.3857Z" fill="white"/>
<path d="M43.0566 7.93642C43.0566 8.94552 42.7462 9.70514 42.1263 10.2153C41.5521 10.6859 40.736 10.9217 39.6791 10.9217C39.155 10.9217 38.7065 10.8994 38.3311 10.8548V5.34121C38.8208 5.26405 39.3484 5.22461 39.9183 5.22461C40.9251 5.22461 41.684 5.43809 42.1957 5.86505C42.7691 6.34774 43.0566 7.03791 43.0566 7.93642ZM42.0849 7.96128C42.0849 7.30712 41.9073 6.80557 41.5521 6.45577C41.1968 6.10683 40.678 5.93193 39.9948 5.93193C39.7046 5.93193 39.4575 5.95079 39.2526 5.99023V10.1818C39.366 10.199 39.5736 10.2067 39.8752 10.2067C40.5804 10.2067 41.1247 10.0155 41.5081 9.63312C41.8915 9.25074 42.0849 8.69346 42.0849 7.96128Z" fill="white"/>
<path d="M48.2093 8.8177C48.2093 9.43928 48.0273 9.94854 47.6632 10.3481C47.2816 10.7587 46.776 10.9637 46.1446 10.9637C45.5361 10.9637 45.0516 10.7673 44.6902 10.3729C44.3297 9.97941 44.1494 9.483 44.1494 8.88457C44.1494 8.2587 44.335 7.74515 44.7078 7.34648C45.0806 6.94781 45.5819 6.74805 46.2132 6.74805C46.8217 6.74805 47.3106 6.94438 47.6808 7.33791C48.0326 7.72028 48.2093 8.21412 48.2093 8.8177ZM47.2535 8.84685C47.2535 8.4739 47.1708 8.1541 47.0064 7.88747C46.8129 7.5651 46.5377 7.40392 46.1798 7.40392C45.8096 7.40392 45.5282 7.5651 45.3348 7.88747C45.1694 8.1541 45.0877 8.47904 45.0877 8.86314C45.0877 9.23608 45.1703 9.55588 45.3348 9.82251C45.5344 10.1449 45.8122 10.3061 46.171 10.3061C46.5227 10.3061 46.7989 10.1423 46.9976 9.81394C47.1682 9.54216 47.2535 9.21979 47.2535 8.84685Z" fill="white"/>
<path d="M55.1172 6.83008L53.8202 10.8716H52.976L52.4387 9.11664C52.3024 8.67853 52.1916 8.243 52.1055 7.81089H52.0888C52.0087 8.255 51.8979 8.68968 51.7555 9.11664L51.1848 10.8716H50.331L49.1113 6.83008H50.0584L50.5271 8.75141C50.6405 9.2058 50.7337 9.63877 50.8084 10.0486H50.8252C50.8937 9.71078 51.0072 9.28039 51.1672 8.75998L51.7555 6.83094H52.5064L53.0701 8.71883C53.2064 9.17923 53.3172 9.62248 53.4025 10.0494H53.428C53.4904 9.63362 53.5845 9.19037 53.7094 8.71883L54.2124 6.83094H55.1172V6.83008Z" fill="white"/>
<path d="M59.8932 10.8716H58.9716V8.5567C58.9716 7.84339 58.6938 7.48673 58.1363 7.48673C57.8628 7.48673 57.6421 7.58447 57.4706 7.7808C57.3009 7.97713 57.2147 8.20862 57.2147 8.47354V10.8707H56.2932V7.98485C56.2932 7.62991 56.2817 7.24495 56.2598 6.82828H57.0696L57.1127 7.46015H57.1382C57.2455 7.26382 57.4055 7.10178 57.6157 6.97232C57.8654 6.82142 58.1451 6.74512 58.4511 6.74512C58.838 6.74512 59.1598 6.86686 59.4157 7.11121C59.734 7.41042 59.8932 7.8571 59.8932 8.45039V10.8716V10.8716Z" fill="white"/>
<path d="M62.4373 10.8716H61.5166V4.97559H62.4373V10.8716Z" fill="white"/>
<path d="M67.8597 8.8177C67.8597 9.43928 67.6777 9.94854 67.3136 10.3481C66.932 10.7587 66.4255 10.9637 65.795 10.9637C65.1856 10.9637 64.7011 10.7673 64.3406 10.3729C63.9801 9.97941 63.7998 9.483 63.7998 8.88457C63.7998 8.2587 63.9853 7.74515 64.3582 7.34648C64.731 6.94781 65.2322 6.74805 65.8627 6.74805C66.4721 6.74805 66.9601 6.94438 67.3312 7.33791C67.683 7.72028 67.8597 8.21412 67.8597 8.8177ZM66.903 8.84685C66.903 8.4739 66.8203 8.1541 66.6559 7.88747C66.4633 7.5651 66.1872 7.40392 65.8302 7.40392C65.4591 7.40392 65.1777 7.5651 64.9851 7.88747C64.8198 8.1541 64.7381 8.47904 64.7381 8.86314C64.7381 9.23608 64.8207 9.55588 64.9851 9.82251C65.1848 10.1449 65.4626 10.3061 65.8214 10.3061C66.1731 10.3061 66.4484 10.1423 66.6471 9.81394C66.8186 9.54216 66.903 9.21979 66.903 8.84685Z" fill="white"/>
<path d="M72.321 10.8719H71.4935L71.425 10.4064H71.3995C71.1163 10.7776 70.7127 10.9637 70.1886 10.9637C69.7973 10.9637 69.4807 10.841 69.2424 10.5976C69.0261 10.3764 68.918 10.1012 68.918 9.7745C68.918 9.28067 69.129 8.90429 69.5537 8.64365C69.9776 8.38302 70.5738 8.25527 71.3414 8.26127V8.18583C71.3414 7.65341 71.0548 7.38763 70.4805 7.38763C70.0717 7.38763 69.7111 7.48794 69.3998 7.68685L69.2125 7.09699C69.5977 6.86465 70.0734 6.74805 70.6344 6.74805C71.7178 6.74805 72.2612 7.30533 72.2612 8.41988V9.90825C72.2612 10.3121 72.2814 10.6336 72.321 10.8719ZM71.3643 9.483V8.85971C70.3478 8.84256 69.8395 9.11434 69.8395 9.67419C69.8395 9.8851 69.8975 10.0429 70.0163 10.1483C70.135 10.2538 70.2862 10.3061 70.4665 10.3061C70.6687 10.3061 70.8578 10.2435 71.0301 10.1192C71.2034 9.99398 71.3098 9.83537 71.3493 9.64075C71.359 9.59703 71.3643 9.54387 71.3643 9.483Z" fill="white"/>
<path d="M77.5566 10.8716H76.7388L76.6957 10.2226H76.6702C76.4091 10.7164 75.9641 10.9633 75.3389 10.9633C74.8395 10.9633 74.4235 10.7721 74.0938 10.3898C73.764 10.0074 73.5996 9.51098 73.5996 8.90141C73.5996 8.24724 73.7781 7.7174 74.1369 7.31273C74.4842 6.93549 74.9098 6.74688 75.4163 6.74688C75.9729 6.74688 76.3625 6.92949 76.5841 7.29558H76.6017V4.97559H77.5241V9.78276C77.5241 10.1763 77.5346 10.5389 77.5566 10.8716ZM76.6017 9.16718V8.49331C76.6017 8.37671 76.5929 8.2824 76.5762 8.21038C76.5243 7.99433 76.4126 7.81257 76.2429 7.66596C76.0714 7.51935 75.8648 7.44562 75.6265 7.44562C75.2827 7.44562 75.0136 7.57851 74.8157 7.84515C74.6196 8.11178 74.5203 8.45215 74.5203 8.86797C74.5203 9.26749 74.6144 9.59157 74.8034 9.84106C75.003 10.1068 75.2721 10.2397 75.6089 10.2397C75.9114 10.2397 76.1532 10.1291 76.337 9.90708C76.5146 9.70217 76.6017 9.45525 76.6017 9.16718Z" fill="white"/>
<path d="M85.4408 8.8177C85.4408 9.43928 85.2587 9.94854 84.8947 10.3481C84.5131 10.7587 84.0083 10.9637 83.3761 10.9637C82.7685 10.9637 82.2839 10.7673 81.9217 10.3729C81.5611 9.97941 81.3809 9.483 81.3809 8.88457C81.3809 8.2587 81.5664 7.74515 81.9392 7.34648C82.3121 6.94781 82.8133 6.74805 83.4455 6.74805C84.0532 6.74805 84.543 6.94438 84.9123 7.33791C85.264 7.72028 85.4408 8.21412 85.4408 8.8177ZM84.4858 8.84685C84.4858 8.4739 84.4031 8.1541 84.2387 7.88747C84.0444 7.5651 83.77 7.40392 83.4112 7.40392C83.0419 7.40392 82.7605 7.5651 82.5662 7.88747C82.4009 8.1541 82.3191 8.47904 82.3191 8.86314C82.3191 9.23608 82.4018 9.55588 82.5662 9.82251C82.7658 10.1449 83.0437 10.3061 83.4025 10.3061C83.7542 10.3061 84.0312 10.1423 84.2299 9.81394C84.3996 9.54216 84.4858 9.21979 84.4858 8.84685Z" fill="white"/>
<path d="M90.3952 10.8716H89.4746V8.5567C89.4746 7.84339 89.1967 7.48673 88.6383 7.48673C88.3648 7.48673 88.1441 7.58447 87.9735 7.7808C87.8029 7.97713 87.7177 8.20862 87.7177 8.47354V10.8707H86.7952V7.98485C86.7952 7.62991 86.7847 7.24495 86.7627 6.82828H87.5717L87.6148 7.46015H87.6403C87.7484 7.26382 87.9085 7.10178 88.1178 6.97232C88.3684 6.82142 88.6471 6.74512 88.954 6.74512C89.34 6.74512 89.6619 6.86686 89.9177 7.11121C90.2369 7.41042 90.3952 7.8571 90.3952 8.45039V10.8716V10.8716Z" fill="white"/>
<path d="M96.5968 7.50377H95.5821V9.46711C95.5821 9.96609 95.7623 10.2156 96.1194 10.2156C96.2847 10.2156 96.4218 10.2019 96.53 10.1736L96.5537 10.8552C96.3717 10.922 96.1325 10.9555 95.838 10.9555C95.4739 10.9555 95.1908 10.8474 94.9859 10.6314C94.7801 10.4153 94.6781 10.0518 94.6781 9.5417V7.50377H94.0723V6.83075H94.6781V6.09L95.5812 5.82422V6.82989H96.596V7.50377H96.5968Z" fill="white"/>
<path d="M101.475 10.8716H100.553V8.5739C100.553 7.84943 100.275 7.48677 99.7181 7.48677C99.2907 7.48677 98.9988 7.69682 98.8388 8.11693C98.8115 8.20524 98.7957 8.31326 98.7957 8.44015V10.8707H97.875V4.97559H98.7957V7.41133H98.8133C99.1034 6.96807 99.5194 6.74688 100.058 6.74688C100.44 6.74688 100.756 6.86862 101.006 7.11297C101.318 7.41733 101.475 7.87001 101.475 8.46844V10.8716V10.8716Z" fill="white"/>
<path d="M106.507 8.65887C106.507 8.82005 106.494 8.95551 106.472 9.06611H103.709C103.721 9.46564 103.853 9.77 104.109 9.98091C104.343 10.1695 104.644 10.2638 105.013 10.2638C105.422 10.2638 105.795 10.2004 106.131 10.0726L106.275 10.6968C105.882 10.8631 105.42 10.9463 104.884 10.9463C104.242 10.9463 103.737 10.762 103.371 10.3933C103.003 10.0246 102.821 9.52994 102.821 8.90922C102.821 8.29964 102.991 7.79209 103.333 7.38742C103.69 6.95531 104.173 6.73926 104.782 6.73926C105.378 6.73926 105.831 6.95531 106.137 7.38742C106.384 7.73036 106.507 8.15475 106.507 8.65887ZM105.627 8.42653C105.634 8.15989 105.574 7.93012 105.449 7.73636C105.289 7.48687 105.045 7.3617 104.715 7.3617C104.415 7.3617 104.169 7.48344 103.982 7.72779C103.829 7.9224 103.738 8.15475 103.709 8.42653H105.627Z" fill="white"/>
<path d="M132.225 32.3808H237.849C239.833 32.3808 241.447 30.7936 241.447 28.875V4.12501C241.447 2.20639 239.833 0.619213 237.849 0.619213H132.225C130.241 0.619213 128.626 2.20639 128.626 4.12501V28.875C128.626 30.7936 130.241 32.3808 132.225 32.3808Z" stroke="white"/>
<path d="M168.068 8.45055C168.068 9.13943 167.857 9.69115 167.441 10.1026C166.962 10.5904 166.339 10.8358 165.576 10.8358C164.846 10.8358 164.222 10.5863 163.711 10.0944C163.199 9.59524 162.943 8.98268 162.943 8.24946C162.943 7.51624 163.199 6.90368 163.711 6.40868C164.222 5.91265 164.846 5.66309 165.576 5.66309C165.939 5.66309 166.285 5.7363 166.616 5.87243C166.945 6.00959 167.214 6.19521 167.408 6.42415L166.967 6.85934C166.628 6.46849 166.166 6.27565 165.576 6.27565C165.043 6.27565 164.582 6.45715 164.19 6.82324C163.802 7.19037 163.608 7.66577 163.608 8.24946C163.608 8.83315 163.802 9.31268 164.19 9.6798C164.582 10.0418 165.043 10.2274 165.576 10.2274C166.141 10.2274 166.616 10.0418 166.991 9.67568C167.238 9.43334 167.379 9.09921 167.415 8.67227H165.576V8.07621H168.03C168.06 8.20512 168.068 8.3299 168.068 8.45055V8.45055Z" fill="white" stroke="white" stroke-width="0.16" stroke-miterlimit="10"/>
<path d="M171.962 6.38573H169.657V7.95323H171.735V8.54929H169.657V10.1168H171.962V10.7242H169.004V5.77832H171.962V6.38573Z" fill="white" stroke="white" stroke-width="0.16" stroke-miterlimit="10"/>
<path d="M174.71 10.7222H174.057V6.38377H172.643V5.77637H176.125V6.38377H174.71V10.7222V10.7222Z" fill="white" stroke="white" stroke-width="0.16" stroke-miterlimit="10"/>
<path d="M178.645 10.7232V5.77734H179.296V10.7232H178.645Z" fill="white" stroke="white" stroke-width="0.16" stroke-miterlimit="10"/>
<path d="M182.186 10.7242H181.539V6.38573H180.119V5.77832H183.606V6.38573H182.186V10.7242Z" fill="white" stroke="white" stroke-width="0.16" stroke-miterlimit="10"/>
<path d="M190.201 10.0861C189.701 10.5863 189.082 10.8358 188.344 10.8358C187.602 10.8358 186.983 10.5863 186.483 10.0861C185.985 9.58699 185.736 8.97443 185.736 8.24946C185.736 7.52449 185.985 6.91193 186.483 6.4128C186.983 5.91265 187.602 5.66309 188.344 5.66309C189.078 5.66309 189.697 5.91265 190.197 6.41693C190.7 6.92018 190.948 7.52862 190.948 8.24946C190.948 8.97443 190.7 9.58699 190.201 10.0861ZM186.966 9.67155C187.342 10.0418 187.799 10.2274 188.344 10.2274C188.885 10.2274 189.347 10.0418 189.718 9.67155C190.093 9.30134 190.283 8.82593 190.283 8.24946C190.283 7.67299 190.093 7.19759 189.718 6.82737C189.347 6.45715 188.885 6.27152 188.344 6.27152C187.799 6.27152 187.342 6.45715 186.966 6.82737C186.591 7.19759 186.401 7.67299 186.401 8.24946C186.401 8.82593 186.591 9.30134 186.966 9.67155V9.67155Z" fill="white" stroke="white" stroke-width="0.16" stroke-miterlimit="10"/>
<path d="M191.859 10.7242V5.77832H192.652L195.115 9.62488H195.143L195.115 8.67407V5.77832H195.766V10.7242H195.086L192.507 6.68788H192.478L192.507 7.64282V10.7242H191.859V10.7242Z" fill="white" stroke="white" stroke-width="0.16" stroke-miterlimit="10"/>
<path d="M185.572 17.9461C183.587 17.9461 181.966 19.4208 181.966 21.4555C181.966 23.4736 183.587 24.9638 185.572 24.9638C187.561 24.9638 189.182 23.4736 189.182 21.4555C189.182 19.4208 187.561 17.9461 185.572 17.9461ZM185.572 23.5819C184.483 23.5819 183.546 22.7043 183.546 21.4555C183.546 20.1901 184.483 19.328 185.572 19.328C186.661 19.328 187.602 20.1901 187.602 21.4555C187.602 22.7043 186.661 23.5819 185.572 23.5819V23.5819ZM177.704 17.9461C175.715 17.9461 174.098 19.4208 174.098 21.4555C174.098 23.4736 175.715 24.9638 177.704 24.9638C179.692 24.9638 181.31 23.4736 181.31 21.4555C181.31 19.4208 179.692 17.9461 177.704 17.9461ZM177.704 23.5819C176.614 23.5819 175.674 22.7043 175.674 21.4555C175.674 20.1901 176.614 19.328 177.704 19.328C178.793 19.328 179.73 20.1901 179.73 21.4555C179.73 22.7043 178.793 23.5819 177.704 23.5819ZM168.341 19.0217V20.5129H171.989C171.882 21.3462 171.597 21.9587 171.159 22.3857C170.627 22.9013 169.798 23.4736 168.341 23.4736C166.097 23.4736 164.339 21.705 164.339 19.5136C164.339 17.3222 166.097 15.5536 168.341 15.5536C169.555 15.5536 170.438 16.0167 171.09 16.6169L172.166 15.566C171.254 14.7163 170.042 14.0635 168.341 14.0635C165.263 14.0635 162.677 16.5086 162.677 19.5136C162.677 22.5187 165.263 24.9638 168.341 24.9638C170.005 24.9638 171.254 24.4317 172.237 23.4334C173.243 22.4506 173.557 21.0688 173.557 19.9529C173.557 19.6064 173.527 19.2878 173.475 19.0217H168.341ZM206.626 20.1778C206.329 19.393 205.413 17.9461 203.548 17.9461C201.699 17.9461 200.161 19.3682 200.161 21.4555C200.161 23.421 201.684 24.9638 203.725 24.9638C205.376 24.9638 206.329 23.981 206.721 23.4087L205.496 22.6115C205.087 23.1952 204.53 23.5819 203.725 23.5819C202.926 23.5819 202.352 23.2241 201.985 22.5187L206.792 20.5769L206.626 20.1778V20.1778ZM201.725 21.3462C201.684 19.9932 202.801 19.3002 203.602 19.3002C204.229 19.3002 204.762 19.6064 204.939 20.0447L201.725 21.3462V21.3462ZM197.818 24.7503H199.398V14.4378H197.818V24.7503ZM195.23 18.7278H195.177C194.822 18.3174 194.145 17.9461 193.288 17.9461C191.488 17.9461 189.842 19.4889 189.842 21.4668C189.842 23.4334 191.488 24.9638 193.288 24.9638C194.145 24.9638 194.822 24.5894 195.177 24.1666H195.23V24.6699C195.23 26.0115 194.496 26.7324 193.312 26.7324C192.346 26.7324 191.748 26.0518 191.5 25.4794L190.126 26.0394C190.522 26.9696 191.571 28.1143 193.312 28.1143C195.165 28.1143 196.728 27.05 196.728 24.4605V18.1596H195.23V18.7278V18.7278ZM193.423 23.5819C192.334 23.5819 191.422 22.6919 191.422 21.4668C191.422 20.2304 192.334 19.328 193.423 19.328C194.496 19.328 195.342 20.2304 195.342 21.4668C195.342 22.6919 194.496 23.5819 193.423 23.5819V23.5819ZM214.024 14.4378H210.244V24.7503H211.82V20.8429H214.024C215.774 20.8429 217.49 19.6064 217.49 17.6399C217.49 15.6743 215.77 14.4378 214.024 14.4378V14.4378ZM214.065 19.4084H211.82V15.8723H214.065C215.242 15.8723 215.913 16.8262 215.913 17.6399C215.913 18.438 215.242 19.4084 214.065 19.4084ZM223.807 17.9265C222.668 17.9265 221.484 18.4174 220.997 19.5054L222.395 20.0777C222.696 19.5054 223.25 19.3198 223.835 19.3198C224.653 19.3198 225.482 19.7993 225.494 20.6459V20.7542C225.209 20.5934 224.599 20.3551 223.848 20.3551C222.342 20.3551 220.807 21.1647 220.807 22.6754C220.807 24.0573 222.041 24.9473 223.427 24.9473C224.488 24.9473 225.073 24.4801 225.441 23.9367H225.494V24.7338H227.016V20.7779C227.016 18.9495 225.618 17.9265 223.807 17.9265ZM223.616 23.5778C223.101 23.5778 222.383 23.3282 222.383 22.7043C222.383 21.9061 223.278 21.5999 224.054 21.5999C224.748 21.5999 225.073 21.7494 225.494 21.9464C225.371 22.9013 224.529 23.5778 223.616 23.5778V23.5778ZM232.562 18.1524L230.75 22.6229H230.696L228.824 18.1524H227.124L229.938 24.3997L228.333 27.876H229.979L234.315 18.1524H232.562V18.1524ZM218.356 24.7503H219.936V14.4378H218.356V24.7503Z" fill="white"/>
<path d="M136.822 6.21994C136.573 6.47363 136.43 6.8686 136.43 7.3801V25.625C136.43 26.1365 136.573 26.5314 136.822 26.7851L136.883 26.8408L147.354 16.6211V16.3798L136.883 6.16013L136.822 6.21994Z" fill="white" stroke="#FACA0F" stroke-width="0.5"/>
<path d="M150.839 20.0283L147.353 16.62V16.3787L150.843 12.9704L150.922 13.0148L155.056 15.3114C156.236 15.9631 156.236 17.0356 155.056 17.6915L150.922 19.984L150.839 20.0283V20.0283Z" fill="white" stroke="#FACA0F" stroke-width="0.5"/>
<path d="M150.921 19.9823L147.352 16.4978L136.819 26.7824C137.211 27.1846 137.85 27.2331 138.577 26.8309L150.921 19.9823" fill="white"/>
<path d="M150.921 19.9823L147.352 16.4978L136.819 26.7824C137.211 27.1846 137.85 27.2331 138.577 26.8309L150.921 19.9823" stroke="#FACA0F" stroke-width="0.5"/>
<path d="M150.921 13.0164L138.577 6.16785C137.85 5.76979 137.211 5.81826 136.819 6.22045L147.352 16.501L150.921 13.0164Z" fill="white" stroke="#FACA0F" stroke-width="0.5"/>
</svg>
