<svg width="49" height="57" viewBox="0 0 49 57" fill="none" xmlns="http://www.w3.org/2000/svg">
<path d="M33.1646 9.6L36.1524 4.5C37.3476 2.4 35.8537 0 33.4634 0H15.5366C13.1463 0 11.6524 2.4 12.8476 4.5L15.8354 9.6C6.57316 13.2 0 22.2 0 32.4C0 45.9 11.0549 57 24.5 57C37.9451 57 49 45.9 49 32.4C49 21.9 42.4268 12.9 33.1646 9.6ZM36.4512 15.6C41.2317 18.9 44.5183 24.3 45.1159 30.6H28.0854L36.4512 15.6ZM31.9695 3.9L29.2805 8.4L27.189 12L24.5 16.8L21.811 12L19.7195 8.4L17.0305 3.9H31.9695ZM17.9268 12.9L22.1097 20.1C22.7073 21 23.6037 21.6 24.7988 21.6C25.9939 21.6 26.8902 21 27.4878 20.1L31.6707 12.9C32.2683 13.2 32.8659 13.5 33.4634 13.5L24.7988 28.5L16.1341 13.5C16.4329 13.5 17.0305 13.2 17.9268 12.9ZM12.5488 15.6L21.2134 30.6H4.18291C4.48169 24.3 7.76829 18.9 12.5488 15.6ZM3.88413 34.5H20.9146L12.25 49.5C7.76829 45.9 4.4817 40.5 3.88413 34.5ZM24.5 53.1C21.5122 53.1 18.5244 52.5 15.8354 51.3L24.5 36.3L33.1646 51.3C30.4756 52.5 27.4878 53.1 24.5 53.1ZM36.4512 49.2L27.7866 34.2H44.8171C44.5183 40.5 41.2317 45.9 36.4512 49.2Z" fill="white"/>
</svg>
