<svg width="542" height="123" viewBox="0 0 542 123" fill="none" xmlns="http://www.w3.org/2000/svg">
<path d="M32.056 57.752V67.608H88.376V57.752H32.056ZM103.352 80.28C96.056 86.168 83.768 93.848 74.808 98.2L84.024 106.648C93.112 102.424 104.888 95.896 114.488 89.368L103.352 80.28ZM31.672 41.368V52.248H82.872V72.856H31.672V83.864H98.36V41.368H31.672ZM64.696 7.31999L53.048 13.592C67.64 27.672 91.448 40.6 112.184 47C114.36 43.288 118.84 37.272 122.168 34.072C101.176 29.08 77.112 18.328 64.696 7.31999ZM57.528 0.663994C45.752 16.024 22.584 28.056 0.823976 34.456C4.27998 37.912 8.24798 43.032 10.168 46.744C33.72 38.552 56.504 25.24 71.224 7.448L57.528 0.663994ZM22.84 122.008C22.84 117.016 37.304 108.312 37.304 108.312V41.368H22.2V100.12C22.2 105.88 19 109.336 16.312 111.128C18.488 113.432 21.816 118.936 22.84 122.008ZM22.84 122.008C26.552 120.216 32.44 119.192 66.872 114.456C66.616 111.384 66.616 105.624 67.128 101.784L29.624 106.008L22.2 110.616L22.84 122.008ZM53.176 93.72C69.432 101.528 90.68 114.072 100.92 122.136L111.8 111.768C100.664 103.576 78.904 92.056 63.16 84.888L53.176 93.72ZM43.32 27.8V37.912H77.88V27.8H43.32ZM145.592 10.904V26.648H257.208V10.904H145.592ZM207.416 53.784C221.624 64.664 240.568 80.408 249.016 90.52L262.072 78.744C252.728 68.504 233.016 53.784 219.32 43.8L207.416 53.784ZM202.296 16.664C191.672 39.448 169.016 64.28 141.624 77.208C144.824 80.664 149.688 87.064 152.12 91.16C181.56 75.8 204.856 49.688 219.448 22.68L202.296 16.664ZM192.952 47.64V122.264H209.848V30.872L192.952 47.64ZM344.888 39.576V53.4H390.712V39.576H344.888ZM345.016 69.784V83.736H390.84V69.784H345.016ZM344.888 100.12V113.944H390.84V100.12H344.888ZM337.592 9.24V121.496H352.312V23.704H382.52V120.728H398.008V9.24H337.592ZM283.832 28.696V43.288H333.112V28.696H283.832ZM302.392 2.328V122.52H317.112V2.328H302.392ZM301.496 38.552C298.04 54.936 289.848 74.904 280.632 86.04C282.936 89.88 286.52 96.152 287.928 100.504C298.04 87.192 306.488 62.616 310.712 41.752L301.496 38.552ZM315.96 49.816L308.92 56.856C313.528 63.256 322.616 77.208 326.328 84.76L335.032 72.344C332.216 68.888 319.672 53.4 315.96 49.816ZM433.72 8.728V21.784H447.672V87.448H433.72V100.632H460.856V8.728H433.72ZM435.128 34.968V47.64H453.688V34.968H435.128ZM435.128 61.208V73.752H453.688V61.208H435.128ZM426.808 8.728V111.768H439.736V8.728H426.808ZM463.8 12.952V24.984H541.624V12.952H463.8ZM482.36 65.56V74.264H490.552V65.56H482.36ZM467 50.072V122.648H479.928V61.208H532.792V50.072H467ZM526.52 50.072V108.312C526.52 109.72 526.008 110.104 524.728 110.104C523.448 110.104 519.608 110.232 515.768 109.976C517.432 113.304 519.352 118.808 519.736 122.52C526.392 122.52 531.128 122.264 534.712 120.216C538.424 118.04 539.32 114.328 539.32 108.696V50.072H526.52ZM485.944 65.56C485.944 78.232 486.712 92.952 493.496 104.216C494.648 102.808 497.336 100.504 498.744 99.736C492.344 89.368 491.832 77.08 491.832 65.56H485.944ZM485.944 77.208C484.92 86.68 482.616 94.872 478.392 98.712C479.928 100.12 481.848 102.808 482.488 104.728C487.608 99.736 490.424 90.008 491.576 79.64L485.944 77.208ZM515.512 77.208C514.488 86.168 511.8 94.104 507.448 97.816C508.984 99.224 510.776 102.168 511.672 103.96C516.792 99.096 519.992 89.624 521.272 79.768L515.512 77.208ZM511.672 65.56V74.264H519.992V65.56H511.672ZM515.512 65.56C515.512 77.72 516.152 92.184 523.32 103.32C524.472 101.912 527.416 99.608 528.824 98.712C522.04 88.6 521.656 76.44 521.656 65.56H515.512ZM478.904 2.328V44.184H527.16V2.328H512.824V31.896H492.728V2.328H478.904ZM496.056 36.632V54.552H496.568V121.24H509.24V54.552H509.752V36.632H496.056Z" fill="white"/>
</svg>
