<svg width="256" height="74" viewBox="0 0 256 74" fill="none" xmlns="http://www.w3.org/2000/svg">
<path d="M9.44757 72.5546H245.637C250.153 72.5546 253.831 68.9416 253.831 64.5689V9.22454C253.831 4.85181 250.153 1.23889 245.637 1.23889H9.44757C4.93127 1.23889 1.25299 4.85181 1.25299 9.22454V64.5689C1.25299 68.9416 4.93127 72.5546 9.44757 72.5546Z" stroke="white" stroke-width="2"/>
<path d="M89.5986 18.8962C89.5986 20.4367 89.1262 21.6704 88.1956 22.5905C87.1257 23.6812 85.7322 24.2301 84.0245 24.2301C82.3924 24.2301 80.9989 23.672 79.8558 22.572C78.7102 21.4559 78.1387 20.0862 78.1387 18.4466C78.1387 16.807 78.7102 15.4372 79.8558 14.3303C80.9989 13.2211 82.3924 12.6631 84.0245 12.6631C84.837 12.6631 85.6117 12.8268 86.351 13.1312C87.0879 13.4379 87.6878 13.853 88.1224 14.3649L87.1351 15.3381C86.377 14.4641 85.3448 14.0329 84.0245 14.0329C82.8341 14.0329 81.802 14.4387 80.9257 15.2574C80.0589 16.0783 79.6243 17.1414 79.6243 18.4466C79.6243 19.7518 80.0589 20.8241 80.9257 21.645C81.802 22.4544 82.8341 22.8695 84.0245 22.8695C85.2881 22.8695 86.351 22.4544 87.1895 21.6358C87.7421 21.0939 88.0563 20.3467 88.1389 19.392H84.0245V18.0592H89.5136C89.5797 18.3474 89.5986 18.6264 89.5986 18.8962Z" fill="white" stroke="white" stroke-width="0.16" stroke-miterlimit="10"/>
<path d="M98.3061 14.2791H93.1501V17.7843H97.7983V19.1172H93.1501V22.6223H98.3061V23.9805H91.6904V12.9209H98.3061V14.2791Z" fill="white" stroke="white" stroke-width="0.16" stroke-miterlimit="10"/>
<path d="M104.449 23.9776H102.99V14.2762H99.8271V12.918H107.614V14.2762H104.449V23.9776Z" fill="white" stroke="white" stroke-width="0.16" stroke-miterlimit="10"/>
<path d="M113.25 23.9796V12.9199H114.707V23.9796H113.25Z" fill="white" stroke="white" stroke-width="0.16" stroke-miterlimit="10"/>
<path d="M121.168 23.9796H119.72V14.2782H116.546V12.9199H124.342V14.2782H121.168V23.9796Z" fill="white" stroke="white" stroke-width="0.16" stroke-miterlimit="10"/>
<path d="M139.09 22.5536C137.973 23.672 136.589 24.2301 134.938 24.2301C133.278 24.2301 131.893 23.672 130.776 22.5536C129.661 21.4375 129.106 20.0677 129.106 18.4466C129.106 16.8254 129.661 15.4557 130.776 14.3396C131.893 13.2211 133.278 12.6631 134.938 12.6631C136.579 12.6631 137.964 13.2211 139.081 14.3488C140.205 15.4741 140.76 16.8347 140.76 18.4466C140.76 20.0677 140.205 21.4375 139.09 22.5536ZM131.856 21.6266C132.697 22.4544 133.719 22.8695 134.938 22.8695C136.147 22.8695 137.179 22.4544 138.011 21.6266C138.849 20.7987 139.274 19.7356 139.274 18.4466C139.274 17.1575 138.849 16.0944 138.011 15.2666C137.179 14.4387 136.147 14.0236 134.938 14.0236C133.719 14.0236 132.697 14.4387 131.856 15.2666C131.017 16.0944 130.592 17.1575 130.592 18.4466C130.592 19.7356 131.017 20.7987 131.856 21.6266Z" fill="white" stroke="white" stroke-width="0.16" stroke-miterlimit="10"/>
<path d="M142.8 23.9796V12.9199H144.571L150.079 21.5214H150.143L150.079 19.3952V12.9199H151.536V23.9796H150.015L144.248 14.9538H144.184L144.248 17.0892V23.9796H142.8Z" fill="white" stroke="white" stroke-width="0.16" stroke-miterlimit="10"/>
<path d="M128.738 40.1309C124.3 40.1309 120.675 43.4285 120.675 47.9782C120.675 52.4911 124.3 55.8233 128.738 55.8233C133.186 55.8233 136.811 52.4911 136.811 47.9782C136.811 43.4285 133.186 40.1309 128.738 40.1309ZM128.738 52.7332C126.303 52.7332 124.208 50.7708 124.208 47.9782C124.208 45.1487 126.303 43.2209 128.738 43.2209C131.173 43.2209 133.278 45.1487 133.278 47.9782C133.278 50.7708 131.173 52.7332 128.738 52.7332ZM111.145 40.1309C106.697 40.1309 103.081 43.4285 103.081 47.9782C103.081 52.4911 106.697 55.8233 111.145 55.8233C115.59 55.8233 119.208 52.4911 119.208 47.9782C119.208 43.4285 115.59 40.1309 111.145 40.1309ZM111.145 52.7332C108.707 52.7332 106.605 50.7708 106.605 47.9782C106.605 45.1487 108.707 43.2209 111.145 43.2209C113.58 43.2209 115.675 45.1487 115.675 47.9782C115.675 50.7708 113.58 52.7332 111.145 52.7332ZM90.2088 42.536V45.8705H98.3644C98.1259 47.7338 97.4882 49.1036 96.5104 50.0583C95.32 51.2113 93.4659 52.4911 90.2088 52.4911C85.1898 52.4911 81.2596 48.5363 81.2596 43.636C81.2596 38.7357 85.1898 34.7809 90.2088 34.7809C92.9226 34.7809 94.8972 35.8163 96.3545 37.1584L98.7612 34.8086C96.7229 32.9084 94.0115 31.4487 90.2088 31.4487C83.3263 31.4487 77.542 36.9163 77.542 43.636C77.542 50.3557 83.3263 55.8233 90.2088 55.8233C93.9288 55.8233 96.7229 54.6334 98.9195 52.4012C101.17 50.2035 101.872 47.1135 101.872 44.6184C101.872 43.8435 101.806 43.131 101.688 42.536H90.2088ZM175.818 45.1211C175.154 43.3662 173.107 40.1309 168.935 40.1309C164.802 40.1309 161.361 43.3109 161.361 47.9782C161.361 52.3735 164.767 55.8233 169.332 55.8233C173.024 55.8233 175.154 53.6257 176.031 52.3458L173.291 50.5633C172.377 51.8685 171.132 52.7332 169.332 52.7332C167.544 52.7332 166.262 51.933 165.44 50.3557L176.189 46.0135L175.818 45.1211ZM164.859 47.7338C164.767 44.7083 167.266 43.1587 169.056 43.1587C170.459 43.1587 171.649 43.8435 172.046 44.8236L164.859 47.7338ZM156.122 55.3459H159.656V32.2858H156.122V55.3459ZM150.336 41.8788H150.217C149.424 40.961 147.91 40.1309 145.992 40.1309C141.967 40.1309 138.288 43.5807 138.288 48.0036C138.288 52.4012 141.967 55.8233 145.992 55.8233C147.91 55.8233 149.424 54.9862 150.217 54.0407H150.336V55.1661C150.336 58.1662 148.694 59.7781 146.046 59.7781C143.888 59.7781 142.548 58.2561 141.996 56.9763L138.923 58.2285C139.809 60.3085 142.154 62.8682 146.046 62.8682C150.189 62.8682 153.685 60.4884 153.685 54.698V40.6082H150.336V41.8788ZM146.294 52.7332C143.859 52.7332 141.821 50.7431 141.821 48.0036C141.821 45.2387 143.859 43.2209 146.294 43.2209C148.694 43.2209 150.586 45.2387 150.586 48.0036C150.586 50.7431 148.694 52.7332 146.294 52.7332ZM192.361 32.2858H183.91V55.3459H187.434V46.6085H192.361C196.274 46.6085 200.112 43.8435 200.112 39.446C200.112 35.0507 196.265 32.2858 192.361 32.2858ZM192.453 43.4008H187.434V35.4935H192.453C195.084 35.4935 196.586 37.6265 196.586 39.446C196.586 41.2308 195.084 43.4008 192.453 43.4008ZM214.237 40.087C211.69 40.087 209.043 41.1847 207.954 43.6175L211.081 44.8974C211.754 43.6175 212.992 43.2025 214.3 43.2025C216.128 43.2025 217.983 44.2748 218.011 46.168V46.4101C217.373 46.0504 216.008 45.5177 214.329 45.5177C210.961 45.5177 207.529 47.3279 207.529 50.7062C207.529 53.7963 210.287 55.7864 213.389 55.7864C215.76 55.7864 217.068 54.7418 217.89 53.5265H218.011V55.309H221.414V46.4632C221.414 42.3746 218.287 40.087 214.237 40.087ZM213.811 52.724C212.659 52.724 211.053 52.166 211.053 50.7708C211.053 48.986 213.056 48.3011 214.789 48.3011C216.341 48.3011 217.068 48.6354 218.011 49.0759C217.735 51.2113 215.852 52.724 213.811 52.724ZM233.814 40.5921L229.764 50.5886H229.643L225.456 40.5921H221.655L227.947 54.5619L224.357 62.3355H228.039L237.735 40.5921H233.814ZM202.049 55.3459H205.583V32.2858H202.049V55.3459Z" fill="white"/>
<path d="M19.7259 13.9074C19.1708 14.4747 18.8496 15.3579 18.8496 16.5017V57.2998C18.8496 58.4435 19.1708 59.3267 19.7259 59.894L19.8629 60.0186L43.2787 37.1659V36.6263L19.8629 13.7737L19.7259 13.9074Z" fill="white" stroke="#FACA0F" stroke-width="0.5"/>
<path d="M51.072 44.7861L43.2754 37.1648V36.6251L51.0814 29.0038L51.2562 29.1029L60.5007 34.2384C63.1389 35.6958 63.1389 38.0941 60.5007 39.5607L51.2562 44.687L51.072 44.7861Z" fill="white" stroke="#FACA0F" stroke-width="0.5"/>
<path d="M51.2534 44.6841L43.2725 36.8921L19.7197 59.8899C20.596 60.7893 22.0249 60.8977 23.6499 59.9983L51.2534 44.6841Z" fill="white"/>
<path d="M51.2534 44.6841L43.2725 36.8921L19.7197 59.8899C20.596 60.7893 22.0249 60.8977 23.6499 59.9983L51.2534 44.6841" stroke="#FACA0F" stroke-width="0.5"/>
<path d="M51.2563 29.1054L23.6528 13.7912C22.0279 12.9011 20.5989 13.0094 19.7227 13.9088L43.2755 36.8975L51.2563 29.1054Z" fill="white" stroke="#FACA0F" stroke-width="0.5"/>
</svg>
