<svg width="141" height="174" viewBox="0 0 141 174" fill="none" xmlns="http://www.w3.org/2000/svg">
<g clip-path="url(#clip0_1158_9541)">
<path d="M120.352 23.8776C112.631 16.1471 103.213 10.3239 92.8475 6.87069L82.7264 24.4088C94.845 27.4184 105.431 34.786 112.462 45.1048C119.493 55.4237 122.478 67.9708 120.845 80.3504C119.213 92.73 113.078 104.075 103.613 112.218C94.147 120.362 82.0135 124.734 69.5289 124.5C57.0444 124.265 45.0836 119.441 35.9303 110.947C26.777 102.454 21.0726 90.887 19.9062 78.4548C18.7398 66.0227 22.1933 53.5965 29.6071 43.5489C37.0209 33.5013 47.8757 26.5363 60.0988 23.9838L49.8907 6.31055C38.2551 9.86718 27.738 16.3746 19.3623 25.1999C10.9867 34.0252 5.03757 44.868 2.09372 56.6736C-0.850141 68.4792 -0.688565 80.8457 2.56273 92.5703C5.81402 104.295 12.0444 114.979 20.6477 123.582L70.4999 173.434L120.352 123.582C126.899 117.035 132.092 109.263 135.635 100.71C139.179 92.1561 141.002 82.9883 141.002 73.7298C141.002 64.4713 139.179 55.3035 135.635 46.7499C132.092 38.1962 126.899 30.4242 120.352 23.8776Z" fill="white"/>
<path d="M24.9258 71.3836H67.7763L46.6649 34.8105C40.3414 38.6804 35.0568 44.0337 31.2688 50.4065C27.4808 56.7793 25.3036 63.9796 24.9258 71.3836V71.3836Z" fill="white"/>
<path d="M24.9258 76.0771C25.3036 83.4812 27.4808 90.6814 31.2688 97.0543C35.0568 103.427 40.3414 108.78 46.6649 112.65L67.7763 76.0771H24.9258Z" fill="white"/>
<path d="M96.2757 36.0654L75.8887 71.3734H116.074C115.717 64.3607 113.744 57.5253 110.31 51.4007C106.876 45.276 102.073 40.0278 96.2757 36.0654V36.0654Z" fill="white"/>
<path d="M71.5333 43.7914L62.8416 28.7354C58.6603 29.454 54.6001 30.7542 50.7793 32.5984L71.8327 69.0748L92.2874 33.651C88.4347 31.5613 84.3005 30.039 80.0127 29.1313L71.5333 43.7914Z" fill="white"/>
<path d="M96.2757 111.394C102.073 107.432 106.876 102.183 110.31 96.0586C113.744 89.934 115.717 83.0986 116.074 76.0859H75.8887L96.2757 111.394Z" fill="white"/>
<path d="M50.7793 114.891C57.2911 118.012 64.4506 119.544 71.6697 119.361C78.8887 119.178 85.9614 117.285 92.3067 113.838L71.852 78.4141L50.7793 114.891Z" fill="white"/>
<path d="M52.8945 0.564453L71.5336 32.8399L90.1726 0.564453H52.8945Z" fill="white"/>
</g>
<defs>
<clipPath id="clip0_1158_9541">
<rect width="141" height="172.87" fill="white" transform="translate(0 0.564453)"/>
</clipPath>
</defs>
</svg>
