<svg width="255" height="72" viewBox="0 0 255 72" fill="none" xmlns="http://www.w3.org/2000/svg">
<path d="M254 64.5524C254 67.95 251.185 70.738 247.657 70.738H7.35264C3.82438 70.738 1 67.9481 1 64.5524V7.24966C1 3.85394 3.82627 1.05469 7.35264 1.05469H247.655C251.183 1.05469 253.998 3.85193 253.998 7.24966L254 64.5524Z" stroke="white" stroke-width="2"/>
<path d="M56.1158 35.4951C56.0605 29.4928 61.1566 26.5726 61.3897 26.4366C58.5035 22.3339 54.03 21.7733 52.458 21.7286C48.7008 21.3431 45.0563 23.9206 43.1424 23.9206C41.1902 23.9206 38.2429 21.7658 35.0664 21.8292C30.9788 21.8906 27.1547 24.1981 25.0574 27.7813C20.7291 35.0873 23.9572 45.8238 28.104 51.7293C30.1784 54.6216 32.6024 57.8509 35.7751 57.7373C38.879 57.6125 40.0384 55.8079 43.7842 55.8079C47.4955 55.8079 48.5843 57.7373 51.82 57.6647C55.1512 57.6125 57.2485 54.7594 59.2503 51.8411C61.6475 48.5261 62.6102 45.2614 62.6484 45.0938C62.5701 45.0677 56.1789 42.6894 56.1158 35.4951Z" fill="white"/>
<path d="M50.0035 17.8437C51.6729 15.8081 52.8152 13.0388 52.4981 10.2285C50.0818 10.3328 47.06 11.8581 45.3199 13.8489C43.7803 15.6033 42.4051 18.4788 42.7603 21.1829C45.4746 21.3803 48.2615 19.8476 50.0035 17.8437Z" fill="white"/>
<path d="M101.033 57.3175H96.6955L94.3193 50.0375H86.06L83.7965 57.3175H79.5732L87.7562 32.5332H92.8103L101.033 57.3175ZM93.603 46.9833L91.4541 40.5116C91.2268 39.8504 90.8009 38.2935 90.1725 35.8426H90.096C89.8458 36.8967 89.4428 38.4536 88.8889 40.5116L86.7782 46.9833H93.603V46.9833Z" fill="white"/>
<path d="M122.076 48.1677C122.076 51.2071 121.234 53.6095 119.549 55.3732C118.04 56.9431 116.166 57.7272 113.93 57.7272C111.515 57.7272 109.781 56.8817 108.724 55.1906H108.648V64.6049H104.576V45.335C104.576 43.4243 104.524 41.4632 104.425 39.4518H108.006L108.234 42.2845H108.31C109.668 40.1502 111.729 39.085 114.495 39.085C116.657 39.085 118.462 39.9174 119.906 41.5842C121.354 43.2529 122.076 45.4468 122.076 48.1677ZM117.927 48.313C117.927 46.5735 117.526 45.1395 116.72 44.0109C115.84 42.8339 114.657 42.2454 113.175 42.2454C112.17 42.2454 111.257 42.5732 110.442 43.2194C109.624 43.8712 109.089 44.7223 108.839 45.7764C108.713 46.2681 108.65 46.6704 108.65 46.987V49.9667C108.65 51.2667 109.059 52.3636 109.876 53.2594C110.694 54.1552 111.756 54.6021 113.062 54.6021C114.596 54.6021 115.79 54.0248 116.644 52.8739C117.5 51.7211 117.927 50.2014 117.927 48.313Z" fill="white"/>
<path d="M143.162 48.1677C143.162 51.2071 142.32 53.6095 140.633 55.3732C139.126 56.9431 137.252 57.7272 135.016 57.7272C132.601 57.7272 130.867 56.8817 129.812 55.1906H129.736V64.6049H125.664V45.335C125.664 43.4243 125.612 41.4632 125.513 39.4518H129.094L129.321 42.2845H129.398C130.754 40.1502 132.815 39.085 135.583 39.085C137.743 39.085 139.548 39.9174 140.996 41.5842C142.438 43.2529 143.162 45.4468 143.162 48.1677ZM139.013 48.313C139.013 46.5735 138.61 45.1395 137.804 44.0109C136.924 42.8339 135.745 42.2454 134.261 42.2454C133.254 42.2454 132.343 42.5732 131.526 43.2194C130.708 43.8712 130.175 44.7223 129.925 45.7764C129.801 46.2681 129.736 46.6704 129.736 46.987V49.9667C129.736 51.2667 130.145 52.3636 130.958 53.2594C131.776 54.1533 132.838 54.6021 134.148 54.6021C135.682 54.6021 136.876 54.0248 137.73 52.8739C138.586 51.7211 139.013 50.2014 139.013 48.313Z" fill="white"/>
<path d="M166.728 50.368C166.728 52.4762 165.977 54.1914 164.47 55.5156C162.814 56.9626 160.509 57.6852 157.546 57.6852C154.811 57.6852 152.618 57.1712 150.958 56.1413L151.902 52.8319C153.689 53.886 155.651 54.4149 157.789 54.4149C159.322 54.4149 160.516 54.076 161.374 53.4018C162.228 52.7276 162.654 51.8225 162.654 50.6939C162.654 49.6883 162.302 48.8409 161.597 48.1537C160.896 47.4665 159.725 46.8277 158.09 46.2373C153.64 44.6189 151.416 42.2481 151.416 39.1305C151.416 37.0931 152.196 35.4226 153.756 34.1227C155.311 32.8209 157.386 32.1709 159.979 32.1709C162.293 32.1709 164.214 32.5639 165.748 33.3479L164.73 36.5847C163.297 35.8248 161.678 35.4449 159.865 35.4449C158.432 35.4449 157.313 35.7895 156.511 36.4748C155.833 37.0875 155.493 37.8343 155.493 38.719C155.493 39.6986 155.88 40.5087 156.66 41.1456C157.338 41.7341 158.57 42.371 160.358 43.0583C162.545 43.9168 164.151 44.9206 165.185 46.0716C166.214 47.2188 166.728 48.6546 166.728 50.368Z" fill="white"/>
<path d="M180.192 42.4297H175.703V51.1065C175.703 53.3134 176.494 54.4159 178.079 54.4159C178.807 54.4159 179.411 54.3544 179.888 54.2315L180.001 57.2467C179.199 57.5391 178.142 57.6862 176.834 57.6862C175.226 57.6862 173.969 57.2076 173.062 56.2522C172.158 55.2949 171.703 53.6896 171.703 51.4343V42.426H169.029V39.4462H171.703V36.1741L175.703 34.9971V39.4462H180.192V42.4297Z" fill="white"/>
<path d="M200.444 48.2385C200.444 50.9854 199.638 53.2408 198.03 55.0044C196.343 56.8202 194.105 57.7253 191.314 57.7253C188.625 57.7253 186.483 56.8556 184.886 55.1162C183.29 53.3767 182.491 51.181 182.491 48.5346C182.491 45.7652 183.313 43.4969 184.961 41.7332C186.606 39.9677 188.825 39.085 191.616 39.085C194.305 39.085 196.469 39.9547 198.103 41.696C199.665 43.3851 200.444 45.566 200.444 48.2385ZM196.219 48.367C196.219 46.7188 195.858 45.3052 195.127 44.1264C194.273 42.6998 193.052 41.9884 191.471 41.9884C189.834 41.9884 188.59 42.7017 187.736 44.1264C187.005 45.3071 186.644 46.743 186.644 48.4415C186.644 50.0896 187.005 51.5032 187.736 52.6802C188.617 54.1068 189.847 54.8182 191.434 54.8182C192.989 54.8182 194.21 54.0919 195.09 52.6429C195.841 51.4417 196.219 50.0133 196.219 48.367Z" fill="white"/>
<path d="M213.682 42.9438C213.279 42.8711 212.849 42.8339 212.398 42.8339C210.965 42.8339 209.857 43.3609 209.078 44.4169C208.4 45.3481 208.06 46.5251 208.06 47.9461V57.323H203.99L204.028 45.0799C204.028 43.0201 203.976 41.1447 203.875 39.4537H207.422L207.571 42.873H207.684C208.114 41.6979 208.792 40.7518 209.72 40.0422C210.627 39.4034 211.607 39.085 212.663 39.085C213.04 39.085 213.38 39.111 213.682 39.1576V42.9438Z" fill="white"/>
<path d="M231.898 47.5383C231.898 48.2498 231.85 48.8494 231.749 49.3392H219.532C219.58 51.1048 220.17 52.455 221.304 53.3862C222.334 54.2186 223.665 54.6358 225.3 54.6358C227.109 54.6358 228.76 54.3546 230.244 53.7903L230.882 56.5466C229.147 57.2841 227.1 57.651 224.737 57.651C221.895 57.651 219.664 56.8352 218.04 55.2057C216.42 53.5761 215.608 51.3878 215.608 48.6427C215.608 45.9479 216.363 43.7037 217.874 41.914C219.455 40.0032 221.593 39.0479 224.282 39.0479C226.924 39.0479 228.924 40.0032 230.282 41.914C231.357 43.4318 231.898 45.3091 231.898 47.5383ZM228.015 46.5085C228.041 45.3314 227.776 44.3146 227.224 43.4561C226.519 42.3517 225.436 41.8004 223.979 41.8004C222.647 41.8004 221.564 42.3386 220.737 43.4188C220.059 44.2774 219.656 45.3072 219.532 46.5066H228.015V46.5085Z" fill="white"/>
<path d="M92.2542 17.2959C92.2542 19.4879 91.5799 21.138 90.2333 22.2461C88.986 23.2685 87.2134 23.7807 84.9175 23.7807C83.779 23.7807 82.8049 23.7322 81.9893 23.6354V11.6586C83.0532 11.4909 84.1993 11.4053 85.437 11.4053C87.6241 11.4053 89.2725 11.869 90.3842 12.7965C91.6296 13.845 92.2542 15.3442 92.2542 17.2959ZM90.1435 17.3499C90.1435 15.9289 89.7577 14.8395 88.986 14.0796C88.2143 13.3216 87.0874 12.9417 85.6032 12.9417C84.9729 12.9417 84.4361 12.9827 83.9911 13.0684V22.1734C84.2375 22.2107 84.6883 22.2274 85.3434 22.2274C86.8753 22.2274 88.0577 21.8121 88.8905 20.9815C89.7233 20.1509 90.1435 18.9404 90.1435 17.3499Z" fill="white"/>
<path d="M103.446 19.2096C103.446 20.5598 103.051 21.6661 102.26 22.5339C101.431 23.426 100.332 23.8711 98.961 23.8711C97.6392 23.8711 96.5867 23.4446 95.8017 22.5879C95.0185 21.7331 94.627 20.6548 94.627 19.3549C94.627 17.9953 95.03 16.8798 95.8399 16.0138C96.6498 15.1478 97.7385 14.7139 99.11 14.7139C100.432 14.7139 101.494 15.1403 102.298 15.9952C103.062 16.8258 103.446 17.8985 103.446 19.2096ZM101.37 19.2729C101.37 18.4628 101.19 17.7681 100.833 17.1889C100.413 16.4887 99.8148 16.1386 99.0374 16.1386C98.2333 16.1386 97.622 16.4887 97.2018 17.1889C96.8427 17.7681 96.665 18.474 96.665 19.3083C96.665 20.1184 96.8446 20.8131 97.2018 21.3923C97.6354 22.0925 98.239 22.4427 99.0183 22.4427C99.7824 22.4427 100.382 22.0869 100.814 21.3737C101.184 20.7833 101.37 20.083 101.37 19.2729Z" fill="white"/>
<path d="M118.451 14.8916L115.634 23.6708H113.8L112.633 19.8585C112.337 18.9068 112.096 17.9608 111.909 17.0221H111.873C111.699 17.9868 111.458 18.9311 111.149 19.8585L109.909 23.6708H108.055L105.405 14.8916H107.462L108.481 19.0652C108.727 20.0522 108.929 20.9927 109.092 21.8829H109.128C109.277 21.1491 109.523 20.2142 109.871 19.0838L111.149 14.8935H112.78L114.005 18.9944C114.301 19.9945 114.541 20.9573 114.727 21.8848H114.782C114.918 20.9815 115.122 20.0187 115.393 18.9944L116.486 14.8935H118.451V14.8916Z" fill="white"/>
<path d="M128.827 23.6706H126.825V18.6422C126.825 17.0927 126.222 16.318 125.011 16.318C124.417 16.318 123.937 16.5303 123.565 16.9568C123.196 17.3832 123.009 17.8861 123.009 18.4615V23.6687H121.007V17.4C121.007 16.629 120.982 15.7928 120.935 14.8877H122.694L122.787 16.2602H122.843C123.076 15.8338 123.423 15.4818 123.88 15.2006C124.422 14.8728 125.03 14.707 125.695 14.707C126.535 14.707 127.234 14.9715 127.79 15.5023C128.481 16.1522 128.827 17.1225 128.827 18.4113V23.6706V23.6706Z" fill="white"/>
<path d="M134.353 23.6707H132.354V10.8633H134.353V23.6707Z" fill="white"/>
<path d="M146.131 19.2096C146.131 20.5598 145.736 21.6661 144.945 22.5339C144.116 23.426 143.016 23.8711 141.647 23.8711C140.323 23.8711 139.27 23.4446 138.487 22.5879C137.704 21.7331 137.312 20.6548 137.312 19.3549C137.312 17.9953 137.716 16.8798 138.525 16.0138C139.335 15.1478 140.424 14.7139 141.794 14.7139C143.117 14.7139 144.177 15.1403 144.984 15.9952C145.748 16.8258 146.131 17.8985 146.131 19.2096ZM144.053 19.2729C144.053 18.4628 143.874 17.7681 143.517 17.1889C143.098 16.4887 142.498 16.1386 141.723 16.1386C140.917 16.1386 140.306 16.4887 139.887 17.1889C139.528 17.7681 139.351 18.474 139.351 19.3083C139.351 20.1184 139.53 20.8131 139.887 21.3923C140.321 22.0925 140.925 22.4427 141.704 22.4427C142.468 22.4427 143.066 22.0869 143.497 21.3737C143.87 20.7833 144.053 20.083 144.053 19.2729Z" fill="white"/>
<path d="M155.823 23.6718H154.025L153.876 22.6606H153.821C153.206 23.467 152.329 23.8711 151.191 23.8711C150.341 23.8711 149.653 23.6048 149.136 23.0759C148.666 22.5954 148.431 21.9976 148.431 21.288C148.431 20.2153 148.889 19.3977 149.812 18.8315C150.732 18.2654 152.027 17.9879 153.695 18.0009V17.837C153.695 16.6805 153.072 16.1032 151.825 16.1032C150.937 16.1032 150.154 16.3211 149.477 16.7532L149.071 15.4718C149.907 14.9671 150.941 14.7139 152.159 14.7139C154.512 14.7139 155.693 15.9244 155.693 18.3455V21.5785C155.693 22.4557 155.737 23.1541 155.823 23.6718ZM153.745 20.6548V19.3009C151.536 19.2636 150.432 19.854 150.432 21.0701C150.432 21.5282 150.559 21.8709 150.816 22.1C151.074 22.3291 151.403 22.4427 151.794 22.4427C152.234 22.4427 152.644 22.3067 153.019 22.0367C153.395 21.7648 153.626 21.4202 153.712 20.9975C153.733 20.9025 153.745 20.787 153.745 20.6548Z" fill="white"/>
<path d="M167.197 23.6707H165.421L165.327 22.2609H165.272C164.704 23.3336 163.738 23.87 162.38 23.87C161.295 23.87 160.391 23.4547 159.675 22.6241C158.959 21.7935 158.602 20.7152 158.602 19.391C158.602 17.97 158.989 16.8191 159.769 15.9401C160.523 15.1206 161.448 14.7109 162.548 14.7109C163.757 14.7109 164.603 15.1076 165.084 15.9028H165.123V10.8633H167.126V21.3055C167.126 22.1604 167.149 22.9481 167.197 23.6707ZM165.123 19.9684V18.5045C165.123 18.2513 165.104 18.0464 165.067 17.89C164.955 17.4206 164.712 17.0258 164.343 16.7074C163.971 16.3889 163.522 16.2287 163.004 16.2287C162.257 16.2287 161.673 16.5174 161.243 17.0966C160.817 17.6758 160.601 18.4151 160.601 19.3184C160.601 20.1863 160.806 20.8902 161.216 21.4322C161.65 22.0095 162.235 22.2982 162.966 22.2982C163.623 22.2982 164.149 22.0579 164.548 21.5756C164.934 21.1305 165.123 20.5941 165.123 19.9684Z" fill="white"/>
<path d="M184.321 19.2096C184.321 20.5598 183.926 21.6661 183.135 22.5339C182.306 23.426 181.209 23.8711 179.836 23.8711C178.516 23.8711 177.464 23.4446 176.677 22.5879C175.894 21.7331 175.502 20.6548 175.502 19.3549C175.502 17.9953 175.905 16.8798 176.715 16.0138C177.525 15.1478 178.614 14.7139 179.987 14.7139C181.307 14.7139 182.371 15.1403 183.173 15.9952C183.937 16.8258 184.321 17.8985 184.321 19.2096ZM182.247 19.2729C182.247 18.4628 182.067 17.7681 181.71 17.1889C181.288 16.4887 180.692 16.1386 179.912 16.1386C179.11 16.1386 178.499 16.4887 178.077 17.1889C177.718 17.7681 177.54 18.474 177.54 19.3083C177.54 20.1184 177.72 20.8131 178.077 21.3923C178.51 22.0925 179.114 22.4427 179.893 22.4427C180.657 22.4427 181.259 22.0869 181.691 21.3737C182.059 20.7833 182.247 20.083 182.247 19.2729Z" fill="white"/>
<path d="M195.084 23.6706H193.084V18.6422C193.084 17.0927 192.481 16.318 191.268 16.318C190.674 16.318 190.194 16.5303 189.824 16.9568C189.453 17.3832 189.268 17.8861 189.268 18.4615V23.6687H187.264V17.4C187.264 16.629 187.241 15.7928 187.193 14.8877H188.951L189.044 16.2602H189.1C189.335 15.8338 189.682 15.4818 190.137 15.2006C190.681 14.8728 191.287 14.707 191.953 14.707C192.792 14.707 193.491 14.9715 194.047 15.5023C194.74 16.1522 195.084 17.1225 195.084 18.4113V23.6706V23.6706Z" fill="white"/>
<path d="M208.556 16.3544H206.352V20.6192C206.352 21.7031 206.743 22.2451 207.519 22.2451C207.878 22.2451 208.176 22.2153 208.411 22.1538L208.463 23.6344C208.067 23.7796 207.548 23.8523 206.908 23.8523C206.117 23.8523 205.502 23.6176 205.057 23.1483C204.61 22.679 204.388 21.8893 204.388 20.7812V16.3544H203.072V14.8925H204.388V13.2834L206.35 12.7061V14.8906H208.554V16.3544H208.556Z" fill="white"/>
<path d="M219.151 23.6707H217.147V18.6796C217.147 17.1059 216.544 16.3181 215.335 16.3181C214.406 16.3181 213.772 16.7744 213.425 17.687C213.365 17.8788 213.331 18.1134 213.331 18.3891V23.6689H211.331V10.8633H213.331V16.1542H213.369C213.999 15.1914 214.903 14.7109 216.074 14.7109C216.903 14.7109 217.589 14.9754 218.133 15.5061C218.811 16.1673 219.151 17.1506 219.151 18.4505V23.6707V23.6707Z" fill="white"/>
<path d="M230.081 18.8651C230.081 19.2153 230.055 19.5095 230.007 19.7498H224.003C224.03 20.6176 224.317 21.2788 224.873 21.7369C225.381 22.1466 226.036 22.3515 226.838 22.3515C227.726 22.3515 228.536 22.2137 229.266 21.9362L229.579 23.292C228.725 23.6533 227.721 23.8339 226.557 23.8339C225.163 23.8339 224.065 23.4335 223.27 22.6327C222.472 21.8319 222.076 20.7573 222.076 19.4089C222.076 18.0848 222.445 16.9823 223.188 16.1033C223.963 15.1646 225.012 14.6953 226.336 14.6953C227.631 14.6953 228.614 15.1646 229.279 16.1033C229.816 16.8482 230.081 17.7701 230.081 18.8651ZM228.171 18.3604C228.187 17.7812 228.055 17.2821 227.784 16.8612C227.436 16.3193 226.907 16.0474 226.191 16.0474C225.537 16.0474 225.004 16.3118 224.598 16.8426C224.265 17.2654 224.068 17.7701 224.003 18.3604H228.171Z" fill="white"/>
</svg>
