<svg width="560" height="313" viewBox="0 0 560 313" fill="none" xmlns="http://www.w3.org/2000/svg">
<g filter="url(#filter0_d_1301_9681)">
<rect x="10" width="540" height="293" rx="20" fill="white"/>
</g>
<path d="M390.526 112H328.474C309.434 112 294 127.67 294 147C294 166.33 309.434 182 328.474 182H390.526C409.566 182 425 166.33 425 147C425 127.67 409.566 112 390.526 112Z" fill="#96DB5F"/>
<path d="M385.99 139.448V157.844H389.217V139.448H385.99ZM381.44 148.884H393.878V150.004H381.44V148.884ZM381.44 146.056H393.878V147.176H381.44V146.056ZM378.406 143.928V152.132H397.049V143.928H378.406ZM375.427 133.036V135.668H400.138V133.036H375.427ZM375.345 153.168V155.632H400.111V153.168H375.345ZM379.619 140.792V142.948H395.863V140.792H379.619ZM381.467 131.524V136.984H384.749V131.524H381.467ZM390.651 131.524V136.984H393.933V131.524H390.651ZM375.703 137.376V142.444H378.627V139.756H396.829V142.444H399.89V137.376H375.703Z" fill="white"/>
<path d="M329.507 149.92V157.76H332.789V149.92H329.507ZM328.487 140.848C327.439 142.08 325.674 143.732 324.212 144.74L326.446 146C327.908 145.104 329.783 143.648 331.466 142.276L328.487 140.848ZM334.306 142.36C331.769 144.6 327.632 147.428 324.378 149.136L326.474 150.648C329.756 149.024 333.975 146.42 337.202 143.984L334.306 142.36ZM321.234 145.384C323.33 146.532 325.977 148.268 327.218 149.444L329.535 147.4C328.156 146.196 325.398 144.572 323.385 143.536L321.234 145.384ZM335.492 147.092C337.754 148.576 340.484 150.816 341.725 152.328L344.207 150.452C342.828 148.884 340.015 146.784 337.809 145.384L335.492 147.092ZM334.527 153.336C336.623 154.456 339.408 156.164 340.732 157.284L343.324 155.38C341.863 154.232 338.995 152.636 336.954 151.628L334.527 153.336ZM319.083 148.884L319.248 151.544C324.709 151.46 333.12 151.264 340.98 151.04L341.118 148.548C333.231 148.716 324.571 148.856 319.083 148.884ZM324.791 151.712C323.302 153.056 320.792 154.372 318.448 155.184C319.165 155.716 320.351 156.836 320.93 157.48C323.219 156.416 326.032 154.68 327.825 152.888L324.791 151.712ZM329.507 131.496V141.52H332.817V131.496H329.507ZM320.489 133.036V135.444H342.304V133.036H320.489ZM321.923 136.536V138.916H340.87V136.536H321.923ZM319 140.008V142.556H343.545V140.008H319Z" fill="white"/>
<path d="M390.324 179.408C408.056 179.408 422.432 164.898 422.432 147C422.432 129.102 408.056 114.593 390.324 114.593C372.591 114.593 358.216 129.102 358.216 147C358.216 164.898 372.591 179.408 390.324 179.408Z" fill="white"/>
<g clip-path="url(#clip0_1301_9681)">
<path d="M169.474 182H231.526C250.566 182 266 166.33 266 147C266 127.67 250.566 112 231.526 112L169.474 112C150.434 112 135 127.67 135 147C135 166.33 150.434 182 169.474 182Z" fill="#FACA0F"/>
<path d="M226.99 139.448V157.844H230.217V139.448H226.99ZM222.44 148.884H234.878V150.004H222.44V148.884ZM222.44 146.056H234.878V147.176H222.44V146.056ZM219.406 143.928V152.132H238.049V143.928H219.406ZM216.427 133.036V135.668H241.138V133.036H216.427ZM216.345 153.168V155.632H241.111V153.168H216.345ZM220.619 140.792V142.948H236.863V140.792H220.619ZM222.467 131.524V136.984H225.749V131.524H222.467ZM231.651 131.524V136.984H234.933V131.524H231.651ZM216.703 137.376V142.444H219.627V139.756H237.829V142.444H240.89V137.376H216.703Z" fill="white"/>
<path d="M170.507 149.92V157.76H173.789V149.92H170.507ZM169.487 140.848C168.439 142.08 166.674 143.732 165.212 144.74L167.446 146C168.908 145.104 170.783 143.648 172.466 142.276L169.487 140.848ZM175.306 142.36C172.769 144.6 168.632 147.428 165.378 149.136L167.474 150.648C170.756 149.024 174.975 146.42 178.202 143.984L175.306 142.36ZM162.234 145.384C164.33 146.532 166.977 148.268 168.218 149.444L170.535 147.4C169.156 146.196 166.398 144.572 164.385 143.536L162.234 145.384ZM176.492 147.092C178.754 148.576 181.484 150.816 182.725 152.328L185.207 150.452C183.828 148.884 181.015 146.784 178.809 145.384L176.492 147.092ZM175.527 153.336C177.623 154.456 180.408 156.164 181.732 157.284L184.324 155.38C182.863 154.232 179.995 152.636 177.954 151.628L175.527 153.336ZM160.083 148.884L160.248 151.544C165.709 151.46 174.12 151.264 181.98 151.04L182.118 148.548C174.231 148.716 165.571 148.856 160.083 148.884ZM165.791 151.712C164.302 153.056 161.792 154.372 159.448 155.184C160.165 155.716 161.351 156.836 161.93 157.48C164.219 156.416 167.032 154.68 168.825 152.888L165.791 151.712ZM170.507 131.496V141.52H173.817V131.496H170.507ZM161.489 133.036V135.444H183.304V133.036H161.489ZM162.923 136.536V138.916H181.87V136.536H162.923ZM160 140.008V142.556H184.545V140.008H160Z" fill="white"/>
<path d="M169.676 114.592C151.944 114.592 137.568 129.102 137.568 147C137.568 164.898 151.944 179.407 169.676 179.407C187.409 179.407 201.784 164.898 201.784 147C201.784 129.102 187.409 114.592 169.676 114.592Z" fill="white"/>
</g>
<defs>
<filter id="filter0_d_1301_9681" x="0" y="0" width="560" height="313" filterUnits="userSpaceOnUse" color-interpolation-filters="sRGB">
<feFlood flood-opacity="0" result="BackgroundImageFix"/>
<feColorMatrix in="SourceAlpha" type="matrix" values="0 0 0 0 0 0 0 0 0 0 0 0 0 0 0 0 0 0 127 0" result="hardAlpha"/>
<feOffset dy="10"/>
<feGaussianBlur stdDeviation="5"/>
<feComposite in2="hardAlpha" operator="out"/>
<feColorMatrix type="matrix" values="0 0 0 0 0 0 0 0 0 0 0 0 0 0 0 0 0 0 0.25 0"/>
<feBlend mode="normal" in2="BackgroundImageFix" result="effect1_dropShadow_1301_9681"/>
<feBlend mode="normal" in="SourceGraphic" in2="effect1_dropShadow_1301_9681" result="shape"/>
</filter>
<clipPath id="clip0_1301_9681">
<rect width="131" height="70" fill="white" transform="translate(135 112)"/>
</clipPath>
</defs>
</svg>
